G04*
G04 #@! TF.GenerationSoftware,Altium Limited,Altium Designer,21.2.1 (34)*
G04*
G04 Layer_Color=255*
%FSTAX24Y24*%
%MOIN*%
G70*
G04*
G04 #@! TF.SameCoordinates,F2E00263-BE93-4D19-96D2-DD2F20D6CEC5*
G04*
G04*
G04 #@! TF.FilePolarity,Positive*
G04*
G01*
G75*
%ADD18R,0.0421X0.1083*%
%ADD19R,0.3280X0.2752*%
%ADD20R,0.0630X0.1260*%
%ADD21R,0.0984X0.0630*%
%ADD22R,0.0787X0.0551*%
%ADD23R,0.0630X0.0787*%
%ADD24R,0.0315X0.0709*%
%ADD25O,0.0217X0.0787*%
%ADD26R,0.0335X0.0472*%
%ADD27R,0.0472X0.0551*%
%ADD28R,0.0394X0.0945*%
%ADD29R,0.1299X0.0945*%
%ADD30R,0.3937X0.2362*%
%ADD31R,0.0551X0.0472*%
%ADD32R,0.1043X0.0689*%
%ADD33R,0.0500X0.0394*%
%ADD34R,0.0472X0.0787*%
%ADD35R,0.0550X0.0500*%
%ADD36R,0.0236X0.0453*%
%ADD37R,0.0984X0.0669*%
%ADD75R,0.1600X0.1000*%
%ADD76R,0.1000X0.1600*%
%ADD77C,0.0630*%
%ADD78R,0.0630X0.0630*%
%ADD79C,0.1575*%
%ADD80R,0.0598X0.0598*%
%ADD81C,0.0598*%
%ADD82R,0.0630X0.0630*%
%ADD83C,0.0600*%
%ADD84R,0.0600X0.0600*%
%ADD85O,0.0630X0.0787*%
D18*
X016561Y042787D02*
D03*
X017231D02*
D03*
X0179D02*
D03*
X018569D02*
D03*
X019239D02*
D03*
D19*
X0179Y047D02*
D03*
D20*
X01325Y047884D02*
D03*
Y045916D02*
D03*
X0275Y041716D02*
D03*
Y043684D02*
D03*
D21*
X031439Y04335D02*
D03*
X030061D02*
D03*
D22*
X012006Y0306D02*
D03*
X01425D02*
D03*
D23*
X016533Y025041D02*
D03*
X011348Y025435D02*
D03*
D24*
X013852Y026557D02*
D03*
X014285Y026714D02*
D03*
X013419Y026478D02*
D03*
X012986Y026557D02*
D03*
X012553Y026478D02*
D03*
X01212Y026557D02*
D03*
X011687D02*
D03*
X014719D02*
D03*
D25*
X0549Y043563D02*
D03*
X0544D02*
D03*
X0539D02*
D03*
X0534D02*
D03*
X0529D02*
D03*
X0524D02*
D03*
X0519D02*
D03*
X0514D02*
D03*
X0549Y041437D02*
D03*
X0544D02*
D03*
X0539D02*
D03*
X0534D02*
D03*
X0529D02*
D03*
X0524D02*
D03*
X0519D02*
D03*
X0514D02*
D03*
D26*
X054634Y047442D02*
D03*
X055392Y04744D02*
D03*
X05502Y046458D02*
D03*
X052658Y047442D02*
D03*
X053416Y04744D02*
D03*
X053044Y046458D02*
D03*
X050584Y047442D02*
D03*
X051342Y04744D02*
D03*
X05097Y046458D02*
D03*
D27*
X050728Y048426D02*
D03*
X051476D02*
D03*
X051472Y045324D02*
D03*
X050724D02*
D03*
X053547D02*
D03*
X052799D02*
D03*
X055522D02*
D03*
X054774D02*
D03*
X054778Y048426D02*
D03*
X055526D02*
D03*
X052802D02*
D03*
X05355D02*
D03*
X044172Y026974D02*
D03*
X043424D02*
D03*
X031126Y040999D02*
D03*
X030378D02*
D03*
D28*
X029694Y046008D02*
D03*
X0306D02*
D03*
X031506D02*
D03*
D29*
X0306Y048292D02*
D03*
D30*
X023161Y040327D02*
D03*
X0232Y0445D02*
D03*
D31*
X054124Y036426D02*
D03*
Y035678D02*
D03*
X016324Y032452D02*
D03*
Y0332D02*
D03*
X014774D02*
D03*
Y032452D02*
D03*
X01315Y0332D02*
D03*
Y032452D02*
D03*
X011424D02*
D03*
Y0332D02*
D03*
X028324Y038839D02*
D03*
Y039587D02*
D03*
X028101Y047549D02*
D03*
Y046801D02*
D03*
X02665Y046802D02*
D03*
Y04755D02*
D03*
X061124Y035628D02*
D03*
Y036376D02*
D03*
D32*
X057954Y0314D02*
D03*
X059646D02*
D03*
X050854D02*
D03*
X052546D02*
D03*
D33*
X0562Y03335D02*
D03*
Y03255D02*
D03*
X04925Y0334D02*
D03*
Y0326D02*
D03*
D34*
X0492Y035349D02*
D03*
Y036451D02*
D03*
X0562Y035249D02*
D03*
Y036351D02*
D03*
D35*
X02685Y03875D02*
D03*
Y03965D02*
D03*
D36*
X054748Y03375D02*
D03*
X054D02*
D03*
X054374Y032864D02*
D03*
X061774Y033643D02*
D03*
X061026D02*
D03*
X0614Y032757D02*
D03*
D37*
X018737Y0406D02*
D03*
X017163D02*
D03*
D75*
X01226Y04048D02*
D03*
D76*
X01105Y04245D02*
D03*
X01345Y04246D02*
D03*
D77*
X0308Y0394D02*
D03*
Y0384D02*
D03*
X0149Y03535D02*
D03*
X0139D02*
D03*
X0129D02*
D03*
X0119D02*
D03*
X0413Y02695D02*
D03*
X04765D02*
D03*
X04665D02*
D03*
X0364D02*
D03*
X0354D02*
D03*
X0581D02*
D03*
X0571D02*
D03*
X03405Y04355D02*
D03*
Y04255D02*
D03*
D78*
X0308Y0374D02*
D03*
X03405Y04455D02*
D03*
D79*
X0112Y0488D02*
D03*
X0613Y0241D02*
D03*
X06135Y04875D02*
D03*
D80*
X0373Y031808D02*
D03*
X0308Y02705D02*
D03*
X0341Y03695D02*
D03*
X0473Y031808D02*
D03*
D81*
X0373Y032808D02*
D03*
Y033808D02*
D03*
Y034808D02*
D03*
Y035808D02*
D03*
Y036808D02*
D03*
Y037808D02*
D03*
Y038808D02*
D03*
Y039808D02*
D03*
Y040808D02*
D03*
Y041808D02*
D03*
Y042808D02*
D03*
Y043808D02*
D03*
Y044808D02*
D03*
Y045808D02*
D03*
X0308Y02805D02*
D03*
Y02905D02*
D03*
Y03005D02*
D03*
X0341Y03795D02*
D03*
Y03895D02*
D03*
Y03995D02*
D03*
X0473Y045808D02*
D03*
Y044808D02*
D03*
Y043808D02*
D03*
Y042808D02*
D03*
Y041808D02*
D03*
Y040808D02*
D03*
Y039808D02*
D03*
Y038808D02*
D03*
Y037808D02*
D03*
Y036808D02*
D03*
Y035808D02*
D03*
Y034808D02*
D03*
Y033808D02*
D03*
Y032808D02*
D03*
D82*
X0159Y03535D02*
D03*
X0423Y02695D02*
D03*
X04865D02*
D03*
X0374D02*
D03*
X0591D02*
D03*
D83*
X05775Y03685D02*
D03*
X05975Y03685D02*
D03*
X05775Y03585D02*
D03*
X05975D02*
D03*
X05775Y03485D02*
D03*
X05975Y03485D02*
D03*
Y03285D02*
D03*
X05069Y03686D02*
D03*
X05269Y03686D02*
D03*
X05069Y03586D02*
D03*
X05269D02*
D03*
X05069Y03486D02*
D03*
X05269Y03486D02*
D03*
Y03286D02*
D03*
D84*
X05775Y03285D02*
D03*
X05069Y03286D02*
D03*
D85*
X02395Y0475D02*
D03*
X02295D02*
D03*
X02195D02*
D03*
M02*
