G04*
G04 #@! TF.GenerationSoftware,Altium Limited,Altium Designer,21.2.1 (34)*
G04*
G04 Layer_Color=255*
%FSTAX24Y24*%
%MOIN*%
G70*
G04*
G04 #@! TF.SameCoordinates,F2E00263-BE93-4D19-96D2-DD2F20D6CEC5*
G04*
G04*
G04 #@! TF.FilePolarity,Positive*
G04*
G01*
G75*
%ADD75R,0.1600X0.1000*%
%ADD76R,0.1000X0.1600*%
%ADD77C,0.0630*%
%ADD78R,0.0630X0.0630*%
%ADD79C,0.1575*%
%ADD80R,0.0598X0.0598*%
%ADD81C,0.0598*%
%ADD82R,0.0630X0.0630*%
%ADD83C,0.0600*%
%ADD84R,0.0600X0.0600*%
%ADD85O,0.0630X0.0787*%
D75*
X01226Y04048D02*
D03*
D76*
X01105Y04245D02*
D03*
X01345Y04246D02*
D03*
D77*
X0308Y0394D02*
D03*
Y0384D02*
D03*
X0149Y03535D02*
D03*
X0139D02*
D03*
X0129D02*
D03*
X0119D02*
D03*
X0413Y02695D02*
D03*
X04765D02*
D03*
X04665D02*
D03*
X0364D02*
D03*
X0354D02*
D03*
X0581D02*
D03*
X0571D02*
D03*
X03405Y04355D02*
D03*
Y04255D02*
D03*
D78*
X0308Y0374D02*
D03*
X03405Y04455D02*
D03*
D79*
X0112Y0488D02*
D03*
X0613Y0241D02*
D03*
X06135Y04875D02*
D03*
D80*
X0373Y031808D02*
D03*
X0308Y02705D02*
D03*
X0341Y03695D02*
D03*
X0473Y031808D02*
D03*
D81*
X0373Y032808D02*
D03*
Y033808D02*
D03*
Y034808D02*
D03*
Y035808D02*
D03*
Y036808D02*
D03*
Y037808D02*
D03*
Y038808D02*
D03*
Y039808D02*
D03*
Y040808D02*
D03*
Y041808D02*
D03*
Y042808D02*
D03*
Y043808D02*
D03*
Y044808D02*
D03*
Y045808D02*
D03*
X0308Y02805D02*
D03*
Y02905D02*
D03*
Y03005D02*
D03*
X0341Y03795D02*
D03*
Y03895D02*
D03*
Y03995D02*
D03*
X0473Y045808D02*
D03*
Y044808D02*
D03*
Y043808D02*
D03*
Y042808D02*
D03*
Y041808D02*
D03*
Y040808D02*
D03*
Y039808D02*
D03*
Y038808D02*
D03*
Y037808D02*
D03*
Y036808D02*
D03*
Y035808D02*
D03*
Y034808D02*
D03*
Y033808D02*
D03*
Y032808D02*
D03*
D82*
X0159Y03535D02*
D03*
X0423Y02695D02*
D03*
X04865D02*
D03*
X0374D02*
D03*
X0591D02*
D03*
D83*
X05775Y03685D02*
D03*
X05975Y03685D02*
D03*
X05775Y03585D02*
D03*
X05975D02*
D03*
X05775Y03485D02*
D03*
X05975Y03485D02*
D03*
Y03285D02*
D03*
X05069Y03686D02*
D03*
X05269Y03686D02*
D03*
X05069Y03586D02*
D03*
X05269D02*
D03*
X05069Y03486D02*
D03*
X05269Y03486D02*
D03*
Y03286D02*
D03*
D84*
X05775Y03285D02*
D03*
X05069Y03286D02*
D03*
D85*
X02395Y0475D02*
D03*
X02295D02*
D03*
X02195D02*
D03*
M02*
