G04*
G04 #@! TF.GenerationSoftware,Altium Limited,Altium Designer,21.2.1 (34)*
G04*
G04 Layer_Color=128*
%FSTAX24Y24*%
%MOIN*%
G70*
G04*
G04 #@! TF.SameCoordinates,F2E00263-BE93-4D19-96D2-DD2F20D6CEC5*
G04*
G04*
G04 #@! TF.FilePolarity,Positive*
G04*
G01*
G75*
%ADD93C,0.0020*%
D93*
X01201Y04048D02*
X01251D01*
X01226Y04023D02*
Y04073D01*
X0108Y04245D02*
X0113D01*
X01105Y0422D02*
Y0427D01*
X0132Y04246D02*
X0137D01*
X01345Y04221D02*
Y04271D01*
X030583Y0394D02*
X031017D01*
X0308Y039183D02*
Y039617D01*
X030583Y0384D02*
X031017D01*
X0308Y038183D02*
Y038617D01*
X030583Y0374D02*
X031017D01*
X0308Y037183D02*
Y037617D01*
X01057Y0488D02*
X01183D01*
X0112Y04817D02*
Y04943D01*
X06067Y0241D02*
X06193D01*
X0613Y02347D02*
Y02473D01*
X06072Y04875D02*
X06198D01*
X06135Y04812D02*
Y04938D01*
X037099Y031808D02*
X037501D01*
X0373Y031607D02*
Y032009D01*
X037099Y032808D02*
X037501D01*
X0373Y032607D02*
Y033009D01*
X037099Y033808D02*
X037501D01*
X0373Y033607D02*
Y034009D01*
X037099Y034808D02*
X037501D01*
X0373Y034607D02*
Y035009D01*
X037099Y035808D02*
X037501D01*
X0373Y035607D02*
Y036009D01*
X037099Y036808D02*
X037501D01*
X0373Y036607D02*
Y037009D01*
X037099Y037808D02*
X037501D01*
X0373Y037607D02*
Y038009D01*
X037099Y038808D02*
X037501D01*
X0373Y038607D02*
Y039009D01*
X037099Y039808D02*
X037501D01*
X0373Y039607D02*
Y040009D01*
X037099Y040808D02*
X037501D01*
X0373Y040607D02*
Y041009D01*
X037099Y041808D02*
X037501D01*
X0373Y041607D02*
Y042009D01*
X037099Y042808D02*
X037501D01*
X0373Y042607D02*
Y043009D01*
X037099Y043808D02*
X037501D01*
X0373Y043607D02*
Y044009D01*
X037099Y044808D02*
X037501D01*
X0373Y044607D02*
Y045009D01*
X037099Y045808D02*
X037501D01*
X0373Y045607D02*
Y046009D01*
X015683Y03535D02*
X016117D01*
X0159Y035133D02*
Y035567D01*
X014683Y03535D02*
X015117D01*
X0149Y035133D02*
Y035567D01*
X013683Y03535D02*
X014117D01*
X0139Y035133D02*
Y035567D01*
X012683Y03535D02*
X013117D01*
X0129Y035133D02*
Y035567D01*
X011683Y03535D02*
X012117D01*
X0119Y035133D02*
Y035567D01*
X042083Y02695D02*
X042517D01*
X0423Y026733D02*
Y027167D01*
X041083Y02695D02*
X041517D01*
X0413Y026733D02*
Y027167D01*
X048433Y02695D02*
X048867D01*
X04865Y026733D02*
Y027167D01*
X047433Y02695D02*
X047867D01*
X04765Y026733D02*
Y027167D01*
X046433Y02695D02*
X046867D01*
X04665Y026733D02*
Y027167D01*
X037183Y02695D02*
X037617D01*
X0374Y026733D02*
Y027167D01*
X036183Y02695D02*
X036617D01*
X0364Y026733D02*
Y027167D01*
X035183Y02695D02*
X035617D01*
X0354Y026733D02*
Y027167D01*
X058883Y02695D02*
X059317D01*
X0591Y026733D02*
Y027167D01*
X057883Y02695D02*
X058317D01*
X0581Y026733D02*
Y027167D01*
X056883Y02695D02*
X057317D01*
X0571Y026733D02*
Y027167D01*
X030599Y02705D02*
X031001D01*
X0308Y026849D02*
Y027251D01*
X030599Y02805D02*
X031001D01*
X0308Y027849D02*
Y028251D01*
X030599Y02905D02*
X031001D01*
X0308Y028849D02*
Y029251D01*
X030599Y03005D02*
X031001D01*
X0308Y029849D02*
Y030251D01*
X0576Y03685D02*
X0579D01*
X05775Y0367D02*
Y037D01*
X0596Y03685D02*
X0599D01*
X05975Y0367D02*
Y037D01*
X0576Y03585D02*
X0579D01*
X05775Y0357D02*
Y036D01*
X0596Y03585D02*
X0599D01*
X05975Y0357D02*
Y036D01*
X0576Y03485D02*
X0579D01*
X05775Y0347D02*
Y035D01*
X0596Y03485D02*
X0599D01*
X05975Y0347D02*
Y035D01*
X0576Y03285D02*
X0579D01*
X05775Y0327D02*
Y033D01*
X0596Y03285D02*
X0599D01*
X05975Y0327D02*
Y033D01*
X05054Y03686D02*
X05084D01*
X05069Y03671D02*
Y03701D01*
X05254Y03686D02*
X05284D01*
X05269Y03671D02*
Y03701D01*
X05054Y03586D02*
X05084D01*
X05069Y03571D02*
Y03601D01*
X05254Y03586D02*
X05284D01*
X05269Y03571D02*
Y03601D01*
X05054Y03486D02*
X05084D01*
X05069Y03471D02*
Y03501D01*
X05254Y03486D02*
X05284D01*
X05269Y03471D02*
Y03501D01*
X05054Y03286D02*
X05084D01*
X05069Y03271D02*
Y03301D01*
X05254Y03286D02*
X05284D01*
X05269Y03271D02*
Y03301D01*
X033899Y03695D02*
X034301D01*
X0341Y036749D02*
Y037151D01*
X033899Y03795D02*
X034301D01*
X0341Y037749D02*
Y038151D01*
X033899Y03895D02*
X034301D01*
X0341Y038749D02*
Y039151D01*
X033899Y03995D02*
X034301D01*
X0341Y039749D02*
Y040151D01*
X033833Y04455D02*
X034267D01*
X03405Y044333D02*
Y044767D01*
X033833Y04355D02*
X034267D01*
X03405Y043333D02*
Y043767D01*
X033833Y04255D02*
X034267D01*
X03405Y042333D02*
Y042767D01*
X023793Y0475D02*
X024107D01*
X02395Y047343D02*
Y047657D01*
X022793Y0475D02*
X023107D01*
X02295Y047343D02*
Y047657D01*
X021793Y0475D02*
X022107D01*
X02195Y047343D02*
Y047657D01*
X047099Y045808D02*
X047501D01*
X0473Y045607D02*
Y046009D01*
X047099Y044808D02*
X047501D01*
X0473Y044607D02*
Y045009D01*
X047099Y043808D02*
X047501D01*
X0473Y043607D02*
Y044009D01*
X047099Y042808D02*
X047501D01*
X0473Y042607D02*
Y043009D01*
X047099Y041808D02*
X047501D01*
X0473Y041607D02*
Y042009D01*
X047099Y040808D02*
X047501D01*
X0473Y040607D02*
Y041009D01*
X047099Y039808D02*
X047501D01*
X0473Y039607D02*
Y040009D01*
X047099Y038808D02*
X047501D01*
X0473Y038607D02*
Y039009D01*
X047099Y037808D02*
X047501D01*
X0473Y037607D02*
Y038009D01*
X047099Y036808D02*
X047501D01*
X0473Y036607D02*
Y037009D01*
X047099Y035808D02*
X047501D01*
X0473Y035607D02*
Y036009D01*
X047099Y034808D02*
X047501D01*
X0473Y034607D02*
Y035009D01*
X047099Y033808D02*
X047501D01*
X0473Y033607D02*
Y034009D01*
X047099Y032808D02*
X047501D01*
X0473Y032607D02*
Y033009D01*
X047099Y031808D02*
X047501D01*
X0473Y031607D02*
Y032009D01*
X008768Y04242D02*
X009712D01*
X00924Y041948D02*
Y042892D01*
X05191Y049D02*
X05219D01*
X05205Y04886D02*
Y04914D01*
X051794Y047634D02*
X052074D01*
X051934Y047494D02*
Y047774D01*
X045525Y045448D02*
X045805D01*
X045665Y045308D02*
Y045588D01*
X02171Y0311D02*
X02199D01*
X02185Y03096D02*
Y03124D01*
X02856Y04275D02*
X02884D01*
X0287Y04261D02*
Y04289D01*
X01976Y0391D02*
X02004D01*
X0199Y03896D02*
Y03924D01*
X02206Y038375D02*
X02234D01*
X0222Y038235D02*
Y038515D01*
X05041Y04395D02*
X05069D01*
X05055Y04381D02*
Y04409D01*
X05571Y0425D02*
X05599D01*
X05585Y04236D02*
Y04264D01*
X05521Y0371D02*
X05549D01*
X05535Y03696D02*
Y03724D01*
X05391Y0477D02*
X05419D01*
X05405Y04756D02*
Y04784D01*
X05191Y04595D02*
X05219D01*
X05205Y04581D02*
Y04609D01*
X05401Y0491D02*
X05429D01*
X05415Y04896D02*
Y04924D01*
X05396Y046D02*
X05424D01*
X0541Y04586D02*
Y04614D01*
X05606Y0477D02*
X05634D01*
X0562Y04756D02*
Y04784D01*
X04901Y03745D02*
X04929D01*
X04915Y03731D02*
Y03759D01*
X04616Y0353D02*
X04644D01*
X0463Y03516D02*
Y03544D01*
X03521Y0468D02*
X03549D01*
X03535Y04666D02*
Y04694D01*
X04276Y04085D02*
X04304D01*
X0429Y04071D02*
Y04099D01*
X04496Y0466D02*
X04524D01*
X0451Y04646D02*
Y04674D01*
X032285Y041675D02*
X032565D01*
X032425Y041535D02*
Y041815D01*
X03171Y0389D02*
X03199D01*
X03185Y03876D02*
Y03904D01*
X03211Y0353D02*
X03239D01*
X03225Y03516D02*
Y03544D01*
X01541Y041D02*
X01569D01*
X01555Y04086D02*
Y04114D01*
X01541Y0385D02*
X01569D01*
X01555Y03836D02*
Y03864D01*
X02856Y04595D02*
X02884D01*
X0287Y04581D02*
Y04609D01*
X03136Y045D02*
X03164D01*
X0315Y04486D02*
Y04514D01*
X02956Y045D02*
X02984D01*
X0297Y04486D02*
Y04514D01*
X02936Y0396D02*
X02964D01*
X0295Y03946D02*
Y03974D01*
X03216Y034D02*
X03244D01*
X0323Y03386D02*
Y03414D01*
X04491Y0402D02*
X04519D01*
X04505Y04006D02*
Y04034D01*
X04941Y0477D02*
X04969D01*
X04955Y04756D02*
Y04784D01*
X04951Y0459D02*
X04979D01*
X04965Y04576D02*
Y04604D01*
X05061Y0389D02*
X05089D01*
X05075Y03876D02*
Y03904D01*
X05156Y03685D02*
X05184D01*
X0517Y03671D02*
Y03699D01*
X04206Y03285D02*
X04234D01*
X0422Y03271D02*
Y03299D01*
X04886Y0448D02*
X04914D01*
X049Y04466D02*
Y04494D01*
X05926Y03915D02*
X05954D01*
X0594Y03901D02*
Y03929D01*
X03951Y03575D02*
X03979D01*
X03965Y03561D02*
Y03589D01*
X02761Y0332D02*
X02789D01*
X02775Y03306D02*
Y03334D01*
X01696Y03275D02*
X01724D01*
X0171Y03261D02*
Y03289D01*
X01226Y029D02*
X01254D01*
X0124Y02886D02*
Y02914D01*
X01216Y03275D02*
X01244D01*
X0123Y03261D02*
Y03289D01*
X01381Y03275D02*
X01409D01*
X01395Y03261D02*
Y03289D01*
X01541Y03275D02*
X01569D01*
X01555Y03261D02*
Y03289D01*
M02*
