G04*
G04 #@! TF.GenerationSoftware,Altium Limited,Altium Designer,21.2.1 (34)*
G04*
G04 Layer_Color=8388736*
%FSTAX24Y24*%
%MOIN*%
G70*
G04*
G04 #@! TF.SameCoordinates,F2E00263-BE93-4D19-96D2-DD2F20D6CEC5*
G04*
G04*
G04 #@! TF.FilePolarity,Negative*
G04*
G01*
G75*
%ADD38R,0.0501X0.1163*%
%ADD39R,0.3360X0.2832*%
%ADD40R,0.0710X0.1340*%
%ADD41R,0.1064X0.0710*%
%ADD42R,0.0867X0.0631*%
%ADD43R,0.0710X0.0867*%
%ADD44R,0.0395X0.0789*%
%ADD45O,0.0297X0.0867*%
%ADD46R,0.0415X0.0552*%
%ADD47R,0.0552X0.0631*%
%ADD48R,0.0474X0.1025*%
%ADD49R,0.1379X0.1025*%
%ADD50R,0.4017X0.2442*%
%ADD51R,0.0631X0.0552*%
%ADD52R,0.1123X0.0769*%
%ADD53R,0.0580X0.0474*%
%ADD54R,0.0552X0.0867*%
%ADD55R,0.0630X0.0580*%
%ADD56R,0.0316X0.0533*%
%ADD57R,0.1064X0.0749*%
%ADD58R,0.1680X0.1080*%
%ADD59R,0.1080X0.1680*%
%ADD60C,0.0710*%
%ADD61R,0.0710X0.0710*%
%ADD62C,0.1655*%
%ADD63R,0.0678X0.0678*%
%ADD64C,0.0678*%
%ADD65R,0.0710X0.0710*%
%ADD66C,0.0680*%
%ADD67R,0.0680X0.0680*%
%ADD68O,0.0710X0.0867*%
%ADD69C,0.1025*%
%ADD70C,0.0580*%
G36*
X020031Y048416D02*
X020036Y048415D01*
X020041Y048413D01*
X020046Y048411D01*
X02005Y048408D01*
X020054Y048404D01*
X020058Y048401D01*
X020061Y048396D01*
X020063Y048391D01*
X020065Y048387D01*
X020066Y048381D01*
X020066Y048376D01*
Y047628D01*
X020066Y047623D01*
X020065Y047618D01*
X020063Y047613D01*
X020061Y047608D01*
X020058Y047604D01*
X020054Y0476D01*
X02005Y047596D01*
X020046Y047593D01*
X020041Y047591D01*
X020036Y047589D01*
X020031Y047588D01*
X020026Y047588D01*
X01958D01*
Y045624D01*
X01958Y045619D01*
X019578Y045614D01*
X019577Y045609D01*
X019574Y045604D01*
X019572Y0456D01*
X019568Y045596D01*
X019564Y045592D01*
X01956Y045589D01*
X019555Y045587D01*
X01955Y045585D01*
X019545Y045584D01*
X01954Y045584D01*
X01626D01*
X016255Y045584D01*
X01625Y045585D01*
X016245Y045587D01*
X01624Y045589D01*
X016236Y045592D01*
X016232Y045596D01*
X016228Y0456D01*
X016226Y045604D01*
X016223Y045609D01*
X016222Y045614D01*
X01622Y045619D01*
X01622Y045624D01*
Y047588D01*
X015774D01*
X015769Y047588D01*
X015764Y047589D01*
X015759Y047591D01*
X015754Y047593D01*
X01575Y047596D01*
X015746Y0476D01*
X015742Y047604D01*
X015739Y047608D01*
X015737Y047613D01*
X015735Y047618D01*
X015734Y047623D01*
X015734Y047628D01*
Y048376D01*
X015734Y048381D01*
X015735Y048387D01*
X015737Y048391D01*
X015739Y048396D01*
X015742Y048401D01*
X015746Y048404D01*
X01575Y048408D01*
X015754Y048411D01*
X015759Y048413D01*
X015764Y048415D01*
X015769Y048416D01*
X015774Y048416D01*
X020026D01*
X020031Y048416D01*
D02*
G37*
D38*
X016561Y042787D02*
D03*
X017231D02*
D03*
X0179D02*
D03*
X018569D02*
D03*
X019239D02*
D03*
D39*
X0179Y047D02*
D03*
D40*
X01325Y047884D02*
D03*
Y045916D02*
D03*
X0275Y041716D02*
D03*
Y043684D02*
D03*
D41*
X031439Y04335D02*
D03*
X030061D02*
D03*
D42*
X012006Y0306D02*
D03*
X01425D02*
D03*
D43*
X016533Y025041D02*
D03*
X011348Y025435D02*
D03*
D44*
X013852Y026557D02*
D03*
X014285Y026714D02*
D03*
X013419Y026478D02*
D03*
X012986Y026557D02*
D03*
X012553Y026478D02*
D03*
X01212Y026557D02*
D03*
X011687D02*
D03*
X014719D02*
D03*
D45*
X0549Y043563D02*
D03*
X0544D02*
D03*
X0539D02*
D03*
X0534D02*
D03*
X0529D02*
D03*
X0524D02*
D03*
X0519D02*
D03*
X0514D02*
D03*
X0549Y041437D02*
D03*
X0544D02*
D03*
X0539D02*
D03*
X0534D02*
D03*
X0529D02*
D03*
X0524D02*
D03*
X0519D02*
D03*
X0514D02*
D03*
D46*
X054634Y047442D02*
D03*
X055392Y04744D02*
D03*
X05502Y046458D02*
D03*
X052658Y047442D02*
D03*
X053416Y04744D02*
D03*
X053044Y046458D02*
D03*
X050584Y047442D02*
D03*
X051342Y04744D02*
D03*
X05097Y046458D02*
D03*
D47*
X050728Y048426D02*
D03*
X051476D02*
D03*
X051472Y045324D02*
D03*
X050724D02*
D03*
X053547D02*
D03*
X052799D02*
D03*
X055522D02*
D03*
X054774D02*
D03*
X054778Y048426D02*
D03*
X055526D02*
D03*
X052802D02*
D03*
X05355D02*
D03*
X044172Y026974D02*
D03*
X043424D02*
D03*
X031126Y040999D02*
D03*
X030378D02*
D03*
D48*
X029694Y046008D02*
D03*
X0306D02*
D03*
X031506D02*
D03*
D49*
X0306Y048292D02*
D03*
D50*
X023161Y040327D02*
D03*
X0232Y0445D02*
D03*
D51*
X054124Y036426D02*
D03*
Y035678D02*
D03*
X016324Y032452D02*
D03*
Y0332D02*
D03*
X014774D02*
D03*
Y032452D02*
D03*
X01315Y0332D02*
D03*
Y032452D02*
D03*
X011424D02*
D03*
Y0332D02*
D03*
X028324Y038839D02*
D03*
Y039587D02*
D03*
X028101Y047549D02*
D03*
Y046801D02*
D03*
X02665Y046802D02*
D03*
Y04755D02*
D03*
X061124Y035628D02*
D03*
Y036376D02*
D03*
D52*
X057954Y0314D02*
D03*
X059646D02*
D03*
X050854D02*
D03*
X052546D02*
D03*
D53*
X0562Y03335D02*
D03*
Y03255D02*
D03*
X04925Y0334D02*
D03*
Y0326D02*
D03*
D54*
X0492Y035349D02*
D03*
Y036451D02*
D03*
X0562Y035249D02*
D03*
Y036351D02*
D03*
D55*
X02685Y03875D02*
D03*
Y03965D02*
D03*
D56*
X054748Y03375D02*
D03*
X054D02*
D03*
X054374Y032864D02*
D03*
X061774Y033643D02*
D03*
X061026D02*
D03*
X0614Y032757D02*
D03*
D57*
X018737Y0406D02*
D03*
X017163D02*
D03*
D58*
X01226Y04048D02*
D03*
D59*
X01105Y04245D02*
D03*
X01345Y04246D02*
D03*
D60*
X0308Y0394D02*
D03*
Y0384D02*
D03*
X0149Y03535D02*
D03*
X0139D02*
D03*
X0129D02*
D03*
X0119D02*
D03*
X0413Y02695D02*
D03*
X04765D02*
D03*
X04665D02*
D03*
X0364D02*
D03*
X0354D02*
D03*
X0581D02*
D03*
X0571D02*
D03*
X03405Y04355D02*
D03*
Y04255D02*
D03*
D61*
X0308Y0374D02*
D03*
X03405Y04455D02*
D03*
D62*
X0112Y0488D02*
D03*
X0613Y0241D02*
D03*
X06135Y04875D02*
D03*
D63*
X0373Y031808D02*
D03*
X0308Y02705D02*
D03*
X0341Y03695D02*
D03*
X0473Y031808D02*
D03*
D64*
X0373Y032808D02*
D03*
Y033808D02*
D03*
Y034808D02*
D03*
Y035808D02*
D03*
Y036808D02*
D03*
Y037808D02*
D03*
Y038808D02*
D03*
Y039808D02*
D03*
Y040808D02*
D03*
Y041808D02*
D03*
Y042808D02*
D03*
Y043808D02*
D03*
Y044808D02*
D03*
Y045808D02*
D03*
X0308Y02805D02*
D03*
Y02905D02*
D03*
Y03005D02*
D03*
X0341Y03795D02*
D03*
Y03895D02*
D03*
Y03995D02*
D03*
X0473Y045808D02*
D03*
Y044808D02*
D03*
Y043808D02*
D03*
Y042808D02*
D03*
Y041808D02*
D03*
Y040808D02*
D03*
Y039808D02*
D03*
Y038808D02*
D03*
Y037808D02*
D03*
Y036808D02*
D03*
Y035808D02*
D03*
Y034808D02*
D03*
Y033808D02*
D03*
Y032808D02*
D03*
D65*
X0159Y03535D02*
D03*
X0423Y02695D02*
D03*
X04865D02*
D03*
X0374D02*
D03*
X0591D02*
D03*
D66*
X05775Y03685D02*
D03*
X05975Y03685D02*
D03*
X05775Y03585D02*
D03*
X05975D02*
D03*
X05775Y03485D02*
D03*
X05975Y03485D02*
D03*
Y03285D02*
D03*
X05069Y03686D02*
D03*
X05269Y03686D02*
D03*
X05069Y03586D02*
D03*
X05269D02*
D03*
X05069Y03486D02*
D03*
X05269Y03486D02*
D03*
Y03286D02*
D03*
D67*
X05775Y03285D02*
D03*
X05069Y03286D02*
D03*
D68*
X02395Y0475D02*
D03*
X02295D02*
D03*
X02195D02*
D03*
D69*
X00924Y04242D02*
D03*
D70*
X05205Y049D02*
D03*
X051934Y047634D02*
D03*
X045665Y045448D02*
D03*
X02185Y0311D02*
D03*
X0287Y04275D02*
D03*
X0199Y0391D02*
D03*
X0222Y038375D02*
D03*
X05055Y04395D02*
D03*
X05585Y0425D02*
D03*
X05535Y0371D02*
D03*
X05405Y0477D02*
D03*
X05205Y04595D02*
D03*
X05415Y0491D02*
D03*
X0541Y046D02*
D03*
X0562Y0477D02*
D03*
X04915Y03745D02*
D03*
X0463Y0353D02*
D03*
X03535Y0468D02*
D03*
X0429Y04085D02*
D03*
X0451Y0466D02*
D03*
X032425Y041675D02*
D03*
X03185Y0389D02*
D03*
X03225Y0353D02*
D03*
X01555Y041D02*
D03*
Y0385D02*
D03*
X0287Y04595D02*
D03*
X0315Y045D02*
D03*
X0297D02*
D03*
X0295Y0396D02*
D03*
X0323Y034D02*
D03*
X04505Y0402D02*
D03*
X04955Y0477D02*
D03*
X04965Y0459D02*
D03*
X05075Y0389D02*
D03*
X0517Y03685D02*
D03*
X0422Y03285D02*
D03*
X049Y0448D02*
D03*
X0594Y03915D02*
D03*
X03965Y03575D02*
D03*
X02775Y0332D02*
D03*
X0171Y03275D02*
D03*
X0124Y029D02*
D03*
X0123Y03275D02*
D03*
X01395D02*
D03*
X01555D02*
D03*
M02*
