G04*
G04 #@! TF.GenerationSoftware,Altium Limited,Altium Designer,21.2.1 (34)*
G04*
G04 Layer_Color=65535*
%FSTAX24Y24*%
%MOIN*%
G70*
G04*
G04 #@! TF.SameCoordinates,F2E00263-BE93-4D19-96D2-DD2F20D6CEC5*
G04*
G04*
G04 #@! TF.FilePolarity,Positive*
G04*
G01*
G75*
%ADD10C,0.0236*%
%ADD11C,0.0098*%
%ADD12C,0.0100*%
%ADD13C,0.0079*%
%ADD14C,0.0070*%
%ADD15C,0.0070*%
%ADD16C,0.0080*%
%ADD17C,0.0040*%
G36*
X03013Y0392D02*
X030077D01*
X029928Y039584D01*
X029984D01*
X030083Y039305D01*
Y039304D01*
X030084Y039303D01*
X030085Y039302D01*
X030086Y039299D01*
X030086Y039296D01*
X030087Y039293D01*
X03009Y039284D01*
X030093Y039275D01*
X030097Y039264D01*
X030103Y039242D01*
Y039243D01*
X030104Y039244D01*
X030105Y039246D01*
X030105Y039248D01*
X030107Y039254D01*
X03011Y039262D01*
X030112Y039272D01*
X030116Y039282D01*
X03012Y039293D01*
X030124Y039305D01*
X030228Y039584D01*
X03028D01*
X03013Y0392D01*
D02*
G37*
G36*
X029886Y039534D02*
X029733D01*
X029712Y03943D01*
X029713Y039431D01*
X029714Y039431D01*
X029715Y039433D01*
X029718Y039434D01*
X029722Y039436D01*
X029725Y039438D01*
X029734Y039443D01*
X029745Y039447D01*
X029758Y039451D01*
X029771Y039454D01*
X029778Y039455D01*
X02979D01*
X029793Y039454D01*
X029798Y039454D01*
X029803Y039453D01*
X029808Y039452D01*
X029814Y03945D01*
X029828Y039446D01*
X029835Y039444D01*
X029842Y03944D01*
X029849Y039436D01*
X029856Y039431D01*
X029863Y039426D01*
X02987Y03942D01*
X02987Y039419D01*
X029871Y039418D01*
X029873Y039416D01*
X029875Y039414D01*
X029878Y03941D01*
X029881Y039406D01*
X029884Y039401D01*
X029888Y039395D01*
X02989Y039389D01*
X029894Y039383D01*
X029896Y039375D01*
X029899Y039367D01*
X029901Y039359D01*
X029903Y039349D01*
X029904Y03934D01*
X029905Y03933D01*
Y039329D01*
Y039328D01*
Y039325D01*
X029904Y039321D01*
X029904Y039317D01*
X029903Y039312D01*
X029902Y039305D01*
X029901Y039299D01*
X029898Y039285D01*
X029892Y03927D01*
X029889Y039262D01*
X029884Y039255D01*
X02988Y039247D01*
X029874Y03924D01*
X029874Y039239D01*
X029873Y039238D01*
X02987Y039236D01*
X029868Y039233D01*
X029864Y039229D01*
X029859Y039225D01*
X029854Y039221D01*
X029848Y039217D01*
X029841Y039212D01*
X029833Y039208D01*
X029825Y039204D01*
X029816Y039201D01*
X029807Y039198D01*
X029796Y039196D01*
X029785Y039194D01*
X029773Y039193D01*
X029768D01*
X029764Y039194D01*
X02976Y039194D01*
X029755Y039195D01*
X029749Y039196D01*
X029743Y039197D01*
X029729Y039201D01*
X029715Y039206D01*
X029708Y039209D01*
X029701Y039213D01*
X029694Y039217D01*
X029687Y039222D01*
X029687Y039223D01*
X029686Y039223D01*
X029684Y039226D01*
X029682Y039228D01*
X029679Y039231D01*
X029677Y039234D01*
X029673Y039238D01*
X029671Y039243D01*
X029667Y039248D01*
X029664Y039254D01*
X029658Y039268D01*
X029653Y039283D01*
X029651Y039292D01*
X02965Y0393D01*
X029699Y039304D01*
Y039304D01*
Y039303D01*
X0297Y039301D01*
X029701Y039298D01*
X029702Y039292D01*
X029704Y039284D01*
X029708Y039275D01*
X029712Y039266D01*
X029718Y039258D01*
X029724Y03925D01*
X029725Y039249D01*
X029728Y039247D01*
X029732Y039244D01*
X029738Y039241D01*
X029745Y039238D01*
X029753Y039235D01*
X029763Y039233D01*
X029773Y039232D01*
X029777D01*
X029779Y039233D01*
X029785Y039233D01*
X029793Y039236D01*
X029803Y039238D01*
X029812Y039243D01*
X029822Y039249D01*
X029826Y039253D01*
X029831Y039258D01*
X029831Y039258D01*
X029832Y039259D01*
X029833Y03926D01*
X029835Y039262D01*
X029839Y039268D01*
X029843Y039276D01*
X029847Y039285D01*
X029851Y039297D01*
X029854Y039311D01*
X029855Y039318D01*
Y039326D01*
Y039327D01*
Y039328D01*
Y03933D01*
X029854Y039333D01*
Y039336D01*
X029854Y03934D01*
X029852Y039349D01*
X029849Y039359D01*
X029845Y03937D01*
X02984Y03938D01*
X029832Y039389D01*
Y03939D01*
X029831Y03939D01*
X029828Y039393D01*
X029823Y039397D01*
X029817Y039401D01*
X029808Y039405D01*
X029798Y039409D01*
X029786Y039412D01*
X029779Y039413D01*
X029769D01*
X029764Y039413D01*
X029759Y039412D01*
X029752Y03941D01*
X029745Y039409D01*
X029738Y039406D01*
X029731Y039403D01*
X02973Y039402D01*
X029728Y039401D01*
X029725Y039398D01*
X02972Y039395D01*
X029716Y039391D01*
X029712Y039386D01*
X029707Y039381D01*
X029703Y039375D01*
X029658Y039381D01*
X029696Y039579D01*
X029886D01*
Y039534D01*
D02*
G37*
G36*
X029629Y038535D02*
X029637Y038534D01*
X029646Y038532D01*
X029655Y03853D01*
X029666Y038526D01*
X029675Y038522D01*
X029676D01*
X029677Y038521D01*
X02968Y03852D01*
X029685Y038516D01*
X02969Y038512D01*
X029697Y038507D01*
X029704Y038501D01*
X02971Y038494D01*
X029716Y038485D01*
X029717Y038484D01*
X029718Y038481D01*
X02972Y038476D01*
X029723Y03847D01*
X029726Y038463D01*
X029728Y038455D01*
X02973Y038445D01*
X02973Y038436D01*
Y038435D01*
Y038431D01*
X02973Y038427D01*
X029729Y038421D01*
X029727Y038414D01*
X029724Y038406D01*
X029721Y038398D01*
X029717Y03839D01*
X029716Y038389D01*
X029714Y038387D01*
X029711Y038383D01*
X029707Y038379D01*
X029701Y038374D01*
X029694Y038368D01*
X029687Y038363D01*
X029677Y038358D01*
X029678D01*
X029679Y038358D01*
X02968Y038357D01*
X029683Y038356D01*
X029689Y038354D01*
X029697Y038351D01*
X029705Y038346D01*
X029714Y038341D01*
X029723Y038334D01*
X02973Y038325D01*
X029731Y038324D01*
X029733Y038321D01*
X029737Y038315D01*
X02974Y038308D01*
X029743Y038299D01*
X029747Y038289D01*
X029749Y038277D01*
X029749Y038263D01*
Y038263D01*
Y038261D01*
Y038258D01*
X029749Y038255D01*
X029748Y03825D01*
X029747Y038245D01*
X029746Y03824D01*
X029745Y038234D01*
X02974Y03822D01*
X029737Y038213D01*
X029734Y038207D01*
X029729Y038199D01*
X029724Y038192D01*
X029719Y038185D01*
X029712Y038178D01*
X029712Y038178D01*
X02971Y038177D01*
X029708Y038175D01*
X029705Y038173D01*
X029702Y03817D01*
X029698Y038167D01*
X029693Y038164D01*
X029687Y038161D01*
X02968Y038158D01*
X029673Y038154D01*
X029666Y038152D01*
X029658Y038149D01*
X029649Y038147D01*
X029639Y038145D01*
X02963Y038144D01*
X029619Y038143D01*
X029614D01*
X029611Y038144D01*
X029607Y038144D01*
X029602Y038145D01*
X029596Y038146D01*
X02959Y038147D01*
X029577Y038151D01*
X029563Y038156D01*
X029556Y038159D01*
X029549Y038163D01*
X029542Y038168D01*
X029536Y038173D01*
X029535Y038174D01*
X029534Y038175D01*
X029532Y038177D01*
X029531Y038179D01*
X029528Y038182D01*
X029525Y038186D01*
X029522Y038189D01*
X029518Y038194D01*
X029515Y0382D01*
X029512Y038205D01*
X029506Y038219D01*
X029501Y038234D01*
X029499Y038243D01*
X029498Y038252D01*
X029545Y038258D01*
Y038257D01*
X029546Y038256D01*
X029546Y038254D01*
X029547Y038251D01*
X029547Y038248D01*
X029548Y038244D01*
X029551Y038235D01*
X029555Y038225D01*
X02956Y038216D01*
X029566Y038207D01*
X029572Y038199D01*
X029573Y038199D01*
X029576Y038197D01*
X02958Y038194D01*
X029586Y038191D01*
X029592Y038188D01*
X029601Y038185D01*
X02961Y038183D01*
X02962Y038182D01*
X029623D01*
X029626Y038183D01*
X029632Y038183D01*
X029639Y038185D01*
X029648Y038188D01*
X029658Y038192D01*
X029667Y038197D01*
X029676Y038205D01*
X029677Y038206D01*
X02968Y038209D01*
X029683Y038214D01*
X029688Y038221D01*
X029692Y038229D01*
X029695Y038239D01*
X029698Y03825D01*
X029699Y038262D01*
Y038263D01*
Y038264D01*
Y038265D01*
X029699Y038268D01*
X029698Y038274D01*
X029697Y038281D01*
X029694Y03829D01*
X02969Y038299D01*
X029685Y038308D01*
X029678Y038316D01*
X029677Y038317D01*
X029674Y038319D01*
X029669Y038323D01*
X029663Y038326D01*
X029655Y03833D01*
X029646Y038334D01*
X029636Y038336D01*
X029624Y038337D01*
X029619D01*
X029615Y038336D01*
X02961Y038336D01*
X029604Y038335D01*
X029598Y038334D01*
X029591Y038332D01*
X029596Y038374D01*
X029599D01*
X029601Y038373D01*
X029608D01*
X029614Y038374D01*
X029622Y038375D01*
X02963Y038377D01*
X029639Y03838D01*
X029648Y038384D01*
X029658Y038389D01*
X029658D01*
X029659Y038389D01*
X029662Y038391D01*
X029666Y038395D01*
X02967Y0384D01*
X029674Y038408D01*
X029678Y038416D01*
X029681Y038425D01*
X029682Y038431D01*
Y038437D01*
Y038437D01*
Y038438D01*
Y038441D01*
X029681Y038446D01*
X02968Y038452D01*
X029678Y038459D01*
X029675Y038466D01*
X02967Y038473D01*
X029664Y03848D01*
X029664Y03848D01*
X029661Y038482D01*
X029657Y038485D01*
X029652Y038489D01*
X029646Y038491D01*
X029638Y038494D01*
X029629Y038496D01*
X029619Y038497D01*
X029614D01*
X029609Y038496D01*
X029603Y038495D01*
X029596Y038492D01*
X029588Y03849D01*
X029581Y038485D01*
X029573Y03848D01*
X029573Y038479D01*
X029571Y038476D01*
X029567Y038472D01*
X029563Y038467D01*
X029559Y03846D01*
X029556Y038451D01*
X029552Y03844D01*
X02955Y038428D01*
X029503Y038436D01*
Y038437D01*
X029503Y038439D01*
X029504Y038441D01*
X029505Y038444D01*
X029506Y038448D01*
X029507Y038452D01*
X029511Y038463D01*
X029516Y038475D01*
X029523Y038487D01*
X029531Y038499D01*
X029542Y03851D01*
X029542Y03851D01*
X029543Y038511D01*
X029545Y038512D01*
X029547Y038514D01*
X02955Y038516D01*
X029554Y038518D01*
X029558Y03852D01*
X029563Y038523D01*
X029574Y038527D01*
X029587Y038532D01*
X029602Y038535D01*
X029609Y038536D01*
X029623D01*
X029629Y038535D01*
D02*
G37*
G36*
X029182D02*
X029189Y038534D01*
X029198Y038532D01*
X029208Y03853D01*
X029218Y038526D01*
X029228Y038522D01*
X029228D01*
X029229Y038521D01*
X029232Y03852D01*
X029237Y038516D01*
X029243Y038512D01*
X029249Y038507D01*
X029256Y038501D01*
X029263Y038494D01*
X029268Y038485D01*
X029269Y038484D01*
X02927Y038481D01*
X029273Y038476D01*
X029275Y03847D01*
X029278Y038463D01*
X02928Y038455D01*
X029282Y038445D01*
X029283Y038436D01*
Y038435D01*
Y038431D01*
X029282Y038427D01*
X029281Y038421D01*
X029279Y038414D01*
X029276Y038406D01*
X029273Y038398D01*
X029269Y03839D01*
X029268Y038389D01*
X029266Y038387D01*
X029263Y038383D01*
X029259Y038379D01*
X029253Y038374D01*
X029246Y038368D01*
X029239Y038363D01*
X029229Y038358D01*
X02923D01*
X029231Y038358D01*
X029233Y038357D01*
X029235Y038356D01*
X029241Y038354D01*
X029249Y038351D01*
X029258Y038346D01*
X029266Y038341D01*
X029275Y038334D01*
X029283Y038325D01*
X029283Y038324D01*
X029285Y038321D01*
X029289Y038315D01*
X029292Y038308D01*
X029295Y038299D01*
X029299Y038289D01*
X029301Y038277D01*
X029301Y038263D01*
Y038263D01*
Y038261D01*
Y038258D01*
X029301Y038255D01*
X0293Y03825D01*
X029299Y038245D01*
X029298Y03824D01*
X029297Y038234D01*
X029293Y03822D01*
X029289Y038213D01*
X029286Y038207D01*
X029281Y038199D01*
X029276Y038192D01*
X029271Y038185D01*
X029264Y038178D01*
X029264Y038178D01*
X029263Y038177D01*
X02926Y038175D01*
X029258Y038173D01*
X029254Y03817D01*
X02925Y038167D01*
X029245Y038164D01*
X029239Y038161D01*
X029233Y038158D01*
X029225Y038154D01*
X029218Y038152D01*
X02921Y038149D01*
X029201Y038147D01*
X029192Y038145D01*
X029182Y038144D01*
X029172Y038143D01*
X029167D01*
X029163Y038144D01*
X029159Y038144D01*
X029154Y038145D01*
X029148Y038146D01*
X029142Y038147D01*
X029129Y038151D01*
X029115Y038156D01*
X029108Y038159D01*
X029101Y038163D01*
X029094Y038168D01*
X029088Y038173D01*
X029087Y038174D01*
X029086Y038175D01*
X029084Y038177D01*
X029083Y038179D01*
X02908Y038182D01*
X029077Y038186D01*
X029074Y038189D01*
X029071Y038194D01*
X029067Y0382D01*
X029064Y038205D01*
X029058Y038219D01*
X029053Y038234D01*
X029051Y038243D01*
X02905Y038252D01*
X029097Y038258D01*
Y038257D01*
X029098Y038256D01*
X029098Y038254D01*
X029099Y038251D01*
X029099Y038248D01*
X0291Y038244D01*
X029103Y038235D01*
X029107Y038225D01*
X029112Y038216D01*
X029118Y038207D01*
X029124Y038199D01*
X029125Y038199D01*
X029128Y038197D01*
X029132Y038194D01*
X029138Y038191D01*
X029144Y038188D01*
X029153Y038185D01*
X029162Y038183D01*
X029172Y038182D01*
X029175D01*
X029178Y038183D01*
X029184Y038183D01*
X029192Y038185D01*
X0292Y038188D01*
X02921Y038192D01*
X029219Y038197D01*
X029228Y038205D01*
X029229Y038206D01*
X029232Y038209D01*
X029235Y038214D01*
X02924Y038221D01*
X029244Y038229D01*
X029248Y038239D01*
X02925Y03825D01*
X029251Y038262D01*
Y038263D01*
Y038264D01*
Y038265D01*
X029251Y038268D01*
X02925Y038274D01*
X029249Y038281D01*
X029246Y03829D01*
X029243Y038299D01*
X029237Y038308D01*
X02923Y038316D01*
X029229Y038317D01*
X029226Y038319D01*
X029221Y038323D01*
X029215Y038326D01*
X029208Y03833D01*
X029198Y038334D01*
X029188Y038336D01*
X029176Y038337D01*
X029171D01*
X029167Y038336D01*
X029162Y038336D01*
X029157Y038335D01*
X02915Y038334D01*
X029143Y038332D01*
X029148Y038374D01*
X029151D01*
X029153Y038373D01*
X02916D01*
X029167Y038374D01*
X029174Y038375D01*
X029182Y038377D01*
X029192Y03838D01*
X0292Y038384D01*
X02921Y038389D01*
X02921D01*
X029211Y038389D01*
X029214Y038391D01*
X029218Y038395D01*
X029222Y0384D01*
X029226Y038408D01*
X02923Y038416D01*
X029233Y038425D01*
X029234Y038431D01*
Y038437D01*
Y038437D01*
Y038438D01*
Y038441D01*
X029233Y038446D01*
X029232Y038452D01*
X02923Y038459D01*
X029227Y038466D01*
X029223Y038473D01*
X029216Y03848D01*
X029216Y03848D01*
X029213Y038482D01*
X029209Y038485D01*
X029204Y038489D01*
X029198Y038491D01*
X02919Y038494D01*
X029181Y038496D01*
X029171Y038497D01*
X029167D01*
X029162Y038496D01*
X029155Y038495D01*
X029148Y038492D01*
X02914Y03849D01*
X029133Y038485D01*
X029125Y03848D01*
X029125Y038479D01*
X029123Y038476D01*
X029119Y038472D01*
X029115Y038467D01*
X029112Y03846D01*
X029108Y038451D01*
X029104Y03844D01*
X029102Y038428D01*
X029055Y038436D01*
Y038437D01*
X029056Y038439D01*
X029056Y038441D01*
X029057Y038444D01*
X029058Y038448D01*
X029059Y038452D01*
X029063Y038463D01*
X029068Y038475D01*
X029075Y038487D01*
X029083Y038499D01*
X029094Y03851D01*
X029094Y03851D01*
X029096Y038511D01*
X029097Y038512D01*
X029099Y038514D01*
X029102Y038516D01*
X029106Y038518D01*
X02911Y03852D01*
X029115Y038523D01*
X029126Y038527D01*
X029139Y038532D01*
X029154Y038535D01*
X029162Y038536D01*
X029175D01*
X029182Y038535D01*
D02*
G37*
G36*
X029977Y03815D02*
X029924D01*
X029775Y038534D01*
X029831D01*
X029931Y038255D01*
Y038254D01*
X029931Y038253D01*
X029932Y038252D01*
X029933Y038249D01*
X029934Y038246D01*
X029935Y038243D01*
X029937Y038234D01*
X029941Y038225D01*
X029944Y038214D01*
X029951Y038192D01*
Y038193D01*
X029951Y038194D01*
X029952Y038196D01*
X029952Y038198D01*
X029954Y038204D01*
X029957Y038212D01*
X02996Y038222D01*
X029963Y038232D01*
X029967Y038243D01*
X029971Y038255D01*
X030076Y038534D01*
X030127D01*
X029977Y03815D01*
D02*
G37*
G36*
X029429D02*
X029375D01*
Y038204D01*
X029429D01*
Y03815D01*
D02*
G37*
G36*
X029253Y03759D02*
X029257D01*
X029268Y037589D01*
X029279Y037587D01*
X029291Y037585D01*
X029305Y037581D01*
X029318Y037577D01*
X029318D01*
X029319Y037576D01*
X029321Y037576D01*
X029323Y037575D01*
X029329Y037571D01*
X029337Y037567D01*
X029345Y037562D01*
X029354Y037555D01*
X029362Y037548D01*
X02937Y037539D01*
X029371Y037538D01*
X029374Y037535D01*
X029377Y03753D01*
X029381Y037522D01*
X029386Y037514D01*
X029391Y037502D01*
X029396Y03749D01*
X0294Y037476D01*
X029354Y037464D01*
Y037465D01*
X029353Y037465D01*
X029352Y037467D01*
X029352Y037469D01*
X02935Y037474D01*
X029348Y037481D01*
X029345Y037489D01*
X029341Y037496D01*
X029337Y037504D01*
X029332Y03751D01*
X029331Y037511D01*
X02933Y037513D01*
X029326Y037516D01*
X029323Y03752D01*
X029318Y037524D01*
X029311Y037529D01*
X029304Y037533D01*
X029295Y037537D01*
X029294Y037537D01*
X029291Y037539D01*
X029286Y03754D01*
X02928Y037542D01*
X029272Y037544D01*
X029263Y037546D01*
X029253Y037547D01*
X029243Y037547D01*
X029236D01*
X029234Y037547D01*
X02923D01*
X029222Y037546D01*
X029213Y037545D01*
X029202Y037543D01*
X029192Y03754D01*
X029182Y037536D01*
X029181Y037536D01*
X029178Y037535D01*
X029173Y037532D01*
X029168Y037529D01*
X029161Y037525D01*
X029154Y03752D01*
X029147Y037515D01*
X029141Y037509D01*
X02914Y037508D01*
X029138Y037506D01*
X029135Y037502D01*
X029132Y037497D01*
X029128Y037492D01*
X029124Y037485D01*
X02912Y037478D01*
X029117Y03747D01*
Y03747D01*
X029116Y037469D01*
X029115Y037467D01*
X029114Y037464D01*
X029113Y037461D01*
X029112Y037457D01*
X029111Y037453D01*
X029109Y037448D01*
X029107Y037436D01*
X029104Y037423D01*
X029103Y037409D01*
X029102Y037393D01*
Y037393D01*
Y037391D01*
Y037388D01*
X029103Y037385D01*
Y03738D01*
X029103Y037375D01*
X029104Y037369D01*
X029104Y037363D01*
X029107Y037349D01*
X029109Y037335D01*
X029114Y03732D01*
X029119Y037307D01*
Y037306D01*
X02912Y037305D01*
X029121Y037303D01*
X029123Y037301D01*
X029127Y037295D01*
X029133Y037287D01*
X02914Y037279D01*
X029149Y03727D01*
X029159Y037263D01*
X029171Y037255D01*
X029172D01*
X029173Y037255D01*
X029174Y037254D01*
X029177Y037253D01*
X02918Y037252D01*
X029184Y03725D01*
X029193Y037247D01*
X029204Y037244D01*
X029216Y037242D01*
X029229Y037239D01*
X029243Y037239D01*
X029249D01*
X029252Y037239D01*
X029255D01*
X029264Y037241D01*
X029274Y037242D01*
X029284Y037244D01*
X029296Y037247D01*
X029308Y037251D01*
X029308D01*
X029309Y037252D01*
X02931Y037252D01*
X029313Y037253D01*
X029319Y037256D01*
X029325Y037259D01*
X029333Y037263D01*
X029341Y037268D01*
X029349Y037273D01*
X029356Y037278D01*
Y03735D01*
X029243D01*
Y037396D01*
X029406D01*
Y037253D01*
X029405Y037253D01*
X029404Y037252D01*
X029402Y03725D01*
X029399Y037248D01*
X029396Y037246D01*
X029392Y037243D01*
X029387Y03724D01*
X029382Y037237D01*
X02937Y037229D01*
X029357Y037222D01*
X029343Y037214D01*
X029328Y037208D01*
X029327D01*
X029326Y037208D01*
X029324Y037207D01*
X029321Y037206D01*
X029318Y037205D01*
X029313Y037203D01*
X029308Y037202D01*
X029303Y037201D01*
X029291Y037198D01*
X029277Y037196D01*
X029262Y037194D01*
X029246Y037193D01*
X029241D01*
X029237Y037194D01*
X029232D01*
X029226Y037194D01*
X029219Y037196D01*
X029212Y037196D01*
X029196Y037199D01*
X029179Y037203D01*
X029161Y037209D01*
X029152Y037213D01*
X029143Y037217D01*
X029143Y037218D01*
X029141Y037218D01*
X029139Y03722D01*
X029135Y037222D01*
X029132Y037224D01*
X029128Y037227D01*
X029117Y037235D01*
X029106Y037245D01*
X029094Y037257D01*
X029083Y037271D01*
X029073Y037287D01*
Y037288D01*
X029072Y037289D01*
X029071Y037292D01*
X029069Y037295D01*
X029068Y037299D01*
X029066Y037305D01*
X029064Y03731D01*
X029062Y037317D01*
X029059Y037324D01*
X029057Y037333D01*
X029056Y037341D01*
X029054Y03735D01*
X029051Y037369D01*
X02905Y03739D01*
Y03739D01*
Y037393D01*
Y037395D01*
X029051Y037399D01*
Y037404D01*
X029051Y03741D01*
X029052Y037416D01*
X029053Y037424D01*
X029054Y037431D01*
X029056Y03744D01*
X02906Y037458D01*
X029066Y037476D01*
X029073Y037494D01*
X029074Y037495D01*
X029074Y037496D01*
X029076Y037499D01*
X029078Y037502D01*
X02908Y037506D01*
X029083Y037511D01*
X029091Y037521D01*
X0291Y037534D01*
X029112Y037545D01*
X029125Y037557D01*
X029133Y037562D01*
X02914Y037567D01*
X029141Y037567D01*
X029143Y037568D01*
X029145Y037569D01*
X029148Y037571D01*
X029153Y037572D01*
X029158Y037575D01*
X029163Y037577D01*
X02917Y037579D01*
X029177Y037581D01*
X029185Y037583D01*
X029193Y037585D01*
X029202Y037587D01*
X029221Y03759D01*
X029231Y037591D01*
X029249D01*
X029253Y03759D01*
D02*
G37*
G36*
X029783Y0372D02*
X02973D01*
X029529Y037501D01*
Y0372D01*
X02948D01*
Y037584D01*
X029532D01*
X029734Y037282D01*
Y037584D01*
X029783D01*
Y0372D01*
D02*
G37*
G36*
X030026Y037584D02*
X030037Y037583D01*
X030048Y037582D01*
X030059Y03758D01*
X030068Y037579D01*
X030069D01*
X03007Y037578D01*
X030072D01*
X030074Y037577D01*
X03008Y037575D01*
X030088Y037572D01*
X030097Y037569D01*
X030106Y037564D01*
X030116Y037558D01*
X030124Y037551D01*
X030125Y03755D01*
X030126Y03755D01*
X030127Y037548D01*
X030129Y037546D01*
X030135Y037541D01*
X030142Y037533D01*
X030149Y037524D01*
X030157Y037512D01*
X030164Y0375D01*
X03017Y037485D01*
Y037485D01*
X030171Y037484D01*
X030172Y037481D01*
X030172Y037478D01*
X030174Y037474D01*
X030175Y03747D01*
X030176Y037465D01*
X030178Y037459D01*
X030179Y037453D01*
X030181Y037445D01*
X030183Y03743D01*
X030185Y037413D01*
X030186Y037394D01*
Y037393D01*
Y037392D01*
Y037389D01*
Y037386D01*
X030185Y037383D01*
Y037378D01*
X030184Y037368D01*
X030183Y037355D01*
X030181Y037343D01*
X030178Y037329D01*
X030175Y037316D01*
Y037315D01*
X030174Y037314D01*
X030174Y037313D01*
X030173Y03731D01*
X030171Y037304D01*
X030168Y037297D01*
X030164Y037288D01*
X03016Y037279D01*
X030154Y037269D01*
X030149Y03726D01*
X030148Y037259D01*
X030146Y037257D01*
X030143Y037253D01*
X030138Y037248D01*
X030133Y037242D01*
X030127Y037237D01*
X030121Y037231D01*
X030114Y037226D01*
X030113Y037225D01*
X030111Y037223D01*
X030107Y037221D01*
X030101Y037218D01*
X030095Y037215D01*
X030087Y037212D01*
X030078Y037209D01*
X030068Y037206D01*
X030067D01*
X030065Y037206D01*
X030063Y037205D01*
X030058Y037204D01*
X03005Y037203D01*
X030041Y037202D01*
X030031Y037201D01*
X030019Y037201D01*
X030006Y0372D01*
X029868D01*
Y037584D01*
X030016D01*
X030026Y037584D01*
D02*
G37*
G36*
X035003Y04279D02*
X035007D01*
X035018Y042789D01*
X035029Y042787D01*
X035041Y042785D01*
X035055Y042781D01*
X035068Y042777D01*
X035068D01*
X035069Y042776D01*
X035071Y042776D01*
X035073Y042775D01*
X035079Y042771D01*
X035087Y042767D01*
X035095Y042762D01*
X035104Y042755D01*
X035112Y042748D01*
X03512Y042739D01*
X035121Y042738D01*
X035124Y042735D01*
X035127Y04273D01*
X035131Y042722D01*
X035136Y042714D01*
X035141Y042702D01*
X035146Y04269D01*
X03515Y042676D01*
X035104Y042664D01*
Y042665D01*
X035103Y042665D01*
X035102Y042667D01*
X035102Y042669D01*
X0351Y042674D01*
X035098Y042681D01*
X035095Y042689D01*
X035091Y042696D01*
X035087Y042704D01*
X035082Y04271D01*
X035081Y042711D01*
X03508Y042713D01*
X035076Y042716D01*
X035073Y04272D01*
X035068Y042724D01*
X035061Y042729D01*
X035054Y042733D01*
X035045Y042737D01*
X035044Y042737D01*
X035041Y042739D01*
X035036Y04274D01*
X03503Y042742D01*
X035022Y042744D01*
X035013Y042746D01*
X035003Y042747D01*
X034993Y042747D01*
X034986D01*
X034984Y042747D01*
X03498D01*
X034972Y042746D01*
X034963Y042745D01*
X034952Y042743D01*
X034942Y04274D01*
X034932Y042736D01*
X034931Y042736D01*
X034928Y042735D01*
X034923Y042732D01*
X034918Y042729D01*
X034911Y042725D01*
X034904Y04272D01*
X034897Y042715D01*
X034891Y042709D01*
X03489Y042708D01*
X034888Y042706D01*
X034885Y042702D01*
X034882Y042697D01*
X034878Y042692D01*
X034874Y042685D01*
X03487Y042678D01*
X034867Y04267D01*
Y04267D01*
X034866Y042669D01*
X034865Y042667D01*
X034864Y042664D01*
X034863Y042661D01*
X034862Y042657D01*
X03486Y042653D01*
X034859Y042648D01*
X034857Y042636D01*
X034854Y042623D01*
X034853Y042609D01*
X034852Y042593D01*
Y042593D01*
Y042591D01*
Y042588D01*
X034853Y042585D01*
Y04258D01*
X034853Y042575D01*
X034854Y042569D01*
X034854Y042563D01*
X034857Y042549D01*
X034859Y042535D01*
X034864Y04252D01*
X034869Y042507D01*
Y042506D01*
X03487Y042505D01*
X034871Y042503D01*
X034873Y042501D01*
X034877Y042495D01*
X034883Y042487D01*
X03489Y042479D01*
X034899Y04247D01*
X034909Y042463D01*
X034921Y042456D01*
X034922D01*
X034923Y042455D01*
X034924Y042454D01*
X034927Y042453D01*
X03493Y042452D01*
X034934Y042451D01*
X034943Y042447D01*
X034954Y042444D01*
X034966Y042442D01*
X034979Y042439D01*
X034993Y042439D01*
X034999D01*
X035002Y042439D01*
X035005D01*
X035014Y042441D01*
X035024Y042442D01*
X035034Y042444D01*
X035046Y042447D01*
X035058Y042451D01*
X035058D01*
X035059Y042452D01*
X03506Y042452D01*
X035063Y042453D01*
X035069Y042456D01*
X035075Y042459D01*
X035083Y042463D01*
X035091Y042468D01*
X035099Y042473D01*
X035106Y042478D01*
Y04255D01*
X034993D01*
Y042596D01*
X035156D01*
Y042453D01*
X035155Y042453D01*
X035154Y042452D01*
X035152Y042451D01*
X035149Y042448D01*
X035146Y042446D01*
X035142Y042443D01*
X035137Y04244D01*
X035132Y042437D01*
X03512Y042429D01*
X035107Y042422D01*
X035093Y042414D01*
X035078Y042408D01*
X035078D01*
X035076Y042408D01*
X035074Y042407D01*
X035071Y042406D01*
X035068Y042405D01*
X035063Y042403D01*
X035058Y042402D01*
X035053Y042401D01*
X035041Y042398D01*
X035027Y042396D01*
X035012Y042394D01*
X034996Y042393D01*
X034991D01*
X034987Y042394D01*
X034982D01*
X034976Y042394D01*
X034969Y042396D01*
X034962Y042396D01*
X034946Y042399D01*
X034929Y042403D01*
X034911Y042409D01*
X034902Y042413D01*
X034893Y042417D01*
X034893Y042418D01*
X034891Y042418D01*
X034889Y04242D01*
X034885Y042422D01*
X034882Y042424D01*
X034878Y042427D01*
X034867Y042435D01*
X034856Y042445D01*
X034844Y042457D01*
X034833Y042471D01*
X034823Y042487D01*
Y042488D01*
X034822Y042489D01*
X034821Y042492D01*
X034819Y042495D01*
X034818Y042499D01*
X034816Y042505D01*
X034814Y04251D01*
X034812Y042517D01*
X034809Y042524D01*
X034807Y042533D01*
X034806Y042541D01*
X034804Y04255D01*
X034801Y042569D01*
X0348Y04259D01*
Y04259D01*
Y042593D01*
Y042595D01*
X034801Y042599D01*
Y042604D01*
X034801Y04261D01*
X034802Y042616D01*
X034803Y042624D01*
X034804Y042631D01*
X034806Y04264D01*
X03481Y042658D01*
X034816Y042676D01*
X034823Y042694D01*
X034824Y042695D01*
X034824Y042696D01*
X034826Y042699D01*
X034828Y042702D01*
X03483Y042706D01*
X034833Y042711D01*
X034841Y042721D01*
X03485Y042734D01*
X034862Y042745D01*
X034875Y042757D01*
X034883Y042762D01*
X03489Y042767D01*
X034891Y042767D01*
X034893Y042768D01*
X034895Y042769D01*
X034898Y042771D01*
X034903Y042772D01*
X034908Y042775D01*
X034913Y042777D01*
X03492Y042779D01*
X034927Y042781D01*
X034935Y042783D01*
X034943Y042785D01*
X034952Y042787D01*
X034971Y04279D01*
X034981Y042791D01*
X034999D01*
X035003Y04279D01*
D02*
G37*
G36*
X035533Y0424D02*
X03548D01*
X035279Y042701D01*
Y0424D01*
X03523D01*
Y042784D01*
X035282D01*
X035484Y042482D01*
Y042784D01*
X035533D01*
Y0424D01*
D02*
G37*
G36*
X035776Y042783D02*
X035787Y042783D01*
X035798Y042782D01*
X035809Y04278D01*
X035818Y042779D01*
X035819D01*
X03582Y042778D01*
X035822D01*
X035824Y042777D01*
X03583Y042775D01*
X035838Y042772D01*
X035847Y042769D01*
X035856Y042764D01*
X035866Y042758D01*
X035874Y042751D01*
X035875Y04275D01*
X035876Y04275D01*
X035877Y042748D01*
X035879Y042746D01*
X035885Y042741D01*
X035892Y042733D01*
X035899Y042724D01*
X035907Y042712D01*
X035914Y0427D01*
X03592Y042685D01*
Y042685D01*
X035921Y042684D01*
X035922Y042681D01*
X035922Y042678D01*
X035924Y042674D01*
X035925Y04267D01*
X035926Y042665D01*
X035928Y042659D01*
X035929Y042653D01*
X035931Y042645D01*
X035933Y04263D01*
X035935Y042613D01*
X035936Y042594D01*
Y042593D01*
Y042592D01*
Y042589D01*
Y042586D01*
X035935Y042583D01*
Y042578D01*
X035934Y042568D01*
X035933Y042555D01*
X035931Y042543D01*
X035928Y042529D01*
X035925Y042516D01*
Y042515D01*
X035924Y042514D01*
X035924Y042513D01*
X035923Y04251D01*
X035921Y042504D01*
X035918Y042497D01*
X035914Y042488D01*
X03591Y042479D01*
X035904Y042469D01*
X035899Y04246D01*
X035898Y042459D01*
X035896Y042457D01*
X035893Y042453D01*
X035888Y042448D01*
X035883Y042442D01*
X035877Y042437D01*
X035871Y042431D01*
X035864Y042426D01*
X035863Y042425D01*
X035861Y042423D01*
X035857Y042421D01*
X035851Y042418D01*
X035845Y042415D01*
X035837Y042412D01*
X035828Y042409D01*
X035818Y042406D01*
X035817D01*
X035815Y042406D01*
X035813Y042405D01*
X035808Y042404D01*
X0358Y042403D01*
X035791Y042402D01*
X035781Y042401D01*
X035769Y042401D01*
X035756Y0424D01*
X035618D01*
Y042784D01*
X035766D01*
X035776Y042783D01*
D02*
G37*
G36*
X035326Y043545D02*
X035469Y043343D01*
X035407D01*
X035309Y04348D01*
X035309Y04348D01*
X035308Y043482D01*
X035307Y043484D01*
X035305Y043487D01*
X035299Y043495D01*
X035294Y043503D01*
X035293Y043503D01*
X035292Y0435D01*
X03529Y043497D01*
X035287Y043493D01*
X035281Y043484D01*
X035278Y04348D01*
X035276Y043477D01*
X035179Y043343D01*
X035117D01*
X035266Y043542D01*
X035135Y043727D01*
X035195D01*
X035265Y043629D01*
Y043628D01*
X035266Y043628D01*
X035267Y043626D01*
X035269Y043624D01*
X035272Y043618D01*
X035277Y043611D01*
X035282Y043604D01*
X035287Y043596D01*
X035292Y043589D01*
X035296Y043582D01*
X035296Y043583D01*
X035298Y043585D01*
X035301Y04359D01*
X035305Y043595D01*
X035309Y043601D01*
X035314Y043609D01*
X03532Y043617D01*
X035327Y043625D01*
X035403Y043727D01*
X035459D01*
X035326Y043545D01*
D02*
G37*
G36*
X035632Y043729D02*
X035636Y043728D01*
X035642Y043727D01*
X035648Y043726D01*
X035654Y043725D01*
X035669Y043721D01*
X035683Y043716D01*
X03569Y043712D01*
X035697Y043709D01*
X035704Y043704D01*
X03571Y043698D01*
X035711Y043697D01*
X035712Y043697D01*
X035713Y043695D01*
X035715Y043692D01*
X035718Y04369D01*
X035721Y043686D01*
X035724Y043682D01*
X035727Y043677D01*
X035732Y043666D01*
X035738Y043653D01*
X03574Y043646D01*
X035741Y043639D01*
X035742Y043631D01*
X035743Y043623D01*
Y043621D01*
Y043619D01*
X035742Y043614D01*
X035742Y043608D01*
X035741Y043601D01*
X035739Y043594D01*
X035736Y043585D01*
X035733Y043577D01*
X035732Y043576D01*
X035731Y043573D01*
X035729Y043569D01*
X035726Y043563D01*
X035721Y043556D01*
X035716Y043548D01*
X035709Y043539D01*
X035701Y04353D01*
X0357Y043529D01*
X035697Y043525D01*
X035695Y043523D01*
X035692Y04352D01*
X035689Y043517D01*
X035684Y043512D01*
X03568Y043508D01*
X035674Y043503D01*
X035669Y043497D01*
X035662Y043491D01*
X035655Y043485D01*
X035647Y043478D01*
X035638Y04347D01*
X035629Y043463D01*
X035629Y043462D01*
X035628Y043461D01*
X035625Y043459D01*
X035623Y043457D01*
X035619Y043454D01*
X035615Y04345D01*
X035606Y043443D01*
X035597Y043435D01*
X035588Y043427D01*
X03558Y043419D01*
X035577Y043417D01*
X035574Y043414D01*
X035574Y043413D01*
X035572Y043412D01*
X03557Y043409D01*
X035567Y043406D01*
X035564Y043402D01*
X035561Y043398D01*
X035554Y043389D01*
X035744D01*
Y043343D01*
X035489D01*
Y043344D01*
Y043346D01*
Y043349D01*
X035489Y043354D01*
X03549Y043359D01*
X035491Y043364D01*
X035492Y04337D01*
X035494Y043376D01*
Y043377D01*
X035495Y043377D01*
X035496Y043381D01*
X035498Y043386D01*
X035502Y043392D01*
X035506Y0434D01*
X035512Y043409D01*
X035518Y043418D01*
X035525Y043427D01*
Y043428D01*
X035526Y043428D01*
X035529Y043432D01*
X035534Y043437D01*
X035541Y043444D01*
X03555Y043452D01*
X03556Y043462D01*
X035573Y043473D01*
X035587Y043485D01*
X035588Y043485D01*
X03559Y043487D01*
X035593Y04349D01*
X035597Y043493D01*
X035602Y043498D01*
X035608Y043503D01*
X035614Y043508D01*
X035621Y043514D01*
X035635Y043528D01*
X035649Y043541D01*
X035656Y043548D01*
X035662Y043554D01*
X035667Y04356D01*
X035672Y043566D01*
Y043567D01*
X035673Y043568D01*
X035674Y043569D01*
X035675Y043571D01*
X035679Y043578D01*
X035684Y043585D01*
X035687Y043594D01*
X035691Y043603D01*
X035694Y043614D01*
X035695Y043624D01*
Y043624D01*
Y043625D01*
X035694Y043628D01*
X035694Y043634D01*
X035692Y04364D01*
X03569Y043647D01*
X035686Y043655D01*
X035681Y043663D01*
X035674Y043671D01*
X035673Y043672D01*
X03567Y043674D01*
X035666Y043677D01*
X03566Y043681D01*
X035652Y043684D01*
X035644Y043687D01*
X035633Y04369D01*
X035621Y04369D01*
X035618D01*
X035616Y04369D01*
X035609Y043689D01*
X035601Y043687D01*
X035593Y043685D01*
X035584Y043681D01*
X035575Y043676D01*
X035566Y04367D01*
X035565Y043669D01*
X035563Y043666D01*
X03556Y043661D01*
X035556Y043655D01*
X035553Y043647D01*
X035549Y043637D01*
X035547Y043626D01*
X035546Y043613D01*
X035498Y043618D01*
Y043619D01*
X035498Y04362D01*
Y043623D01*
X035499Y043627D01*
X0355Y043631D01*
X035501Y043636D01*
X035503Y043642D01*
X035504Y043649D01*
X035509Y043662D01*
X035515Y043675D01*
X035519Y043682D01*
X035524Y043689D01*
X035529Y043695D01*
X035535Y0437D01*
X035535Y043701D01*
X035536Y043701D01*
X035538Y043703D01*
X035541Y043705D01*
X035544Y043707D01*
X035548Y043709D01*
X035553Y043712D01*
X035558Y043715D01*
X035564Y043717D01*
X035571Y04372D01*
X035578Y043722D01*
X035586Y043725D01*
X035594Y043726D01*
X035603Y043728D01*
X035613Y043729D01*
X035623Y043729D01*
X035628D01*
X035632Y043729D01*
D02*
G37*
G36*
X035104Y043682D02*
X034978D01*
Y043343D01*
X034927D01*
Y043682D01*
X0348D01*
Y043727D01*
X035104D01*
Y043682D01*
D02*
G37*
G36*
X035356Y044545D02*
X035499Y044343D01*
X035437D01*
X035339Y04448D01*
X035339Y04448D01*
X035338Y044482D01*
X035337Y044484D01*
X035334Y044487D01*
X035329Y044495D01*
X035324Y044503D01*
X035323Y044503D01*
X035322Y0445D01*
X035319Y044497D01*
X035317Y044493D01*
X035311Y044484D01*
X035308Y04448D01*
X035306Y044477D01*
X035208Y044343D01*
X035147D01*
X035296Y044542D01*
X035165Y044727D01*
X035225D01*
X035295Y044629D01*
Y044628D01*
X035296Y044627D01*
X035297Y044626D01*
X035299Y044624D01*
X035302Y044618D01*
X035307Y044611D01*
X035312Y044604D01*
X035317Y044596D01*
X035322Y044589D01*
X035326Y044582D01*
X035326Y044583D01*
X035328Y044585D01*
X035331Y04459D01*
X035334Y044595D01*
X035339Y044601D01*
X035344Y044609D01*
X03535Y044617D01*
X035357Y044625D01*
X035433Y044727D01*
X035489D01*
X035356Y044545D01*
D02*
G37*
G36*
X035662Y044729D02*
X035666Y044728D01*
X035672Y044727D01*
X035678Y044726D01*
X035684Y044725D01*
X035699Y044721D01*
X035713Y044716D01*
X03572Y044712D01*
X035727Y044709D01*
X035734Y044704D01*
X03574Y044698D01*
X035741Y044697D01*
X035742Y044697D01*
X035743Y044695D01*
X035745Y044692D01*
X035748Y04469D01*
X035751Y044686D01*
X035753Y044682D01*
X035757Y044677D01*
X035762Y044666D01*
X035768Y044653D01*
X03577Y044646D01*
X035771Y044639D01*
X035772Y044631D01*
X035773Y044623D01*
Y044621D01*
Y044619D01*
X035772Y044614D01*
X035772Y044608D01*
X035771Y044601D01*
X035768Y044594D01*
X035766Y044585D01*
X035763Y044577D01*
X035762Y044576D01*
X035761Y044573D01*
X035759Y044569D01*
X035756Y044563D01*
X035751Y044556D01*
X035746Y044548D01*
X035739Y044539D01*
X035731Y04453D01*
X03573Y044529D01*
X035727Y044525D01*
X035725Y044523D01*
X035722Y04452D01*
X035719Y044517D01*
X035714Y044512D01*
X03571Y044508D01*
X035704Y044503D01*
X035699Y044497D01*
X035692Y044491D01*
X035685Y044485D01*
X035677Y044478D01*
X035668Y04447D01*
X035659Y044463D01*
X035659Y044462D01*
X035657Y044461D01*
X035655Y044459D01*
X035652Y044457D01*
X035649Y044454D01*
X035645Y04445D01*
X035636Y044443D01*
X035627Y044435D01*
X035618Y044427D01*
X03561Y044419D01*
X035607Y044417D01*
X035604Y044414D01*
X035604Y044413D01*
X035602Y044412D01*
X0356Y044409D01*
X035597Y044406D01*
X035594Y044402D01*
X035591Y044398D01*
X035584Y044389D01*
X035773D01*
Y044343D01*
X035519D01*
Y044344D01*
Y044346D01*
Y044349D01*
X035519Y044354D01*
X03552Y044359D01*
X035521Y044364D01*
X035522Y04437D01*
X035524Y044376D01*
Y044377D01*
X035525Y044377D01*
X035526Y044381D01*
X035528Y044386D01*
X035531Y044392D01*
X035536Y0444D01*
X035541Y044409D01*
X035548Y044418D01*
X035555Y044427D01*
Y044428D01*
X035556Y044428D01*
X035559Y044432D01*
X035564Y044437D01*
X035571Y044444D01*
X03558Y044452D01*
X03559Y044462D01*
X035603Y044473D01*
X035617Y044485D01*
X035618Y044485D01*
X03562Y044487D01*
X035623Y04449D01*
X035627Y044493D01*
X035632Y044498D01*
X035638Y044503D01*
X035644Y044508D01*
X035651Y044514D01*
X035665Y044528D01*
X035679Y044541D01*
X035686Y044548D01*
X035692Y044554D01*
X035697Y04456D01*
X035702Y044566D01*
Y044567D01*
X035703Y044568D01*
X035704Y044569D01*
X035705Y044571D01*
X035709Y044578D01*
X035714Y044585D01*
X035717Y044594D01*
X035721Y044603D01*
X035724Y044614D01*
X035725Y044624D01*
Y044624D01*
Y044625D01*
X035724Y044628D01*
X035724Y044634D01*
X035722Y04464D01*
X03572Y044647D01*
X035716Y044655D01*
X035711Y044663D01*
X035704Y044671D01*
X035703Y044672D01*
X0357Y044674D01*
X035696Y044677D01*
X03569Y044681D01*
X035682Y044684D01*
X035674Y044687D01*
X035663Y04469D01*
X035651Y04469D01*
X035648D01*
X035646Y04469D01*
X035639Y044689D01*
X035631Y044687D01*
X035623Y044685D01*
X035614Y044681D01*
X035605Y044676D01*
X035596Y04467D01*
X035595Y044669D01*
X035593Y044666D01*
X03559Y044661D01*
X035586Y044655D01*
X035583Y044647D01*
X035579Y044637D01*
X035577Y044626D01*
X035576Y044613D01*
X035528Y044618D01*
Y044619D01*
X035528Y04462D01*
Y044623D01*
X035529Y044627D01*
X03553Y044631D01*
X035531Y044636D01*
X035533Y044642D01*
X035534Y044649D01*
X035539Y044662D01*
X035545Y044675D01*
X035549Y044682D01*
X035554Y044689D01*
X035559Y044695D01*
X035565Y0447D01*
X035565Y044701D01*
X035566Y044701D01*
X035568Y044703D01*
X035571Y044705D01*
X035574Y044707D01*
X035578Y044709D01*
X035583Y044712D01*
X035588Y044715D01*
X035594Y044717D01*
X035601Y04472D01*
X035608Y044722D01*
X035616Y044725D01*
X035624Y044726D01*
X035633Y044728D01*
X035642Y044729D01*
X035652Y044729D01*
X035658D01*
X035662Y044729D01*
D02*
G37*
G36*
X034983Y044727D02*
X034988D01*
X034999Y044726D01*
X035011Y044725D01*
X035025Y044723D01*
X035037Y04472D01*
X035043Y044719D01*
X035048Y044717D01*
X035049D01*
X035049Y044716D01*
X035053Y044715D01*
X035058Y044712D01*
X035064Y044709D01*
X03507Y044704D01*
X035078Y044697D01*
X035084Y044689D01*
X035091Y04468D01*
Y04468D01*
X035091Y044679D01*
X035094Y044676D01*
X035096Y04467D01*
X035099Y044663D01*
X035102Y044655D01*
X035105Y044645D01*
X035106Y044634D01*
X035107Y044623D01*
Y044622D01*
Y044621D01*
Y044619D01*
X035106Y044616D01*
Y044612D01*
X035106Y044608D01*
X035104Y044599D01*
X0351Y044588D01*
X035096Y044576D01*
X035089Y044564D01*
X035085Y044559D01*
X03508Y044553D01*
X03508Y044553D01*
X035079Y044552D01*
X035078Y04455D01*
X035075Y044549D01*
X035073Y044546D01*
X035069Y044544D01*
X035065Y044541D01*
X03506Y044538D01*
X035055Y044535D01*
X035049Y044533D01*
X035042Y044529D01*
X035035Y044526D01*
X035026Y044524D01*
X035018Y044521D01*
X035009Y04452D01*
X034999Y044518D01*
X035Y044518D01*
X035002Y044517D01*
X035005Y044514D01*
X03501Y044512D01*
X03502Y044506D01*
X035025Y044502D01*
X035029Y044499D01*
X03503Y044498D01*
X035033Y044495D01*
X035038Y04449D01*
X035043Y044485D01*
X035049Y044477D01*
X035056Y044469D01*
X035064Y044459D01*
X035071Y044448D01*
X035137Y044343D01*
X035074D01*
X035024Y044423D01*
Y044424D01*
X035023Y044425D01*
X035021Y044427D01*
X03502Y044429D01*
X035016Y044435D01*
X035011Y044443D01*
X035005Y044451D01*
X034999Y04446D01*
X034993Y044468D01*
X034987Y044476D01*
X034986Y044477D01*
X034985Y044479D01*
X034982Y044482D01*
X034978Y044486D01*
X03497Y044494D01*
X034965Y044498D01*
X034961Y044502D01*
X03496Y044502D01*
X034959Y044503D01*
X034957Y044504D01*
X034954Y044505D01*
X03495Y044507D01*
X034947Y044509D01*
X034938Y044511D01*
X034937D01*
X034936Y044512D01*
X034934D01*
X034931Y044513D01*
X034927Y044513D01*
X034923D01*
X034917Y044514D01*
X034851D01*
Y044343D01*
X0348D01*
Y044727D01*
X034978D01*
X034983Y044727D01*
D02*
G37*
G36*
X035103Y03714D02*
X035107D01*
X035118Y037139D01*
X035129Y037137D01*
X035141Y037135D01*
X035155Y037131D01*
X035168Y037127D01*
X035168D01*
X035169Y037126D01*
X035171Y037126D01*
X035173Y037125D01*
X035179Y037121D01*
X035187Y037117D01*
X035195Y037112D01*
X035204Y037105D01*
X035212Y037098D01*
X03522Y037089D01*
X035221Y037088D01*
X035224Y037085D01*
X035227Y03708D01*
X035231Y037072D01*
X035236Y037064D01*
X035241Y037052D01*
X035246Y03704D01*
X03525Y037026D01*
X035204Y037014D01*
Y037015D01*
X035203Y037015D01*
X035202Y037017D01*
X035202Y037019D01*
X0352Y037024D01*
X035198Y037031D01*
X035195Y037039D01*
X035191Y037046D01*
X035187Y037054D01*
X035182Y03706D01*
X035181Y037061D01*
X03518Y037063D01*
X035176Y037066D01*
X035173Y03707D01*
X035168Y037074D01*
X035161Y037079D01*
X035154Y037083D01*
X035145Y037087D01*
X035144Y037087D01*
X035141Y037089D01*
X035136Y03709D01*
X03513Y037092D01*
X035122Y037094D01*
X035113Y037096D01*
X035103Y037097D01*
X035093Y037097D01*
X035086D01*
X035084Y037097D01*
X03508D01*
X035072Y037096D01*
X035063Y037095D01*
X035052Y037093D01*
X035042Y03709D01*
X035032Y037086D01*
X035031Y037086D01*
X035028Y037085D01*
X035023Y037082D01*
X035018Y037079D01*
X035011Y037075D01*
X035004Y03707D01*
X034997Y037065D01*
X034991Y037059D01*
X03499Y037058D01*
X034988Y037056D01*
X034985Y037052D01*
X034982Y037047D01*
X034978Y037042D01*
X034974Y037035D01*
X03497Y037028D01*
X034967Y03702D01*
Y03702D01*
X034966Y037019D01*
X034965Y037017D01*
X034964Y037014D01*
X034963Y037011D01*
X034962Y037007D01*
X03496Y037003D01*
X034959Y036998D01*
X034957Y036986D01*
X034954Y036973D01*
X034953Y036959D01*
X034952Y036943D01*
Y036943D01*
Y036941D01*
Y036938D01*
X034953Y036935D01*
Y03693D01*
X034953Y036925D01*
X034954Y036919D01*
X034954Y036913D01*
X034957Y036899D01*
X034959Y036885D01*
X034964Y03687D01*
X034969Y036857D01*
Y036856D01*
X03497Y036855D01*
X034971Y036853D01*
X034973Y036851D01*
X034977Y036845D01*
X034983Y036837D01*
X03499Y036829D01*
X034999Y03682D01*
X035009Y036813D01*
X035021Y036806D01*
X035022D01*
X035023Y036805D01*
X035024Y036804D01*
X035027Y036803D01*
X03503Y036802D01*
X035034Y0368D01*
X035043Y036797D01*
X035054Y036794D01*
X035066Y036792D01*
X035079Y036789D01*
X035093Y036789D01*
X035099D01*
X035102Y036789D01*
X035105D01*
X035114Y036791D01*
X035124Y036792D01*
X035134Y036794D01*
X035146Y036797D01*
X035158Y036801D01*
X035158D01*
X035159Y036802D01*
X03516Y036802D01*
X035163Y036803D01*
X035169Y036806D01*
X035175Y036809D01*
X035183Y036813D01*
X035191Y036818D01*
X035199Y036823D01*
X035206Y036828D01*
Y0369D01*
X035093D01*
Y036946D01*
X035256D01*
Y036803D01*
X035255Y036803D01*
X035254Y036802D01*
X035252Y0368D01*
X035249Y036798D01*
X035246Y036796D01*
X035242Y036793D01*
X035237Y03679D01*
X035232Y036787D01*
X03522Y036779D01*
X035207Y036772D01*
X035193Y036764D01*
X035178Y036758D01*
X035178D01*
X035176Y036758D01*
X035174Y036757D01*
X035171Y036756D01*
X035168Y036755D01*
X035163Y036753D01*
X035158Y036752D01*
X035153Y036751D01*
X035141Y036748D01*
X035127Y036746D01*
X035112Y036744D01*
X035096Y036743D01*
X035091D01*
X035087Y036744D01*
X035082D01*
X035076Y036744D01*
X035069Y036746D01*
X035062Y036746D01*
X035046Y036749D01*
X035029Y036753D01*
X035011Y036759D01*
X035002Y036763D01*
X034993Y036767D01*
X034993Y036768D01*
X034991Y036768D01*
X034989Y03677D01*
X034985Y036772D01*
X034982Y036774D01*
X034978Y036777D01*
X034967Y036785D01*
X034956Y036795D01*
X034944Y036807D01*
X034933Y036821D01*
X034923Y036837D01*
Y036838D01*
X034922Y036839D01*
X034921Y036842D01*
X034919Y036845D01*
X034918Y036849D01*
X034916Y036855D01*
X034914Y03686D01*
X034912Y036867D01*
X034909Y036874D01*
X034907Y036883D01*
X034906Y036891D01*
X034904Y0369D01*
X034901Y036919D01*
X0349Y03694D01*
Y03694D01*
Y036943D01*
Y036945D01*
X034901Y036949D01*
Y036954D01*
X034901Y03696D01*
X034902Y036966D01*
X034903Y036974D01*
X034904Y036981D01*
X034906Y03699D01*
X03491Y037008D01*
X034916Y037026D01*
X034923Y037044D01*
X034924Y037045D01*
X034924Y037046D01*
X034926Y037049D01*
X034928Y037052D01*
X03493Y037056D01*
X034933Y037061D01*
X034941Y037071D01*
X03495Y037084D01*
X034962Y037095D01*
X034975Y037107D01*
X034983Y037112D01*
X03499Y037117D01*
X034991Y037117D01*
X034993Y037118D01*
X034995Y037119D01*
X034998Y037121D01*
X035003Y037122D01*
X035008Y037125D01*
X035013Y037127D01*
X03502Y037129D01*
X035027Y037131D01*
X035035Y037133D01*
X035043Y037135D01*
X035052Y037137D01*
X035071Y03714D01*
X035081Y037141D01*
X035099D01*
X035103Y03714D01*
D02*
G37*
G36*
X035633Y03675D02*
X03558D01*
X035379Y037051D01*
Y03675D01*
X03533D01*
Y037134D01*
X035382D01*
X035584Y036832D01*
Y037134D01*
X035633D01*
Y03675D01*
D02*
G37*
G36*
X035876Y037134D02*
X035887Y037133D01*
X035898Y037132D01*
X035909Y03713D01*
X035918Y037129D01*
X035919D01*
X03592Y037128D01*
X035922D01*
X035924Y037127D01*
X03593Y037125D01*
X035938Y037122D01*
X035947Y037119D01*
X035956Y037114D01*
X035966Y037108D01*
X035974Y037101D01*
X035975Y0371D01*
X035976Y0371D01*
X035977Y037098D01*
X035979Y037096D01*
X035985Y037091D01*
X035992Y037083D01*
X035999Y037074D01*
X036007Y037062D01*
X036014Y03705D01*
X03602Y037035D01*
Y037035D01*
X036021Y037034D01*
X036022Y037031D01*
X036022Y037028D01*
X036024Y037024D01*
X036025Y03702D01*
X036026Y037015D01*
X036028Y037009D01*
X036029Y037003D01*
X036031Y036995D01*
X036033Y03698D01*
X036035Y036963D01*
X036036Y036944D01*
Y036943D01*
Y036942D01*
Y036939D01*
Y036936D01*
X036035Y036933D01*
Y036928D01*
X036034Y036918D01*
X036033Y036905D01*
X036031Y036893D01*
X036028Y036879D01*
X036025Y036866D01*
Y036865D01*
X036024Y036864D01*
X036024Y036863D01*
X036023Y03686D01*
X036021Y036854D01*
X036018Y036847D01*
X036014Y036838D01*
X03601Y036829D01*
X036004Y036819D01*
X035999Y036811D01*
X035998Y036809D01*
X035996Y036807D01*
X035993Y036803D01*
X035988Y036798D01*
X035983Y036792D01*
X035977Y036787D01*
X035971Y036781D01*
X035964Y036776D01*
X035963Y036775D01*
X035961Y036773D01*
X035957Y036771D01*
X035951Y036768D01*
X035945Y036765D01*
X035937Y036762D01*
X035928Y036759D01*
X035918Y036756D01*
X035917D01*
X035915Y036756D01*
X035913Y036755D01*
X035908Y036754D01*
X0359Y036753D01*
X035891Y036752D01*
X035881Y036751D01*
X035869Y036751D01*
X035856Y03675D01*
X035718D01*
Y037134D01*
X035866D01*
X035876Y037134D01*
D02*
G37*
G36*
X03543Y03775D02*
X035377D01*
X035228Y038134D01*
X035284D01*
X035383Y037855D01*
Y037854D01*
X035384Y037853D01*
X035385Y037852D01*
X035386Y037849D01*
X035386Y037846D01*
X035387Y037843D01*
X03539Y037834D01*
X035393Y037825D01*
X035397Y037814D01*
X035403Y037792D01*
Y037793D01*
X035404Y037794D01*
X035405Y037796D01*
X035405Y037798D01*
X035407Y037804D01*
X03541Y037812D01*
X035412Y037822D01*
X035416Y037832D01*
X03542Y037843D01*
X035424Y037855D01*
X035528Y038134D01*
X03558D01*
X03543Y03775D01*
D02*
G37*
G36*
X035186Y038084D02*
X035033D01*
X035012Y03798D01*
X035013Y037981D01*
X035014Y037981D01*
X035015Y037983D01*
X035018Y037984D01*
X035022Y037986D01*
X035025Y037988D01*
X035034Y037993D01*
X035045Y037997D01*
X035058Y038001D01*
X035071Y038004D01*
X035078Y038005D01*
X03509D01*
X035093Y038004D01*
X035098Y038004D01*
X035103Y038003D01*
X035108Y038002D01*
X035114Y038D01*
X035128Y037996D01*
X035135Y037994D01*
X035142Y03799D01*
X035149Y037986D01*
X035156Y037981D01*
X035163Y037976D01*
X03517Y03797D01*
X03517Y037969D01*
X035171Y037968D01*
X035173Y037966D01*
X035175Y037964D01*
X035178Y03796D01*
X035181Y037956D01*
X035184Y037951D01*
X035188Y037945D01*
X03519Y037939D01*
X035194Y037933D01*
X035196Y037925D01*
X035199Y037917D01*
X035201Y037909D01*
X035203Y037899D01*
X035204Y03789D01*
X035205Y03788D01*
Y037879D01*
Y037878D01*
Y037875D01*
X035204Y037871D01*
X035204Y037867D01*
X035203Y037862D01*
X035202Y037855D01*
X035201Y037849D01*
X035198Y037835D01*
X035192Y03782D01*
X035189Y037812D01*
X035184Y037805D01*
X03518Y037797D01*
X035174Y03779D01*
X035174Y037789D01*
X035173Y037788D01*
X03517Y037786D01*
X035168Y037783D01*
X035164Y037779D01*
X035159Y037775D01*
X035154Y037771D01*
X035148Y037767D01*
X035141Y037762D01*
X035133Y037758D01*
X035125Y037754D01*
X035116Y037751D01*
X035107Y037748D01*
X035096Y037746D01*
X035085Y037744D01*
X035073Y037743D01*
X035068D01*
X035064Y037744D01*
X03506Y037744D01*
X035055Y037745D01*
X035049Y037746D01*
X035043Y037747D01*
X035029Y037751D01*
X035015Y037756D01*
X035008Y037759D01*
X035001Y037763D01*
X034994Y037767D01*
X034987Y037772D01*
X034987Y037773D01*
X034986Y037773D01*
X034984Y037776D01*
X034982Y037778D01*
X034979Y037781D01*
X034977Y037784D01*
X034973Y037788D01*
X034971Y037793D01*
X034967Y037798D01*
X034964Y037804D01*
X034958Y037818D01*
X034953Y037833D01*
X034951Y037842D01*
X03495Y03785D01*
X034999Y037854D01*
Y037854D01*
Y037853D01*
X035Y037851D01*
X035001Y037848D01*
X035002Y037842D01*
X035004Y037834D01*
X035008Y037825D01*
X035012Y037816D01*
X035018Y037808D01*
X035024Y0378D01*
X035025Y037799D01*
X035028Y037797D01*
X035032Y037794D01*
X035038Y037791D01*
X035045Y037788D01*
X035053Y037785D01*
X035063Y037783D01*
X035073Y037782D01*
X035077D01*
X035079Y037783D01*
X035085Y037783D01*
X035093Y037786D01*
X035103Y037788D01*
X035112Y037793D01*
X035122Y037799D01*
X035126Y037803D01*
X035131Y037808D01*
X035131Y037808D01*
X035132Y037809D01*
X035133Y03781D01*
X035135Y037812D01*
X035139Y037818D01*
X035143Y037826D01*
X035147Y037835D01*
X035151Y037847D01*
X035154Y037861D01*
X035155Y037868D01*
Y037876D01*
Y037877D01*
Y037878D01*
Y03788D01*
X035154Y037883D01*
Y037886D01*
X035154Y03789D01*
X035152Y037899D01*
X035149Y037909D01*
X035145Y03792D01*
X03514Y03793D01*
X035132Y037939D01*
Y03794D01*
X035131Y03794D01*
X035128Y037943D01*
X035123Y037947D01*
X035117Y037951D01*
X035108Y037955D01*
X035098Y037959D01*
X035086Y037962D01*
X035079Y037963D01*
X035069D01*
X035064Y037963D01*
X035059Y037962D01*
X035052Y03796D01*
X035045Y037959D01*
X035038Y037956D01*
X035031Y037953D01*
X03503Y037952D01*
X035028Y037951D01*
X035025Y037948D01*
X03502Y037945D01*
X035016Y037941D01*
X035012Y037936D01*
X035007Y037931D01*
X035003Y037925D01*
X034958Y037931D01*
X034996Y038129D01*
X035186D01*
Y038084D01*
D02*
G37*
G36*
X03506Y04014D02*
X035064D01*
X035075Y040139D01*
X035086Y040137D01*
X035099Y040135D01*
X035112Y040131D01*
X035124Y040127D01*
X035125D01*
X035126Y040126D01*
X035128Y040125D01*
X03513Y040124D01*
X035135Y040121D01*
X035143Y040116D01*
X035151Y040111D01*
X035159Y040104D01*
X035167Y040095D01*
X035174Y040086D01*
Y040085D01*
X035175Y040085D01*
X035176Y040083D01*
X035177Y040081D01*
X03518Y040076D01*
X035183Y040069D01*
X035187Y04006D01*
X03519Y040049D01*
X035192Y040038D01*
X035194Y040026D01*
X035145Y040022D01*
Y040023D01*
Y040024D01*
X035144Y040025D01*
X035144Y040028D01*
X035142Y040034D01*
X03514Y040042D01*
X035136Y040051D01*
X035131Y04006D01*
X035125Y040069D01*
X035118Y040076D01*
X035116Y040077D01*
X035114Y040079D01*
X035108Y040082D01*
X035101Y040086D01*
X035091Y040089D01*
X03508Y040092D01*
X035066Y040095D01*
X035051Y040095D01*
X035043D01*
X03504Y040095D01*
X035035Y040094D01*
X035025Y040093D01*
X035014Y040091D01*
X035003Y040088D01*
X034993Y040084D01*
X034988Y040081D01*
X034984Y040078D01*
X034983Y040077D01*
X03498Y040075D01*
X034977Y040071D01*
X034974Y040067D01*
X03497Y040061D01*
X034967Y040054D01*
X034964Y040046D01*
X034963Y040037D01*
Y040036D01*
Y040034D01*
X034964Y04003D01*
X034965Y040026D01*
X034967Y04002D01*
X034969Y040015D01*
X034973Y040009D01*
X034978Y040004D01*
X034978Y040003D01*
X034981Y040001D01*
X034983Y04D01*
X034985Y039999D01*
X034989Y039997D01*
X034993Y039995D01*
X034998Y039993D01*
X035003Y039991D01*
X035009Y039989D01*
X035017Y039986D01*
X035024Y039984D01*
X035033Y039981D01*
X035043Y039979D01*
X035054Y039976D01*
X035055D01*
X035057Y039975D01*
X03506Y039975D01*
X035064Y039974D01*
X035069Y039973D01*
X035075Y039971D01*
X035081Y039969D01*
X035088Y039968D01*
X035103Y039964D01*
X035116Y03996D01*
X035123Y039958D01*
X035129Y039955D01*
X035135Y039954D01*
X035139Y039951D01*
X03514D01*
X035141Y039951D01*
X035143Y03995D01*
X035145Y039949D01*
X035151Y039945D01*
X035158Y039941D01*
X035166Y039935D01*
X035175Y039928D01*
X035182Y03992D01*
X035189Y039912D01*
X03519Y039911D01*
X035192Y039908D01*
X035194Y039903D01*
X035197Y039897D01*
X0352Y039889D01*
X035203Y039879D01*
X035205Y039869D01*
X035205Y039858D01*
Y039857D01*
Y039857D01*
Y039855D01*
Y039853D01*
X035204Y039847D01*
X035203Y039839D01*
X035201Y03983D01*
X035198Y03982D01*
X035194Y039811D01*
X035187Y0398D01*
Y039799D01*
X035187Y039799D01*
X035184Y039796D01*
X03518Y039791D01*
X035175Y039785D01*
X035168Y039778D01*
X035159Y039771D01*
X035149Y039764D01*
X035137Y039758D01*
X035136D01*
X035135Y039758D01*
X035134Y039757D01*
X035131Y039756D01*
X035128Y039755D01*
X035124Y039753D01*
X035115Y039751D01*
X035105Y039748D01*
X035092Y039746D01*
X035078Y039744D01*
X035063Y039743D01*
X035054D01*
X03505Y039744D01*
X035045D01*
X035039Y039744D01*
X035033Y039745D01*
X035019Y039747D01*
X035004Y039749D01*
X03499Y039753D01*
X034976Y039758D01*
X034975D01*
X034974Y039759D01*
X034973Y03976D01*
X03497Y039761D01*
X034964Y039764D01*
X034956Y039769D01*
X034947Y039776D01*
X034938Y039784D01*
X034929Y039793D01*
X034921Y039804D01*
Y039804D01*
X034919Y039806D01*
X034919Y039807D01*
X034917Y039809D01*
X034916Y039812D01*
X034914Y039815D01*
X034911Y039824D01*
X034907Y039834D01*
X034903Y039846D01*
X034901Y039859D01*
X0349Y039873D01*
X034948Y039878D01*
Y039877D01*
Y039877D01*
X034948Y039875D01*
Y039873D01*
X034949Y039868D01*
X034951Y03986D01*
X034953Y039853D01*
X034955Y039845D01*
X034959Y039837D01*
X034963Y03983D01*
X034964Y039829D01*
X034965Y039827D01*
X034968Y039823D01*
X034973Y039819D01*
X034978Y039814D01*
X034984Y039809D01*
X034993Y039804D01*
X035002Y0398D01*
X035002D01*
X035003Y039799D01*
X035004Y039799D01*
X035006Y039798D01*
X035012Y039797D01*
X035019Y039794D01*
X035028Y039792D01*
X035038Y039791D01*
X035049Y039789D01*
X035061Y039789D01*
X035066D01*
X035071Y039789D01*
X035078Y03979D01*
X035086Y039791D01*
X035095Y039792D01*
X035104Y039794D01*
X035112Y039797D01*
X035113Y039798D01*
X035116Y039799D01*
X03512Y039801D01*
X035125Y039803D01*
X03513Y039807D01*
X035135Y039811D01*
X035141Y039815D01*
X035145Y039821D01*
X035146Y039822D01*
X035147Y039824D01*
X035149Y039827D01*
X035151Y039831D01*
X035153Y039835D01*
X035155Y039841D01*
X035156Y039847D01*
X035156Y039854D01*
Y039854D01*
Y039857D01*
X035156Y03986D01*
X035155Y039865D01*
X035154Y039869D01*
X035152Y039875D01*
X035149Y03988D01*
X035145Y039885D01*
X035145Y039886D01*
X035143Y039888D01*
X035141Y03989D01*
X035137Y039893D01*
X035133Y039897D01*
X035126Y0399D01*
X035119Y039904D01*
X035111Y039908D01*
X03511Y039908D01*
X035108Y039909D01*
X035103Y03991D01*
X0351Y039911D01*
X035096Y039912D01*
X035093Y039914D01*
X035088Y039915D01*
X035082Y039917D01*
X035075Y039918D01*
X035069Y03992D01*
X035061Y039922D01*
X035052Y039924D01*
X035043Y039926D01*
X035042D01*
X03504Y039927D01*
X035038Y039928D01*
X035034Y039929D01*
X03503Y03993D01*
X035025Y039931D01*
X035014Y039934D01*
X035002Y039938D01*
X034989Y039942D01*
X034978Y039946D01*
X034973Y039948D01*
X034968Y03995D01*
X034968D01*
X034967Y039951D01*
X034964Y039953D01*
X034959Y039956D01*
X034953Y03996D01*
X034947Y039965D01*
X03494Y039971D01*
X034933Y039979D01*
X034928Y039986D01*
X034927Y039988D01*
X034926Y03999D01*
X034923Y039995D01*
X034921Y04D01*
X034919Y040008D01*
X034917Y040016D01*
X034915Y040025D01*
X034914Y040034D01*
Y040035D01*
Y040035D01*
Y040037D01*
Y040039D01*
X034916Y040045D01*
X034917Y040052D01*
X034918Y04006D01*
X034921Y04007D01*
X034925Y040079D01*
X034931Y040089D01*
Y040089D01*
X034931Y04009D01*
X034934Y040093D01*
X034938Y040097D01*
X034943Y040103D01*
X034949Y040109D01*
X034958Y040116D01*
X034968Y040122D01*
X034979Y040127D01*
X034979D01*
X03498Y040128D01*
X034982Y040129D01*
X034984Y04013D01*
X034987Y040131D01*
X034991Y040132D01*
X034999Y040134D01*
X03501Y040136D01*
X035022Y040139D01*
X035035Y04014D01*
X035049Y040141D01*
X035057D01*
X03506Y04014D01*
D02*
G37*
G36*
X035979Y03975D02*
X035922D01*
X035877Y039867D01*
X035716D01*
X035674Y03975D01*
X03562D01*
X035767Y040134D01*
X035822D01*
X035979Y03975D01*
D02*
G37*
G36*
X035433Y040134D02*
X035444Y040133D01*
X035455Y040132D01*
X035466Y04013D01*
X035476Y040129D01*
X035476D01*
X035477Y040128D01*
X035479D01*
X035481Y040127D01*
X035487Y040125D01*
X035495Y040122D01*
X035504Y040119D01*
X035513Y040114D01*
X035523Y040108D01*
X035532Y040101D01*
X035532Y0401D01*
X035533Y0401D01*
X035534Y040098D01*
X035537Y040096D01*
X035542Y040091D01*
X035549Y040083D01*
X035556Y040074D01*
X035564Y040062D01*
X035571Y04005D01*
X035577Y040035D01*
Y040035D01*
X035578Y040034D01*
X035579Y040031D01*
X035579Y040028D01*
X035581Y040024D01*
X035582Y04002D01*
X035583Y040015D01*
X035585Y040009D01*
X035587Y040003D01*
X035588Y039995D01*
X03559Y03998D01*
X035592Y039963D01*
X035593Y039944D01*
Y039943D01*
Y039942D01*
Y039939D01*
Y039936D01*
X035592Y039933D01*
Y039928D01*
X035592Y039918D01*
X03559Y039905D01*
X035588Y039893D01*
X035585Y039879D01*
X035582Y039866D01*
Y039865D01*
X035582Y039864D01*
X035581Y039863D01*
X03558Y03986D01*
X035578Y039854D01*
X035575Y039847D01*
X035572Y039838D01*
X035567Y039829D01*
X035562Y039819D01*
X035556Y039811D01*
X035555Y039809D01*
X035553Y039807D01*
X03555Y039803D01*
X035545Y039798D01*
X03554Y039792D01*
X035534Y039787D01*
X035528Y039781D01*
X035521Y039776D01*
X03552Y039775D01*
X035518Y039773D01*
X035514Y039771D01*
X035508Y039768D01*
X035502Y039765D01*
X035494Y039762D01*
X035485Y039759D01*
X035475Y039756D01*
X035474D01*
X035472Y039756D01*
X035471Y039755D01*
X035465Y039754D01*
X035457Y039753D01*
X035448Y039752D01*
X035438Y039751D01*
X035426Y039751D01*
X035413Y03975D01*
X035275D01*
Y040134D01*
X035423D01*
X035433Y040134D01*
D02*
G37*
G36*
X03501Y03919D02*
X035014D01*
X035025Y039189D01*
X035036Y039187D01*
X035049Y039185D01*
X035062Y039181D01*
X035074Y039177D01*
X035075D01*
X035076Y039176D01*
X035078Y039175D01*
X03508Y039174D01*
X035085Y039171D01*
X035093Y039166D01*
X035101Y039161D01*
X035109Y039154D01*
X035117Y039145D01*
X035124Y039136D01*
Y039135D01*
X035125Y039135D01*
X035126Y039133D01*
X035127Y039131D01*
X03513Y039126D01*
X035133Y039119D01*
X035137Y03911D01*
X03514Y039099D01*
X035142Y039088D01*
X035144Y039076D01*
X035095Y039072D01*
Y039073D01*
Y039074D01*
X035094Y039075D01*
X035094Y039078D01*
X035092Y039084D01*
X03509Y039092D01*
X035086Y039101D01*
X035081Y03911D01*
X035075Y039119D01*
X035068Y039126D01*
X035066Y039127D01*
X035064Y039129D01*
X035058Y039132D01*
X035051Y039136D01*
X035041Y039139D01*
X03503Y039142D01*
X035017Y039145D01*
X035001Y039145D01*
X034993D01*
X03499Y039145D01*
X034985Y039144D01*
X034975Y039143D01*
X034964Y039141D01*
X034953Y039138D01*
X034943Y039134D01*
X034938Y039131D01*
X034934Y039128D01*
X034933Y039127D01*
X03493Y039125D01*
X034927Y039121D01*
X034924Y039117D01*
X03492Y039111D01*
X034917Y039104D01*
X034914Y039096D01*
X034913Y039087D01*
Y039086D01*
Y039084D01*
X034914Y03908D01*
X034915Y039076D01*
X034917Y03907D01*
X034919Y039065D01*
X034923Y039059D01*
X034928Y039054D01*
X034928Y039053D01*
X034931Y039051D01*
X034933Y03905D01*
X034935Y039049D01*
X034939Y039047D01*
X034943Y039045D01*
X034948Y039043D01*
X034953Y039041D01*
X034959Y039039D01*
X034967Y039036D01*
X034974Y039034D01*
X034983Y039031D01*
X034993Y039029D01*
X035004Y039026D01*
X035005D01*
X035007Y039025D01*
X03501Y039025D01*
X035014Y039024D01*
X035019Y039023D01*
X035025Y039021D01*
X035031Y039019D01*
X035038Y039018D01*
X035053Y039014D01*
X035066Y03901D01*
X035073Y039008D01*
X035079Y039005D01*
X035085Y039004D01*
X035089Y039001D01*
X03509D01*
X035091Y039001D01*
X035093Y039D01*
X035095Y038999D01*
X035101Y038995D01*
X035108Y038991D01*
X035116Y038985D01*
X035125Y038978D01*
X035132Y03897D01*
X035139Y038962D01*
X03514Y038961D01*
X035142Y038958D01*
X035144Y038953D01*
X035147Y038947D01*
X03515Y038939D01*
X035153Y038929D01*
X035155Y038919D01*
X035155Y038908D01*
Y038907D01*
Y038907D01*
Y038905D01*
Y038903D01*
X035154Y038897D01*
X035153Y038889D01*
X035151Y03888D01*
X035148Y03887D01*
X035144Y03886D01*
X035137Y03885D01*
Y038849D01*
X035137Y038849D01*
X035134Y038846D01*
X03513Y038841D01*
X035125Y038835D01*
X035118Y038828D01*
X035109Y038821D01*
X035099Y038814D01*
X035087Y038808D01*
X035086D01*
X035085Y038808D01*
X035084Y038807D01*
X035081Y038806D01*
X035078Y038805D01*
X035074Y038803D01*
X035065Y038801D01*
X035055Y038798D01*
X035042Y038796D01*
X035028Y038794D01*
X035013Y038793D01*
X035004D01*
X035Y038794D01*
X034995D01*
X034989Y038794D01*
X034983Y038795D01*
X034969Y038797D01*
X034954Y038799D01*
X03494Y038803D01*
X034926Y038808D01*
X034925D01*
X034924Y038809D01*
X034923Y03881D01*
X03492Y038811D01*
X034914Y038814D01*
X034906Y038819D01*
X034897Y038826D01*
X034888Y038834D01*
X034879Y038843D01*
X034871Y038854D01*
Y038854D01*
X034869Y038856D01*
X034869Y038857D01*
X034867Y038859D01*
X034866Y038862D01*
X034864Y038865D01*
X034861Y038874D01*
X034857Y038884D01*
X034853Y038896D01*
X034851Y038909D01*
X03485Y038923D01*
X034898Y038928D01*
Y038927D01*
Y038927D01*
X034898Y038925D01*
Y038923D01*
X034899Y038918D01*
X034901Y03891D01*
X034903Y038903D01*
X034906Y038895D01*
X034909Y038887D01*
X034913Y03888D01*
X034914Y038879D01*
X034915Y038877D01*
X034918Y038873D01*
X034923Y038869D01*
X034928Y038864D01*
X034934Y038859D01*
X034943Y038854D01*
X034952Y03885D01*
X034952D01*
X034953Y038849D01*
X034954Y038849D01*
X034956Y038848D01*
X034962Y038847D01*
X034969Y038844D01*
X034978Y038842D01*
X034988Y038841D01*
X034999Y038839D01*
X035011Y038839D01*
X035016D01*
X035021Y038839D01*
X035028Y03884D01*
X035036Y038841D01*
X035045Y038842D01*
X035054Y038844D01*
X035062Y038847D01*
X035063Y038848D01*
X035066Y038849D01*
X03507Y038851D01*
X035075Y038853D01*
X03508Y038857D01*
X035085Y038861D01*
X035091Y038865D01*
X035095Y038871D01*
X035096Y038872D01*
X035097Y038874D01*
X035099Y038877D01*
X035101Y038881D01*
X035103Y038885D01*
X035105Y038891D01*
X035106Y038897D01*
X035106Y038904D01*
Y038904D01*
Y038907D01*
X035106Y03891D01*
X035105Y038915D01*
X035104Y038919D01*
X035102Y038925D01*
X035099Y03893D01*
X035095Y038935D01*
X035095Y038936D01*
X035093Y038938D01*
X035091Y03894D01*
X035087Y038943D01*
X035083Y038947D01*
X035076Y03895D01*
X035069Y038954D01*
X035061Y038958D01*
X03506Y038958D01*
X035058Y038959D01*
X035053Y03896D01*
X03505Y038961D01*
X035046Y038962D01*
X035043Y038964D01*
X035038Y038965D01*
X035032Y038967D01*
X035025Y038968D01*
X035019Y03897D01*
X035011Y038972D01*
X035002Y038974D01*
X034993Y038976D01*
X034992D01*
X03499Y038977D01*
X034988Y038978D01*
X034984Y038979D01*
X03498Y03898D01*
X034975Y038981D01*
X034964Y038984D01*
X034952Y038988D01*
X034939Y038992D01*
X034928Y038996D01*
X034923Y038998D01*
X034918Y039D01*
X034918D01*
X034917Y039001D01*
X034914Y039003D01*
X034909Y039006D01*
X034903Y03901D01*
X034897Y039015D01*
X03489Y039021D01*
X034883Y039029D01*
X034878Y039036D01*
X034877Y039038D01*
X034876Y03904D01*
X034873Y039045D01*
X034871Y03905D01*
X034869Y039058D01*
X034867Y039066D01*
X034865Y039075D01*
X034864Y039084D01*
Y039085D01*
Y039085D01*
Y039087D01*
Y039089D01*
X034866Y039095D01*
X034867Y039102D01*
X034868Y03911D01*
X034871Y03912D01*
X034875Y039129D01*
X034881Y039139D01*
Y039139D01*
X034881Y03914D01*
X034884Y039143D01*
X034888Y039147D01*
X034893Y039153D01*
X034899Y039159D01*
X034908Y039166D01*
X034918Y039172D01*
X034929Y039177D01*
X034929D01*
X03493Y039178D01*
X034932Y039179D01*
X034934Y03918D01*
X034937Y039181D01*
X034941Y039182D01*
X034949Y039184D01*
X03496Y039186D01*
X034972Y039188D01*
X034985Y03919D01*
X034999Y039191D01*
X035007D01*
X03501Y03919D01*
D02*
G37*
G36*
X035401D02*
X035406Y03919D01*
X035412Y039189D01*
X035418Y039188D01*
X035425Y039187D01*
X03544Y039184D01*
X035457Y039179D01*
X035465Y039175D01*
X035473Y039171D01*
X03548Y039166D01*
X035488Y039161D01*
X035489Y039161D01*
X03549Y03916D01*
X035492Y039159D01*
X035495Y039156D01*
X035498Y039153D01*
X035502Y039149D01*
X035505Y039145D01*
X03551Y03914D01*
X035514Y039135D01*
X035519Y039128D01*
X035524Y039121D01*
X035528Y039114D01*
X035532Y039106D01*
X035537Y039097D01*
X03554Y039089D01*
X035543Y039079D01*
X035493Y039067D01*
Y039068D01*
X035493Y039069D01*
X035492Y039071D01*
X03549Y039074D01*
X035489Y039077D01*
X035488Y039081D01*
X035483Y03909D01*
X035478Y0391D01*
X035471Y03911D01*
X035463Y03912D01*
X035454Y039128D01*
X035453Y039129D01*
X035449Y039131D01*
X035444Y039134D01*
X035437Y039138D01*
X035427Y039141D01*
X035417Y039145D01*
X035404Y039147D01*
X03539Y039147D01*
X035386D01*
X035383Y039147D01*
X035379D01*
X035374Y039146D01*
X035364Y039145D01*
X035352Y039142D01*
X03534Y039139D01*
X035327Y039133D01*
X035316Y039126D01*
X035315D01*
X035315Y039125D01*
X035311Y039122D01*
X035306Y039117D01*
X0353Y039111D01*
X035292Y039102D01*
X035286Y039093D01*
X03528Y039081D01*
X035274Y039069D01*
Y039068D01*
X035273Y039067D01*
X035273Y039065D01*
X035272Y039063D01*
X035271Y039059D01*
X03527Y039055D01*
X035268Y039046D01*
X035266Y039035D01*
X035264Y039023D01*
X035263Y039009D01*
X035262Y038995D01*
Y038994D01*
Y038993D01*
Y03899D01*
Y038986D01*
X035263Y038983D01*
Y038978D01*
X035263Y038972D01*
X035264Y038966D01*
X035266Y038953D01*
X035268Y038938D01*
X035272Y038924D01*
X035276Y038909D01*
Y038909D01*
X035277Y038908D01*
X035278Y038906D01*
X035279Y038903D01*
X035282Y038897D01*
X035287Y038889D01*
X035293Y03888D01*
X035301Y03887D01*
X03531Y038862D01*
X035321Y038854D01*
X035321D01*
X035322Y038854D01*
X035324Y038853D01*
X035326Y038852D01*
X035329Y038851D01*
X035332Y038849D01*
X03534Y038846D01*
X03535Y038842D01*
X035361Y038839D01*
X035373Y038837D01*
X035386Y038837D01*
X03539D01*
X035393Y038837D01*
X035397D01*
X035401Y038838D01*
X035411Y03884D01*
X035423Y038843D01*
X035434Y038847D01*
X035447Y038853D01*
X035453Y038857D01*
X035458Y038861D01*
X035459Y038862D01*
X035459Y038862D01*
X035461Y038864D01*
X035463Y038865D01*
X035466Y038868D01*
X035468Y038872D01*
X035472Y038875D01*
X035474Y038879D01*
X035478Y038884D01*
X035482Y03889D01*
X035485Y038895D01*
X035488Y038902D01*
X035491Y038909D01*
X035494Y038917D01*
X035497Y038925D01*
X035499Y038934D01*
X03555Y038922D01*
Y038921D01*
X035549Y038919D01*
X035548Y038915D01*
X035547Y038911D01*
X035545Y038906D01*
X035543Y0389D01*
X03554Y038893D01*
X035537Y038886D01*
X035529Y03887D01*
X035519Y038855D01*
X035513Y038847D01*
X035507Y038839D01*
X0355Y038833D01*
X035492Y038826D01*
X035492Y038826D01*
X03549Y038824D01*
X035488Y038823D01*
X035485Y038821D01*
X03548Y038818D01*
X035476Y038816D01*
X03547Y038813D01*
X035464Y03881D01*
X035457Y038807D01*
X035449Y038804D01*
X035441Y038801D01*
X035432Y038798D01*
X035422Y038796D01*
X035412Y038795D01*
X035402Y038794D01*
X035391Y038793D01*
X035384D01*
X03538Y038794D01*
X035375D01*
X035369Y038794D01*
X035362Y038796D01*
X035354Y038797D01*
X035338Y038799D01*
X035322Y038804D01*
X035305Y03881D01*
X035297Y038814D01*
X03529Y038818D01*
X035289Y038819D01*
X035288Y038819D01*
X035286Y038821D01*
X035283Y038823D01*
X03528Y038826D01*
X035276Y038829D01*
X035272Y038833D01*
X035267Y038837D01*
X035263Y038842D01*
X035258Y038847D01*
X035248Y03886D01*
X035238Y038875D01*
X03523Y038892D01*
Y038892D01*
X035229Y038894D01*
X035229Y038897D01*
X035227Y0389D01*
X035226Y038904D01*
X035224Y03891D01*
X035222Y038916D01*
X03522Y038923D01*
X035219Y03893D01*
X035216Y038938D01*
X035214Y038955D01*
X035211Y038975D01*
X03521Y038995D01*
Y038995D01*
Y038998D01*
Y039001D01*
X035211Y039005D01*
Y03901D01*
X035211Y039016D01*
X035212Y039023D01*
X035213Y03903D01*
X035216Y039046D01*
X03522Y039064D01*
X035225Y039082D01*
X035233Y039099D01*
X035234Y0391D01*
X035234Y039101D01*
X035235Y039104D01*
X035237Y039106D01*
X03524Y03911D01*
X035242Y039115D01*
X03525Y039125D01*
X035259Y039136D01*
X03527Y039147D01*
X035283Y039158D01*
X035298Y039167D01*
X035298Y039168D01*
X0353Y039169D01*
X035302Y03917D01*
X035305Y039171D01*
X03531Y039173D01*
X035314Y039175D01*
X03532Y039177D01*
X035326Y039179D01*
X035332Y039181D01*
X03534Y039184D01*
X035355Y039187D01*
X035373Y03919D01*
X035391Y039191D01*
X035397D01*
X035401Y03919D01*
D02*
G37*
G36*
X035661Y038846D02*
X035851D01*
Y0388D01*
X03561D01*
Y039184D01*
X035661D01*
Y038846D01*
D02*
G37*
G36*
X056703Y02584D02*
X056707D01*
X056718Y025839D01*
X056729Y025837D01*
X056741Y025835D01*
X056755Y025831D01*
X056768Y025827D01*
X056768D01*
X056769Y025826D01*
X056771Y025826D01*
X056773Y025825D01*
X056779Y025821D01*
X056787Y025817D01*
X056795Y025812D01*
X056804Y025805D01*
X056812Y025798D01*
X05682Y025789D01*
X056821Y025788D01*
X056824Y025785D01*
X056827Y02578D01*
X056831Y025772D01*
X056836Y025764D01*
X056841Y025752D01*
X056846Y02574D01*
X05685Y025726D01*
X056804Y025714D01*
Y025715D01*
X056803Y025715D01*
X056802Y025717D01*
X056802Y025719D01*
X0568Y025724D01*
X056798Y025731D01*
X056795Y025739D01*
X056791Y025746D01*
X056787Y025754D01*
X056782Y02576D01*
X056781Y025761D01*
X05678Y025763D01*
X056776Y025766D01*
X056773Y02577D01*
X056768Y025774D01*
X056761Y025779D01*
X056754Y025783D01*
X056745Y025787D01*
X056744Y025787D01*
X056741Y025789D01*
X056736Y02579D01*
X05673Y025792D01*
X056722Y025794D01*
X056713Y025796D01*
X056703Y025797D01*
X056693Y025797D01*
X056686D01*
X056684Y025797D01*
X05668D01*
X056672Y025796D01*
X056663Y025795D01*
X056652Y025793D01*
X056642Y02579D01*
X056632Y025786D01*
X056631Y025786D01*
X056628Y025785D01*
X056623Y025782D01*
X056618Y025779D01*
X056611Y025775D01*
X056604Y02577D01*
X056597Y025765D01*
X056591Y025759D01*
X05659Y025758D01*
X056588Y025756D01*
X056585Y025752D01*
X056582Y025747D01*
X056578Y025742D01*
X056574Y025735D01*
X05657Y025728D01*
X056567Y02572D01*
Y02572D01*
X056566Y025719D01*
X056565Y025717D01*
X056564Y025714D01*
X056563Y025711D01*
X056562Y025707D01*
X056561Y025703D01*
X056559Y025698D01*
X056557Y025686D01*
X056554Y025673D01*
X056553Y025659D01*
X056552Y025643D01*
Y025643D01*
Y025641D01*
Y025638D01*
X056553Y025635D01*
Y02563D01*
X056553Y025625D01*
X056554Y025619D01*
X056554Y025613D01*
X056557Y025599D01*
X056559Y025585D01*
X056564Y02557D01*
X056569Y025557D01*
Y025556D01*
X05657Y025555D01*
X056571Y025553D01*
X056573Y025551D01*
X056577Y025545D01*
X056583Y025537D01*
X05659Y025529D01*
X056599Y02552D01*
X056609Y025513D01*
X056621Y025505D01*
X056622D01*
X056623Y025505D01*
X056624Y025504D01*
X056627Y025503D01*
X05663Y025502D01*
X056634Y025501D01*
X056643Y025497D01*
X056654Y025494D01*
X056666Y025492D01*
X056679Y025489D01*
X056693Y025489D01*
X056699D01*
X056702Y025489D01*
X056705D01*
X056714Y025491D01*
X056724Y025492D01*
X056734Y025494D01*
X056746Y025497D01*
X056758Y025501D01*
X056758D01*
X056759Y025502D01*
X05676Y025502D01*
X056763Y025503D01*
X056769Y025506D01*
X056775Y025509D01*
X056783Y025513D01*
X056791Y025518D01*
X056799Y025523D01*
X056806Y025528D01*
Y0256D01*
X056693D01*
Y025646D01*
X056856D01*
Y025503D01*
X056855Y025503D01*
X056854Y025502D01*
X056852Y025501D01*
X056849Y025498D01*
X056846Y025496D01*
X056842Y025493D01*
X056837Y02549D01*
X056832Y025487D01*
X05682Y025479D01*
X056807Y025472D01*
X056793Y025464D01*
X056778Y025458D01*
X056778D01*
X056776Y025458D01*
X056774Y025457D01*
X056771Y025456D01*
X056768Y025455D01*
X056763Y025453D01*
X056758Y025452D01*
X056753Y025451D01*
X056741Y025448D01*
X056727Y025446D01*
X056712Y025444D01*
X056696Y025443D01*
X056691D01*
X056687Y025444D01*
X056682D01*
X056676Y025444D01*
X056669Y025446D01*
X056662Y025446D01*
X056646Y025449D01*
X056629Y025453D01*
X056611Y025459D01*
X056602Y025463D01*
X056593Y025467D01*
X056593Y025468D01*
X056591Y025468D01*
X056589Y02547D01*
X056585Y025472D01*
X056582Y025474D01*
X056578Y025477D01*
X056567Y025485D01*
X056556Y025495D01*
X056544Y025507D01*
X056533Y025521D01*
X056523Y025537D01*
Y025538D01*
X056522Y025539D01*
X056521Y025542D01*
X056519Y025545D01*
X056518Y025549D01*
X056516Y025555D01*
X056514Y02556D01*
X056512Y025567D01*
X056509Y025574D01*
X056507Y025583D01*
X056506Y025591D01*
X056504Y0256D01*
X056501Y025619D01*
X0565Y02564D01*
Y02564D01*
Y025643D01*
Y025645D01*
X056501Y025649D01*
Y025654D01*
X056501Y02566D01*
X056502Y025666D01*
X056503Y025674D01*
X056504Y025681D01*
X056506Y02569D01*
X05651Y025708D01*
X056516Y025726D01*
X056523Y025744D01*
X056524Y025745D01*
X056524Y025746D01*
X056526Y025749D01*
X056528Y025752D01*
X05653Y025756D01*
X056533Y025761D01*
X056541Y025771D01*
X05655Y025784D01*
X056562Y025795D01*
X056575Y025807D01*
X056583Y025812D01*
X05659Y025817D01*
X056591Y025817D01*
X056593Y025818D01*
X056595Y025819D01*
X056598Y025821D01*
X056603Y025822D01*
X056608Y025825D01*
X056613Y025827D01*
X05662Y025829D01*
X056627Y025831D01*
X056635Y025833D01*
X056643Y025835D01*
X056652Y025837D01*
X056672Y02584D01*
X056681Y025841D01*
X056699D01*
X056703Y02584D01*
D02*
G37*
G36*
X057233Y02545D02*
X05718D01*
X056979Y025751D01*
Y02545D01*
X05693D01*
Y025834D01*
X056982D01*
X057184Y025532D01*
Y025834D01*
X057233D01*
Y02545D01*
D02*
G37*
G36*
X057476Y025834D02*
X057487Y025833D01*
X057498Y025832D01*
X057509Y02583D01*
X057518Y025829D01*
X057519D01*
X05752Y025828D01*
X057522D01*
X057524Y025827D01*
X05753Y025825D01*
X057538Y025822D01*
X057547Y025819D01*
X057556Y025814D01*
X057566Y025808D01*
X057574Y025801D01*
X057575Y0258D01*
X057576Y0258D01*
X057577Y025798D01*
X057579Y025796D01*
X057585Y025791D01*
X057592Y025783D01*
X057599Y025774D01*
X057607Y025762D01*
X057614Y02575D01*
X05762Y025735D01*
Y025735D01*
X057621Y025734D01*
X057622Y025731D01*
X057622Y025728D01*
X057624Y025724D01*
X057625Y02572D01*
X057626Y025715D01*
X057628Y025709D01*
X057629Y025703D01*
X057631Y025695D01*
X057633Y02568D01*
X057635Y025663D01*
X057636Y025644D01*
Y025643D01*
Y025642D01*
Y025639D01*
Y025636D01*
X057635Y025633D01*
Y025628D01*
X057634Y025618D01*
X057633Y025605D01*
X057631Y025593D01*
X057628Y025579D01*
X057625Y025566D01*
Y025565D01*
X057624Y025564D01*
X057624Y025563D01*
X057623Y02556D01*
X057621Y025554D01*
X057618Y025547D01*
X057614Y025538D01*
X05761Y025529D01*
X057604Y025519D01*
X057599Y02551D01*
X057598Y025509D01*
X057596Y025507D01*
X057593Y025503D01*
X057588Y025498D01*
X057583Y025492D01*
X057577Y025487D01*
X057571Y025481D01*
X057564Y025476D01*
X057563Y025475D01*
X057561Y025473D01*
X057557Y025471D01*
X057551Y025468D01*
X057545Y025465D01*
X057537Y025462D01*
X057528Y025459D01*
X057518Y025456D01*
X057517D01*
X057515Y025456D01*
X057513Y025455D01*
X057508Y025454D01*
X0575Y025453D01*
X057491Y025452D01*
X057481Y025451D01*
X057469Y025451D01*
X057456Y02545D01*
X057318D01*
Y025834D01*
X057466D01*
X057476Y025834D01*
D02*
G37*
G36*
X046203Y02549D02*
X046207D01*
X046218Y025489D01*
X046229Y025487D01*
X046241Y025485D01*
X046255Y025481D01*
X046268Y025477D01*
X046268D01*
X046269Y025476D01*
X046271Y025476D01*
X046273Y025475D01*
X046279Y025471D01*
X046287Y025467D01*
X046295Y025462D01*
X046304Y025455D01*
X046312Y025448D01*
X04632Y025439D01*
X046321Y025438D01*
X046324Y025435D01*
X046327Y02543D01*
X046331Y025422D01*
X046336Y025414D01*
X046341Y025402D01*
X046346Y02539D01*
X04635Y025376D01*
X046304Y025364D01*
Y025365D01*
X046303Y025365D01*
X046302Y025367D01*
X046302Y025369D01*
X0463Y025374D01*
X046298Y025381D01*
X046295Y025389D01*
X046291Y025396D01*
X046287Y025404D01*
X046282Y02541D01*
X046281Y025411D01*
X04628Y025413D01*
X046276Y025416D01*
X046273Y02542D01*
X046268Y025424D01*
X046261Y025429D01*
X046254Y025433D01*
X046245Y025437D01*
X046244Y025437D01*
X046241Y025439D01*
X046236Y02544D01*
X04623Y025442D01*
X046222Y025444D01*
X046213Y025446D01*
X046203Y025447D01*
X046193Y025447D01*
X046186D01*
X046184Y025447D01*
X04618D01*
X046172Y025446D01*
X046163Y025445D01*
X046152Y025443D01*
X046142Y02544D01*
X046132Y025436D01*
X046131Y025436D01*
X046128Y025435D01*
X046123Y025432D01*
X046118Y025429D01*
X046111Y025425D01*
X046104Y02542D01*
X046097Y025415D01*
X046091Y025409D01*
X04609Y025408D01*
X046088Y025406D01*
X046085Y025402D01*
X046082Y025397D01*
X046078Y025392D01*
X046074Y025385D01*
X04607Y025378D01*
X046067Y02537D01*
Y02537D01*
X046066Y025369D01*
X046065Y025367D01*
X046064Y025364D01*
X046063Y025361D01*
X046062Y025357D01*
X046061Y025353D01*
X046059Y025348D01*
X046057Y025336D01*
X046054Y025323D01*
X046053Y025309D01*
X046052Y025293D01*
Y025293D01*
Y025291D01*
Y025288D01*
X046053Y025285D01*
Y02528D01*
X046053Y025275D01*
X046054Y025269D01*
X046054Y025263D01*
X046057Y025249D01*
X046059Y025235D01*
X046064Y02522D01*
X046069Y025207D01*
Y025206D01*
X04607Y025205D01*
X046071Y025203D01*
X046073Y025201D01*
X046077Y025195D01*
X046083Y025187D01*
X04609Y025179D01*
X046099Y02517D01*
X046109Y025163D01*
X046121Y025155D01*
X046122D01*
X046123Y025155D01*
X046124Y025154D01*
X046127Y025153D01*
X04613Y025152D01*
X046134Y02515D01*
X046143Y025147D01*
X046154Y025144D01*
X046166Y025142D01*
X046179Y025139D01*
X046193Y025139D01*
X046199D01*
X046202Y025139D01*
X046205D01*
X046214Y025141D01*
X046224Y025142D01*
X046234Y025144D01*
X046246Y025147D01*
X046258Y025151D01*
X046258D01*
X046259Y025152D01*
X04626Y025152D01*
X046263Y025153D01*
X046269Y025156D01*
X046275Y025159D01*
X046283Y025163D01*
X046291Y025168D01*
X046299Y025173D01*
X046306Y025178D01*
Y02525D01*
X046193D01*
Y025296D01*
X046356D01*
Y025153D01*
X046355Y025153D01*
X046354Y025152D01*
X046352Y02515D01*
X046349Y025148D01*
X046346Y025146D01*
X046342Y025143D01*
X046337Y02514D01*
X046332Y025137D01*
X04632Y025129D01*
X046307Y025122D01*
X046293Y025114D01*
X046278Y025108D01*
X046277D01*
X046276Y025108D01*
X046274Y025107D01*
X046271Y025106D01*
X046268Y025105D01*
X046263Y025103D01*
X046258Y025102D01*
X046253Y025101D01*
X046241Y025098D01*
X046227Y025096D01*
X046212Y025094D01*
X046196Y025093D01*
X046191D01*
X046187Y025094D01*
X046182D01*
X046176Y025094D01*
X046169Y025096D01*
X046162Y025096D01*
X046146Y025099D01*
X046129Y025103D01*
X046111Y025109D01*
X046102Y025113D01*
X046093Y025117D01*
X046093Y025118D01*
X046091Y025118D01*
X046089Y02512D01*
X046085Y025122D01*
X046082Y025124D01*
X046078Y025127D01*
X046067Y025135D01*
X046056Y025145D01*
X046044Y025157D01*
X046033Y025171D01*
X046023Y025187D01*
Y025188D01*
X046022Y025189D01*
X046021Y025192D01*
X046019Y025195D01*
X046018Y025199D01*
X046016Y025205D01*
X046014Y02521D01*
X046012Y025217D01*
X046009Y025224D01*
X046007Y025233D01*
X046006Y025241D01*
X046004Y02525D01*
X046001Y025269D01*
X046Y02529D01*
Y02529D01*
Y025293D01*
Y025295D01*
X046001Y025299D01*
Y025304D01*
X046001Y02531D01*
X046002Y025316D01*
X046003Y025324D01*
X046004Y025331D01*
X046006Y02534D01*
X04601Y025358D01*
X046016Y025376D01*
X046023Y025394D01*
X046024Y025395D01*
X046024Y025396D01*
X046026Y025399D01*
X046028Y025402D01*
X04603Y025406D01*
X046033Y025411D01*
X046041Y025421D01*
X04605Y025434D01*
X046062Y025445D01*
X046075Y025457D01*
X046083Y025462D01*
X04609Y025467D01*
X046091Y025467D01*
X046093Y025468D01*
X046095Y025469D01*
X046098Y025471D01*
X046103Y025472D01*
X046108Y025475D01*
X046113Y025477D01*
X04612Y025479D01*
X046127Y025481D01*
X046135Y025483D01*
X046143Y025485D01*
X046152Y025487D01*
X046171Y02549D01*
X046181Y025491D01*
X046199D01*
X046203Y02549D01*
D02*
G37*
G36*
X046733Y0251D02*
X04668D01*
X046479Y025401D01*
Y0251D01*
X04643D01*
Y025484D01*
X046482D01*
X046684Y025182D01*
Y025484D01*
X046733D01*
Y0251D01*
D02*
G37*
G36*
X046976Y025484D02*
X046987Y025483D01*
X046998Y025482D01*
X047009Y02548D01*
X047018Y025479D01*
X047019D01*
X04702Y025478D01*
X047022D01*
X047024Y025477D01*
X04703Y025475D01*
X047038Y025472D01*
X047047Y025469D01*
X047056Y025464D01*
X047066Y025458D01*
X047074Y025451D01*
X047075Y02545D01*
X047076Y02545D01*
X047077Y025448D01*
X047079Y025446D01*
X047085Y025441D01*
X047092Y025433D01*
X047099Y025424D01*
X047107Y025412D01*
X047114Y0254D01*
X04712Y025385D01*
Y025385D01*
X047121Y025384D01*
X047122Y025381D01*
X047122Y025378D01*
X047124Y025374D01*
X047125Y02537D01*
X047126Y025365D01*
X047128Y025359D01*
X047129Y025353D01*
X047131Y025345D01*
X047133Y02533D01*
X047135Y025313D01*
X047136Y025294D01*
Y025293D01*
Y025292D01*
Y025289D01*
Y025286D01*
X047135Y025283D01*
Y025278D01*
X047134Y025268D01*
X047133Y025255D01*
X047131Y025243D01*
X047128Y025229D01*
X047125Y025216D01*
Y025215D01*
X047124Y025214D01*
X047124Y025213D01*
X047123Y02521D01*
X047121Y025204D01*
X047118Y025197D01*
X047114Y025188D01*
X04711Y025179D01*
X047104Y025169D01*
X047099Y025161D01*
X047098Y025159D01*
X047096Y025157D01*
X047093Y025153D01*
X047088Y025148D01*
X047083Y025142D01*
X047077Y025137D01*
X047071Y025131D01*
X047064Y025126D01*
X047063Y025125D01*
X047061Y025123D01*
X047057Y025121D01*
X047051Y025118D01*
X047045Y025115D01*
X047037Y025112D01*
X047028Y025109D01*
X047018Y025106D01*
X047017D01*
X047015Y025106D01*
X047013Y025105D01*
X047008Y025104D01*
X047Y025103D01*
X046991Y025102D01*
X046981Y025101D01*
X046969Y025101D01*
X046956Y0251D01*
X046818D01*
Y025484D01*
X046966D01*
X046976Y025484D01*
D02*
G37*
G36*
X035053Y02584D02*
X035057D01*
X035068Y025839D01*
X035079Y025837D01*
X035091Y025835D01*
X035105Y025831D01*
X035118Y025827D01*
X035118D01*
X035119Y025826D01*
X035121Y025826D01*
X035123Y025825D01*
X035129Y025821D01*
X035137Y025817D01*
X035145Y025812D01*
X035154Y025805D01*
X035162Y025798D01*
X03517Y025789D01*
X035171Y025788D01*
X035174Y025785D01*
X035177Y02578D01*
X035181Y025772D01*
X035186Y025764D01*
X035191Y025752D01*
X035196Y02574D01*
X0352Y025726D01*
X035154Y025714D01*
Y025715D01*
X035153Y025715D01*
X035152Y025717D01*
X035152Y025719D01*
X03515Y025724D01*
X035148Y025731D01*
X035145Y025739D01*
X035141Y025746D01*
X035137Y025754D01*
X035132Y02576D01*
X035131Y025761D01*
X03513Y025763D01*
X035126Y025766D01*
X035123Y02577D01*
X035118Y025774D01*
X035111Y025779D01*
X035104Y025783D01*
X035095Y025787D01*
X035094Y025787D01*
X035091Y025789D01*
X035086Y02579D01*
X03508Y025792D01*
X035072Y025794D01*
X035063Y025796D01*
X035053Y025797D01*
X035043Y025797D01*
X035036D01*
X035034Y025797D01*
X03503D01*
X035022Y025796D01*
X035013Y025795D01*
X035002Y025793D01*
X034992Y02579D01*
X034982Y025786D01*
X034981Y025786D01*
X034978Y025785D01*
X034973Y025782D01*
X034968Y025779D01*
X034961Y025775D01*
X034954Y02577D01*
X034947Y025765D01*
X034941Y025759D01*
X03494Y025758D01*
X034938Y025756D01*
X034935Y025752D01*
X034932Y025747D01*
X034928Y025742D01*
X034924Y025735D01*
X03492Y025728D01*
X034917Y02572D01*
Y02572D01*
X034916Y025719D01*
X034915Y025717D01*
X034914Y025714D01*
X034913Y025711D01*
X034912Y025707D01*
X034911Y025703D01*
X034909Y025698D01*
X034907Y025686D01*
X034904Y025673D01*
X034903Y025659D01*
X034902Y025643D01*
Y025643D01*
Y025641D01*
Y025638D01*
X034903Y025635D01*
Y02563D01*
X034903Y025625D01*
X034904Y025619D01*
X034904Y025613D01*
X034907Y025599D01*
X034909Y025585D01*
X034914Y02557D01*
X034919Y025557D01*
Y025556D01*
X03492Y025555D01*
X034921Y025553D01*
X034923Y025551D01*
X034927Y025545D01*
X034933Y025537D01*
X03494Y025529D01*
X034949Y02552D01*
X034959Y025513D01*
X034971Y025505D01*
X034972D01*
X034973Y025505D01*
X034974Y025504D01*
X034977Y025503D01*
X03498Y025502D01*
X034984Y025501D01*
X034993Y025497D01*
X035004Y025494D01*
X035016Y025492D01*
X035029Y025489D01*
X035043Y025489D01*
X035049D01*
X035052Y025489D01*
X035055D01*
X035064Y025491D01*
X035074Y025492D01*
X035084Y025494D01*
X035096Y025497D01*
X035108Y025501D01*
X035108D01*
X035109Y025502D01*
X03511Y025502D01*
X035113Y025503D01*
X035119Y025506D01*
X035125Y025509D01*
X035133Y025513D01*
X035141Y025518D01*
X035149Y025523D01*
X035156Y025528D01*
Y0256D01*
X035043D01*
Y025646D01*
X035206D01*
Y025503D01*
X035205Y025503D01*
X035204Y025502D01*
X035202Y025501D01*
X035199Y025498D01*
X035196Y025496D01*
X035192Y025493D01*
X035187Y02549D01*
X035182Y025487D01*
X03517Y025479D01*
X035157Y025472D01*
X035143Y025464D01*
X035128Y025458D01*
X035127D01*
X035126Y025458D01*
X035124Y025457D01*
X035121Y025456D01*
X035118Y025455D01*
X035113Y025453D01*
X035108Y025452D01*
X035103Y025451D01*
X035091Y025448D01*
X035077Y025446D01*
X035062Y025444D01*
X035046Y025443D01*
X035041D01*
X035037Y025444D01*
X035032D01*
X035026Y025444D01*
X035019Y025446D01*
X035012Y025446D01*
X034996Y025449D01*
X034979Y025453D01*
X034961Y025459D01*
X034952Y025463D01*
X034943Y025467D01*
X034943Y025468D01*
X034941Y025468D01*
X034939Y02547D01*
X034935Y025472D01*
X034932Y025474D01*
X034928Y025477D01*
X034917Y025485D01*
X034906Y025495D01*
X034894Y025507D01*
X034883Y025521D01*
X034873Y025537D01*
Y025538D01*
X034872Y025539D01*
X034871Y025542D01*
X034869Y025545D01*
X034868Y025549D01*
X034866Y025555D01*
X034864Y02556D01*
X034862Y025567D01*
X034859Y025574D01*
X034857Y025583D01*
X034856Y025591D01*
X034854Y0256D01*
X034851Y025619D01*
X03485Y02564D01*
Y02564D01*
Y025643D01*
Y025645D01*
X034851Y025649D01*
Y025654D01*
X034851Y02566D01*
X034852Y025666D01*
X034853Y025674D01*
X034854Y025681D01*
X034856Y02569D01*
X03486Y025708D01*
X034866Y025726D01*
X034873Y025744D01*
X034874Y025745D01*
X034874Y025746D01*
X034876Y025749D01*
X034878Y025752D01*
X03488Y025756D01*
X034883Y025761D01*
X034891Y025771D01*
X0349Y025784D01*
X034912Y025795D01*
X034925Y025807D01*
X034933Y025812D01*
X03494Y025817D01*
X034941Y025817D01*
X034943Y025818D01*
X034945Y025819D01*
X034948Y025821D01*
X034953Y025822D01*
X034958Y025825D01*
X034963Y025827D01*
X03497Y025829D01*
X034977Y025831D01*
X034985Y025833D01*
X034993Y025835D01*
X035002Y025837D01*
X035021Y02584D01*
X035031Y025841D01*
X035049D01*
X035053Y02584D01*
D02*
G37*
G36*
X035583Y02545D02*
X03553D01*
X035329Y025751D01*
Y02545D01*
X03528D01*
Y025834D01*
X035332D01*
X035534Y025532D01*
Y025834D01*
X035583D01*
Y02545D01*
D02*
G37*
G36*
X035826Y025834D02*
X035837Y025833D01*
X035848Y025832D01*
X035859Y02583D01*
X035868Y025829D01*
X035869D01*
X03587Y025828D01*
X035872D01*
X035874Y025827D01*
X03588Y025825D01*
X035888Y025822D01*
X035897Y025819D01*
X035906Y025814D01*
X035916Y025808D01*
X035924Y025801D01*
X035925Y0258D01*
X035926Y0258D01*
X035927Y025798D01*
X035929Y025796D01*
X035935Y025791D01*
X035942Y025783D01*
X035949Y025774D01*
X035957Y025762D01*
X035964Y02575D01*
X03597Y025735D01*
Y025735D01*
X035971Y025734D01*
X035972Y025731D01*
X035972Y025728D01*
X035974Y025724D01*
X035975Y02572D01*
X035976Y025715D01*
X035978Y025709D01*
X035979Y025703D01*
X035981Y025695D01*
X035983Y02568D01*
X035985Y025663D01*
X035986Y025644D01*
Y025643D01*
Y025642D01*
Y025639D01*
Y025636D01*
X035985Y025633D01*
Y025628D01*
X035984Y025618D01*
X035983Y025605D01*
X035981Y025593D01*
X035978Y025579D01*
X035975Y025566D01*
Y025565D01*
X035974Y025564D01*
X035974Y025563D01*
X035973Y02556D01*
X035971Y025554D01*
X035968Y025547D01*
X035964Y025538D01*
X03596Y025529D01*
X035954Y025519D01*
X035949Y02551D01*
X035948Y025509D01*
X035946Y025507D01*
X035943Y025503D01*
X035938Y025498D01*
X035933Y025492D01*
X035927Y025487D01*
X035921Y025481D01*
X035914Y025476D01*
X035913Y025475D01*
X035911Y025473D01*
X035907Y025471D01*
X035901Y025468D01*
X035895Y025465D01*
X035887Y025462D01*
X035878Y025459D01*
X035868Y025456D01*
X035867D01*
X035865Y025456D01*
X035863Y025455D01*
X035858Y025454D01*
X03585Y025453D01*
X035841Y025452D01*
X035831Y025451D01*
X035819Y025451D01*
X035806Y02545D01*
X035668D01*
Y025834D01*
X035816D01*
X035826Y025834D01*
D02*
G37*
G36*
X031903Y02749D02*
X031907D01*
X031918Y027489D01*
X031929Y027487D01*
X031941Y027485D01*
X031955Y027481D01*
X031968Y027477D01*
X031968D01*
X031969Y027476D01*
X031971Y027476D01*
X031973Y027475D01*
X031979Y027471D01*
X031987Y027467D01*
X031995Y027462D01*
X032004Y027455D01*
X032012Y027448D01*
X03202Y027439D01*
X032021Y027438D01*
X032024Y027435D01*
X032027Y02743D01*
X032031Y027422D01*
X032036Y027414D01*
X032041Y027402D01*
X032046Y02739D01*
X03205Y027376D01*
X032004Y027364D01*
Y027365D01*
X032003Y027365D01*
X032002Y027367D01*
X032002Y027369D01*
X032Y027374D01*
X031998Y027381D01*
X031995Y027389D01*
X031991Y027396D01*
X031987Y027404D01*
X031982Y02741D01*
X031981Y027411D01*
X03198Y027413D01*
X031976Y027416D01*
X031973Y02742D01*
X031968Y027424D01*
X031961Y027429D01*
X031954Y027433D01*
X031945Y027437D01*
X031944Y027437D01*
X031941Y027439D01*
X031936Y02744D01*
X03193Y027442D01*
X031922Y027444D01*
X031913Y027446D01*
X031903Y027447D01*
X031893Y027447D01*
X031886D01*
X031884Y027447D01*
X03188D01*
X031872Y027446D01*
X031863Y027445D01*
X031852Y027443D01*
X031842Y02744D01*
X031832Y027436D01*
X031831Y027436D01*
X031828Y027435D01*
X031823Y027432D01*
X031818Y027429D01*
X031811Y027425D01*
X031804Y02742D01*
X031797Y027415D01*
X031791Y027409D01*
X03179Y027408D01*
X031788Y027406D01*
X031785Y027402D01*
X031782Y027397D01*
X031778Y027392D01*
X031774Y027385D01*
X03177Y027378D01*
X031767Y02737D01*
Y02737D01*
X031766Y027369D01*
X031765Y027367D01*
X031764Y027364D01*
X031763Y027361D01*
X031762Y027357D01*
X03176Y027353D01*
X031759Y027348D01*
X031757Y027336D01*
X031754Y027323D01*
X031753Y027309D01*
X031752Y027293D01*
Y027293D01*
Y027291D01*
Y027288D01*
X031753Y027285D01*
Y02728D01*
X031753Y027275D01*
X031754Y027269D01*
X031754Y027263D01*
X031757Y027249D01*
X031759Y027235D01*
X031764Y02722D01*
X031769Y027207D01*
Y027206D01*
X03177Y027205D01*
X031771Y027203D01*
X031773Y027201D01*
X031777Y027195D01*
X031783Y027187D01*
X03179Y027179D01*
X031799Y02717D01*
X031809Y027163D01*
X031821Y027155D01*
X031822D01*
X031823Y027155D01*
X031824Y027154D01*
X031827Y027153D01*
X03183Y027152D01*
X031834Y02715D01*
X031843Y027147D01*
X031854Y027144D01*
X031866Y027142D01*
X031879Y027139D01*
X031893Y027139D01*
X031899D01*
X031902Y027139D01*
X031905D01*
X031914Y027141D01*
X031924Y027142D01*
X031934Y027144D01*
X031946Y027147D01*
X031958Y027151D01*
X031958D01*
X031959Y027152D01*
X03196Y027152D01*
X031963Y027153D01*
X031969Y027156D01*
X031975Y027159D01*
X031983Y027163D01*
X031991Y027168D01*
X031999Y027173D01*
X032006Y027178D01*
Y02725D01*
X031893D01*
Y027296D01*
X032056D01*
Y027153D01*
X032055Y027153D01*
X032054Y027152D01*
X032052Y02715D01*
X032049Y027148D01*
X032046Y027146D01*
X032042Y027143D01*
X032037Y02714D01*
X032032Y027137D01*
X03202Y027129D01*
X032007Y027122D01*
X031993Y027114D01*
X031978Y027108D01*
X031978D01*
X031976Y027108D01*
X031974Y027107D01*
X031971Y027106D01*
X031968Y027105D01*
X031963Y027103D01*
X031958Y027102D01*
X031953Y027101D01*
X031941Y027098D01*
X031927Y027096D01*
X031912Y027094D01*
X031896Y027093D01*
X031891D01*
X031887Y027094D01*
X031882D01*
X031876Y027094D01*
X031869Y027096D01*
X031862Y027096D01*
X031846Y027099D01*
X031829Y027103D01*
X031811Y027109D01*
X031802Y027113D01*
X031793Y027117D01*
X031793Y027118D01*
X031791Y027118D01*
X031789Y02712D01*
X031785Y027122D01*
X031782Y027124D01*
X031778Y027127D01*
X031767Y027135D01*
X031756Y027145D01*
X031744Y027157D01*
X031733Y027171D01*
X031723Y027187D01*
Y027188D01*
X031722Y027189D01*
X031721Y027192D01*
X031719Y027195D01*
X031718Y027199D01*
X031716Y027205D01*
X031714Y02721D01*
X031712Y027217D01*
X031709Y027224D01*
X031707Y027233D01*
X031706Y027241D01*
X031704Y02725D01*
X031701Y027269D01*
X0317Y02729D01*
Y02729D01*
Y027293D01*
Y027295D01*
X031701Y027299D01*
Y027304D01*
X031701Y02731D01*
X031702Y027316D01*
X031703Y027324D01*
X031704Y027331D01*
X031706Y02734D01*
X03171Y027358D01*
X031716Y027376D01*
X031723Y027394D01*
X031724Y027395D01*
X031724Y027396D01*
X031726Y027399D01*
X031728Y027402D01*
X03173Y027406D01*
X031733Y027411D01*
X031741Y027421D01*
X03175Y027434D01*
X031762Y027445D01*
X031775Y027457D01*
X031783Y027462D01*
X03179Y027467D01*
X031791Y027467D01*
X031793Y027468D01*
X031795Y027469D01*
X031798Y027471D01*
X031803Y027472D01*
X031808Y027475D01*
X031813Y027477D01*
X03182Y027479D01*
X031827Y027481D01*
X031835Y027483D01*
X031843Y027485D01*
X031852Y027487D01*
X031871Y02749D01*
X031881Y027491D01*
X031899D01*
X031903Y02749D01*
D02*
G37*
G36*
X032433Y0271D02*
X03238D01*
X032179Y027401D01*
Y0271D01*
X03213D01*
Y027484D01*
X032182D01*
X032384Y027182D01*
Y027484D01*
X032433D01*
Y0271D01*
D02*
G37*
G36*
X032676Y027484D02*
X032687Y027483D01*
X032698Y027482D01*
X032709Y02748D01*
X032718Y027479D01*
X032719D01*
X03272Y027478D01*
X032722D01*
X032724Y027477D01*
X03273Y027475D01*
X032738Y027472D01*
X032747Y027469D01*
X032756Y027464D01*
X032766Y027458D01*
X032774Y027451D01*
X032775Y02745D01*
X032776Y02745D01*
X032777Y027448D01*
X032779Y027446D01*
X032785Y027441D01*
X032792Y027433D01*
X032799Y027424D01*
X032807Y027412D01*
X032814Y0274D01*
X03282Y027385D01*
Y027385D01*
X032821Y027384D01*
X032822Y027381D01*
X032822Y027378D01*
X032824Y027374D01*
X032825Y02737D01*
X032826Y027365D01*
X032828Y027359D01*
X032829Y027353D01*
X032831Y027345D01*
X032833Y02733D01*
X032835Y027313D01*
X032836Y027294D01*
Y027293D01*
Y027292D01*
Y027289D01*
Y027286D01*
X032835Y027283D01*
Y027278D01*
X032834Y027268D01*
X032833Y027255D01*
X032831Y027243D01*
X032828Y027229D01*
X032825Y027216D01*
Y027215D01*
X032824Y027214D01*
X032824Y027213D01*
X032823Y02721D01*
X032821Y027204D01*
X032818Y027197D01*
X032814Y027188D01*
X03281Y027179D01*
X032804Y027169D01*
X032799Y02716D01*
X032798Y027159D01*
X032796Y027157D01*
X032793Y027153D01*
X032788Y027148D01*
X032783Y027142D01*
X032777Y027137D01*
X032771Y027131D01*
X032764Y027126D01*
X032763Y027125D01*
X032761Y027123D01*
X032757Y027121D01*
X032751Y027118D01*
X032745Y027115D01*
X032737Y027112D01*
X032728Y027109D01*
X032718Y027106D01*
X032717D01*
X032715Y027106D01*
X032713Y027105D01*
X032708Y027104D01*
X0327Y027103D01*
X032691Y027102D01*
X032681Y027101D01*
X032669Y027101D01*
X032656Y0271D01*
X032518D01*
Y027484D01*
X032666D01*
X032676Y027484D01*
D02*
G37*
G36*
X03218Y0279D02*
X032127D01*
X031978Y028284D01*
X032034D01*
X032133Y028005D01*
Y028004D01*
X032134Y028003D01*
X032135Y028002D01*
X032136Y027999D01*
X032136Y027996D01*
X032137Y027993D01*
X03214Y027984D01*
X032143Y027975D01*
X032147Y027964D01*
X032153Y027942D01*
Y027943D01*
X032154Y027944D01*
X032155Y027946D01*
X032155Y027948D01*
X032157Y027954D01*
X03216Y027962D01*
X032162Y027972D01*
X032166Y027982D01*
X03217Y027993D01*
X032174Y028005D01*
X032278Y028284D01*
X03233D01*
X03218Y0279D01*
D02*
G37*
G36*
X031936Y028234D02*
X031783D01*
X031762Y02813D01*
X031763Y028131D01*
X031764Y028131D01*
X031765Y028133D01*
X031768Y028134D01*
X031772Y028136D01*
X031775Y028138D01*
X031784Y028143D01*
X031795Y028147D01*
X031808Y028151D01*
X031821Y028154D01*
X031828Y028155D01*
X03184D01*
X031843Y028154D01*
X031848Y028154D01*
X031853Y028153D01*
X031858Y028152D01*
X031864Y02815D01*
X031878Y028146D01*
X031885Y028144D01*
X031892Y02814D01*
X031899Y028136D01*
X031906Y028131D01*
X031913Y028126D01*
X03192Y02812D01*
X03192Y028119D01*
X031921Y028118D01*
X031923Y028116D01*
X031925Y028114D01*
X031928Y02811D01*
X031931Y028106D01*
X031934Y028101D01*
X031938Y028095D01*
X03194Y028089D01*
X031944Y028083D01*
X031946Y028075D01*
X031949Y028067D01*
X031951Y028059D01*
X031953Y028049D01*
X031954Y02804D01*
X031955Y02803D01*
Y028029D01*
Y028028D01*
Y028025D01*
X031954Y028021D01*
X031954Y028017D01*
X031953Y028012D01*
X031952Y028005D01*
X031951Y027999D01*
X031948Y027985D01*
X031942Y02797D01*
X031939Y027962D01*
X031934Y027955D01*
X03193Y027947D01*
X031924Y02794D01*
X031924Y027939D01*
X031923Y027938D01*
X03192Y027936D01*
X031918Y027933D01*
X031914Y027929D01*
X031909Y027925D01*
X031904Y027921D01*
X031898Y027917D01*
X031891Y027912D01*
X031883Y027908D01*
X031875Y027904D01*
X031866Y027901D01*
X031857Y027898D01*
X031846Y027896D01*
X031835Y027894D01*
X031823Y027893D01*
X031818D01*
X031814Y027894D01*
X03181Y027894D01*
X031805Y027895D01*
X031799Y027896D01*
X031793Y027897D01*
X031779Y027901D01*
X031765Y027906D01*
X031758Y027909D01*
X031751Y027913D01*
X031744Y027917D01*
X031737Y027922D01*
X031737Y027923D01*
X031736Y027923D01*
X031734Y027926D01*
X031732Y027928D01*
X031729Y027931D01*
X031727Y027934D01*
X031723Y027938D01*
X031721Y027943D01*
X031717Y027948D01*
X031714Y027954D01*
X031708Y027968D01*
X031703Y027983D01*
X031701Y027992D01*
X0317Y028D01*
X031749Y028004D01*
Y028004D01*
Y028003D01*
X03175Y028001D01*
X031751Y027998D01*
X031752Y027992D01*
X031754Y027984D01*
X031758Y027975D01*
X031762Y027966D01*
X031768Y027958D01*
X031774Y02795D01*
X031775Y027949D01*
X031778Y027947D01*
X031782Y027944D01*
X031788Y027941D01*
X031795Y027938D01*
X031803Y027935D01*
X031813Y027933D01*
X031823Y027932D01*
X031827D01*
X031829Y027933D01*
X031835Y027933D01*
X031843Y027936D01*
X031853Y027938D01*
X031862Y027943D01*
X031872Y027949D01*
X031876Y027953D01*
X031881Y027958D01*
X031881Y027958D01*
X031882Y027959D01*
X031883Y027961D01*
X031885Y027962D01*
X031889Y027968D01*
X031893Y027976D01*
X031897Y027985D01*
X031901Y027997D01*
X031904Y028011D01*
X031905Y028018D01*
Y028026D01*
Y028027D01*
Y028028D01*
Y02803D01*
X031904Y028033D01*
Y028036D01*
X031904Y02804D01*
X031902Y028049D01*
X031899Y028059D01*
X031895Y02807D01*
X03189Y02808D01*
X031882Y028089D01*
Y02809D01*
X031881Y02809D01*
X031878Y028093D01*
X031873Y028097D01*
X031867Y028101D01*
X031858Y028105D01*
X031848Y028109D01*
X031836Y028112D01*
X031829Y028113D01*
X031819D01*
X031814Y028113D01*
X031809Y028112D01*
X031802Y02811D01*
X031795Y028109D01*
X031788Y028106D01*
X031781Y028103D01*
X03178Y028102D01*
X031778Y028101D01*
X031775Y028098D01*
X03177Y028095D01*
X031766Y028091D01*
X031762Y028086D01*
X031757Y028081D01*
X031753Y028075D01*
X031708Y028081D01*
X031746Y028279D01*
X031936D01*
Y028234D01*
D02*
G37*
G36*
X03186Y02934D02*
X031864D01*
X031875Y029339D01*
X031886Y029337D01*
X031899Y029335D01*
X031912Y029331D01*
X031924Y029327D01*
X031925D01*
X031926Y029326D01*
X031928Y029325D01*
X03193Y029324D01*
X031935Y029321D01*
X031943Y029316D01*
X031951Y029311D01*
X031959Y029304D01*
X031967Y029295D01*
X031974Y029286D01*
Y029285D01*
X031975Y029285D01*
X031976Y029283D01*
X031977Y029281D01*
X03198Y029276D01*
X031983Y029269D01*
X031987Y02926D01*
X03199Y029249D01*
X031992Y029238D01*
X031994Y029226D01*
X031945Y029222D01*
Y029223D01*
Y029224D01*
X031944Y029225D01*
X031944Y029228D01*
X031942Y029234D01*
X03194Y029242D01*
X031936Y029251D01*
X031931Y02926D01*
X031925Y029269D01*
X031918Y029276D01*
X031916Y029277D01*
X031914Y029279D01*
X031908Y029282D01*
X031901Y029286D01*
X031891Y029289D01*
X03188Y029292D01*
X031867Y029295D01*
X031851Y029295D01*
X031843D01*
X03184Y029295D01*
X031835Y029294D01*
X031825Y029293D01*
X031814Y029291D01*
X031803Y029288D01*
X031793Y029284D01*
X031788Y029281D01*
X031784Y029278D01*
X031783Y029277D01*
X03178Y029275D01*
X031777Y029271D01*
X031774Y029267D01*
X03177Y029261D01*
X031767Y029254D01*
X031764Y029246D01*
X031763Y029237D01*
Y029236D01*
Y029234D01*
X031764Y02923D01*
X031765Y029226D01*
X031767Y02922D01*
X031769Y029215D01*
X031773Y029209D01*
X031778Y029204D01*
X031778Y029203D01*
X031781Y029201D01*
X031783Y0292D01*
X031785Y029199D01*
X031789Y029197D01*
X031793Y029195D01*
X031798Y029193D01*
X031803Y029191D01*
X031809Y029189D01*
X031817Y029186D01*
X031824Y029184D01*
X031833Y029181D01*
X031843Y029179D01*
X031854Y029176D01*
X031855D01*
X031857Y029175D01*
X03186Y029175D01*
X031864Y029174D01*
X031869Y029173D01*
X031875Y029171D01*
X031881Y029169D01*
X031888Y029168D01*
X031903Y029164D01*
X031916Y02916D01*
X031923Y029158D01*
X031929Y029155D01*
X031935Y029154D01*
X031939Y029151D01*
X03194D01*
X031941Y029151D01*
X031943Y02915D01*
X031945Y029149D01*
X031951Y029145D01*
X031958Y029141D01*
X031966Y029135D01*
X031975Y029128D01*
X031982Y02912D01*
X031989Y029112D01*
X03199Y029111D01*
X031992Y029108D01*
X031994Y029103D01*
X031997Y029097D01*
X032Y029089D01*
X032003Y029079D01*
X032005Y029069D01*
X032005Y029058D01*
Y029057D01*
Y029057D01*
Y029055D01*
Y029053D01*
X032004Y029047D01*
X032003Y029039D01*
X032001Y02903D01*
X031998Y02902D01*
X031994Y029011D01*
X031987Y029D01*
Y028999D01*
X031987Y028999D01*
X031984Y028996D01*
X03198Y028991D01*
X031975Y028985D01*
X031968Y028978D01*
X031959Y028971D01*
X031949Y028964D01*
X031937Y028958D01*
X031936D01*
X031935Y028958D01*
X031934Y028957D01*
X031931Y028956D01*
X031928Y028955D01*
X031924Y028953D01*
X031915Y028951D01*
X031905Y028948D01*
X031892Y028946D01*
X031878Y028944D01*
X031863Y028943D01*
X031854D01*
X03185Y028944D01*
X031845D01*
X031839Y028944D01*
X031833Y028945D01*
X031819Y028947D01*
X031804Y028949D01*
X03179Y028953D01*
X031776Y028958D01*
X031775D01*
X031774Y028959D01*
X031773Y02896D01*
X03177Y028961D01*
X031764Y028964D01*
X031756Y028969D01*
X031747Y028976D01*
X031738Y028984D01*
X031729Y028993D01*
X031721Y029004D01*
Y029004D01*
X031719Y029005D01*
X031719Y029007D01*
X031717Y029009D01*
X031716Y029012D01*
X031714Y029015D01*
X031711Y029024D01*
X031707Y029034D01*
X031703Y029046D01*
X031701Y029059D01*
X0317Y029073D01*
X031748Y029078D01*
Y029077D01*
Y029077D01*
X031748Y029075D01*
Y029073D01*
X031749Y029068D01*
X031751Y02906D01*
X031753Y029053D01*
X031755Y029045D01*
X031759Y029037D01*
X031763Y02903D01*
X031764Y029029D01*
X031765Y029027D01*
X031768Y029023D01*
X031773Y029019D01*
X031778Y029014D01*
X031784Y029009D01*
X031793Y029004D01*
X031802Y029D01*
X031802D01*
X031803Y028999D01*
X031804Y028999D01*
X031806Y028998D01*
X031812Y028997D01*
X031819Y028994D01*
X031828Y028992D01*
X031838Y028991D01*
X031849Y028989D01*
X031861Y028989D01*
X031866D01*
X031871Y028989D01*
X031878Y02899D01*
X031886Y028991D01*
X031895Y028992D01*
X031904Y028994D01*
X031912Y028997D01*
X031913Y028998D01*
X031916Y028999D01*
X03192Y029001D01*
X031925Y029003D01*
X03193Y029007D01*
X031935Y029011D01*
X031941Y029015D01*
X031945Y029021D01*
X031946Y029022D01*
X031947Y029024D01*
X031949Y029027D01*
X031951Y029031D01*
X031953Y029035D01*
X031955Y029041D01*
X031956Y029047D01*
X031956Y029054D01*
Y029054D01*
Y029057D01*
X031956Y02906D01*
X031955Y029065D01*
X031954Y029069D01*
X031952Y029075D01*
X031949Y02908D01*
X031945Y029085D01*
X031945Y029086D01*
X031943Y029088D01*
X031941Y02909D01*
X031937Y029093D01*
X031933Y029097D01*
X031926Y0291D01*
X031919Y029104D01*
X031911Y029108D01*
X03191Y029108D01*
X031908Y029109D01*
X031903Y02911D01*
X0319Y029111D01*
X031896Y029112D01*
X031893Y029114D01*
X031888Y029115D01*
X031882Y029116D01*
X031875Y029118D01*
X031869Y02912D01*
X031861Y029122D01*
X031852Y029124D01*
X031843Y029126D01*
X031842D01*
X03184Y029127D01*
X031838Y029128D01*
X031834Y029129D01*
X03183Y02913D01*
X031825Y029131D01*
X031814Y029134D01*
X031802Y029138D01*
X031789Y029142D01*
X031778Y029146D01*
X031773Y029148D01*
X031768Y02915D01*
X031768D01*
X031767Y029151D01*
X031764Y029153D01*
X031759Y029156D01*
X031753Y02916D01*
X031747Y029165D01*
X03174Y029171D01*
X031733Y029179D01*
X031728Y029186D01*
X031727Y029188D01*
X031726Y02919D01*
X031723Y029195D01*
X031721Y0292D01*
X031719Y029208D01*
X031717Y029216D01*
X031715Y029225D01*
X031714Y029234D01*
Y029235D01*
Y029235D01*
Y029237D01*
Y029239D01*
X031716Y029245D01*
X031717Y029252D01*
X031718Y02926D01*
X031721Y02927D01*
X031725Y029279D01*
X031731Y029289D01*
Y029289D01*
X031731Y02929D01*
X031734Y029293D01*
X031738Y029297D01*
X031743Y029303D01*
X031749Y029309D01*
X031758Y029316D01*
X031768Y029322D01*
X031779Y029327D01*
X031779D01*
X03178Y029328D01*
X031782Y029329D01*
X031784Y02933D01*
X031787Y029331D01*
X031791Y029332D01*
X031799Y029334D01*
X03181Y029336D01*
X031822Y029339D01*
X031835Y02934D01*
X031849Y029341D01*
X031857D01*
X03186Y02934D01*
D02*
G37*
G36*
X032779Y02895D02*
X032722D01*
X032677Y029067D01*
X032516D01*
X032474Y02895D01*
X03242D01*
X032567Y029334D01*
X032622D01*
X032779Y02895D01*
D02*
G37*
G36*
X032233Y029334D02*
X032244Y029333D01*
X032255Y029332D01*
X032266Y02933D01*
X032276Y029329D01*
X032276D01*
X032277Y029328D01*
X032279D01*
X032281Y029327D01*
X032287Y029325D01*
X032295Y029322D01*
X032304Y029319D01*
X032313Y029314D01*
X032323Y029308D01*
X032332Y029301D01*
X032332Y0293D01*
X032333Y0293D01*
X032334Y029298D01*
X032337Y029296D01*
X032342Y029291D01*
X032349Y029283D01*
X032356Y029274D01*
X032364Y029262D01*
X032371Y02925D01*
X032377Y029235D01*
Y029235D01*
X032378Y029234D01*
X032379Y029231D01*
X032379Y029228D01*
X032381Y029224D01*
X032382Y02922D01*
X032383Y029215D01*
X032385Y029209D01*
X032387Y029203D01*
X032388Y029195D01*
X03239Y02918D01*
X032392Y029163D01*
X032393Y029144D01*
Y029143D01*
Y029142D01*
Y029139D01*
Y029136D01*
X032392Y029133D01*
Y029128D01*
X032392Y029118D01*
X03239Y029105D01*
X032388Y029093D01*
X032385Y029079D01*
X032382Y029066D01*
Y029065D01*
X032382Y029064D01*
X032381Y029063D01*
X03238Y02906D01*
X032378Y029054D01*
X032375Y029047D01*
X032372Y029038D01*
X032367Y029029D01*
X032362Y029019D01*
X032356Y029011D01*
X032355Y029009D01*
X032353Y029007D01*
X03235Y029003D01*
X032345Y028998D01*
X03234Y028992D01*
X032334Y028987D01*
X032328Y028981D01*
X032321Y028976D01*
X03232Y028975D01*
X032318Y028973D01*
X032314Y028971D01*
X032308Y028968D01*
X032302Y028965D01*
X032294Y028962D01*
X032285Y028959D01*
X032275Y028956D01*
X032274D01*
X032272Y028956D01*
X032271Y028955D01*
X032265Y028954D01*
X032257Y028953D01*
X032248Y028952D01*
X032238Y028951D01*
X032226Y028951D01*
X032213Y02895D01*
X032075D01*
Y029334D01*
X032223D01*
X032233Y029334D01*
D02*
G37*
G36*
X03186Y03029D02*
X031864D01*
X031875Y030289D01*
X031886Y030287D01*
X031899Y030285D01*
X031912Y030281D01*
X031924Y030277D01*
X031925D01*
X031926Y030276D01*
X031928Y030275D01*
X03193Y030274D01*
X031935Y030271D01*
X031943Y030266D01*
X031951Y030261D01*
X031959Y030254D01*
X031967Y030245D01*
X031974Y030236D01*
Y030235D01*
X031975Y030235D01*
X031976Y030233D01*
X031977Y030231D01*
X03198Y030226D01*
X031983Y030219D01*
X031987Y03021D01*
X03199Y030199D01*
X031992Y030188D01*
X031994Y030176D01*
X031945Y030172D01*
Y030173D01*
Y030174D01*
X031944Y030175D01*
X031944Y030178D01*
X031942Y030184D01*
X03194Y030192D01*
X031936Y030201D01*
X031931Y03021D01*
X031925Y030219D01*
X031918Y030226D01*
X031916Y030227D01*
X031914Y030229D01*
X031908Y030232D01*
X031901Y030236D01*
X031891Y030239D01*
X03188Y030242D01*
X031867Y030245D01*
X031851Y030245D01*
X031843D01*
X03184Y030245D01*
X031835Y030244D01*
X031825Y030243D01*
X031814Y030241D01*
X031803Y030238D01*
X031793Y030234D01*
X031788Y030231D01*
X031784Y030228D01*
X031783Y030227D01*
X03178Y030225D01*
X031777Y030221D01*
X031774Y030217D01*
X03177Y030211D01*
X031767Y030204D01*
X031764Y030196D01*
X031763Y030187D01*
Y030186D01*
Y030184D01*
X031764Y03018D01*
X031765Y030176D01*
X031767Y03017D01*
X031769Y030165D01*
X031773Y030159D01*
X031778Y030154D01*
X031778Y030153D01*
X031781Y030151D01*
X031783Y03015D01*
X031785Y030149D01*
X031789Y030147D01*
X031793Y030145D01*
X031798Y030143D01*
X031803Y030141D01*
X031809Y030139D01*
X031817Y030136D01*
X031824Y030134D01*
X031833Y030131D01*
X031843Y030129D01*
X031854Y030126D01*
X031855D01*
X031857Y030125D01*
X03186Y030125D01*
X031864Y030124D01*
X031869Y030123D01*
X031875Y030121D01*
X031881Y030119D01*
X031888Y030118D01*
X031903Y030114D01*
X031916Y03011D01*
X031923Y030108D01*
X031929Y030105D01*
X031935Y030104D01*
X031939Y030101D01*
X03194D01*
X031941Y030101D01*
X031943Y0301D01*
X031945Y030099D01*
X031951Y030095D01*
X031958Y030091D01*
X031966Y030085D01*
X031975Y030078D01*
X031982Y03007D01*
X031989Y030062D01*
X03199Y030061D01*
X031992Y030058D01*
X031994Y030053D01*
X031997Y030047D01*
X032Y030039D01*
X032003Y030029D01*
X032005Y030019D01*
X032005Y030008D01*
Y030007D01*
Y030007D01*
Y030005D01*
Y030003D01*
X032004Y029997D01*
X032003Y029989D01*
X032001Y02998D01*
X031998Y02997D01*
X031994Y02996D01*
X031987Y02995D01*
Y029949D01*
X031987Y029949D01*
X031984Y029946D01*
X03198Y029941D01*
X031975Y029935D01*
X031968Y029928D01*
X031959Y029921D01*
X031949Y029914D01*
X031937Y029908D01*
X031936D01*
X031935Y029908D01*
X031934Y029907D01*
X031931Y029906D01*
X031928Y029905D01*
X031924Y029903D01*
X031915Y029901D01*
X031905Y029898D01*
X031892Y029896D01*
X031878Y029894D01*
X031863Y029893D01*
X031854D01*
X03185Y029894D01*
X031845D01*
X031839Y029894D01*
X031833Y029895D01*
X031819Y029897D01*
X031804Y029899D01*
X03179Y029903D01*
X031776Y029908D01*
X031775D01*
X031774Y029909D01*
X031773Y02991D01*
X03177Y029911D01*
X031764Y029914D01*
X031756Y029919D01*
X031747Y029926D01*
X031738Y029934D01*
X031729Y029943D01*
X031721Y029954D01*
Y029954D01*
X031719Y029955D01*
X031719Y029957D01*
X031717Y029959D01*
X031716Y029962D01*
X031714Y029965D01*
X031711Y029974D01*
X031707Y029984D01*
X031703Y029996D01*
X031701Y030009D01*
X0317Y030023D01*
X031748Y030028D01*
Y030027D01*
Y030027D01*
X031748Y030025D01*
Y030023D01*
X031749Y030018D01*
X031751Y03001D01*
X031753Y030003D01*
X031755Y029995D01*
X031759Y029987D01*
X031763Y02998D01*
X031764Y029979D01*
X031765Y029977D01*
X031768Y029973D01*
X031773Y029969D01*
X031778Y029964D01*
X031784Y029959D01*
X031793Y029954D01*
X031802Y02995D01*
X031802D01*
X031803Y029949D01*
X031804Y029949D01*
X031806Y029948D01*
X031812Y029947D01*
X031819Y029944D01*
X031828Y029942D01*
X031838Y029941D01*
X031849Y029939D01*
X031861Y029939D01*
X031866D01*
X031871Y029939D01*
X031878Y02994D01*
X031886Y029941D01*
X031895Y029942D01*
X031904Y029944D01*
X031912Y029947D01*
X031913Y029948D01*
X031916Y029949D01*
X03192Y029951D01*
X031925Y029953D01*
X03193Y029957D01*
X031935Y029961D01*
X031941Y029965D01*
X031945Y029971D01*
X031946Y029972D01*
X031947Y029974D01*
X031949Y029977D01*
X031951Y029981D01*
X031953Y029985D01*
X031955Y029991D01*
X031956Y029997D01*
X031956Y030004D01*
Y030004D01*
Y030007D01*
X031956Y03001D01*
X031955Y030015D01*
X031954Y030019D01*
X031952Y030025D01*
X031949Y03003D01*
X031945Y030035D01*
X031945Y030036D01*
X031943Y030038D01*
X031941Y03004D01*
X031937Y030043D01*
X031933Y030047D01*
X031926Y03005D01*
X031919Y030054D01*
X031911Y030058D01*
X03191Y030058D01*
X031908Y030059D01*
X031903Y03006D01*
X0319Y030061D01*
X031896Y030062D01*
X031893Y030064D01*
X031888Y030065D01*
X031882Y030066D01*
X031875Y030068D01*
X031869Y03007D01*
X031861Y030072D01*
X031852Y030074D01*
X031843Y030076D01*
X031842D01*
X03184Y030077D01*
X031838Y030078D01*
X031834Y030079D01*
X03183Y03008D01*
X031825Y030081D01*
X031814Y030084D01*
X031802Y030088D01*
X031789Y030092D01*
X031778Y030096D01*
X031773Y030098D01*
X031768Y0301D01*
X031768D01*
X031767Y030101D01*
X031764Y030103D01*
X031759Y030106D01*
X031753Y03011D01*
X031747Y030115D01*
X03174Y030121D01*
X031733Y030129D01*
X031728Y030136D01*
X031727Y030138D01*
X031726Y03014D01*
X031723Y030145D01*
X031721Y03015D01*
X031719Y030158D01*
X031717Y030166D01*
X031715Y030175D01*
X031714Y030184D01*
Y030185D01*
Y030185D01*
Y030187D01*
Y030189D01*
X031716Y030195D01*
X031717Y030202D01*
X031718Y03021D01*
X031721Y03022D01*
X031725Y030229D01*
X031731Y030239D01*
Y030239D01*
X031731Y03024D01*
X031734Y030243D01*
X031738Y030247D01*
X031743Y030253D01*
X031749Y030259D01*
X031758Y030266D01*
X031768Y030272D01*
X031779Y030277D01*
X031779D01*
X03178Y030278D01*
X031782Y030279D01*
X031784Y03028D01*
X031787Y030281D01*
X031791Y030282D01*
X031799Y030284D01*
X03181Y030286D01*
X031822Y030289D01*
X031835Y03029D01*
X031849Y030291D01*
X031857D01*
X03186Y03029D01*
D02*
G37*
G36*
X032251D02*
X032256Y03029D01*
X032262Y030289D01*
X032268Y030289D01*
X032275Y030287D01*
X03229Y030284D01*
X032307Y030279D01*
X032315Y030275D01*
X032323Y030271D01*
X03233Y030266D01*
X032338Y030261D01*
X032339Y030261D01*
X03234Y03026D01*
X032342Y030259D01*
X032345Y030256D01*
X032348Y030253D01*
X032352Y030249D01*
X032355Y030245D01*
X03236Y03024D01*
X032364Y030235D01*
X032369Y030228D01*
X032374Y030221D01*
X032378Y030214D01*
X032382Y030206D01*
X032387Y030197D01*
X03239Y030189D01*
X032393Y030179D01*
X032343Y030167D01*
Y030168D01*
X032343Y030169D01*
X032342Y030171D01*
X03234Y030174D01*
X032339Y030177D01*
X032338Y030181D01*
X032333Y03019D01*
X032328Y0302D01*
X032321Y03021D01*
X032313Y03022D01*
X032304Y030228D01*
X032303Y030229D01*
X032299Y030231D01*
X032294Y030234D01*
X032287Y030238D01*
X032277Y030241D01*
X032267Y030245D01*
X032254Y030247D01*
X03224Y030247D01*
X032236D01*
X032233Y030247D01*
X032229D01*
X032224Y030246D01*
X032214Y030245D01*
X032202Y030242D01*
X03219Y030239D01*
X032177Y030233D01*
X032166Y030226D01*
X032165D01*
X032165Y030225D01*
X032161Y030222D01*
X032156Y030217D01*
X03215Y030211D01*
X032142Y030202D01*
X032136Y030193D01*
X03213Y030181D01*
X032124Y030169D01*
Y030168D01*
X032123Y030167D01*
X032123Y030165D01*
X032122Y030163D01*
X032121Y030159D01*
X03212Y030155D01*
X032118Y030146D01*
X032116Y030135D01*
X032114Y030123D01*
X032113Y030109D01*
X032112Y030095D01*
Y030094D01*
Y030093D01*
Y03009D01*
Y030086D01*
X032113Y030083D01*
Y030078D01*
X032113Y030072D01*
X032114Y030066D01*
X032116Y030053D01*
X032118Y030038D01*
X032122Y030024D01*
X032126Y030009D01*
Y030009D01*
X032127Y030008D01*
X032128Y030006D01*
X032129Y030003D01*
X032132Y029997D01*
X032137Y029989D01*
X032143Y02998D01*
X032151Y02997D01*
X03216Y029962D01*
X032171Y029954D01*
X032171D01*
X032172Y029954D01*
X032174Y029953D01*
X032176Y029952D01*
X032179Y02995D01*
X032182Y029949D01*
X03219Y029946D01*
X0322Y029942D01*
X032211Y029939D01*
X032223Y029937D01*
X032236Y029937D01*
X03224D01*
X032243Y029937D01*
X032247D01*
X032251Y029938D01*
X032261Y02994D01*
X032273Y029943D01*
X032284Y029947D01*
X032297Y029953D01*
X032303Y029957D01*
X032308Y029961D01*
X032309Y029962D01*
X032309Y029962D01*
X032311Y029964D01*
X032313Y029965D01*
X032315Y029968D01*
X032318Y029972D01*
X032322Y029975D01*
X032324Y029979D01*
X032328Y029984D01*
X032332Y02999D01*
X032335Y029995D01*
X032338Y030002D01*
X032341Y030009D01*
X032344Y030017D01*
X032347Y030025D01*
X032349Y030034D01*
X0324Y030022D01*
Y030021D01*
X032399Y030019D01*
X032398Y030015D01*
X032397Y030011D01*
X032395Y030006D01*
X032393Y03D01*
X03239Y029993D01*
X032387Y029986D01*
X032379Y02997D01*
X032369Y029955D01*
X032363Y029947D01*
X032357Y029939D01*
X03235Y029933D01*
X032342Y029926D01*
X032342Y029926D01*
X03234Y029924D01*
X032338Y029923D01*
X032335Y029921D01*
X03233Y029918D01*
X032326Y029916D01*
X03232Y029913D01*
X032314Y02991D01*
X032307Y029907D01*
X032299Y029904D01*
X032291Y029901D01*
X032282Y029898D01*
X032272Y029896D01*
X032262Y029895D01*
X032252Y029894D01*
X032241Y029893D01*
X032234D01*
X03223Y029894D01*
X032225D01*
X032219Y029894D01*
X032212Y029896D01*
X032204Y029897D01*
X032188Y029899D01*
X032172Y029904D01*
X032155Y02991D01*
X032147Y029914D01*
X03214Y029918D01*
X032139Y029919D01*
X032138Y029919D01*
X032136Y029921D01*
X032133Y029923D01*
X03213Y029926D01*
X032126Y029929D01*
X032122Y029933D01*
X032117Y029937D01*
X032113Y029942D01*
X032108Y029947D01*
X032098Y02996D01*
X032088Y029975D01*
X03208Y029992D01*
Y029992D01*
X032079Y029994D01*
X032079Y029997D01*
X032077Y03D01*
X032076Y030004D01*
X032074Y03001D01*
X032072Y030016D01*
X03207Y030023D01*
X032069Y03003D01*
X032066Y030038D01*
X032064Y030055D01*
X032061Y030075D01*
X03206Y030095D01*
Y030095D01*
Y030098D01*
Y030101D01*
X032061Y030105D01*
Y03011D01*
X032061Y030116D01*
X032062Y030123D01*
X032063Y03013D01*
X032066Y030146D01*
X03207Y030164D01*
X032075Y030182D01*
X032083Y030199D01*
X032084Y0302D01*
X032084Y030201D01*
X032085Y030204D01*
X032087Y030206D01*
X03209Y03021D01*
X032092Y030215D01*
X0321Y030225D01*
X032109Y030236D01*
X03212Y030247D01*
X032133Y030258D01*
X032148Y030267D01*
X032148Y030268D01*
X03215Y030269D01*
X032152Y03027D01*
X032155Y030271D01*
X03216Y030273D01*
X032164Y030275D01*
X03217Y030277D01*
X032176Y030279D01*
X032182Y030281D01*
X03219Y030284D01*
X032205Y030287D01*
X032223Y03029D01*
X032241Y030291D01*
X032247D01*
X032251Y03029D01*
D02*
G37*
G36*
X032511Y029946D02*
X032701D01*
Y0299D01*
X03246D01*
Y030284D01*
X032511D01*
Y029946D01*
D02*
G37*
%LPC*%
G36*
X030008Y037539D02*
X029919D01*
Y037246D01*
X03001D01*
X030014Y037246D01*
X030022Y037247D01*
X030032Y037247D01*
X030042Y037248D01*
X030052Y03725D01*
X03006Y037252D01*
X030061Y037253D01*
X030064Y037253D01*
X030068Y037255D01*
X030073Y037257D01*
X030078Y03726D01*
X030084Y037264D01*
X03009Y037268D01*
X030095Y037272D01*
X030096Y037273D01*
X030098Y037275D01*
X030101Y037279D01*
X030105Y037285D01*
X03011Y037292D01*
X030114Y0373D01*
X030119Y03731D01*
X030123Y03732D01*
Y037321D01*
X030123Y037322D01*
X030124Y037324D01*
X030124Y037326D01*
X030125Y037329D01*
X030126Y037333D01*
X030127Y037337D01*
X030128Y037341D01*
X03013Y037352D01*
X030132Y037365D01*
X030133Y037379D01*
X030133Y037395D01*
Y037395D01*
Y037398D01*
Y0374D01*
X030133Y037405D01*
Y03741D01*
X030132Y037415D01*
X030132Y037422D01*
X030131Y037429D01*
X030128Y037444D01*
X030125Y037459D01*
X03012Y037474D01*
X030117Y037481D01*
X030113Y037487D01*
Y037487D01*
X030112Y037489D01*
X030111Y03749D01*
X03011Y037492D01*
X030106Y037498D01*
X0301Y037505D01*
X030093Y037512D01*
X030085Y037519D01*
X030075Y037525D01*
X030065Y03753D01*
X030064Y037531D01*
X030061Y037531D01*
X030056Y037533D01*
X030049Y037535D01*
X03004Y037536D01*
X030029Y037537D01*
X030022Y037538D01*
X030015D01*
X030008Y037539D01*
D02*
G37*
G36*
X035758Y042739D02*
X035669D01*
Y042446D01*
X03576D01*
X035764Y042446D01*
X035772Y042447D01*
X035782Y042447D01*
X035792Y042448D01*
X035802Y04245D01*
X03581Y042452D01*
X035811Y042453D01*
X035814Y042453D01*
X035818Y042455D01*
X035823Y042457D01*
X035828Y04246D01*
X035834Y042464D01*
X03584Y042468D01*
X035845Y042472D01*
X035846Y042473D01*
X035848Y042475D01*
X035851Y042479D01*
X035855Y042485D01*
X035859Y042492D01*
X035864Y0425D01*
X035869Y04251D01*
X035873Y04252D01*
Y042521D01*
X035873Y042522D01*
X035874Y042524D01*
X035874Y042526D01*
X035875Y042529D01*
X035876Y042533D01*
X035877Y042537D01*
X035878Y042541D01*
X03588Y042552D01*
X035882Y042565D01*
X035883Y042579D01*
X035883Y042595D01*
Y042595D01*
Y042598D01*
Y0426D01*
X035883Y042605D01*
Y04261D01*
X035882Y042615D01*
X035882Y042622D01*
X035881Y042629D01*
X035878Y042644D01*
X035875Y042659D01*
X03587Y042674D01*
X035867Y042681D01*
X035863Y042687D01*
Y042687D01*
X035862Y042689D01*
X035861Y04269D01*
X03586Y042692D01*
X035856Y042698D01*
X03585Y042705D01*
X035843Y042712D01*
X035835Y042719D01*
X035825Y042725D01*
X035815Y04273D01*
X035814Y042731D01*
X035811Y042731D01*
X035806Y042733D01*
X035799Y042735D01*
X03579Y042736D01*
X035779Y042737D01*
X035772Y042738D01*
X035765D01*
X035758Y042739D01*
D02*
G37*
G36*
X034972Y044685D02*
X034851D01*
Y044558D01*
X034965D01*
X034972Y044558D01*
X03498Y044559D01*
X034989Y044559D01*
X034998Y04456D01*
X035006Y044562D01*
X035014Y044564D01*
X035015Y044565D01*
X035018Y044566D01*
X035021Y044568D01*
X035025Y04457D01*
X03503Y044573D01*
X035035Y044577D01*
X03504Y044582D01*
X035044Y044588D01*
X035045Y044588D01*
X035046Y04459D01*
X035048Y044594D01*
X03505Y044598D01*
X035051Y044603D01*
X035053Y044609D01*
X035054Y044615D01*
X035055Y044622D01*
Y044623D01*
Y044623D01*
X035054Y044626D01*
X035054Y044631D01*
X035053Y044638D01*
X03505Y044645D01*
X035046Y044652D01*
X035041Y04466D01*
X035035Y044667D01*
X035034Y044667D01*
X035031Y04467D01*
X035026Y044672D01*
X035019Y044676D01*
X035011Y044679D01*
X035Y044682D01*
X034987Y044684D01*
X034972Y044685D01*
D02*
G37*
G36*
X035858Y037089D02*
X035769D01*
Y036796D01*
X03586D01*
X035864Y036796D01*
X035872Y036797D01*
X035882Y036797D01*
X035892Y036798D01*
X035902Y0368D01*
X03591Y036802D01*
X035911Y036803D01*
X035914Y036803D01*
X035918Y036805D01*
X035923Y036807D01*
X035928Y036811D01*
X035934Y036814D01*
X03594Y036818D01*
X035945Y036822D01*
X035946Y036823D01*
X035948Y036825D01*
X035951Y036829D01*
X035955Y036835D01*
X035959Y036842D01*
X035964Y03685D01*
X035969Y03686D01*
X035973Y03687D01*
Y036871D01*
X035973Y036872D01*
X035974Y036874D01*
X035974Y036876D01*
X035975Y036879D01*
X035976Y036883D01*
X035977Y036887D01*
X035978Y036891D01*
X03598Y036902D01*
X035982Y036915D01*
X035983Y036929D01*
X035983Y036945D01*
Y036945D01*
Y036948D01*
Y03695D01*
X035983Y036955D01*
Y03696D01*
X035982Y036965D01*
X035982Y036972D01*
X035981Y036979D01*
X035978Y036994D01*
X035975Y037009D01*
X03597Y037024D01*
X035967Y037031D01*
X035963Y037037D01*
Y037037D01*
X035962Y037039D01*
X035961Y03704D01*
X03596Y037042D01*
X035956Y037048D01*
X03595Y037055D01*
X035943Y037062D01*
X035935Y037069D01*
X035925Y037075D01*
X035915Y03708D01*
X035914Y037081D01*
X035911Y037081D01*
X035906Y037083D01*
X035899Y037085D01*
X03589Y037086D01*
X035879Y037087D01*
X035872Y037088D01*
X035865D01*
X035858Y037089D01*
D02*
G37*
G36*
X035794Y040094D02*
Y040094D01*
X035793Y040092D01*
Y04009D01*
X035792Y040088D01*
X035791Y040084D01*
X03579Y04008D01*
X035788Y040071D01*
X035785Y04006D01*
X035781Y040047D01*
X035777Y040034D01*
X035772Y04002D01*
X035731Y039908D01*
X035861D01*
X035821Y040014D01*
Y040014D01*
X03582Y040016D01*
X035819Y040019D01*
X035818Y040022D01*
X035816Y040026D01*
X035815Y040031D01*
X035813Y040036D01*
X035811Y040042D01*
X035806Y040055D01*
X035802Y040068D01*
X035797Y040081D01*
X035794Y040094D01*
D02*
G37*
G36*
X035415Y040089D02*
X035326D01*
Y039796D01*
X035417D01*
X035421Y039796D01*
X035429Y039797D01*
X035439Y039797D01*
X035449Y039798D01*
X035459Y0398D01*
X035467Y039802D01*
X035468Y039803D01*
X035471Y039803D01*
X035475Y039805D01*
X03548Y039807D01*
X035486Y039811D01*
X035491Y039814D01*
X035497Y039818D01*
X035502Y039822D01*
X035503Y039823D01*
X035505Y039825D01*
X035508Y039829D01*
X035512Y039835D01*
X035517Y039842D01*
X035522Y03985D01*
X035526Y03986D01*
X03553Y03987D01*
Y039871D01*
X03553Y039872D01*
X035531Y039874D01*
X035532Y039876D01*
X035532Y039879D01*
X035533Y039883D01*
X035534Y039887D01*
X035535Y039891D01*
X035537Y039902D01*
X035539Y039915D01*
X03554Y039929D01*
X03554Y039945D01*
Y039945D01*
Y039948D01*
Y03995D01*
X03554Y039955D01*
Y03996D01*
X035539Y039965D01*
X035539Y039972D01*
X035538Y039979D01*
X035535Y039994D01*
X035532Y040009D01*
X035527Y040024D01*
X035524Y040031D01*
X03552Y040037D01*
Y040037D01*
X035519Y040039D01*
X035518Y04004D01*
X035517Y040042D01*
X035513Y040048D01*
X035507Y040055D01*
X0355Y040062D01*
X035492Y040069D01*
X035482Y040075D01*
X035472Y04008D01*
X035471Y040081D01*
X035468Y040081D01*
X035463Y040083D01*
X035456Y040085D01*
X035447Y040086D01*
X035436Y040087D01*
X035429Y040088D01*
X035422D01*
X035415Y040089D01*
D02*
G37*
G36*
X057458Y025789D02*
X057369D01*
Y025496D01*
X05746D01*
X057464Y025496D01*
X057472Y025497D01*
X057482Y025497D01*
X057492Y025498D01*
X057502Y0255D01*
X05751Y025502D01*
X057511Y025503D01*
X057514Y025503D01*
X057518Y025505D01*
X057523Y025507D01*
X057528Y02551D01*
X057534Y025514D01*
X05754Y025518D01*
X057545Y025522D01*
X057546Y025523D01*
X057548Y025525D01*
X057551Y025529D01*
X057555Y025535D01*
X057559Y025542D01*
X057564Y02555D01*
X057569Y02556D01*
X057573Y02557D01*
Y025571D01*
X057573Y025572D01*
X057574Y025574D01*
X057574Y025576D01*
X057575Y025579D01*
X057576Y025583D01*
X057577Y025587D01*
X057578Y025591D01*
X05758Y025602D01*
X057582Y025615D01*
X057583Y025629D01*
X057583Y025645D01*
Y025645D01*
Y025648D01*
Y02565D01*
X057583Y025655D01*
Y02566D01*
X057582Y025665D01*
X057582Y025672D01*
X057581Y025679D01*
X057578Y025694D01*
X057575Y025709D01*
X05757Y025724D01*
X057567Y025731D01*
X057563Y025737D01*
Y025737D01*
X057562Y025739D01*
X057561Y02574D01*
X05756Y025742D01*
X057556Y025748D01*
X05755Y025755D01*
X057543Y025762D01*
X057535Y025769D01*
X057525Y025775D01*
X057515Y02578D01*
X057514Y025781D01*
X057511Y025781D01*
X057506Y025783D01*
X057499Y025785D01*
X05749Y025786D01*
X057479Y025787D01*
X057472Y025788D01*
X057465D01*
X057458Y025789D01*
D02*
G37*
G36*
X046958Y025439D02*
X046869D01*
Y025146D01*
X04696D01*
X046964Y025146D01*
X046972Y025147D01*
X046982Y025147D01*
X046992Y025148D01*
X047002Y02515D01*
X04701Y025152D01*
X047011Y025153D01*
X047014Y025153D01*
X047018Y025155D01*
X047023Y025157D01*
X047028Y025161D01*
X047034Y025164D01*
X04704Y025168D01*
X047045Y025172D01*
X047046Y025173D01*
X047048Y025175D01*
X047051Y025179D01*
X047055Y025185D01*
X047059Y025192D01*
X047064Y0252D01*
X047069Y02521D01*
X047073Y02522D01*
Y025221D01*
X047073Y025222D01*
X047074Y025224D01*
X047074Y025226D01*
X047075Y025229D01*
X047076Y025233D01*
X047077Y025237D01*
X047078Y025241D01*
X04708Y025252D01*
X047082Y025265D01*
X047083Y025279D01*
X047083Y025295D01*
Y025295D01*
Y025298D01*
Y0253D01*
X047083Y025305D01*
Y02531D01*
X047082Y025315D01*
X047082Y025322D01*
X047081Y025329D01*
X047078Y025344D01*
X047075Y025359D01*
X04707Y025374D01*
X047067Y025381D01*
X047063Y025387D01*
Y025387D01*
X047062Y025389D01*
X047061Y02539D01*
X04706Y025392D01*
X047056Y025398D01*
X04705Y025405D01*
X047043Y025412D01*
X047035Y025419D01*
X047025Y025425D01*
X047015Y02543D01*
X047014Y025431D01*
X047011Y025431D01*
X047006Y025433D01*
X046999Y025435D01*
X04699Y025436D01*
X046979Y025437D01*
X046972Y025438D01*
X046965D01*
X046958Y025439D01*
D02*
G37*
G36*
X035808Y025789D02*
X035719D01*
Y025496D01*
X03581D01*
X035814Y025496D01*
X035822Y025497D01*
X035832Y025497D01*
X035842Y025498D01*
X035852Y0255D01*
X03586Y025502D01*
X035861Y025503D01*
X035864Y025503D01*
X035868Y025505D01*
X035873Y025507D01*
X035878Y02551D01*
X035884Y025514D01*
X03589Y025518D01*
X035895Y025522D01*
X035896Y025523D01*
X035898Y025525D01*
X035901Y025529D01*
X035905Y025535D01*
X03591Y025542D01*
X035914Y02555D01*
X035919Y02556D01*
X035923Y02557D01*
Y025571D01*
X035923Y025572D01*
X035924Y025574D01*
X035924Y025576D01*
X035925Y025579D01*
X035926Y025583D01*
X035927Y025587D01*
X035928Y025591D01*
X03593Y025602D01*
X035932Y025615D01*
X035933Y025629D01*
X035933Y025645D01*
Y025645D01*
Y025648D01*
Y02565D01*
X035933Y025655D01*
Y02566D01*
X035932Y025665D01*
X035932Y025672D01*
X035931Y025679D01*
X035928Y025694D01*
X035925Y025709D01*
X03592Y025724D01*
X035917Y025731D01*
X035913Y025737D01*
Y025737D01*
X035912Y025739D01*
X035911Y02574D01*
X03591Y025742D01*
X035906Y025748D01*
X0359Y025755D01*
X035893Y025762D01*
X035885Y025769D01*
X035875Y025775D01*
X035865Y02578D01*
X035864Y025781D01*
X035861Y025781D01*
X035856Y025783D01*
X035849Y025785D01*
X03584Y025786D01*
X035829Y025787D01*
X035822Y025788D01*
X035815D01*
X035808Y025789D01*
D02*
G37*
G36*
X032658Y027439D02*
X032569D01*
Y027146D01*
X03266D01*
X032664Y027146D01*
X032672Y027147D01*
X032682Y027147D01*
X032692Y027148D01*
X032702Y02715D01*
X03271Y027152D01*
X032711Y027153D01*
X032714Y027153D01*
X032718Y027155D01*
X032723Y027157D01*
X032728Y02716D01*
X032734Y027164D01*
X03274Y027168D01*
X032745Y027172D01*
X032746Y027173D01*
X032748Y027175D01*
X032751Y027179D01*
X032755Y027185D01*
X032759Y027192D01*
X032764Y0272D01*
X032769Y02721D01*
X032773Y02722D01*
Y027221D01*
X032773Y027222D01*
X032774Y027224D01*
X032774Y027226D01*
X032775Y027229D01*
X032776Y027233D01*
X032777Y027237D01*
X032778Y027241D01*
X03278Y027252D01*
X032782Y027265D01*
X032783Y027279D01*
X032783Y027295D01*
Y027295D01*
Y027298D01*
Y0273D01*
X032783Y027305D01*
Y02731D01*
X032782Y027315D01*
X032782Y027322D01*
X032781Y027329D01*
X032778Y027344D01*
X032775Y027359D01*
X03277Y027374D01*
X032767Y027381D01*
X032763Y027387D01*
Y027387D01*
X032762Y027389D01*
X032761Y02739D01*
X03276Y027392D01*
X032756Y027398D01*
X03275Y027405D01*
X032743Y027412D01*
X032735Y027419D01*
X032725Y027425D01*
X032715Y02743D01*
X032714Y027431D01*
X032711Y027431D01*
X032706Y027433D01*
X032699Y027435D01*
X03269Y027436D01*
X032679Y027437D01*
X032672Y027438D01*
X032665D01*
X032658Y027439D01*
D02*
G37*
G36*
X032594Y029294D02*
Y029294D01*
X032593Y029292D01*
Y02929D01*
X032592Y029288D01*
X032591Y029284D01*
X03259Y02928D01*
X032588Y029271D01*
X032585Y02926D01*
X032581Y029247D01*
X032577Y029234D01*
X032572Y02922D01*
X032531Y029108D01*
X032661D01*
X032621Y029214D01*
Y029214D01*
X03262Y029216D01*
X032619Y029219D01*
X032618Y029222D01*
X032616Y029226D01*
X032615Y029231D01*
X032613Y029236D01*
X032611Y029242D01*
X032606Y029255D01*
X032602Y029268D01*
X032597Y029281D01*
X032594Y029294D01*
D02*
G37*
G36*
X032215Y029289D02*
X032126D01*
Y028996D01*
X032217D01*
X032221Y028996D01*
X032229Y028997D01*
X032239Y028997D01*
X032249Y028998D01*
X032259Y029D01*
X032267Y029002D01*
X032268Y029003D01*
X032271Y029003D01*
X032275Y029005D01*
X03228Y029007D01*
X032286Y029011D01*
X032291Y029014D01*
X032297Y029018D01*
X032302Y029022D01*
X032303Y029023D01*
X032305Y029025D01*
X032308Y029029D01*
X032312Y029035D01*
X032317Y029042D01*
X032322Y02905D01*
X032326Y02906D01*
X03233Y02907D01*
Y029071D01*
X03233Y029072D01*
X032331Y029074D01*
X032332Y029076D01*
X032332Y029079D01*
X032333Y029083D01*
X032334Y029087D01*
X032335Y029091D01*
X032337Y029102D01*
X032339Y029115D01*
X03234Y029129D01*
X03234Y029145D01*
Y029145D01*
Y029148D01*
Y02915D01*
X03234Y029155D01*
Y02916D01*
X032339Y029165D01*
X032339Y029172D01*
X032338Y029179D01*
X032335Y029194D01*
X032332Y029209D01*
X032327Y029224D01*
X032324Y029231D01*
X03232Y029237D01*
Y029237D01*
X032319Y029239D01*
X032318Y02924D01*
X032317Y029242D01*
X032313Y029248D01*
X032307Y029255D01*
X0323Y029262D01*
X032292Y029269D01*
X032282Y029275D01*
X032272Y02928D01*
X032271Y029281D01*
X032268Y029281D01*
X032263Y029283D01*
X032256Y029285D01*
X032247Y029286D01*
X032236Y029287D01*
X032229Y029288D01*
X032222D01*
X032215Y029289D01*
D02*
G37*
%LPD*%
D10*
X051713Y042283D02*
G03*
X051713Y042283I-000118J0D01*
G01*
D11*
X051124Y041437D02*
G03*
X051124Y041437I-000049J0D01*
G01*
X05537Y047D02*
G03*
X05537Y047I-000049J0D01*
G01*
X053394D02*
G03*
X053394Y047I-000049J0D01*
G01*
X05132D02*
G03*
X05132Y047I-000049J0D01*
G01*
X02933Y046008D02*
G03*
X02933Y046008I-000049J0D01*
G01*
X055132Y03375D02*
G03*
X055132Y03375I-000049J0D01*
G01*
X062158Y033643D02*
G03*
X062158Y033643I-000049J0D01*
G01*
D12*
X025539Y042531D02*
G03*
X025539Y042531I-002339J0D01*
G01*
X021852Y04805D02*
G03*
X021852Y04805I-000212J0D01*
G01*
X014549Y046034D02*
Y048199D01*
X014116Y045601D02*
X014549Y046034D01*
X012384Y045601D02*
X014116D01*
X011951Y046034D02*
Y048199D01*
Y046034D02*
X012384Y045601D01*
X011951Y048199D02*
X014549D01*
X030196Y042504D02*
X031596D01*
X029904Y042796D02*
X030196Y042504D01*
X029904Y042796D02*
Y043904D01*
X030196Y044196D02*
X031596D01*
X029904Y043904D02*
X030196Y044196D01*
X031596Y042504D02*
Y044196D01*
X025562Y04013D02*
Y044894D01*
X020798Y04013D02*
X025562D01*
X020798D02*
Y041272D01*
Y044894D01*
X025562D01*
X02119Y0465D02*
Y0485D01*
X02476D01*
Y0465D02*
Y0485D01*
X02119Y0465D02*
X02476D01*
X026201Y041401D02*
Y043566D01*
X026634Y043999D01*
X028366D01*
X028799Y041401D02*
Y043566D01*
X028366Y043999D02*
X028799Y043566D01*
X026201Y041401D02*
X028799D01*
X01587Y0494D02*
Y0489D01*
X01597Y0488D01*
X01617D01*
X01627Y0489D01*
Y0494D01*
X01647Y0488D02*
X01667D01*
X01657D01*
Y0494D01*
X01647Y0493D01*
X01305Y04935D02*
X01295Y04945D01*
X01275D01*
X01265Y04935D01*
Y04895D01*
X01275Y04885D01*
X01295D01*
X01305Y04895D01*
X01355Y04885D02*
Y04945D01*
X01325Y04915D01*
X01365D01*
X010451Y03895D02*
X010651D01*
X010551D01*
Y03955D01*
X010451Y03945D01*
X01135Y03895D02*
X01095D01*
X01135Y03935D01*
Y03945D01*
X01125Y03955D01*
X01105D01*
X01095Y03945D01*
X01155Y03955D02*
Y03915D01*
X01175Y03895D01*
X01195Y03915D01*
Y03955D01*
X01275Y03895D02*
X01305Y03925D01*
X01275Y03955D01*
X01325Y03895D02*
X01345D01*
X01335D01*
Y03955D01*
X01325Y03945D01*
X01375Y03895D02*
Y03935D01*
X013949Y03955D01*
X014149Y03935D01*
Y03895D01*
Y03925D01*
X01375D01*
X05795Y0473D02*
Y0467D01*
X05825D01*
X05835Y0468D01*
Y0469D01*
X05825Y047D01*
X05795D01*
X05825D01*
X05835Y0471D01*
Y0472D01*
X05825Y0473D01*
X05795D01*
X05855D02*
Y0467D01*
Y0469D01*
X05895Y0473D01*
X05865Y047D01*
X05895Y0467D01*
X05915D02*
Y0473D01*
X05945D01*
X059549Y0472D01*
Y047D01*
X05945Y0469D01*
X05915D01*
X05935D02*
X059549Y0467D01*
X060149Y0473D02*
X059749D01*
Y0467D01*
X060149D01*
X059749Y047D02*
X059949D01*
X060749Y0472D02*
X060649Y0473D01*
X060449D01*
X060349Y0472D01*
Y0471D01*
X060449Y047D01*
X060649D01*
X060749Y0469D01*
Y0468D01*
X060649Y0467D01*
X060449D01*
X060349Y0468D01*
X03036Y03099D02*
Y03159D01*
X03066D01*
X03076Y03149D01*
Y03129D01*
X03066Y03119D01*
X03036D01*
X03056D02*
X03076Y03099D01*
X03096Y03159D02*
X03136D01*
X03116D01*
Y03099D01*
X031959Y03149D02*
X03186Y03159D01*
X03166D01*
X03156Y03149D01*
Y03109D01*
X03166Y03099D01*
X03186D01*
X031959Y03109D01*
X033Y04155D02*
Y04095D01*
X0333D01*
X0334Y04105D01*
Y04145D01*
X0333Y04155D01*
X033D01*
X0336Y04095D02*
X0338D01*
X0337D01*
Y04135D01*
X0336D01*
X0341Y04095D02*
X0344D01*
X0345Y04105D01*
X0344Y04115D01*
X0342D01*
X0341Y04125D01*
X0342Y04135D01*
X0345D01*
X0347Y04095D02*
Y04155D01*
X035D01*
X0351Y04145D01*
Y04125D01*
X035Y04115D01*
X0347D01*
X02124Y04945D02*
Y04905D01*
X02144Y04885D01*
X02164Y04905D01*
Y04945D01*
X02184Y04885D02*
Y04945D01*
X02214D01*
X02224Y04935D01*
Y04915D01*
X02214Y04905D01*
X02184D01*
X02204D02*
X02224Y04885D01*
X02244D02*
X02264D01*
X02254D01*
Y04945D01*
X02244Y04935D01*
X05335Y03705D02*
Y03765D01*
X05365D01*
X05375Y03755D01*
Y03735D01*
X05365Y03725D01*
X05335D01*
X05355D02*
X05375Y03705D01*
X05395D02*
X05415D01*
X05405D01*
Y03765D01*
X05395Y03755D01*
X05485Y03765D02*
X05445D01*
Y03735D01*
X05465Y03745D01*
X05475D01*
X05485Y03735D01*
Y03715D01*
X05475Y03705D01*
X05455D01*
X05445Y03715D01*
X012263Y034375D02*
Y034625D01*
X012346Y034542D01*
X012429Y034625D01*
Y034375D01*
X012513Y034625D02*
X012596D01*
X012554D01*
Y034375D01*
X012513D01*
X012596D01*
X012887Y034583D02*
X012846Y034625D01*
X012762D01*
X012721Y034583D01*
Y034542D01*
X012762Y0345D01*
X012846D01*
X012887Y034458D01*
Y034417D01*
X012846Y034375D01*
X012762D01*
X012721Y034417D01*
X013096Y034625D02*
X013012D01*
X012971Y034583D01*
Y034417D01*
X013012Y034375D01*
X013096D01*
X013137Y034417D01*
Y034583D01*
X013096Y034625D01*
X02636Y0482D02*
Y0488D01*
X02666D01*
X02676Y0487D01*
Y0485D01*
X02666Y0484D01*
X02636D01*
X02656D02*
X02676Y0482D01*
X02736D02*
X02696D01*
X02736Y0486D01*
Y0487D01*
X02726Y0488D01*
X02706D01*
X02696Y0487D01*
X02803Y040242D02*
Y040841D01*
X02833D01*
X02843Y040741D01*
Y040542D01*
X02833Y040442D01*
X02803D01*
X02823D02*
X02843Y040242D01*
X02863D02*
X02883D01*
X02873D01*
Y040841D01*
X02863Y040741D01*
X04985Y0468D02*
Y047D01*
X0498Y04705D01*
X0497D01*
X04965Y047D01*
Y0468D01*
X0497Y04675D01*
X0498D01*
X04975Y04685D02*
X04985Y04675D01*
X0498D02*
X04985Y0468D01*
X04995Y047D02*
X05Y04705D01*
X0501D01*
X05015Y047D01*
Y04695D01*
X0501Y0469D01*
X05005D01*
X0501D01*
X05015Y04685D01*
Y0468D01*
X0501Y04675D01*
X05D01*
X04995Y0468D01*
X054Y04685D02*
Y04705D01*
X05395Y0471D01*
X05385D01*
X0538Y04705D01*
Y04685D01*
X05385Y0468D01*
X05395D01*
X0539Y0469D02*
X054Y0468D01*
X05395D02*
X054Y04685D01*
X0543Y0468D02*
X0541D01*
X0543Y047D01*
Y04705D01*
X05425Y0471D01*
X05415D01*
X0541Y04705D01*
X05205Y04685D02*
Y04705D01*
X052Y0471D01*
X0519D01*
X05185Y04705D01*
Y04685D01*
X0519Y0468D01*
X052D01*
X05195Y0469D02*
X05205Y0468D01*
X052D02*
X05205Y04685D01*
X05215Y0468D02*
X05225D01*
X0522D01*
Y0471D01*
X05215Y04705D01*
X02935Y03605D02*
Y03665D01*
X02965D01*
X02975Y03655D01*
Y03635D01*
X02965Y03625D01*
X02935D01*
X03025Y03665D02*
X03005D01*
X02995Y03655D01*
Y03615D01*
X03005Y03605D01*
X03025D01*
X03035Y03615D01*
Y03655D01*
X03025Y03665D01*
X03055D02*
Y03605D01*
X03075Y03625D01*
X03095Y03605D01*
Y03665D01*
X03155D02*
X03115D01*
Y03605D01*
X03155D01*
X03115Y03635D02*
X03135D01*
X03175Y03605D02*
Y03665D01*
X03205D01*
X03215Y03655D01*
Y03635D01*
X03205Y03625D01*
X03175D01*
X03195D02*
X03215Y03605D01*
X0203Y0459D02*
Y0453D01*
X0207D01*
X0209D02*
X0211D01*
X021D01*
Y0459D01*
X0209Y0458D01*
X0488Y0317D02*
Y0311D01*
X0491D01*
X0492Y0312D01*
Y0316D01*
X0491Y0317D01*
X0488D01*
X0497Y0311D02*
Y0317D01*
X0494Y0314D01*
X0498D01*
X05615Y0317D02*
Y0311D01*
X05645D01*
X05655Y0312D01*
Y0316D01*
X05645Y0317D01*
X05615D01*
X05675Y0316D02*
X05685Y0317D01*
X05705D01*
X05715Y0316D01*
Y0315D01*
X05705Y0314D01*
X05695D01*
X05705D01*
X05715Y0313D01*
Y0312D01*
X05705Y0311D01*
X05685D01*
X05675Y0312D01*
X011433Y034583D02*
X011392Y034625D01*
X011308D01*
X011267Y034583D01*
Y034417D01*
X011308Y034375D01*
X011392D01*
X011433Y034417D01*
Y0345D01*
X01135D01*
X011517Y034375D02*
Y034625D01*
X011683Y034375D01*
Y034625D01*
X011767D02*
Y034375D01*
X011892D01*
X011933Y034417D01*
Y034583D01*
X011892Y034625D01*
X011767D01*
X04895Y0345D02*
X04885Y0346D01*
X04865D01*
X04855Y0345D01*
Y0341D01*
X04865Y034D01*
X04885D01*
X04895Y0341D01*
X04915Y034D02*
X04935D01*
X04925D01*
Y0346D01*
X04915Y0345D01*
X04965Y034D02*
X04985D01*
X04975D01*
Y0346D01*
X04965Y0345D01*
X04865Y0383D02*
X04855Y0384D01*
X04835D01*
X04825Y0383D01*
Y0379D01*
X04835Y0378D01*
X04855D01*
X04865Y0379D01*
X04885Y0378D02*
X04905D01*
X04895D01*
Y0384D01*
X04885Y0383D01*
X04935D02*
X04945Y0384D01*
X04965D01*
X04975Y0383D01*
Y0379D01*
X04965Y0378D01*
X04945D01*
X04935Y0379D01*
Y0383D01*
X0561Y03435D02*
X056Y03445D01*
X0558D01*
X0557Y03435D01*
Y03395D01*
X0558Y03385D01*
X056D01*
X0561Y03395D01*
X0563Y03445D02*
X0567D01*
Y03435D01*
X0563Y03395D01*
Y03385D01*
X02821Y048703D02*
X02811Y048803D01*
X02791D01*
X02781Y048703D01*
Y048303D01*
X02791Y048203D01*
X02811D01*
X02821Y048303D01*
X02841Y048703D02*
X02851Y048803D01*
X02871D01*
X02881Y048703D01*
Y048603D01*
X02871Y048503D01*
X02861D01*
X02871D01*
X02881Y048403D01*
Y048303D01*
X02871Y048203D01*
X02851D01*
X02841Y048303D01*
X02955Y0492D02*
Y0496D01*
X02975Y0498D01*
X02995Y0496D01*
Y0492D01*
Y0495D01*
X02955D01*
X03015Y0492D02*
Y0498D01*
X03035Y0496D01*
X03055Y0498D01*
Y0492D01*
X03115Y0497D02*
X03105Y0498D01*
X03085D01*
X03075Y0497D01*
Y0496D01*
X03085Y0495D01*
X03105D01*
X03115Y0494D01*
Y0493D01*
X03105Y0492D01*
X03085D01*
X03075Y0493D01*
X03135Y0492D02*
X03155D01*
X03145D01*
Y0498D01*
X03135Y0497D01*
X06083Y03703D02*
Y03763D01*
X06113D01*
X06123Y03753D01*
Y03733D01*
X06113Y03723D01*
X06083D01*
X06103D02*
X06123Y03703D01*
X06143Y03713D02*
X06153Y03703D01*
X06173D01*
X06183Y03713D01*
Y03753D01*
X06173Y03763D01*
X06153D01*
X06143Y03753D01*
Y03743D01*
X06153Y03733D01*
X06183D01*
X05075Y03785D02*
Y03845D01*
X05105D01*
X05115Y03835D01*
Y03815D01*
X05105Y03805D01*
X05075D01*
X05095D02*
X05115Y03785D01*
X05135Y03845D02*
Y03785D01*
X05175D01*
X05235D02*
X05195D01*
X05235Y03825D01*
Y03835D01*
X05225Y03845D01*
X05205D01*
X05195Y03835D01*
X05731Y03769D02*
Y03829D01*
X05761D01*
X05771Y03819D01*
Y03799D01*
X05761Y03789D01*
X05731D01*
X05751D02*
X05771Y03769D01*
X05791Y03829D02*
Y03769D01*
X05831D01*
X05851D02*
X05871D01*
X05861D01*
Y03829D01*
X05851Y03819D01*
X02658Y04084D02*
Y04024D01*
X02688D01*
X02698Y04034D01*
Y04074D01*
X02688Y04084D01*
X02658D01*
X02758Y04024D02*
X02718D01*
X02758Y04064D01*
Y04074D01*
X02748Y04084D01*
X02728D01*
X02718Y04074D01*
X01653Y0422D02*
Y0416D01*
X01683D01*
X01693Y0417D01*
Y0421D01*
X01683Y0422D01*
X01653D01*
X01713Y0416D02*
X01733D01*
X01723D01*
Y0422D01*
X01713Y0421D01*
X05417Y03449D02*
Y03489D01*
X05407Y03499D01*
X05387D01*
X05377Y03489D01*
Y03449D01*
X05387Y03439D01*
X05407D01*
X05397Y03459D02*
X05417Y03439D01*
X05407D02*
X05417Y03449D01*
X05477Y03499D02*
X05437D01*
Y03469D01*
X05457Y03479D01*
X05467D01*
X05477Y03469D01*
Y03449D01*
X05467Y03439D01*
X05447D01*
X05437Y03449D01*
X06119Y03439D02*
Y03479D01*
X06109Y03489D01*
X06089D01*
X06079Y03479D01*
Y03439D01*
X06089Y03429D01*
X06109D01*
X06099Y03449D02*
X06119Y03429D01*
X06109D02*
X06119Y03439D01*
X06169Y03429D02*
Y03489D01*
X06139Y03459D01*
X06179D01*
X02665Y04515D02*
X02655Y04525D01*
X02635D01*
X02625Y04515D01*
Y04475D01*
X02635Y04465D01*
X02655D01*
X02665Y04475D01*
X02725Y04525D02*
X02685D01*
Y04495D01*
X02705Y04505D01*
X02715D01*
X02725Y04495D01*
Y04475D01*
X02715Y04465D01*
X02695D01*
X02685Y04475D01*
X0307Y04505D02*
X0306Y04515D01*
X0304D01*
X0303Y04505D01*
Y04465D01*
X0304Y04455D01*
X0306D01*
X0307Y04465D01*
X0309Y04455D02*
X0311D01*
X031D01*
Y04515D01*
X0309Y04505D01*
X05631Y03758D02*
X05621Y03768D01*
X05601D01*
X05591Y03758D01*
Y03718D01*
X05601Y03708D01*
X05621D01*
X05631Y03718D01*
X05691Y03768D02*
X05671Y03758D01*
X05651Y03738D01*
Y03718D01*
X05661Y03708D01*
X05681D01*
X05691Y03718D01*
Y03728D01*
X05681Y03738D01*
X05651D01*
X03052Y04219D02*
X03042Y04229D01*
X03022D01*
X03012Y04219D01*
Y04179D01*
X03022Y04169D01*
X03042D01*
X03052Y04179D01*
X03112Y04169D02*
X03072D01*
X03112Y04209D01*
Y04219D01*
X03102Y04229D01*
X03082D01*
X03072Y04219D01*
X04055Y0285D02*
X04095D01*
X04075D01*
Y0279D01*
X04145D02*
X04125D01*
X04115Y028D01*
Y0282D01*
X04125Y0283D01*
X04145D01*
X04155Y0282D01*
Y0281D01*
X04115D01*
X04175Y0279D02*
Y0283D01*
X04185D01*
X04195Y0282D01*
Y0279D01*
Y0282D01*
X04205Y0283D01*
X04215Y0282D01*
Y0279D01*
X04235Y0277D02*
Y0283D01*
X04265D01*
X04275Y0282D01*
Y028D01*
X04265Y0279D01*
X04235D01*
X0327Y04615D02*
Y04565D01*
X0328Y04555D01*
X033D01*
X0331Y04565D01*
Y04615D01*
X0333Y04555D02*
Y04595D01*
X0335Y04615D01*
X0337Y04595D01*
Y04555D01*
Y04585D01*
X0333D01*
X0339Y04555D02*
Y04615D01*
X0342D01*
X0343Y04605D01*
Y04585D01*
X0342Y04575D01*
X0339D01*
X0341D02*
X0343Y04555D01*
X0345Y04615D02*
X0349D01*
X0347D01*
Y04555D01*
X0355D02*
X0351D01*
X0355Y04595D01*
Y04605D01*
X0354Y04615D01*
X0352D01*
X0351Y04605D01*
X012151Y03675D02*
X012051Y03685D01*
X011851D01*
X011751Y03675D01*
Y03665D01*
X011851Y03655D01*
X012051D01*
X012151Y03645D01*
Y03635D01*
X012051Y03625D01*
X011851D01*
X011751Y03635D01*
X012351Y03685D02*
Y03625D01*
X01265D01*
X01275Y03635D01*
Y03675D01*
X01265Y03685D01*
X012351D01*
X01395Y03675D02*
X01385Y03685D01*
X01365D01*
X01355Y03675D01*
Y03635D01*
X01365Y03625D01*
X01385D01*
X01395Y03635D01*
X01415Y03625D02*
Y03665D01*
X01435Y03685D01*
X01455Y03665D01*
Y03625D01*
Y03655D01*
X01415D01*
X01475Y03625D02*
Y03685D01*
X01505D01*
X01515Y03675D01*
Y03655D01*
X01505Y03645D01*
X01475D01*
X01495D02*
X01515Y03625D01*
X01535Y03685D02*
Y03625D01*
X015649D01*
X015749Y03635D01*
Y03675D01*
X015649Y03685D01*
X01535D01*
X015949Y03625D02*
X016149D01*
X016049D01*
Y03685D01*
X015949Y03675D01*
X014483Y034375D02*
Y034625D01*
X014567Y034542D01*
X01465Y034625D01*
Y034375D01*
X014858Y034625D02*
X014775D01*
X014733Y034583D01*
Y034417D01*
X014775Y034375D01*
X014858D01*
X0149Y034417D01*
Y034583D01*
X014858Y034625D01*
X01515Y034583D02*
X015108Y034625D01*
X015025D01*
X014983Y034583D01*
Y034542D01*
X015025Y0345D01*
X015108D01*
X01515Y034458D01*
Y034417D01*
X015108Y034375D01*
X015025D01*
X014983Y034417D01*
X015233Y034625D02*
X015317D01*
X015275D01*
Y034375D01*
X015233D01*
X015317D01*
X05265Y04415D02*
Y04475D01*
X05295D01*
X05305Y04465D01*
Y04445D01*
X05295Y04435D01*
X05265D01*
X05285D02*
X05305Y04415D01*
X05355D02*
Y04475D01*
X05325Y04445D01*
X05365D01*
X05265Y04905D02*
Y04965D01*
X05295D01*
X05305Y04955D01*
Y04935D01*
X05295Y04925D01*
X05265D01*
X05285D02*
X05305Y04905D01*
X05325Y04955D02*
X05335Y04965D01*
X05355D01*
X05365Y04955D01*
Y04945D01*
X05355Y04935D01*
X05345D01*
X05355D01*
X05365Y04925D01*
Y04915D01*
X05355Y04905D01*
X05335D01*
X05325Y04915D01*
X0506Y04415D02*
Y04475D01*
X0509D01*
X051Y04465D01*
Y04445D01*
X0509Y04435D01*
X0506D01*
X0508D02*
X051Y04415D01*
X0512Y04465D02*
X0513Y04475D01*
X0515D01*
X0516Y04465D01*
Y04455D01*
X0515Y04445D01*
X0516Y04435D01*
Y04425D01*
X0515Y04415D01*
X0513D01*
X0512Y04425D01*
Y04435D01*
X0513Y04445D01*
X0512Y04455D01*
Y04465D01*
X0513Y04445D02*
X0515D01*
X0546Y0441D02*
Y0447D01*
X0549D01*
X055Y0446D01*
Y0444D01*
X0549Y0443D01*
X0546D01*
X0548D02*
X055Y0441D01*
X0556Y0447D02*
X0554Y0446D01*
X0552Y0444D01*
Y0442D01*
X0553Y0441D01*
X0555D01*
X0556Y0442D01*
Y0443D01*
X0555Y0444D01*
X0552D01*
X0547Y04905D02*
Y04965D01*
X055D01*
X0551Y04955D01*
Y04935D01*
X055Y04925D01*
X0547D01*
X0549D02*
X0551Y04905D01*
X0557Y04965D02*
X0553D01*
Y04935D01*
X0555Y04945D01*
X0556D01*
X0557Y04935D01*
Y04915D01*
X0556Y04905D01*
X0554D01*
X0553Y04915D01*
X05055Y04905D02*
Y04965D01*
X05085D01*
X05095Y04955D01*
Y04935D01*
X05085Y04925D01*
X05055D01*
X05075D02*
X05095Y04905D01*
X05115Y04965D02*
X05155D01*
Y04955D01*
X05115Y04915D01*
Y04905D01*
X013633Y034583D02*
X013592Y034625D01*
X013508D01*
X013467Y034583D01*
Y034417D01*
X013508Y034375D01*
X013592D01*
X013633Y034417D01*
X013717Y034625D02*
Y034375D01*
X013883D01*
X013967Y034625D02*
Y034375D01*
Y034458D01*
X014133Y034625D01*
X014008Y0345D01*
X014133Y034375D01*
X015783Y034583D02*
X015742Y034625D01*
X015658D01*
X015617Y034583D01*
Y034417D01*
X015658Y034375D01*
X015742D01*
X015783Y034417D01*
X016033Y034583D02*
X015992Y034625D01*
X015908D01*
X015867Y034583D01*
Y034542D01*
X015908Y0345D01*
X015992D01*
X016033Y034458D01*
Y034417D01*
X015992Y034375D01*
X015908D01*
X015867Y034417D01*
X016242Y034625D02*
X016158D01*
X016117Y034583D01*
Y034417D01*
X016158Y034375D01*
X016242D01*
X016283Y034417D01*
Y034583D01*
X016242Y034625D01*
X04325Y0278D02*
Y0284D01*
X04355D01*
X04365Y0283D01*
Y0281D01*
X04355Y028D01*
X04325D01*
X04345D02*
X04365Y0278D01*
X04385D02*
X04405D01*
X04395D01*
Y0284D01*
X04385Y0283D01*
X04435D02*
X04445Y0284D01*
X04465D01*
X04475Y0283D01*
Y0279D01*
X04465Y0278D01*
X04445D01*
X04435Y0279D01*
Y0283D01*
X0358Y0278D02*
Y0284D01*
X0361D01*
X0362Y0283D01*
Y0281D01*
X0361Y028D01*
X0358D01*
X0364Y0286D02*
Y028D01*
Y0283D01*
X0368D01*
Y0286D01*
Y028D01*
X058Y02835D02*
X0576D01*
Y02775D01*
X058D01*
X0576Y02805D02*
X0578D01*
X0586Y02825D02*
X0585Y02835D01*
X0583D01*
X0582Y02825D01*
Y02785D01*
X0583Y02775D01*
X0585D01*
X0586Y02785D01*
X047Y0284D02*
Y0278D01*
X0473D01*
X0474Y0279D01*
Y0283D01*
X0473Y0284D01*
X047D01*
X0479D02*
X0477D01*
X0476Y0283D01*
Y0279D01*
X0477Y0278D01*
X0479D01*
X048Y0279D01*
Y0283D01*
X0479Y0284D01*
X04935Y04265D02*
X04955D01*
X04945D01*
Y04205D01*
X04935D01*
X04955D01*
X05025Y04255D02*
X05015Y04265D01*
X04995D01*
X04985Y04255D01*
Y04215D01*
X04995Y04205D01*
X05015D01*
X05025Y04215D01*
X05045Y04205D02*
X05065D01*
X05055D01*
Y04265D01*
X05045Y04255D01*
X0363Y0472D02*
X0364Y0473D01*
X0366D01*
X0367Y0472D01*
Y0471D01*
X0366Y047D01*
X0365D01*
X0366D01*
X0367Y0469D01*
Y0468D01*
X0366Y0467D01*
X0364D01*
X0363Y0468D01*
X0369Y0467D02*
Y0468D01*
X037D01*
Y0467D01*
X0369D01*
X0374Y0472D02*
X0375Y0473D01*
X0377D01*
X0378Y0472D01*
Y0471D01*
X0377Y047D01*
X0376D01*
X0377D01*
X0378Y0469D01*
Y0468D01*
X0377Y0467D01*
X0375D01*
X0374Y0468D01*
X038Y0473D02*
Y0469D01*
X0382Y0467D01*
X0384Y0469D01*
Y0473D01*
X04726Y04735D02*
X04686D01*
Y04705D01*
X04706Y04715D01*
X04716D01*
X04726Y04705D01*
Y04685D01*
X04716Y04675D01*
X04696D01*
X04686Y04685D01*
X04746Y04735D02*
Y04695D01*
X04766Y04675D01*
X04786Y04695D01*
Y04735D01*
D13*
X015932Y044244D02*
Y047512D01*
X019869Y044244D02*
Y047512D01*
X015932Y044244D02*
X019869D01*
X0303Y0379D02*
X0313D01*
X0303Y0369D02*
X0313D01*
X0303D02*
Y0399D01*
X0313D01*
Y0369D02*
Y0399D01*
X015033Y024785D02*
Y025435D01*
X011782D02*
X015033D01*
Y024785D02*
X016073D01*
X011199Y030769D02*
X011478D01*
X012549D02*
X013715D01*
X014785D02*
X016703D01*
Y02558D02*
Y030769D01*
X011199Y02597D02*
Y030769D01*
X055099Y04189D02*
Y04311D01*
X051201Y04189D02*
Y04311D01*
X055099D01*
X051201Y04189D02*
X055099D01*
X054508Y046458D02*
Y047098D01*
X055531Y046458D02*
Y047098D01*
X055354Y046458D02*
X055531D01*
X054508D02*
X054685D01*
X052532D02*
Y047098D01*
X053556Y046458D02*
Y047098D01*
X053379Y046458D02*
X053556D01*
X052532D02*
X052709D01*
X050458D02*
Y047098D01*
X051481Y046458D02*
Y047098D01*
X051304Y046458D02*
X051481D01*
X050458D02*
X050635D01*
X050411Y04807D02*
Y04878D01*
Y04807D02*
X050956D01*
X050411Y04878D02*
X050956D01*
X051261D02*
X051789D01*
Y04807D02*
Y04878D01*
X051261Y04807D02*
X051789D01*
Y04497D02*
Y04568D01*
X051244D02*
X051789D01*
X051244Y04497D02*
X051789D01*
X050411D02*
X050939D01*
X050411D02*
Y04568D01*
X050939D01*
X053863Y04497D02*
Y04568D01*
X053319D02*
X053863D01*
X053319Y04497D02*
X053863D01*
X052485D02*
X053014D01*
X052485D02*
Y04568D01*
X053014D01*
X055839Y04497D02*
Y04568D01*
X055294D02*
X055839D01*
X055294Y04497D02*
X055839D01*
X054461D02*
X054989D01*
X054461D02*
Y04568D01*
X054989D01*
X054461Y04807D02*
Y04878D01*
Y04807D02*
X055006D01*
X054461Y04878D02*
X055006D01*
X055311D02*
X055839D01*
Y04807D02*
Y04878D01*
X055311Y04807D02*
X055839D01*
X052485D02*
Y04878D01*
Y04807D02*
X05303D01*
X052485Y04878D02*
X05303D01*
X053335D02*
X053863D01*
Y04807D02*
Y04878D01*
X053335Y04807D02*
X053863D01*
X044489Y02662D02*
Y02733D01*
X043944D02*
X044489D01*
X043944Y02662D02*
X044489D01*
X043111D02*
X043639D01*
X043111D02*
Y02733D01*
X043639D01*
X029281Y046599D02*
X031919D01*
X029281Y047701D02*
X031919D01*
X029281Y046599D02*
Y047701D01*
X031919Y046599D02*
Y047701D01*
X0368Y032308D02*
X0378D01*
X0368Y046407D02*
X0378D01*
X0368Y03121D02*
X0378D01*
X0368Y031208D02*
Y032058D01*
Y046408D01*
X0378Y031208D02*
Y046408D01*
X05448Y036211D02*
Y036739D01*
X05377D02*
X05448D01*
X05377Y036211D02*
Y036739D01*
Y035361D02*
Y035906D01*
X05448Y035361D02*
Y035906D01*
X05377Y035361D02*
X05448D01*
X0154Y03485D02*
Y03585D01*
X0114Y03485D02*
Y03585D01*
X0164D01*
X0114Y03485D02*
X0164D01*
Y03585D01*
X01597Y032135D02*
X01668D01*
Y03268D01*
X01597Y032135D02*
Y03268D01*
Y032985D02*
Y033513D01*
X01668D01*
Y032985D02*
Y033513D01*
X0408Y02645D02*
Y02745D01*
X0428D01*
Y02645D02*
Y02745D01*
X0408Y02645D02*
X0428D01*
X04615Y02745D02*
X04915D01*
X04615Y02645D02*
Y02745D01*
Y02645D02*
X04915D01*
Y02745D01*
X04815Y02645D02*
Y02745D01*
X0349D02*
X0379D01*
X0349Y02645D02*
Y02745D01*
Y02645D02*
X0379D01*
Y02745D01*
X0369Y02645D02*
Y02745D01*
X0566D02*
X0596D01*
X0566Y02645D02*
Y02745D01*
Y02645D02*
X0596D01*
Y02745D01*
X0586Y02645D02*
Y02745D01*
X0303Y030649D02*
X0313D01*
Y026452D02*
Y030649D01*
X0303Y026452D02*
Y030649D01*
Y026452D02*
X0313D01*
X0303Y02755D02*
X0313D01*
X05645Y03282D02*
Y03308D01*
X05595Y03282D02*
Y03308D01*
X048846Y035231D02*
Y036569D01*
X049554Y035231D02*
Y036569D01*
X048846D02*
X048865D01*
Y035231D02*
Y035743D01*
X049535Y036569D02*
X049554D01*
X049535Y035231D02*
Y035743D01*
X0495Y03287D02*
Y03313D01*
X049Y03287D02*
Y03313D01*
X0336Y040549D02*
X0346D01*
Y036352D02*
Y040549D01*
X0336Y036352D02*
Y040549D01*
Y036352D02*
X0346D01*
X0336Y03745D02*
X0346D01*
X03355Y04205D02*
Y04505D01*
Y04205D02*
X03455D01*
Y04505D01*
X03355D02*
X03455D01*
X03355Y04405D02*
X03455D01*
X01513Y032985D02*
Y033513D01*
X01442D02*
X01513D01*
X01442Y032985D02*
Y033513D01*
Y032135D02*
Y03268D01*
X01513Y032135D02*
Y03268D01*
X01442Y032135D02*
X01513D01*
X013506Y032985D02*
Y033513D01*
X012796D02*
X013506D01*
X012796Y032985D02*
Y033513D01*
Y032135D02*
Y03268D01*
X013506Y032135D02*
Y03268D01*
X012796Y032135D02*
X013506D01*
X01107D02*
X01178D01*
Y03268D01*
X01107Y032135D02*
Y03268D01*
Y032985D02*
Y033513D01*
X01178D01*
Y032985D02*
Y033513D01*
X02797Y038523D02*
X02868D01*
Y039067D01*
X02797Y038523D02*
Y039067D01*
Y039372D02*
Y039901D01*
X02868D01*
Y039372D02*
Y039901D01*
X02775Y047334D02*
Y047863D01*
Y046483D02*
Y047029D01*
X02845Y046483D02*
Y047029D01*
Y047334D02*
Y047863D01*
X02775Y046483D02*
X02845D01*
X02775Y047863D02*
X02845D01*
X026296Y046485D02*
X027006D01*
Y04703D01*
X026296Y046485D02*
Y04703D01*
Y047335D02*
Y047863D01*
X027006D01*
Y047335D02*
Y047863D01*
X055846Y035131D02*
Y036469D01*
X056554Y035131D02*
Y036469D01*
X055846D02*
X055865D01*
Y035131D02*
Y035643D01*
X056535Y036469D02*
X056554D01*
X056535Y035131D02*
Y035643D01*
X054965Y033031D02*
Y033386D01*
X05465Y033031D02*
X054965D01*
X053783D02*
Y033386D01*
Y033031D02*
X054098D01*
X061991Y032924D02*
Y033279D01*
X061676Y032924D02*
X061991D01*
X060809D02*
Y033279D01*
Y032924D02*
X061124D01*
X016474Y03995D02*
X0194D01*
Y040137D01*
X016474Y03995D02*
Y0405D01*
X0194Y041063D02*
Y04125D01*
X016474Y0405D02*
X01655D01*
Y03995D02*
Y0405D01*
Y0407D02*
Y04125D01*
X016474Y0407D02*
X01655D01*
X016474Y04125D02*
X0194D01*
X016474Y0407D02*
Y04125D01*
X017793Y040403D02*
Y040797D01*
Y0406D02*
X018068Y040443D01*
X017793Y0406D02*
X018068Y040797D01*
Y040443D02*
Y040797D01*
X017753Y0406D02*
X017793D01*
X018068D02*
X018147D01*
X06077Y035311D02*
X06148D01*
Y035856D01*
X06077Y035311D02*
Y035856D01*
Y036161D02*
Y036689D01*
X06148D01*
Y036161D02*
Y036689D01*
X030911Y04135D02*
X03144D01*
X03006D02*
X030606D01*
X03006Y04065D02*
X030606D01*
X030911D02*
X03144D01*
X03006D02*
Y04135D01*
X03144Y04065D02*
Y04135D01*
X0478Y031208D02*
Y046408D01*
X0468Y032058D02*
Y046408D01*
Y031208D02*
Y032058D01*
Y03121D02*
X0478D01*
X0468Y046407D02*
X0478D01*
X0468Y032308D02*
X0478D01*
D14*
X01371Y0433D02*
X013712Y043302D01*
Y04422D01*
X01371Y040512D02*
Y04162D01*
Y040512D02*
X013712Y04051D01*
X01309D02*
X013712D01*
X00769Y04052D02*
X01148D01*
D15*
X00876Y04051D02*
Y04419D01*
X00769Y04422D02*
X013712D01*
X00769Y04052D02*
Y04422D01*
X051012Y048696D02*
X051192D01*
X051012Y048156D02*
X051192D01*
X051008Y045054D02*
X051188D01*
X051008Y045594D02*
X051188D01*
X053083Y045054D02*
X053263D01*
X053083Y045594D02*
X053263D01*
X055058Y045054D02*
X055238D01*
X055058Y045594D02*
X055238D01*
X055062Y048696D02*
X055242D01*
X055062Y048156D02*
X055242D01*
X053086Y048696D02*
X053266D01*
X053086Y048156D02*
X053266D01*
X043708Y026704D02*
X043888D01*
X043708Y027244D02*
X043888D01*
X054394Y035962D02*
Y036142D01*
X053854Y035962D02*
Y036142D01*
X016054Y032736D02*
Y032916D01*
X016594Y032736D02*
Y032916D01*
X05864Y031991D02*
X05865Y031981D01*
Y03081D02*
Y031981D01*
X05795Y03194D02*
X05801Y03188D01*
X057791D02*
X05801D01*
X057791Y03183D02*
X058013D01*
X057791Y031831D02*
Y031991D01*
X05796D01*
X05778Y03097D02*
X058013D01*
X05778Y03081D02*
Y03097D01*
X057791Y03194D02*
X05795D01*
X05778Y03087D02*
X058013D01*
X0578Y03092D02*
X058013D01*
X05796Y031991D02*
X059587D01*
Y03185D02*
Y031991D01*
X05779Y030809D02*
X059587D01*
Y03095D01*
X058013Y03183D02*
Y031991D01*
Y030809D02*
Y03097D01*
X05154Y031991D02*
X05155Y031981D01*
Y03081D02*
Y031981D01*
X05085Y03194D02*
X05091Y03188D01*
X050691D02*
X05091D01*
X050691Y03183D02*
X050913D01*
X050691Y031831D02*
Y031991D01*
X05086D01*
X05068Y03097D02*
X050913D01*
X05068Y03081D02*
Y03097D01*
X050691Y03194D02*
X05085D01*
X05068Y03087D02*
X050913D01*
X0507Y03092D02*
X050913D01*
X05086Y031991D02*
X052487D01*
Y03185D02*
Y031991D01*
X05069Y030809D02*
X052487D01*
Y03095D01*
X050913Y03183D02*
Y031991D01*
Y030809D02*
Y03097D01*
X015044Y032736D02*
Y032916D01*
X014504Y032736D02*
Y032916D01*
X01342Y032736D02*
Y032916D01*
X01288Y032736D02*
Y032916D01*
X011154Y032736D02*
Y032916D01*
X011694Y032736D02*
Y032916D01*
X028054Y039123D02*
Y039303D01*
X028594Y039123D02*
Y039303D01*
X027831Y047085D02*
Y047265D01*
X028371Y047085D02*
Y047265D01*
X02638Y047086D02*
Y047266D01*
X02692Y047086D02*
Y047266D01*
X060854Y035912D02*
Y036092D01*
X061394Y035912D02*
Y036092D01*
X030662Y041269D02*
X030842D01*
X030662Y040729D02*
X030842D01*
D16*
X05725Y03235D02*
X06025Y03235D01*
X05725Y03235D02*
X05725Y03735D01*
X06025D01*
Y03235D02*
Y03735D01*
X05019Y03236D02*
X05319Y03236D01*
X05019Y03236D02*
X05019Y03736D01*
X05319D01*
Y03236D02*
Y03736D01*
D17*
X0265Y03965D02*
X02655D01*
X0265Y03875D02*
Y03965D01*
Y03875D02*
X02655D01*
X02715Y03965D02*
X0272D01*
Y03875D02*
Y03965D01*
X02715Y03875D02*
X0272D01*
M02*
