M48
;Layer_Color=9474304
;FILE_FORMAT=2:4
INCH,LZ
;TYPE=PLATED
T1F00S00C0.0280
T2F00S00C0.0300
T3F00S00C0.0315
T4F00S00C0.0402
T5F00S00C0.0433
T7F00S00C0.0945
T8F00S00C0.1260
%
T01
X02185Y0311
X0124Y029
X0123Y03275
X01395
X01555
Y0385
Y041
X0199Y0391
X0222Y038375
X0295Y0396
X0287Y04275
Y04595
X0297Y045
X02775Y0332
X0171Y03275
X0323Y034
X03225Y0353
X03185Y0389
X032425Y041675
X0315Y045
X03535Y0468
X0451Y0466
X045665Y045448
X04505Y0402
X0429Y04085
X03965Y03575
X0422Y03285
X0463Y0353
X04915Y03745
X05075Y0389
X0517Y03685
X05535Y0371
X05585Y0425
X0541Y046
X05205Y04595
X04965Y0459
X049Y0448
X05055Y04395
X0594Y03915
X0562Y0477
X05405
X05415Y0491
X05205Y049
X051934Y047634
X04955Y0477
T02
X05069Y03286
X05069Y03486
Y03586
Y03686
X05269Y03686
Y03586
Y03486
Y03286
X05775Y03285
X05775Y03485
Y03585
Y03685
X05975Y03685
Y03585
Y03485
Y03285
T03
X02195Y0475
X02295
X02395
T04
X0308Y02705
Y02805
Y02905
Y03005
X0373Y031808
Y032808
Y033808
Y034808
Y035808
Y036808
Y037808
Y038808
Y039808
Y040808
Y041808
Y042808
Y043808
Y044808
Y045808
X0341Y03995
Y03895
Y03795
Y03695
X0473Y036808
Y037808
Y038808
Y039808
Y040808
Y041808
Y042808
Y043808
Y044808
Y045808
Y035808
Y034808
Y033808
Y032808
Y031808
T05
X04765Y02695
X04865
X0571
X0581
X0591
X04665
X0423
X0413
X0374
X0364
X0354
X0149Y03535
X0139
X0129
X0119
X0159
X0308Y0374
Y0384
Y0394
X03405Y04255
Y04355
Y04455
T07
X00924Y04242
T08
X0613Y0241
X06135Y04875
X0112Y0488
M30
