G04*
G04 #@! TF.GenerationSoftware,Altium Limited,Altium Designer,21.2.1 (34)*
G04*
G04 Layer_Color=32768*
%FSTAX24Y24*%
%MOIN*%
G70*
G04*
G04 #@! TF.SameCoordinates,F2E00263-BE93-4D19-96D2-DD2F20D6CEC5*
G04*
G04*
G04 #@! TF.FilePolarity,Positive*
G04*
G01*
G75*
%ADD15C,0.0070*%
%ADD89C,0.0039*%
%ADD91C,0.0020*%
%ADD92C,0.0030*%
D15*
X0588Y0312D02*
Y0316D01*
X0586Y0314D02*
X059D01*
X0517Y0312D02*
Y0316D01*
X0515Y0314D02*
X0519D01*
D89*
X052953Y0425D02*
X053347D01*
X05315Y042303D02*
Y042697D01*
X029183Y045437D02*
X032017D01*
X029183Y048863D02*
X032017D01*
X029183Y045437D02*
Y048863D01*
X032017Y045437D02*
Y048863D01*
X0306Y046953D02*
Y047347D01*
X030403Y04715D02*
X030797D01*
X054177Y033307D02*
X054571D01*
X054374Y03311D02*
Y033504D01*
X053685Y032539D02*
Y034075D01*
X055063Y032539D02*
Y034075D01*
X053685Y032539D02*
X055063D01*
X053685Y034075D02*
X055063D01*
X061203Y0332D02*
X061597D01*
X0614Y033003D02*
Y033397D01*
X060711Y032432D02*
Y033968D01*
X062089Y032432D02*
Y033968D01*
X060711Y032432D02*
X062089D01*
X060711Y033968D02*
X062089D01*
X017753Y0406D02*
X018147D01*
X01795Y040403D02*
Y040797D01*
D91*
X055197Y041D02*
Y044D01*
X051103Y041D02*
Y044D01*
X055197D01*
X051103Y041D02*
X055197D01*
X01935Y039911D02*
Y041289D01*
X01655Y039911D02*
Y041289D01*
Y039911D02*
X01935D01*
X01655Y041289D02*
X01935D01*
D92*
X05605Y03295D02*
X05635D01*
X0562Y0328D02*
Y0331D01*
X0559Y0323D02*
Y0336D01*
X0565D01*
Y0323D02*
Y0336D01*
X0559Y0323D02*
X0565D01*
X0491Y033D02*
X0494D01*
X04925Y03285D02*
Y03315D01*
X04895Y03235D02*
Y03365D01*
X04955D01*
Y03235D02*
Y03365D01*
X04895Y03235D02*
X04955D01*
M02*
