G04*
G04 #@! TF.GenerationSoftware,Altium Limited,Altium Designer,21.2.1 (34)*
G04*
G04 Layer_Color=16711935*
%FSTAX24Y24*%
%MOIN*%
G70*
G04*
G04 #@! TF.SameCoordinates,F2E00263-BE93-4D19-96D2-DD2F20D6CEC5*
G04*
G04*
G04 #@! TF.FilePolarity,Positive*
G04*
G01*
G75*
%ADD15C,0.0070*%
%ADD89C,0.0039*%
%ADD90R,0.0244X0.1150*%
D15*
X058013Y030809D02*
X059587D01*
X058013Y031991D02*
X059587D01*
Y030809D02*
Y031991D01*
X058013Y030809D02*
Y031991D01*
X050913Y030809D02*
X052487D01*
X050913Y031991D02*
X052487D01*
Y030809D02*
Y031991D01*
X050913Y030809D02*
Y031991D01*
D89*
X051752Y042087D02*
G03*
X051752Y042087I-000197J0D01*
G01*
X055099Y041732D02*
Y043268D01*
X051201Y041732D02*
Y043268D01*
X055099D01*
X051201Y041732D02*
X055099D01*
X029281Y046422D02*
X031919D01*
X029281Y047878D02*
X031919D01*
X029281Y046422D02*
Y047878D01*
X031919Y046422D02*
Y047878D01*
X053783Y033583D02*
X054965D01*
X053783Y033031D02*
X054965D01*
Y033583D01*
X053783Y033031D02*
Y033583D01*
X060809Y033476D02*
X061991D01*
X060809Y032924D02*
X061991D01*
Y033476D01*
X060809Y032924D02*
Y033476D01*
X018856Y040025D02*
Y041175D01*
X017044Y040025D02*
Y041175D01*
Y040025D02*
X018856D01*
X017044Y041175D02*
X018856D01*
D90*
X017166Y0406D02*
D03*
M02*
