G04*
G04 #@! TF.GenerationSoftware,Altium Limited,Altium Designer,21.2.1 (34)*
G04*
G04 Layer_Physical_Order=2*
G04 Layer_Color=16711680*
%FSTAX24Y24*%
%MOIN*%
G70*
G04*
G04 #@! TF.SameCoordinates,F2E00263-BE93-4D19-96D2-DD2F20D6CEC5*
G04*
G04*
G04 #@! TF.FilePolarity,Positive*
G04*
G01*
G75*
%ADD71C,0.0350*%
%ADD72C,0.0150*%
%ADD73C,0.0197*%
%ADD74C,0.0354*%
%ADD75R,0.1600X0.1000*%
%ADD76R,0.1000X0.1600*%
%ADD77C,0.0630*%
%ADD78R,0.0630X0.0630*%
%ADD79C,0.1575*%
%ADD80R,0.0598X0.0598*%
%ADD81C,0.0598*%
%ADD82R,0.0630X0.0630*%
%ADD83C,0.0600*%
%ADD84R,0.0600X0.0600*%
%ADD85O,0.0630X0.0787*%
%ADD86C,0.0945*%
%ADD87C,0.0500*%
G36*
X062Y0497D02*
Y049429D01*
X06195Y049406D01*
X061845Y049491D01*
X061691Y049574D01*
X061524Y049625D01*
X06135Y049642D01*
X061176Y049625D01*
X061009Y049574D01*
X060855Y049491D01*
X060719Y049381D01*
X060609Y049245D01*
X060526Y049091D01*
X060475Y048924D01*
X060458Y04875D01*
X060475Y048576D01*
X060526Y048409D01*
X060609Y048255D01*
X060719Y048119D01*
X060855Y048009D01*
X061009Y047926D01*
X061176Y047875D01*
X06135Y047858D01*
X061524Y047875D01*
X061691Y047926D01*
X061845Y048009D01*
X061981Y048119D01*
X062091Y048255D01*
X062174Y048409D01*
X062225Y048576D01*
X062242Y04875D01*
X062225Y048924D01*
X062174Y049091D01*
X0621Y049229D01*
X062141Y049259D01*
X06245Y04895D01*
X0624Y0489D01*
Y0237D01*
X06175Y02305D01*
X01125D01*
Y0231D01*
X01045Y0239D01*
Y04155D01*
X01165D01*
Y04335D01*
X01045D01*
Y048236D01*
X0105Y048254D01*
X010569Y048169D01*
X010705Y048059D01*
X010859Y047976D01*
X011026Y047925D01*
X0112Y047908D01*
X011374Y047925D01*
X011541Y047976D01*
X011695Y048059D01*
X011831Y048169D01*
X011941Y048305D01*
X012024Y048459D01*
X012075Y048626D01*
X012092Y0488D01*
X012075Y048974D01*
X012024Y049141D01*
X011941Y049295D01*
X011831Y049431D01*
X011705Y049534D01*
X011691Y049591D01*
X01185Y04975D01*
X062Y0497D01*
D02*
G37*
%LPC*%
G36*
X04375Y049628D02*
X043682Y049615D01*
X043624Y049576D01*
X043624Y049576D01*
X042774Y048726D01*
X042735Y048668D01*
X042722Y0486D01*
Y041154D01*
X04265Y0411D01*
X042594Y041027D01*
X042559Y040941D01*
X042547Y04085D01*
X042559Y040759D01*
X042594Y040673D01*
X04265Y0406D01*
X042723Y040544D01*
X042809Y040509D01*
X0429Y040497D01*
X042991Y040509D01*
X043077Y040544D01*
X04315Y0406D01*
X043206Y040673D01*
X043241Y040759D01*
X043253Y04085D01*
X043241Y040941D01*
X043206Y041027D01*
X04315Y0411D01*
X043078Y041154D01*
Y048526D01*
X043824Y049272D01*
X051754D01*
X051779Y049222D01*
X051746Y049178D01*
X044D01*
X043932Y049165D01*
X043874Y049126D01*
X043424Y048676D01*
X043385Y048618D01*
X043372Y04855D01*
Y0402D01*
X043385Y040132D01*
X043424Y040074D01*
X043862Y039636D01*
X04392Y039597D01*
X043988Y039584D01*
X043988Y039584D01*
X046927D01*
X04693Y039578D01*
X046902Y039528D01*
X039832D01*
X037679Y041681D01*
X037689Y041704D01*
X037703Y041808D01*
X037689Y041912D01*
X037649Y04201D01*
X037585Y042093D01*
X037501Y042157D01*
X037404Y042197D01*
X0373Y042211D01*
X037196Y042197D01*
X037099Y042157D01*
X037015Y042093D01*
X036951Y04201D01*
X036911Y041912D01*
X036897Y041808D01*
X036911Y041704D01*
X036951Y041607D01*
X037015Y041524D01*
X037099Y04146D01*
X037196Y041419D01*
X0373Y041406D01*
X037404Y041419D01*
X037427Y041429D01*
X038328Y040528D01*
X038307Y040478D01*
X0376D01*
X037597Y040487D01*
X037588Y040528D01*
X037649Y040607D01*
X037689Y040704D01*
X037703Y040808D01*
X037689Y040912D01*
X037649Y04101D01*
X037585Y041093D01*
X037501Y041157D01*
X037404Y041197D01*
X0373Y041211D01*
X037196Y041197D01*
X037099Y041157D01*
X037015Y041093D01*
X036951Y04101D01*
X036911Y040912D01*
X036897Y040808D01*
X036911Y040704D01*
X036951Y040607D01*
X037012Y040528D01*
X037003Y040487D01*
X037Y040478D01*
X036071D01*
X036071Y040478D01*
X036003Y040465D01*
X035945Y040426D01*
X035945Y040426D01*
X035647Y040128D01*
X034458D01*
X034449Y040151D01*
X034385Y040235D01*
X034301Y040299D01*
X034204Y040339D01*
X0341Y040353D01*
X033996Y040339D01*
X033899Y040299D01*
X033815Y040235D01*
X033751Y040151D01*
X033711Y040054D01*
X033697Y03995D01*
X033711Y039846D01*
X033751Y039749D01*
X033815Y039665D01*
X033899Y039601D01*
X033996Y039561D01*
X0341Y039547D01*
X034204Y039561D01*
X034301Y039601D01*
X034385Y039665D01*
X034449Y039749D01*
X034458Y039772D01*
X035721D01*
X035789Y039785D01*
X035847Y039824D01*
X036145Y040122D01*
X036974D01*
X036999Y040072D01*
X036951Y04001D01*
X036911Y039912D01*
X036897Y039808D01*
X036911Y039704D01*
X036951Y039607D01*
X037012Y039528D01*
X037003Y039487D01*
X037Y039478D01*
X036071D01*
X036071Y039478D01*
X036003Y039465D01*
X035945Y039426D01*
X035945Y039426D01*
X035647Y039128D01*
X034458D01*
X034449Y039151D01*
X034385Y039235D01*
X034301Y039299D01*
X034204Y039339D01*
X0341Y039353D01*
X033996Y039339D01*
X033899Y039299D01*
X033815Y039235D01*
X033751Y039151D01*
X033711Y039054D01*
X033697Y03895D01*
X033711Y038846D01*
X033751Y038749D01*
X033815Y038665D01*
X033899Y038601D01*
X033996Y038561D01*
X0341Y038547D01*
X034204Y038561D01*
X034301Y038601D01*
X034385Y038665D01*
X034449Y038749D01*
X034458Y038772D01*
X035721D01*
X035789Y038785D01*
X035847Y038824D01*
X036145Y039122D01*
X036974D01*
X036999Y039072D01*
X036951Y03901D01*
X036937Y038976D01*
X036397D01*
X036329Y038962D01*
X036271Y038924D01*
X036271Y038924D01*
X035574Y038226D01*
X035535Y038168D01*
X035522Y0381D01*
Y036824D01*
X034176Y035478D01*
X032554D01*
X0325Y03555D01*
X032427Y035606D01*
X032341Y035641D01*
X03225Y035653D01*
X032159Y035641D01*
X032073Y035606D01*
X032049Y035647D01*
X033655Y037252D01*
X033701Y037233D01*
Y036551D01*
X034499D01*
Y037349D01*
X033817D01*
X033798Y037395D01*
X033973Y037571D01*
X033996Y037561D01*
X0341Y037547D01*
X034204Y037561D01*
X034301Y037601D01*
X034385Y037665D01*
X034449Y037749D01*
X034489Y037846D01*
X034503Y03795D01*
X034489Y038054D01*
X034449Y038151D01*
X034385Y038235D01*
X034301Y038299D01*
X034204Y038339D01*
X0341Y038353D01*
X033996Y038339D01*
X033973Y038329D01*
X032776Y039526D01*
X032718Y039565D01*
X03265Y039578D01*
X031175D01*
X031162Y039609D01*
X031096Y039696D01*
X031009Y039762D01*
X031002Y039765D01*
Y041566D01*
X032643Y043207D01*
X032687Y043273D01*
X032702Y04335D01*
Y046316D01*
X032984Y046598D01*
X035064D01*
X0351Y04655D01*
X035173Y046494D01*
X035259Y046459D01*
X03535Y046447D01*
X035441Y046459D01*
X035527Y046494D01*
X0356Y04655D01*
X035656Y046623D01*
X035691Y046709D01*
X035703Y0468D01*
X035691Y046891D01*
X035656Y046977D01*
X0356Y04705D01*
X035527Y047106D01*
X035441Y047141D01*
X03535Y047153D01*
X035259Y047141D01*
X035173Y047106D01*
X0351Y04705D01*
X035064Y047002D01*
X0329D01*
X032823Y046987D01*
X032757Y046943D01*
X032357Y046543D01*
X032313Y046477D01*
X032298Y0464D01*
Y043434D01*
X030657Y041793D01*
X030613Y041727D01*
X030598Y04165D01*
Y039765D01*
X030591Y039762D01*
X030504Y039696D01*
X03049Y039677D01*
X029843D01*
X029841Y039691D01*
X029806Y039777D01*
X02975Y03985D01*
X029677Y039906D01*
X029591Y039941D01*
X0295Y039953D01*
X029409Y039941D01*
X029323Y039906D01*
X02925Y03985D01*
X029194Y039777D01*
X029159Y039691D01*
X029147Y0396D01*
X029159Y039509D01*
X029194Y039423D01*
X02925Y03935D01*
X029323Y039294D01*
X029409Y039259D01*
X0295Y039247D01*
X02951Y039248D01*
X029544Y039204D01*
X029602Y03916D01*
X029669Y039132D01*
X029741Y039123D01*
X03049D01*
X030504Y039104D01*
X030591Y039038D01*
X030692Y038996D01*
X0308Y038981D01*
X030908Y038996D01*
X031009Y039038D01*
X031096Y039104D01*
X031162Y039191D01*
X031175Y039222D01*
X031612D01*
X031629Y039172D01*
X0316Y03915D01*
X031544Y039077D01*
X031509Y038991D01*
X031497Y0389D01*
X031509Y038809D01*
X031544Y038724D01*
Y038536D01*
X031229Y038222D01*
X031187Y03825D01*
X031204Y038292D01*
X031219Y0384D01*
X031204Y038508D01*
X031162Y038609D01*
X031096Y038696D01*
X031009Y038762D01*
X030908Y038804D01*
X0308Y038819D01*
X030692Y038804D01*
X030591Y038762D01*
X030504Y038696D01*
X030438Y038609D01*
X030425Y038578D01*
X02885D01*
X02885Y038578D01*
X028782Y038565D01*
X028724Y038526D01*
X027624Y037426D01*
X027585Y037368D01*
X027572Y0373D01*
Y033504D01*
X0275Y03345D01*
X027444Y033377D01*
X027409Y033291D01*
X027397Y0332D01*
X027409Y033109D01*
X027444Y033023D01*
X0275Y03295D01*
X027573Y032894D01*
X027659Y032859D01*
X02775Y032847D01*
X027841Y032859D01*
X027927Y032894D01*
X028Y03295D01*
X028056Y033023D01*
X028091Y033109D01*
X028103Y0332D01*
X028091Y033291D01*
X028056Y033377D01*
X028Y03345D01*
X027928Y033504D01*
Y037226D01*
X028924Y038222D01*
X030425D01*
X030438Y038191D01*
X030504Y038104D01*
X030591Y038038D01*
X030692Y037996D01*
X0308Y037981D01*
X030908Y037996D01*
X03095Y038013D01*
X030978Y037971D01*
X030823Y037815D01*
X030385D01*
Y037237D01*
X029324Y036176D01*
X029285Y036118D01*
X029272Y03605D01*
Y0278D01*
X029285Y027732D01*
X029324Y027674D01*
X030074Y026924D01*
X030132Y026885D01*
X0302Y026872D01*
X030401D01*
Y026651D01*
X031199D01*
Y027449D01*
X030401D01*
Y027228D01*
X030274D01*
X029628Y027874D01*
Y035976D01*
X030637Y036985D01*
X031215D01*
Y037423D01*
X032017Y038225D01*
X032062Y038283D01*
X032089Y03835D01*
X032099Y038421D01*
Y03865D01*
X0321Y03865D01*
X032156Y038723D01*
X032191Y038809D01*
X032203Y0389D01*
X032191Y038991D01*
X032156Y039077D01*
X0321Y03915D01*
X032071Y039172D01*
X032088Y039222D01*
X032576D01*
X033721Y038077D01*
X033711Y038054D01*
X033697Y03795D01*
X033711Y037846D01*
X033721Y037823D01*
X029824Y033926D01*
X029785Y033868D01*
X029772Y0338D01*
Y0286D01*
X029785Y028532D01*
X029824Y028474D01*
X030056Y028242D01*
X030114Y028203D01*
X030182Y028189D01*
X030303D01*
X030403Y02809D01*
X030397Y02805D01*
X030411Y027946D01*
X030451Y027849D01*
X030515Y027765D01*
X030599Y027701D01*
X030696Y027661D01*
X0308Y027647D01*
X030904Y027661D01*
X031001Y027701D01*
X031085Y027765D01*
X031148Y027848D01*
X03665D01*
X036727Y027863D01*
X036793Y027907D01*
X041806Y03292D01*
X041853Y032896D01*
X041847Y03285D01*
X041859Y032759D01*
X041873Y032725D01*
X036503Y027355D01*
X0364Y027369D01*
X036292Y027354D01*
X036191Y027312D01*
X036104Y027246D01*
X036038Y027159D01*
X035996Y027058D01*
X035981Y02695D01*
X035996Y026842D01*
X036038Y026741D01*
X036104Y026654D01*
X036191Y026588D01*
X036292Y026546D01*
X0364Y026531D01*
X036508Y026546D01*
X036609Y026588D01*
X036696Y026654D01*
X036762Y026741D01*
X036804Y026842D01*
X036819Y02695D01*
X036804Y027058D01*
X036777Y027125D01*
X036939Y027287D01*
X036985Y027267D01*
Y026535D01*
X037815D01*
Y026772D01*
X039442D01*
X03951Y026785D01*
X039568Y026824D01*
X047173Y034429D01*
X047196Y034419D01*
X0473Y034406D01*
X047404Y034419D01*
X047501Y03446D01*
X047585Y034524D01*
X047649Y034607D01*
X047689Y034704D01*
X047703Y034808D01*
X047689Y034912D01*
X047649Y03501D01*
X047585Y035093D01*
X047501Y035157D01*
X047404Y035197D01*
X0473Y035211D01*
X047196Y035197D01*
X047099Y035157D01*
X047015Y035093D01*
X046951Y03501D01*
X046911Y034912D01*
X046897Y034808D01*
X046911Y034704D01*
X046921Y034681D01*
X039368Y027128D01*
X037815D01*
Y027365D01*
X037083D01*
X037063Y027411D01*
X042155Y032503D01*
X0422Y032497D01*
X042291Y032509D01*
X042377Y032544D01*
X04245Y0326D01*
X042506Y032673D01*
X042541Y032759D01*
X042553Y03285D01*
X042541Y032941D01*
X042506Y033027D01*
X04245Y0331D01*
X042377Y033156D01*
X042291Y033191D01*
X0422Y033203D01*
X042154Y033197D01*
X04213Y033244D01*
X043984Y035098D01*
X046014D01*
X04605Y03505D01*
X046123Y034994D01*
X046209Y034959D01*
X0463Y034947D01*
X046391Y034959D01*
X046477Y034994D01*
X04655Y03505D01*
X046606Y035123D01*
X046641Y035209D01*
X046653Y0353D01*
X046641Y035391D01*
X046606Y035477D01*
X04655Y03555D01*
X046477Y035606D01*
X046391Y035641D01*
X0463Y035653D01*
X046209Y035641D01*
X046123Y035606D01*
X04605Y03555D01*
X046014Y035502D01*
X0439D01*
X043823Y035487D01*
X043757Y035443D01*
X036566Y028252D01*
X031148D01*
X031085Y028335D01*
X031001Y028399D01*
X030904Y028439D01*
X0308Y028453D01*
X030696Y028439D01*
X030599Y028399D01*
X030598Y028398D01*
X030503Y028494D01*
X030445Y028533D01*
X030377Y028546D01*
X030256D01*
X030128Y028674D01*
Y033726D01*
X031903Y035501D01*
X031944Y035477D01*
X031909Y035391D01*
X031897Y0353D01*
X031909Y035209D01*
X031944Y035123D01*
X032Y03505D01*
X032073Y034994D01*
X032159Y034959D01*
X03225Y034947D01*
X032341Y034959D01*
X032427Y034994D01*
X0325Y03505D01*
X032554Y035122D01*
X03425D01*
X034318Y035135D01*
X034376Y035174D01*
X035826Y036624D01*
X035826Y036624D01*
X035865Y036682D01*
X035878Y03675D01*
X035878Y03675D01*
Y038026D01*
X036471Y038619D01*
X036946D01*
X036951Y038607D01*
X037015Y038524D01*
X037099Y03846D01*
X037196Y038419D01*
X0373Y038406D01*
X037404Y038419D01*
X037501Y03846D01*
X037585Y038524D01*
X037649Y038607D01*
X037689Y038704D01*
X037703Y038808D01*
X037689Y038912D01*
X037649Y03901D01*
X037601Y039072D01*
X037626Y039122D01*
X037926D01*
X038572Y038476D01*
Y034332D01*
X037427Y033188D01*
X037404Y033197D01*
X0373Y033211D01*
X037196Y033197D01*
X037099Y033157D01*
X037015Y033093D01*
X036951Y03301D01*
X036911Y032912D01*
X036897Y032808D01*
X036911Y032704D01*
X036951Y032607D01*
X037015Y032524D01*
X037099Y03246D01*
X037196Y032419D01*
X0373Y032406D01*
X037404Y032419D01*
X037501Y03246D01*
X037511Y032467D01*
X037593Y032384D01*
X037593Y032384D01*
X037651Y032345D01*
X037719Y032332D01*
X037719Y032332D01*
X038428D01*
X038522Y032238D01*
Y031674D01*
X037076Y030228D01*
X031158D01*
X031149Y030251D01*
X031085Y030335D01*
X031001Y030399D01*
X030904Y030439D01*
X0308Y030453D01*
X030696Y030439D01*
X030599Y030399D01*
X030515Y030335D01*
X030451Y030251D01*
X030411Y030154D01*
X030397Y03005D01*
X030411Y029946D01*
X030451Y029849D01*
X030515Y029765D01*
X030599Y029701D01*
X030696Y029661D01*
X0308Y029647D01*
X030904Y029661D01*
X031001Y029701D01*
X031085Y029765D01*
X031149Y029849D01*
X031158Y029872D01*
X03715D01*
X037218Y029885D01*
X037276Y029924D01*
X038826Y031474D01*
X038865Y031532D01*
X038878Y0316D01*
Y032312D01*
X038878Y032312D01*
X038865Y03238D01*
X038826Y032438D01*
X038826Y032438D01*
X038628Y032636D01*
X03857Y032675D01*
X038502Y032689D01*
X037793D01*
X037699Y032783D01*
X037703Y032808D01*
X037689Y032912D01*
X037679Y032935D01*
X038876Y034132D01*
X038876Y034132D01*
X038915Y03419D01*
X038928Y034258D01*
X038928Y034258D01*
Y03855D01*
X038915Y038618D01*
X038876Y038676D01*
X038126Y039426D01*
X038068Y039465D01*
X038Y039478D01*
X0376D01*
X037597Y039487D01*
X037588Y039528D01*
X037649Y039607D01*
X037689Y039704D01*
X037703Y039808D01*
X037689Y039912D01*
X037649Y04001D01*
X037601Y040072D01*
X037626Y040122D01*
X038276D01*
X039872Y038526D01*
Y036224D01*
X039739Y036091D01*
X03965Y036103D01*
X039559Y036091D01*
X039473Y036056D01*
X0394Y036D01*
X039344Y035927D01*
X039309Y035841D01*
X039297Y03575D01*
X039309Y035659D01*
X039344Y035573D01*
X0394Y0355D01*
X039472Y035446D01*
Y031774D01*
X036926Y029228D01*
X031158D01*
X031149Y029251D01*
X031085Y029335D01*
X031001Y029399D01*
X030904Y029439D01*
X0308Y029453D01*
X030696Y029439D01*
X030599Y029399D01*
X030515Y029335D01*
X030451Y029251D01*
X030411Y029154D01*
X030397Y02905D01*
X030411Y028946D01*
X030451Y028849D01*
X030515Y028765D01*
X030599Y028701D01*
X030696Y028661D01*
X0308Y028647D01*
X030904Y028661D01*
X031001Y028701D01*
X031085Y028765D01*
X031149Y028849D01*
X031158Y028872D01*
X037D01*
X037068Y028885D01*
X037126Y028924D01*
X039776Y031574D01*
X039815Y031632D01*
X039828Y0317D01*
X039828Y0317D01*
Y035446D01*
X0399Y0355D01*
X039956Y035573D01*
X039991Y035659D01*
X040003Y03575D01*
X039991Y035839D01*
X040176Y036024D01*
X040176Y036024D01*
X040215Y036082D01*
X040228Y03615D01*
Y0386D01*
X040215Y038668D01*
X040176Y038726D01*
X039781Y039122D01*
X039801Y039172D01*
X047032D01*
X047035Y039169D01*
X047039Y039169D01*
X04705Y03912D01*
X047015Y039093D01*
X046951Y03901D01*
X046911Y038912D01*
X046897Y038808D01*
X046911Y038704D01*
X046951Y038607D01*
X047015Y038524D01*
X047099Y03846D01*
X047196Y038419D01*
X0473Y038406D01*
X047404Y038419D01*
X047501Y03846D01*
X047585Y038524D01*
X047649Y038607D01*
X047689Y038704D01*
X047703Y038808D01*
X047689Y038912D01*
X047649Y03901D01*
X047585Y039093D01*
X04755Y03912D01*
X047561Y039169D01*
X047565Y039169D01*
X047568Y039172D01*
X048129D01*
X048526Y038774D01*
X048584Y038735D01*
X048653Y038722D01*
X050446D01*
X0505Y03865D01*
X050573Y038594D01*
X050659Y038559D01*
X05075Y038547D01*
X050841Y038559D01*
X050927Y038594D01*
X051Y03865D01*
X051056Y038723D01*
X051091Y038809D01*
X051103Y0389D01*
X051091Y038991D01*
X051056Y039077D01*
X051Y03915D01*
X050927Y039206D01*
X050841Y039241D01*
X05075Y039253D01*
X050659Y039241D01*
X050573Y039206D01*
X0505Y03915D01*
X050446Y039078D01*
X048727D01*
X048329Y039476D01*
X048271Y039515D01*
X048203Y039528D01*
X047645D01*
X047623Y039573D01*
X047649Y039607D01*
X047689Y039704D01*
X047703Y039808D01*
X047689Y039912D01*
X047649Y04001D01*
X047585Y040093D01*
X047501Y040157D01*
X047404Y040197D01*
X0473Y040211D01*
X047196Y040197D01*
X047099Y040157D01*
X047015Y040093D01*
X046951Y04001D01*
X046923Y039941D01*
X045355D01*
X04533Y039991D01*
X045356Y040023D01*
X045391Y040109D01*
X045403Y0402D01*
X045391Y040291D01*
X045356Y040377D01*
X0453Y04045D01*
X045253Y040485D01*
Y046285D01*
X045277Y046294D01*
X04535Y04635D01*
X045406Y046423D01*
X045441Y046509D01*
X045453Y0466D01*
X045441Y046691D01*
X045406Y046777D01*
X04535Y04685D01*
X045277Y046906D01*
X045191Y046941D01*
X0451Y046953D01*
X045009Y046941D01*
X044923Y046906D01*
X04485Y04685D01*
X044794Y046777D01*
X044759Y046691D01*
X044747Y0466D01*
X044759Y046509D01*
X044794Y046423D01*
X04485Y04635D01*
X044897Y046315D01*
Y040515D01*
X044873Y040506D01*
X0448Y04045D01*
X044744Y040377D01*
X044709Y040291D01*
X044697Y0402D01*
X044709Y040109D01*
X044744Y040023D01*
X04477Y039991D01*
X044745Y039941D01*
X044062D01*
X043728Y040274D01*
Y048476D01*
X044074Y048822D01*
X051746D01*
X0518Y04875D01*
X051873Y048694D01*
X051959Y048659D01*
X05205Y048647D01*
X052141Y048659D01*
X052227Y048694D01*
X0523Y04875D01*
X052356Y048823D01*
X052391Y048909D01*
X052403Y049D01*
X052391Y049091D01*
X052356Y049177D01*
X052321Y049222D01*
X052346Y049272D01*
X0528D01*
X053097Y048974D01*
X053097Y048974D01*
X053155Y048935D01*
X053224Y048922D01*
X053224Y048922D01*
X053846D01*
X0539Y04885D01*
X053973Y048794D01*
X054059Y048759D01*
X05415Y048747D01*
X054241Y048759D01*
X054327Y048794D01*
X0544Y04885D01*
X054456Y048923D01*
X054491Y049009D01*
X054503Y0491D01*
X054491Y049191D01*
X054456Y049277D01*
X0544Y04935D01*
X054327Y049406D01*
X054241Y049441D01*
X05415Y049453D01*
X054059Y049441D01*
X053973Y049406D01*
X0539Y04935D01*
X053846Y049278D01*
X053297D01*
X053Y049576D01*
X052942Y049615D01*
X052874Y049628D01*
X04375D01*
X04375Y049628D01*
D02*
G37*
G36*
X0562Y048053D02*
X056109Y048041D01*
X056023Y048006D01*
X05595Y04795D01*
X055896Y047878D01*
X054354D01*
X0543Y04795D01*
X054227Y048006D01*
X054141Y048041D01*
X05405Y048053D01*
X053959Y048041D01*
X053873Y048006D01*
X0538Y04795D01*
X053746Y047878D01*
X052188D01*
X052184Y047884D01*
X05211Y04794D01*
X052025Y047975D01*
X051934Y047987D01*
X051843Y047975D01*
X051757Y04794D01*
X051684Y047884D01*
X051655Y047845D01*
X049869D01*
X049856Y047877D01*
X0498Y04795D01*
X049727Y048006D01*
X049641Y048041D01*
X04955Y048053D01*
X049459Y048041D01*
X049373Y048006D01*
X0493Y04795D01*
X049244Y047877D01*
X049209Y047791D01*
X049197Y0477D01*
X049209Y047609D01*
X049244Y047523D01*
X0493Y04745D01*
X049373Y047394D01*
X049459Y047359D01*
X04955Y047347D01*
X049641Y047359D01*
X049727Y047394D01*
X0498Y04745D01*
X049829Y047489D01*
X051615D01*
X051628Y047457D01*
X051684Y047384D01*
X051757Y047328D01*
X051843Y047293D01*
X051934Y047281D01*
X052025Y047293D01*
X05211Y047328D01*
X052184Y047384D01*
X05224Y047457D01*
X052266Y047522D01*
X053746D01*
X0538Y04745D01*
X053873Y047394D01*
X053959Y047359D01*
X05405Y047347D01*
X054141Y047359D01*
X054227Y047394D01*
X0543Y04745D01*
X054354Y047522D01*
X055896D01*
X05595Y04745D01*
X056023Y047394D01*
X056109Y047359D01*
X0562Y047347D01*
X056291Y047359D01*
X056377Y047394D01*
X05645Y04745D01*
X056506Y047523D01*
X056541Y047609D01*
X056553Y0477D01*
X056541Y047791D01*
X056506Y047877D01*
X05645Y04795D01*
X056377Y048006D01*
X056291Y048041D01*
X0562Y048053D01*
D02*
G37*
G36*
X02295Y047997D02*
X022842Y047983D01*
X022741Y047941D01*
X022654Y047875D01*
X022588Y047788D01*
X022546Y047687D01*
X022531Y047579D01*
Y047421D01*
X022546Y047313D01*
X022588Y047212D01*
X022654Y047125D01*
X022741Y047059D01*
X022842Y047017D01*
X02295Y047003D01*
X023058Y047017D01*
X023159Y047059D01*
X023246Y047125D01*
X023312Y047212D01*
X023354Y047313D01*
X023369Y047421D01*
Y047579D01*
X023354Y047687D01*
X023312Y047788D01*
X023246Y047875D01*
X023159Y047941D01*
X023058Y047983D01*
X02295Y047997D01*
D02*
G37*
G36*
X02195D02*
X021842Y047983D01*
X021741Y047941D01*
X021654Y047875D01*
X021588Y047788D01*
X021546Y047687D01*
X021531Y047579D01*
Y047421D01*
X021546Y047313D01*
X021588Y047212D01*
X021654Y047125D01*
X021741Y047059D01*
X021842Y047017D01*
X02195Y047003D01*
X022058Y047017D01*
X022159Y047059D01*
X022246Y047125D01*
X022312Y047212D01*
X022354Y047313D01*
X022369Y047421D01*
Y047579D01*
X022354Y047687D01*
X022312Y047788D01*
X022246Y047875D01*
X022159Y047941D01*
X022058Y047983D01*
X02195Y047997D01*
D02*
G37*
G36*
X0541Y046353D02*
X054009Y046341D01*
X053923Y046306D01*
X05385Y04625D01*
X053794Y046177D01*
X053785Y046153D01*
X052335D01*
X0523Y0462D01*
X052227Y046256D01*
X052141Y046291D01*
X05205Y046303D01*
X051959Y046291D01*
X051873Y046256D01*
X0518Y0462D01*
X051744Y046127D01*
X051735Y046103D01*
X049935D01*
X0499Y04615D01*
X049827Y046206D01*
X049741Y046241D01*
X04965Y046253D01*
X049559Y046241D01*
X049473Y046206D01*
X0494Y04615D01*
X049344Y046077D01*
X049326Y046033D01*
X047631D01*
X047585Y046093D01*
X047501Y046157D01*
X047404Y046197D01*
X0473Y046211D01*
X047196Y046197D01*
X047099Y046157D01*
X047015Y046093D01*
X046951Y04601D01*
X046911Y045912D01*
X046897Y045808D01*
X046911Y045704D01*
X046951Y045607D01*
X047015Y045524D01*
X047099Y04546D01*
X047196Y045419D01*
X0473Y045406D01*
X047404Y045419D01*
X047501Y04546D01*
X047585Y045524D01*
X047649Y045607D01*
X047677Y045676D01*
X049381D01*
X0494Y04565D01*
X049472Y045596D01*
Y04485D01*
X049485Y044782D01*
X049524Y044724D01*
X050209Y044039D01*
X050197Y04395D01*
X050201Y043922D01*
X050153Y043899D01*
X049341Y044711D01*
X049353Y0448D01*
X049341Y044891D01*
X049306Y044977D01*
X04925Y04505D01*
X049177Y045106D01*
X049091Y045141D01*
X049Y045153D01*
X048909Y045141D01*
X048823Y045106D01*
X04875Y04505D01*
X048694Y044977D01*
X048659Y044891D01*
X048647Y0448D01*
X048659Y044709D01*
X048694Y044623D01*
X04875Y04455D01*
X048823Y044494D01*
X048909Y044459D01*
X049Y044447D01*
X049089Y044459D01*
X051174Y042374D01*
X051232Y042335D01*
X0513Y042322D01*
X055546D01*
X0556Y04225D01*
X055673Y042194D01*
X055759Y042159D01*
X05585Y042147D01*
X055941Y042159D01*
X056027Y042194D01*
X0561Y04225D01*
X056156Y042323D01*
X056191Y042409D01*
X056203Y0425D01*
X056191Y042591D01*
X056156Y042677D01*
X0561Y04275D01*
X056027Y042806D01*
X055941Y042841D01*
X05585Y042853D01*
X055759Y042841D01*
X055673Y042806D01*
X0556Y04275D01*
X055546Y042678D01*
X051374D01*
X050499Y043553D01*
X050522Y043601D01*
X05055Y043597D01*
X050641Y043609D01*
X050727Y043644D01*
X0508Y0437D01*
X050856Y043773D01*
X050891Y043859D01*
X050903Y04395D01*
X050891Y044041D01*
X050856Y044127D01*
X0508Y0442D01*
X050727Y044256D01*
X050641Y044291D01*
X05055Y044303D01*
X050461Y044291D01*
X049828Y044924D01*
Y045596D01*
X0499Y04565D01*
X049956Y045723D01*
X049965Y045747D01*
X051765D01*
X0518Y0457D01*
X051873Y045644D01*
X051959Y045609D01*
X05205Y045597D01*
X052141Y045609D01*
X052227Y045644D01*
X0523Y0457D01*
X052356Y045773D01*
X052365Y045797D01*
X053815D01*
X05385Y04575D01*
X053923Y045694D01*
X054009Y045659D01*
X0541Y045647D01*
X054191Y045659D01*
X054277Y045694D01*
X05435Y04575D01*
X054406Y045823D01*
X054441Y045909D01*
X054453Y046D01*
X054441Y046091D01*
X054406Y046177D01*
X05435Y04625D01*
X054277Y046306D01*
X054191Y046341D01*
X0541Y046353D01*
D02*
G37*
G36*
X0373Y046211D02*
X037196Y046197D01*
X037099Y046157D01*
X037015Y046093D01*
X036951Y04601D01*
X036911Y045912D01*
X036897Y045808D01*
X036911Y045704D01*
X036951Y045607D01*
X037015Y045524D01*
X037099Y04546D01*
X037196Y045419D01*
X0373Y045406D01*
X037404Y045419D01*
X037501Y04546D01*
X037585Y045524D01*
X037649Y045607D01*
X037689Y045704D01*
X037703Y045808D01*
X037689Y045912D01*
X037649Y04601D01*
X037585Y046093D01*
X037501Y046157D01*
X037404Y046197D01*
X0373Y046211D01*
D02*
G37*
G36*
X0315Y045353D02*
X031409Y045341D01*
X031323Y045306D01*
X031287Y045277D01*
X029913D01*
X029877Y045306D01*
X029791Y045341D01*
X0297Y045353D01*
X029609Y045341D01*
X029523Y045306D01*
X02945Y04525D01*
X029394Y045177D01*
X029359Y045091D01*
X029347Y045D01*
X029359Y044909D01*
X029394Y044823D01*
X02945Y04475D01*
X029523Y044694D01*
X029609Y044659D01*
X0297Y044647D01*
X029791Y044659D01*
X029877Y044694D01*
X029913Y044723D01*
X031287D01*
X031323Y044694D01*
X031409Y044659D01*
X0315Y044647D01*
X031591Y044659D01*
X031677Y044694D01*
X03175Y04475D01*
X031806Y044823D01*
X031841Y044909D01*
X031853Y045D01*
X031841Y045091D01*
X031806Y045177D01*
X03175Y04525D01*
X031677Y045306D01*
X031591Y045341D01*
X0315Y045353D01*
D02*
G37*
G36*
X045665Y045801D02*
X045574Y045789D01*
X045489Y045754D01*
X045416Y045698D01*
X045359Y045625D01*
X045324Y045539D01*
X045312Y045448D01*
X045324Y045357D01*
X045359Y045271D01*
X045416Y045198D01*
X045489Y045142D01*
X045574Y045107D01*
X045665Y045095D01*
X045754Y045107D01*
X046179Y044682D01*
X046179Y044682D01*
X046237Y044643D01*
X046305Y04463D01*
X046305Y04463D01*
X046942D01*
X046951Y044607D01*
X047015Y044524D01*
X047099Y04446D01*
X047196Y044419D01*
X0473Y044406D01*
X047404Y044419D01*
X047501Y04446D01*
X047585Y044524D01*
X047649Y044607D01*
X047689Y044704D01*
X047703Y044808D01*
X047689Y044912D01*
X047649Y04501D01*
X047585Y045093D01*
X047501Y045157D01*
X047404Y045197D01*
X0473Y045211D01*
X047196Y045197D01*
X047099Y045157D01*
X047015Y045093D01*
X046951Y04501D01*
X046942Y044987D01*
X046379D01*
X046006Y045359D01*
X046018Y045448D01*
X046006Y045539D01*
X045971Y045625D01*
X045915Y045698D01*
X045842Y045754D01*
X045757Y045789D01*
X045665Y045801D01*
D02*
G37*
G36*
X0373Y045211D02*
X037196Y045197D01*
X037099Y045157D01*
X037015Y045093D01*
X036951Y04501D01*
X036911Y044912D01*
X036897Y044808D01*
X036911Y044704D01*
X036921Y044681D01*
X034968Y042728D01*
X034425D01*
X034412Y042759D01*
X034346Y042846D01*
X034259Y042912D01*
X034158Y042954D01*
X03405Y042969D01*
X033942Y042954D01*
X033841Y042912D01*
X033754Y042846D01*
X033688Y042759D01*
X033646Y042658D01*
X033631Y04255D01*
X033646Y042442D01*
X033658Y042411D01*
X033076Y041828D01*
X03274D01*
X032731Y041852D01*
X032675Y041925D01*
X032602Y041981D01*
X032516Y042016D01*
X032425Y042028D01*
X032334Y042016D01*
X032248Y041981D01*
X032175Y041925D01*
X032119Y041852D01*
X032084Y041766D01*
X032072Y041675D01*
X032084Y041584D01*
X032119Y041498D01*
X032175Y041425D01*
X032248Y041369D01*
X032334Y041334D01*
X032425Y041322D01*
X032516Y041334D01*
X032602Y041369D01*
X032675Y041425D01*
X03271Y041472D01*
X03315D01*
X033218Y041485D01*
X033276Y041524D01*
X033911Y042158D01*
X033942Y042146D01*
X03405Y042131D01*
X034158Y042146D01*
X034259Y042188D01*
X034346Y042254D01*
X034412Y042341D01*
X034425Y042372D01*
X035042D01*
X03511Y042385D01*
X035168Y042424D01*
X037173Y044429D01*
X037196Y044419D01*
X0373Y044406D01*
X037404Y044419D01*
X037501Y04446D01*
X037585Y044524D01*
X037649Y044607D01*
X037689Y044704D01*
X037703Y044808D01*
X037689Y044912D01*
X037649Y04501D01*
X037585Y045093D01*
X037501Y045157D01*
X037404Y045197D01*
X0373Y045211D01*
D02*
G37*
G36*
X034465Y044965D02*
X033635D01*
Y044135D01*
X034465D01*
Y044965D01*
D02*
G37*
G36*
X0373Y044211D02*
X037196Y044197D01*
X037099Y044157D01*
X037015Y044093D01*
X036951Y04401D01*
X036911Y043912D01*
X036897Y043808D01*
X036911Y043704D01*
X036951Y043607D01*
X037015Y043524D01*
X037099Y04346D01*
X037196Y043419D01*
X0373Y043406D01*
X037404Y043419D01*
X037501Y04346D01*
X037585Y043524D01*
X037649Y043607D01*
X037689Y043704D01*
X037703Y043808D01*
X037689Y043912D01*
X037649Y04401D01*
X037585Y044093D01*
X037501Y044157D01*
X037404Y044197D01*
X0373Y044211D01*
D02*
G37*
G36*
X03405Y043969D02*
X033942Y043954D01*
X033841Y043912D01*
X033754Y043846D01*
X033688Y043759D01*
X033646Y043658D01*
X033631Y04355D01*
X033646Y043442D01*
X033688Y043341D01*
X033754Y043254D01*
X033841Y043188D01*
X033942Y043146D01*
X03405Y043131D01*
X034158Y043146D01*
X034259Y043188D01*
X034346Y043254D01*
X034412Y043341D01*
X034454Y043442D01*
X034469Y04355D01*
X034454Y043658D01*
X034412Y043759D01*
X034346Y043846D01*
X034259Y043912D01*
X034158Y043954D01*
X03405Y043969D01*
D02*
G37*
G36*
X0473Y043211D02*
X047196Y043197D01*
X047099Y043157D01*
X047015Y043093D01*
X046951Y04301D01*
X046911Y042912D01*
X046897Y042808D01*
X046911Y042704D01*
X046951Y042607D01*
X047015Y042524D01*
X047099Y04246D01*
X047196Y042419D01*
X0473Y042406D01*
X047404Y042419D01*
X047501Y04246D01*
X047585Y042524D01*
X047649Y042607D01*
X047689Y042704D01*
X047703Y042808D01*
X047689Y042912D01*
X047649Y04301D01*
X047585Y043093D01*
X047501Y043157D01*
X047404Y043197D01*
X0473Y043211D01*
D02*
G37*
G36*
X0373D02*
X037196Y043197D01*
X037099Y043157D01*
X037015Y043093D01*
X036951Y04301D01*
X036911Y042912D01*
X036897Y042808D01*
X036911Y042704D01*
X036951Y042607D01*
X037015Y042524D01*
X037099Y04246D01*
X037196Y042419D01*
X0373Y042406D01*
X037404Y042419D01*
X037501Y04246D01*
X037585Y042524D01*
X037649Y042607D01*
X037689Y042704D01*
X037703Y042808D01*
X037689Y042912D01*
X037649Y04301D01*
X037585Y043093D01*
X037501Y043157D01*
X037404Y043197D01*
X0373Y043211D01*
D02*
G37*
G36*
X02395Y047997D02*
X023842Y047983D01*
X023741Y047941D01*
X023654Y047875D01*
X023588Y047788D01*
X023546Y047687D01*
X023531Y047579D01*
Y047421D01*
X023546Y047313D01*
X023588Y047212D01*
X023654Y047125D01*
X023741Y047059D01*
X023842Y047017D01*
X02395Y047003D01*
X024043Y047015D01*
X025304Y045754D01*
X025361Y04571D01*
X025428Y045682D01*
X0255Y045673D01*
X028423D01*
Y042963D01*
X028394Y042927D01*
X028359Y042841D01*
X028347Y04275D01*
X028359Y042659D01*
X028394Y042573D01*
X02845Y0425D01*
X028523Y042444D01*
X028609Y042409D01*
X0287Y042397D01*
X028791Y042409D01*
X028877Y042444D01*
X02895Y0425D01*
X029006Y042573D01*
X029041Y042659D01*
X029053Y04275D01*
X029041Y042841D01*
X029006Y042927D01*
X028977Y042963D01*
Y045737D01*
X029006Y045773D01*
X029041Y045859D01*
X029053Y04595D01*
X029041Y046041D01*
X029006Y046127D01*
X02895Y0462D01*
X028877Y046256D01*
X028791Y046291D01*
X0287Y046303D01*
X028609Y046291D01*
X028523Y046256D01*
X028487Y046227D01*
X025615D01*
X024369Y047474D01*
Y047579D01*
X024354Y047687D01*
X024312Y047788D01*
X024246Y047875D01*
X024159Y047941D01*
X024058Y047983D01*
X02395Y047997D01*
D02*
G37*
G36*
X01405Y04336D02*
X01285D01*
Y04156D01*
X01405D01*
Y04336D01*
D02*
G37*
G36*
X0473Y042211D02*
X047196Y042197D01*
X047099Y042157D01*
X047015Y042093D01*
X046951Y04201D01*
X046911Y041912D01*
X046897Y041808D01*
X046911Y041704D01*
X046951Y041607D01*
X047015Y041524D01*
X047099Y04146D01*
X047196Y041419D01*
X0473Y041406D01*
X047404Y041419D01*
X047501Y04146D01*
X047585Y041524D01*
X047649Y041607D01*
X047689Y041704D01*
X047703Y041808D01*
X047689Y041912D01*
X047649Y04201D01*
X047585Y042093D01*
X047501Y042157D01*
X047404Y042197D01*
X0473Y042211D01*
D02*
G37*
G36*
Y041211D02*
X047196Y041197D01*
X047099Y041157D01*
X047015Y041093D01*
X046951Y04101D01*
X046911Y040912D01*
X046897Y040808D01*
X046911Y040704D01*
X046951Y040607D01*
X047015Y040524D01*
X047099Y04046D01*
X047196Y040419D01*
X0473Y040406D01*
X047404Y040419D01*
X047501Y04046D01*
X047585Y040524D01*
X047649Y040607D01*
X047689Y040704D01*
X047703Y040808D01*
X047689Y040912D01*
X047649Y04101D01*
X047585Y041093D01*
X047501Y041157D01*
X047404Y041197D01*
X0473Y041211D01*
D02*
G37*
G36*
X01316Y04108D02*
X01136D01*
Y03988D01*
X01316D01*
Y04108D01*
D02*
G37*
G36*
X0473Y044211D02*
X047196Y044197D01*
X047099Y044157D01*
X047015Y044093D01*
X046951Y04401D01*
X046911Y043912D01*
X046897Y043808D01*
X046911Y043704D01*
X046951Y043607D01*
X047015Y043524D01*
X047099Y04346D01*
X047196Y043419D01*
X0473Y043406D01*
X047404Y043419D01*
X047427Y043429D01*
X051832Y039024D01*
X051832Y039024D01*
X05189Y038985D01*
X051958Y038972D01*
X051958Y038972D01*
X059096D01*
X05915Y0389D01*
X059223Y038844D01*
X059309Y038809D01*
X0594Y038797D01*
X059491Y038809D01*
X059577Y038844D01*
X05965Y0389D01*
X059706Y038973D01*
X059741Y039059D01*
X059753Y03915D01*
X059741Y039241D01*
X059706Y039327D01*
X05965Y0394D01*
X059577Y039456D01*
X059491Y039491D01*
X0594Y039503D01*
X059309Y039491D01*
X059223Y039456D01*
X05915Y0394D01*
X059096Y039328D01*
X052032D01*
X047679Y043681D01*
X047689Y043704D01*
X047703Y043808D01*
X047689Y043912D01*
X047649Y04401D01*
X047585Y044093D01*
X047501Y044157D01*
X047404Y044197D01*
X0473Y044211D01*
D02*
G37*
G36*
X01555Y041353D02*
X015459Y041341D01*
X015373Y041306D01*
X0153Y04125D01*
X015244Y041177D01*
X015209Y041091D01*
X015197Y041D01*
X015209Y040909D01*
X015244Y040823D01*
X015273Y040787D01*
Y038713D01*
X015244Y038677D01*
X015209Y038591D01*
X015197Y0385D01*
X015209Y038409D01*
X015244Y038323D01*
X0153Y03825D01*
X015373Y038194D01*
X015459Y038159D01*
X01555Y038147D01*
X015641Y038159D01*
X015727Y038194D01*
X0158Y03825D01*
X015856Y038323D01*
X015891Y038409D01*
X015903Y0385D01*
X015891Y038591D01*
X015856Y038677D01*
X015827Y038713D01*
Y040787D01*
X015856Y040823D01*
X015891Y040909D01*
X015903Y041D01*
X015891Y041091D01*
X015856Y041177D01*
X0158Y04125D01*
X015727Y041306D01*
X015641Y041341D01*
X01555Y041353D01*
D02*
G37*
G36*
X0199Y039453D02*
X019809Y039441D01*
X019723Y039406D01*
X01965Y03935D01*
X019594Y039277D01*
X019559Y039191D01*
X019547Y0391D01*
X019559Y039009D01*
X019594Y038923D01*
X01965Y03885D01*
X019723Y038794D01*
X019809Y038759D01*
X0199Y038747D01*
X019991Y038759D01*
X020077Y038794D01*
X020111Y038821D01*
X021358D01*
X021853Y038326D01*
X021859Y038283D01*
X021894Y038198D01*
X02195Y038125D01*
X022023Y038069D01*
X022108Y038034D01*
X0222Y038022D01*
X022291Y038034D01*
X022376Y038069D01*
X022449Y038125D01*
X022505Y038198D01*
X022541Y038283D01*
X022553Y038375D01*
X022541Y038466D01*
X022505Y038551D01*
X022449Y038624D01*
X022376Y03868D01*
X022291Y038716D01*
X022248Y038721D01*
X021672Y039298D01*
X021614Y039342D01*
X021546Y03937D01*
X021474Y039379D01*
X020111D01*
X020077Y039406D01*
X019991Y039441D01*
X0199Y039453D01*
D02*
G37*
G36*
X0473Y038211D02*
X047196Y038197D01*
X047099Y038157D01*
X047015Y038093D01*
X046951Y03801D01*
X046911Y037912D01*
X046897Y037808D01*
X046911Y037704D01*
X046951Y037607D01*
X047015Y037524D01*
X047099Y03746D01*
X047196Y037419D01*
X0473Y037406D01*
X047404Y037419D01*
X047501Y03746D01*
X047585Y037524D01*
X047649Y037607D01*
X047689Y037704D01*
X047703Y037808D01*
X047689Y037912D01*
X047649Y03801D01*
X047585Y038093D01*
X047501Y038157D01*
X047404Y038197D01*
X0473Y038211D01*
D02*
G37*
G36*
X0373D02*
X037196Y038197D01*
X037099Y038157D01*
X037015Y038093D01*
X036951Y03801D01*
X036911Y037912D01*
X036897Y037808D01*
X036911Y037704D01*
X036951Y037607D01*
X037015Y037524D01*
X037099Y03746D01*
X037196Y037419D01*
X0373Y037406D01*
X037404Y037419D01*
X037501Y03746D01*
X037585Y037524D01*
X037649Y037607D01*
X037689Y037704D01*
X037703Y037808D01*
X037689Y037912D01*
X037649Y03801D01*
X037585Y038093D01*
X037501Y038157D01*
X037404Y038197D01*
X0373Y038211D01*
D02*
G37*
G36*
Y037211D02*
X037196Y037197D01*
X037099Y037157D01*
X037015Y037093D01*
X036951Y03701D01*
X036911Y036912D01*
X036897Y036808D01*
X036911Y036704D01*
X036921Y036681D01*
X034418Y034178D01*
X032604D01*
X03255Y03425D01*
X032477Y034306D01*
X032391Y034341D01*
X0323Y034353D01*
X032209Y034341D01*
X032123Y034306D01*
X03205Y03425D01*
X031994Y034177D01*
X031959Y034091D01*
X031947Y034D01*
X031959Y033909D01*
X031994Y033823D01*
X03205Y03375D01*
X032123Y033694D01*
X032209Y033659D01*
X0323Y033647D01*
X032391Y033659D01*
X032477Y033694D01*
X03255Y03375D01*
X032604Y033822D01*
X034492D01*
X03456Y033835D01*
X034618Y033874D01*
X037173Y036429D01*
X037196Y036419D01*
X0373Y036406D01*
X037404Y036419D01*
X037501Y03646D01*
X037585Y036524D01*
X037649Y036607D01*
X037689Y036704D01*
X037703Y036808D01*
X037689Y036912D01*
X037649Y03701D01*
X037585Y037093D01*
X037501Y037157D01*
X037404Y037197D01*
X0373Y037211D01*
D02*
G37*
G36*
X05069Y036263D02*
X050586Y03625D01*
X050488Y036209D01*
X050405Y036145D01*
X050341Y036062D01*
X05032Y036013D01*
X047646D01*
X047585Y036093D01*
X047501Y036157D01*
X047404Y036197D01*
X0473Y036211D01*
X047196Y036197D01*
X047099Y036157D01*
X047015Y036093D01*
X046951Y03601D01*
X046911Y035912D01*
X046897Y035808D01*
X046911Y035704D01*
X046951Y035607D01*
X047015Y035524D01*
X047099Y03546D01*
X047196Y035419D01*
X0473Y035406D01*
X047404Y035419D01*
X047501Y03546D01*
X047585Y035524D01*
X047649Y035607D01*
X047669Y035656D01*
X050343D01*
X050405Y035575D01*
X050488Y035511D01*
X050586Y03547D01*
X05069Y035457D01*
X050794Y03547D01*
X050892Y035511D01*
X050975Y035575D01*
X051039Y035658D01*
X05108Y035756D01*
X051093Y03586D01*
X05108Y035964D01*
X051039Y036062D01*
X050975Y036145D01*
X050892Y036209D01*
X050794Y03625D01*
X05069Y036263D01*
D02*
G37*
G36*
X05269D02*
X052586Y03625D01*
X052488Y036209D01*
X052405Y036145D01*
X052341Y036062D01*
X0523Y035964D01*
X052287Y03586D01*
X0523Y035756D01*
X052341Y035658D01*
X052405Y035575D01*
X052488Y035511D01*
X052586Y03547D01*
X05269Y035457D01*
X052794Y03547D01*
X052892Y035511D01*
X052975Y035575D01*
X053039Y035658D01*
X05308Y035756D01*
X053093Y03586D01*
X05308Y035964D01*
X053039Y036062D01*
X052975Y036145D01*
X052892Y036209D01*
X052794Y03625D01*
X05269Y036263D01*
D02*
G37*
G36*
X05975Y036253D02*
X059646Y03624D01*
X059548Y036199D01*
X059465Y036135D01*
X059401Y036052D01*
X05936Y035954D01*
X059347Y03585D01*
X05936Y035746D01*
X059401Y035648D01*
X059465Y035565D01*
X059548Y035501D01*
X059646Y03546D01*
X05975Y035447D01*
X059854Y03546D01*
X059952Y035501D01*
X060035Y035565D01*
X060099Y035648D01*
X06014Y035746D01*
X060153Y03585D01*
X06014Y035954D01*
X060099Y036052D01*
X060035Y036135D01*
X059952Y036199D01*
X059854Y03624D01*
X05975Y036253D01*
D02*
G37*
G36*
X048492Y038178D02*
X048423Y038165D01*
X048366Y038126D01*
X048366Y038126D01*
X047427Y037188D01*
X047404Y037197D01*
X0473Y037211D01*
X047196Y037197D01*
X047099Y037157D01*
X047015Y037093D01*
X046951Y03701D01*
X046911Y036912D01*
X046897Y036808D01*
X046911Y036704D01*
X046951Y036607D01*
X047015Y036524D01*
X047099Y03646D01*
X047196Y036419D01*
X0473Y036406D01*
X047404Y036419D01*
X047501Y03646D01*
X047585Y036524D01*
X047649Y036607D01*
X047689Y036704D01*
X047703Y036808D01*
X047689Y036912D01*
X047679Y036935D01*
X048566Y037822D01*
X049002D01*
X049012Y037772D01*
X048973Y037756D01*
X0489Y0377D01*
X048844Y037627D01*
X048809Y037541D01*
X048797Y03745D01*
X048809Y037359D01*
X048844Y037273D01*
X0489Y0372D01*
X048973Y037144D01*
X049059Y037109D01*
X04915Y037097D01*
X049241Y037109D01*
X049327Y037144D01*
X0494Y0372D01*
X049456Y037273D01*
X049476Y037322D01*
X050976D01*
X051359Y036939D01*
X051347Y03685D01*
X051358Y036765D01*
X051346Y036753D01*
X051313Y03674D01*
X051176Y036876D01*
X051118Y036915D01*
X051085Y036921D01*
X05108Y036964D01*
X051039Y037062D01*
X050975Y037145D01*
X050892Y037209D01*
X050794Y03725D01*
X05069Y037263D01*
X050586Y03725D01*
X050488Y037209D01*
X050405Y037145D01*
X050341Y037062D01*
X0503Y036964D01*
X050287Y03686D01*
X0503Y036756D01*
X050341Y036658D01*
X050405Y036575D01*
X050488Y036511D01*
X050586Y03647D01*
X05069Y036457D01*
X050794Y03647D01*
X050892Y036511D01*
X050974Y036574D01*
X051322Y036226D01*
Y029874D01*
X048813Y027365D01*
X048235D01*
Y026535D01*
X049065D01*
Y027113D01*
X051626Y029674D01*
X051626Y029674D01*
X051665Y029732D01*
X051672Y029766D01*
X051722Y029761D01*
Y029424D01*
X050986Y028689D01*
X050948Y028631D01*
X050934Y028563D01*
Y028236D01*
X049076Y026378D01*
X047274D01*
X047149Y026503D01*
Y026507D01*
X047136Y026576D01*
X047097Y026633D01*
X047097Y026633D01*
X047003Y026728D01*
X047012Y026741D01*
X047054Y026842D01*
X047069Y02695D01*
X047054Y027058D01*
X047012Y027159D01*
X046946Y027246D01*
X046859Y027312D01*
X046758Y027354D01*
X04665Y027369D01*
X046542Y027354D01*
X046441Y027312D01*
X046354Y027246D01*
X046288Y027159D01*
X046246Y027058D01*
X046231Y02695D01*
X046246Y026842D01*
X046288Y026741D01*
X046354Y026654D01*
X046441Y026588D01*
X046542Y026546D01*
X04665Y026531D01*
X046689Y026537D01*
X046792Y026433D01*
Y026429D01*
X046806Y026361D01*
X046845Y026303D01*
X047074Y026074D01*
X047132Y026035D01*
X0472Y026022D01*
X04915D01*
X049218Y026035D01*
X049276Y026074D01*
X051239Y028036D01*
X051277Y028094D01*
X051291Y028163D01*
Y028489D01*
X052026Y029224D01*
X052065Y029282D01*
X052078Y02935D01*
Y035996D01*
X052562Y03648D01*
X052586Y03647D01*
X05269Y036457D01*
X052794Y03647D01*
X052892Y036511D01*
X052975Y036575D01*
X053039Y036658D01*
X05308Y036756D01*
X053093Y03686D01*
X05308Y036964D01*
X053039Y037062D01*
X052975Y037145D01*
X052892Y037209D01*
X052794Y03725D01*
X05269Y037263D01*
X052586Y03725D01*
X052488Y037209D01*
X052405Y037145D01*
X052341Y037062D01*
X0523Y036964D01*
X052287Y03686D01*
X0523Y036756D01*
X05231Y036732D01*
X051774Y036196D01*
X051735Y036138D01*
X051728Y036104D01*
X051678Y036109D01*
Y0363D01*
X051665Y036368D01*
X051626Y036426D01*
X05159Y036463D01*
X051603Y036496D01*
X051615Y036508D01*
X0517Y036497D01*
X051791Y036509D01*
X051877Y036544D01*
X05195Y0366D01*
X052006Y036673D01*
X052041Y036759D01*
X052053Y03685D01*
X052041Y036941D01*
X052006Y037027D01*
X05195Y0371D01*
X051877Y037156D01*
X051791Y037191D01*
X0517Y037203D01*
X051611Y037191D01*
X051176Y037626D01*
X051118Y037665D01*
X05105Y037678D01*
X049416D01*
X0494Y0377D01*
X049327Y037756D01*
X049288Y037772D01*
X049298Y037822D01*
X055526D01*
X05737Y035978D01*
X05736Y035954D01*
X057347Y03585D01*
X05736Y035746D01*
X057401Y035648D01*
X057465Y035565D01*
X057548Y035501D01*
X057646Y03546D01*
X05775Y035447D01*
X057854Y03546D01*
X057952Y035501D01*
X058035Y035565D01*
X058099Y035648D01*
X05814Y035746D01*
X058153Y03585D01*
X05814Y035954D01*
X058099Y036052D01*
X058035Y036135D01*
X057952Y036199D01*
X057854Y03624D01*
X05775Y036253D01*
X057646Y03624D01*
X057622Y03623D01*
X055726Y038126D01*
X055668Y038165D01*
X0556Y038178D01*
X048492D01*
X048492Y038178D01*
D02*
G37*
G36*
X0373Y036211D02*
X037196Y036197D01*
X037099Y036157D01*
X037015Y036093D01*
X036951Y03601D01*
X036911Y035912D01*
X036897Y035808D01*
X036911Y035704D01*
X036951Y035607D01*
X037015Y035524D01*
X037099Y03546D01*
X037196Y035419D01*
X0373Y035406D01*
X037404Y035419D01*
X037501Y03546D01*
X037585Y035524D01*
X037649Y035607D01*
X037689Y035704D01*
X037703Y035808D01*
X037689Y035912D01*
X037649Y03601D01*
X037585Y036093D01*
X037501Y036157D01*
X037404Y036197D01*
X0373Y036211D01*
D02*
G37*
G36*
X05269Y035263D02*
X052586Y03525D01*
X052488Y035209D01*
X052405Y035145D01*
X052341Y035062D01*
X0523Y034964D01*
X052287Y03486D01*
X0523Y034756D01*
X052341Y034658D01*
X052405Y034575D01*
X052488Y034511D01*
X052586Y03447D01*
X05269Y034457D01*
X052794Y03447D01*
X052892Y034511D01*
X052975Y034575D01*
X053039Y034658D01*
X05308Y034756D01*
X053093Y03486D01*
X05308Y034964D01*
X053039Y035062D01*
X052975Y035145D01*
X052892Y035209D01*
X052794Y03525D01*
X05269Y035263D01*
D02*
G37*
G36*
X05069Y035263D02*
X050586Y03525D01*
X050488Y035209D01*
X050405Y035145D01*
X050341Y035062D01*
X0503Y034964D01*
X050287Y03486D01*
X0503Y034756D01*
X050341Y034658D01*
X050405Y034575D01*
X050488Y034511D01*
X050586Y03447D01*
X05069Y034457D01*
X050794Y03447D01*
X050892Y034511D01*
X050975Y034575D01*
X051039Y034658D01*
X05108Y034756D01*
X051093Y03486D01*
X05108Y034964D01*
X051039Y035062D01*
X050975Y035145D01*
X050892Y035209D01*
X050794Y03525D01*
X05069Y035263D01*
D02*
G37*
G36*
X05975Y035253D02*
X059646Y03524D01*
X059548Y035199D01*
X059465Y035135D01*
X059401Y035052D01*
X05936Y034954D01*
X059347Y03485D01*
X05936Y034746D01*
X059401Y034648D01*
X059465Y034565D01*
X059548Y034501D01*
X059646Y03446D01*
X05975Y034447D01*
X059854Y03446D01*
X059952Y034501D01*
X060035Y034565D01*
X060099Y034648D01*
X06014Y034746D01*
X060153Y03485D01*
X06014Y034954D01*
X060099Y035052D01*
X060035Y035135D01*
X059952Y035199D01*
X059854Y03524D01*
X05975Y035253D01*
D02*
G37*
G36*
X05775Y035253D02*
X057646Y03524D01*
X057548Y035199D01*
X057465Y035135D01*
X057401Y035052D01*
X05736Y034954D01*
X057347Y03485D01*
X05736Y034746D01*
X057401Y034648D01*
X057465Y034565D01*
X057548Y034501D01*
X057646Y03446D01*
X05775Y034447D01*
X057854Y03446D01*
X057952Y034501D01*
X058035Y034565D01*
X058099Y034648D01*
X05814Y034746D01*
X058153Y03485D01*
X05814Y034954D01*
X058099Y035052D01*
X058035Y035135D01*
X057952Y035199D01*
X057854Y03524D01*
X05775Y035253D01*
D02*
G37*
G36*
X0373Y035211D02*
X037196Y035197D01*
X037099Y035157D01*
X037015Y035093D01*
X036951Y03501D01*
X036911Y034912D01*
X036897Y034808D01*
X036911Y034704D01*
X036951Y034607D01*
X037015Y034524D01*
X037099Y03446D01*
X037196Y034419D01*
X0373Y034406D01*
X037404Y034419D01*
X037501Y03446D01*
X037585Y034524D01*
X037649Y034607D01*
X037689Y034704D01*
X037703Y034808D01*
X037689Y034912D01*
X037649Y03501D01*
X037585Y035093D01*
X037501Y035157D01*
X037404Y035197D01*
X0373Y035211D01*
D02*
G37*
G36*
X0473Y034211D02*
X047196Y034197D01*
X047099Y034157D01*
X047015Y034093D01*
X046951Y03401D01*
X046911Y033912D01*
X046897Y033808D01*
X046911Y033704D01*
X046951Y033607D01*
X047015Y033524D01*
X047099Y03346D01*
X047196Y033419D01*
X0473Y033406D01*
X047404Y033419D01*
X047501Y03346D01*
X047585Y033524D01*
X047649Y033607D01*
X047689Y033704D01*
X047703Y033808D01*
X047689Y033912D01*
X047649Y03401D01*
X047585Y034093D01*
X047501Y034157D01*
X047404Y034197D01*
X0473Y034211D01*
D02*
G37*
G36*
X0373D02*
X037196Y034197D01*
X037099Y034157D01*
X037015Y034093D01*
X036951Y03401D01*
X036911Y033912D01*
X036897Y033808D01*
X036911Y033704D01*
X036951Y033607D01*
X037015Y033524D01*
X037099Y03346D01*
X037196Y033419D01*
X0373Y033406D01*
X037404Y033419D01*
X037501Y03346D01*
X037585Y033524D01*
X037649Y033607D01*
X037689Y033704D01*
X037703Y033808D01*
X037689Y033912D01*
X037649Y03401D01*
X037585Y034093D01*
X037501Y034157D01*
X037404Y034197D01*
X0373Y034211D01*
D02*
G37*
G36*
X05109Y03326D02*
X05029D01*
Y03246D01*
X05109D01*
Y03326D01*
D02*
G37*
G36*
X05269Y033263D02*
X052586Y03325D01*
X052488Y033209D01*
X052405Y033145D01*
X052341Y033062D01*
X0523Y032964D01*
X052287Y03286D01*
X0523Y032756D01*
X052341Y032658D01*
X052405Y032575D01*
X052488Y032511D01*
X052586Y03247D01*
X05269Y032457D01*
X052794Y03247D01*
X052892Y032511D01*
X052975Y032575D01*
X053039Y032658D01*
X05308Y032756D01*
X053093Y03286D01*
X05308Y032964D01*
X053039Y033062D01*
X052975Y033145D01*
X052892Y033209D01*
X052794Y03325D01*
X05269Y033263D01*
D02*
G37*
G36*
X05815Y03325D02*
X05735D01*
Y03245D01*
X05815D01*
Y03325D01*
D02*
G37*
G36*
X05975Y033253D02*
X059646Y03324D01*
X059548Y033199D01*
X059465Y033135D01*
X059401Y033052D01*
X05936Y032954D01*
X059347Y03285D01*
X05936Y032746D01*
X059401Y032648D01*
X059465Y032565D01*
X059548Y032501D01*
X059646Y03246D01*
X05975Y032447D01*
X059854Y03246D01*
X059952Y032501D01*
X060035Y032565D01*
X060099Y032648D01*
X06014Y032746D01*
X060153Y03285D01*
X06014Y032954D01*
X060099Y033052D01*
X060035Y033135D01*
X059952Y033199D01*
X059854Y03324D01*
X05975Y033253D01*
D02*
G37*
G36*
X0473Y033211D02*
X047196Y033197D01*
X047099Y033157D01*
X047015Y033093D01*
X046951Y03301D01*
X046911Y032912D01*
X046897Y032808D01*
X046911Y032704D01*
X046951Y032607D01*
X047015Y032524D01*
X047099Y03246D01*
X047196Y032419D01*
X0473Y032406D01*
X047404Y032419D01*
X047501Y03246D01*
X047585Y032524D01*
X047649Y032607D01*
X047689Y032704D01*
X047703Y032808D01*
X047689Y032912D01*
X047649Y03301D01*
X047585Y033093D01*
X047501Y033157D01*
X047404Y033197D01*
X0473Y033211D01*
D02*
G37*
G36*
X0149Y035769D02*
X014792Y035754D01*
X014691Y035712D01*
X014604Y035646D01*
X014538Y035559D01*
X014496Y035458D01*
X014481Y03535D01*
X014496Y035242D01*
X014538Y035141D01*
X014604Y035054D01*
X014691Y034988D01*
X014792Y034946D01*
X0149Y034931D01*
X015008Y034946D01*
X015039Y034959D01*
X015372Y034626D01*
Y033054D01*
X0153Y033D01*
X015244Y032927D01*
X015209Y032841D01*
X015197Y03275D01*
X015209Y032659D01*
X015244Y032573D01*
X0153Y0325D01*
X015373Y032444D01*
X015459Y032409D01*
X01555Y032397D01*
X015641Y032409D01*
X015727Y032444D01*
X0158Y0325D01*
X015856Y032573D01*
X015891Y032659D01*
X015903Y03275D01*
X015891Y032841D01*
X015856Y032927D01*
X0158Y033D01*
X015728Y033054D01*
Y0347D01*
X015728Y0347D01*
X015715Y034768D01*
X015676Y034826D01*
X015613Y034889D01*
X015633Y034935D01*
X016063D01*
X016922Y034076D01*
Y033054D01*
X01685Y033D01*
X016794Y032927D01*
X016759Y032841D01*
X016747Y03275D01*
X016759Y032659D01*
X016794Y032573D01*
X01685Y0325D01*
X016923Y032444D01*
X017009Y032409D01*
X0171Y032397D01*
X017191Y032409D01*
X017277Y032444D01*
X01735Y0325D01*
X017406Y032573D01*
X017441Y032659D01*
X017453Y03275D01*
X017441Y032841D01*
X017406Y032927D01*
X01735Y033D01*
X017278Y033054D01*
Y03415D01*
X017265Y034218D01*
X017226Y034276D01*
X017226Y034276D01*
X016315Y035187D01*
Y035765D01*
X015485D01*
Y035083D01*
X015439Y035063D01*
X015292Y035211D01*
X015304Y035242D01*
X015319Y03535D01*
X015304Y035458D01*
X015262Y035559D01*
X015196Y035646D01*
X015109Y035712D01*
X015008Y035754D01*
X0149Y035769D01*
D02*
G37*
G36*
X0139D02*
X013792Y035754D01*
X013691Y035712D01*
X013604Y035646D01*
X013538Y035559D01*
X013496Y035458D01*
X013481Y03535D01*
X013496Y035242D01*
X013538Y035141D01*
X013604Y035054D01*
X013691Y034988D01*
X013747Y034964D01*
Y033035D01*
X0137Y033D01*
X013644Y032927D01*
X013609Y032841D01*
X013597Y03275D01*
X013609Y032659D01*
X013644Y032573D01*
X0137Y0325D01*
X013773Y032444D01*
X013859Y032409D01*
X01395Y032397D01*
X014041Y032409D01*
X014127Y032444D01*
X0142Y0325D01*
X014256Y032573D01*
X014291Y032659D01*
X014303Y03275D01*
X014291Y032841D01*
X014256Y032927D01*
X0142Y033D01*
X014127Y033056D01*
X014103Y033065D01*
Y034985D01*
X014109Y034988D01*
X014196Y035054D01*
X014262Y035141D01*
X014304Y035242D01*
X014319Y03535D01*
X014304Y035458D01*
X014262Y035559D01*
X014196Y035646D01*
X014109Y035712D01*
X014008Y035754D01*
X0139Y035769D01*
D02*
G37*
G36*
X047699Y032207D02*
X046901D01*
Y031409D01*
X047699D01*
Y032207D01*
D02*
G37*
G36*
X037699D02*
X036901D01*
Y031409D01*
X037699D01*
Y032207D01*
D02*
G37*
G36*
X016685Y037502D02*
X01385D01*
X013773Y037487D01*
X013707Y037443D01*
X012015Y035751D01*
X012008Y035754D01*
X0119Y035769D01*
X011792Y035754D01*
X011691Y035712D01*
X011604Y035646D01*
X011538Y035559D01*
X011496Y035458D01*
X011481Y03535D01*
X011496Y035242D01*
X011538Y035141D01*
X011604Y035054D01*
X011672Y035002D01*
Y02955D01*
X011685Y029482D01*
X011724Y029424D01*
X012059Y029089D01*
X012047Y029D01*
X012059Y028909D01*
X012094Y028823D01*
X01215Y02875D01*
X012223Y028694D01*
X012309Y028659D01*
X0124Y028647D01*
X012491Y028659D01*
X012577Y028694D01*
X01265Y02875D01*
X012706Y028823D01*
X012741Y028909D01*
X012753Y029D01*
X012741Y029091D01*
X012706Y029177D01*
X01265Y02925D01*
X012577Y029306D01*
X012491Y029341D01*
X0124Y029353D01*
X012311Y029341D01*
X012028Y029624D01*
Y032454D01*
X012078Y032479D01*
X012123Y032444D01*
X012209Y032409D01*
X0123Y032397D01*
X012391Y032409D01*
X012477Y032444D01*
X01255Y0325D01*
X012606Y032573D01*
X012641Y032659D01*
X012653Y03275D01*
X012641Y032841D01*
X012606Y032927D01*
X01255Y033D01*
X012478Y033054D01*
Y034676D01*
X012761Y034959D01*
X012792Y034946D01*
X0129Y034931D01*
X013008Y034946D01*
X013109Y034988D01*
X013196Y035054D01*
X013262Y035141D01*
X013304Y035242D01*
X013319Y03535D01*
X013304Y035458D01*
X013262Y035559D01*
X013196Y035646D01*
X013109Y035712D01*
X013008Y035754D01*
X0129Y035769D01*
X012792Y035754D01*
X012691Y035712D01*
X012604Y035646D01*
X012538Y035559D01*
X012496Y035458D01*
X012481Y03535D01*
X012496Y035242D01*
X012508Y035211D01*
X012174Y034876D01*
X012135Y034818D01*
X012122Y03475D01*
Y033054D01*
X012078Y033021D01*
X012028Y033046D01*
Y034954D01*
X012109Y034988D01*
X012196Y035054D01*
X012262Y035141D01*
X012304Y035242D01*
X012319Y03535D01*
X012304Y035458D01*
X012301Y035465D01*
X013934Y037098D01*
X016598D01*
Y03615D01*
X016613Y036073D01*
X016657Y036007D01*
X021505Y031159D01*
X021497Y0311D01*
X021509Y031009D01*
X021544Y030923D01*
X0216Y03085D01*
X021673Y030794D01*
X021759Y030759D01*
X02185Y030747D01*
X021941Y030759D01*
X022027Y030794D01*
X0221Y03085D01*
X022156Y030923D01*
X022191Y031009D01*
X022203Y0311D01*
X022191Y031191D01*
X022156Y031277D01*
X0221Y03135D01*
X022027Y031406D01*
X021941Y031441D01*
X02185Y031453D01*
X021791Y031445D01*
X017002Y036234D01*
Y037185D01*
X016987Y037262D01*
X016943Y037328D01*
X016828Y037443D01*
X016762Y037487D01*
X016685Y037502D01*
D02*
G37*
G36*
X05775Y037253D02*
X057646Y03724D01*
X057548Y037199D01*
X057465Y037135D01*
X057401Y037052D01*
X05736Y036954D01*
X057347Y03685D01*
X05736Y036746D01*
X057401Y036648D01*
X057465Y036565D01*
X057548Y036501D01*
X057646Y03646D01*
X05775Y036447D01*
X057854Y03646D01*
X057878Y03647D01*
X058622Y035726D01*
Y0281D01*
X058635Y028032D01*
X058674Y027974D01*
X058922Y027726D01*
Y027365D01*
X058685D01*
Y026535D01*
X059515D01*
Y027365D01*
X059278D01*
Y0278D01*
X059265Y027868D01*
X059226Y027926D01*
X058978Y028174D01*
Y0358D01*
X058965Y035868D01*
X058926Y035926D01*
X058926Y035926D01*
X05813Y036722D01*
X05814Y036746D01*
X058153Y03685D01*
X05814Y036954D01*
X058099Y037052D01*
X058035Y037135D01*
X057952Y037199D01*
X057854Y03724D01*
X05775Y037253D01*
D02*
G37*
G36*
X042715Y027365D02*
X041885D01*
Y026535D01*
X042715D01*
Y027365D01*
D02*
G37*
G36*
X05535Y037453D02*
X055259Y037441D01*
X055173Y037406D01*
X0551Y03735D01*
X055044Y037277D01*
X055009Y037191D01*
X054997Y0371D01*
X055009Y037009D01*
X055044Y036923D01*
X0551Y03685D01*
X055172Y036796D01*
Y0297D01*
X055185Y029632D01*
X055224Y029574D01*
X057709Y027089D01*
X057696Y027058D01*
X057681Y02695D01*
X057696Y026842D01*
X057738Y026741D01*
X057804Y026654D01*
X057891Y026588D01*
X057992Y026546D01*
X0581Y026531D01*
X058208Y026546D01*
X058309Y026588D01*
X058396Y026654D01*
X058462Y026741D01*
X058504Y026842D01*
X058519Y02695D01*
X058504Y027058D01*
X058462Y027159D01*
X058396Y027246D01*
X058309Y027312D01*
X058208Y027354D01*
X0581Y027369D01*
X057992Y027354D01*
X057961Y027341D01*
X055528Y029774D01*
Y036796D01*
X0556Y03685D01*
X055656Y036923D01*
X055691Y037009D01*
X055703Y0371D01*
X055691Y037191D01*
X055656Y037277D01*
X0556Y03735D01*
X055527Y037406D01*
X055441Y037441D01*
X05535Y037453D01*
D02*
G37*
G36*
X04765Y027369D02*
X047542Y027354D01*
X047441Y027312D01*
X047354Y027246D01*
X047288Y027159D01*
X047246Y027058D01*
X047231Y02695D01*
X047246Y026842D01*
X047288Y026741D01*
X047354Y026654D01*
X047441Y026588D01*
X047542Y026546D01*
X04765Y026531D01*
X047758Y026546D01*
X047859Y026588D01*
X047946Y026654D01*
X048012Y026741D01*
X048054Y026842D01*
X048069Y02695D01*
X048054Y027058D01*
X048012Y027159D01*
X047946Y027246D01*
X047859Y027312D01*
X047758Y027354D01*
X04765Y027369D01*
D02*
G37*
G36*
X0413D02*
X041192Y027354D01*
X041091Y027312D01*
X041004Y027246D01*
X040938Y027159D01*
X040896Y027058D01*
X040881Y02695D01*
X040896Y026842D01*
X040938Y026741D01*
X041004Y026654D01*
X041091Y026588D01*
X041192Y026546D01*
X0413Y026531D01*
X041408Y026546D01*
X041509Y026588D01*
X041596Y026654D01*
X041662Y026741D01*
X041704Y026842D01*
X041719Y02695D01*
X041704Y027058D01*
X041662Y027159D01*
X041596Y027246D01*
X041509Y027312D01*
X041408Y027354D01*
X0413Y027369D01*
D02*
G37*
G36*
X0354D02*
X035292Y027354D01*
X035191Y027312D01*
X035104Y027246D01*
X035038Y027159D01*
X034996Y027058D01*
X034981Y02695D01*
X034996Y026842D01*
X035038Y026741D01*
X035104Y026654D01*
X035191Y026588D01*
X035292Y026546D01*
X0354Y026531D01*
X035508Y026546D01*
X035609Y026588D01*
X035696Y026654D01*
X035762Y026741D01*
X035804Y026842D01*
X035819Y02695D01*
X035804Y027058D01*
X035762Y027159D01*
X035696Y027246D01*
X035609Y027312D01*
X035508Y027354D01*
X0354Y027369D01*
D02*
G37*
G36*
X05975Y037253D02*
X059646Y03724D01*
X059548Y037199D01*
X059465Y037135D01*
X059401Y037052D01*
X05936Y036954D01*
X059347Y03685D01*
X05936Y036746D01*
X059401Y036648D01*
X059465Y036565D01*
X059548Y036501D01*
X059646Y03646D01*
X05975Y036447D01*
X059854Y03646D01*
X059878Y03647D01*
X060322Y036026D01*
Y026824D01*
X05962Y026122D01*
X05818D01*
X057491Y026811D01*
X057504Y026842D01*
X057519Y02695D01*
X057504Y027058D01*
X057462Y027159D01*
X057396Y027246D01*
X057309Y027312D01*
X057208Y027354D01*
X0571Y027369D01*
X056992Y027354D01*
X056891Y027312D01*
X056804Y027246D01*
X056738Y027159D01*
X056696Y027058D01*
X056681Y02695D01*
X056696Y026842D01*
X056738Y026741D01*
X056804Y026654D01*
X056891Y026588D01*
X056992Y026546D01*
X0571Y026531D01*
X057208Y026546D01*
X057239Y026558D01*
X05798Y025818D01*
X058038Y025779D01*
X058106Y025766D01*
X059694D01*
X059762Y025779D01*
X05982Y025818D01*
X060626Y026624D01*
X060626Y026624D01*
X060665Y026682D01*
X060678Y02675D01*
Y0361D01*
X060665Y036168D01*
X060626Y036226D01*
X06013Y036722D01*
X06014Y036746D01*
X060153Y03685D01*
X06014Y036954D01*
X060099Y037052D01*
X060035Y037135D01*
X059952Y037199D01*
X059854Y03724D01*
X05975Y037253D01*
D02*
G37*
G36*
X0613Y024992D02*
X061126Y024975D01*
X060959Y024924D01*
X060805Y024841D01*
X060669Y024731D01*
X060559Y024595D01*
X060476Y024441D01*
X060425Y024274D01*
X060408Y0241D01*
X060425Y023926D01*
X060476Y023759D01*
X060559Y023605D01*
X060669Y023469D01*
X060805Y023359D01*
X060959Y023276D01*
X061126Y023225D01*
X0613Y023208D01*
X061474Y023225D01*
X061641Y023276D01*
X061795Y023359D01*
X061931Y023469D01*
X062041Y023605D01*
X062124Y023759D01*
X062175Y023926D01*
X062192Y0241D01*
X062175Y024274D01*
X062124Y024441D01*
X062041Y024595D01*
X061931Y024731D01*
X061795Y024841D01*
X061641Y024924D01*
X061474Y024975D01*
X0613Y024992D01*
D02*
G37*
%LPD*%
D71*
X0287Y04275D02*
Y04595D01*
X029741Y0394D02*
X0308D01*
X031821Y038871D02*
X03185Y0389D01*
X031821Y038421D02*
Y038871D01*
X0308Y0374D02*
X031821Y038421D01*
X01555Y0385D02*
Y041D01*
X0255Y04595D02*
X0287D01*
X02395Y047497D02*
Y0475D01*
Y047497D02*
X024079Y047368D01*
X024082D01*
X0255Y04595D01*
X0297Y045D02*
X0315D01*
D72*
X04915Y0262D02*
X051112Y028163D01*
X0472Y0262D02*
X04915D01*
X051112Y028563D02*
X0519Y02935D01*
X051112Y028163D02*
Y028563D01*
X04375Y04945D02*
X052874D01*
X053224Y0491D01*
X0429Y0486D02*
X04375Y04945D01*
X044Y049D02*
X05205D01*
X051901Y047667D02*
X051934Y047634D01*
X049583Y047667D02*
X051901D01*
X04955Y0477D02*
X049583Y047667D01*
X051934Y0477D02*
X052D01*
X046305Y044808D02*
X0473D01*
X045665Y045448D02*
X046305Y044808D01*
X048203Y03935D02*
X048653Y0389D01*
X039758Y03935D02*
X047088D01*
X047104Y039334D01*
X0373Y041808D02*
X039758Y03935D01*
X047512D02*
X048203D01*
X047104Y039334D02*
X047496D01*
X047512Y03935D01*
X01185Y0353D02*
X0119Y03535D01*
X01185Y02955D02*
X0124Y029D01*
X01185Y02955D02*
Y0353D01*
X04355Y04855D02*
X044Y049D01*
X054075Y045975D02*
X0541Y046D01*
X052075Y045975D02*
X054075D01*
X052025Y045925D02*
X05205Y04595D01*
X052075Y045975D01*
X052Y0477D02*
X05405D01*
X0562D01*
X053224Y0491D02*
X05415D01*
X0519Y02935D02*
Y03607D01*
X04665Y026828D02*
Y02695D01*
X046971Y026429D02*
Y026507D01*
X04665Y026828D02*
X046971Y026507D01*
Y026429D02*
X0472Y0262D01*
X04915Y03745D02*
X0492Y0375D01*
X05105D01*
X037Y02905D02*
X03965Y0317D01*
X0308Y02905D02*
X037D01*
X03965Y0317D02*
Y03575D01*
X0364Y027D02*
X0422Y0328D01*
Y03285D01*
X0364Y02695D02*
Y027D01*
X0429Y04085D02*
Y0486D01*
X045075Y046575D02*
X0451Y0466D01*
X04505Y0402D02*
X045075Y040225D01*
Y046575D01*
X032425Y041675D02*
X03245Y04165D01*
X03315D01*
X03405Y04255D01*
X0308Y0394D02*
X03265D01*
X0341Y03795D01*
X03225Y0353D02*
X03425D01*
X0357Y03675D01*
X02885Y0384D02*
X0308D01*
X02775Y0373D02*
X02885Y0384D01*
X035042Y04255D02*
X0373Y044808D01*
X03405Y04255D02*
X035042D01*
X030182Y028368D02*
X030377D01*
X030694Y02805D02*
X0308D01*
X030377Y028368D02*
X030694Y02805D01*
X02995Y0286D02*
X030182Y028368D01*
X02995Y0286D02*
Y0338D01*
X0341Y03795D01*
X0308Y03005D02*
X03715D01*
X0387Y0316D01*
X035721Y03895D02*
X036071Y0393D01*
X0341Y03895D02*
X035721D01*
X0323Y034D02*
X034492D01*
X0373Y036808D01*
X02945Y03605D02*
X0308Y0374D01*
X02945Y0278D02*
Y03605D01*
Y0278D02*
X0302Y02705D01*
X0308D01*
X04355Y0402D02*
X043988Y039762D01*
X047254D02*
X0473Y039808D01*
X043988Y039762D02*
X047254D01*
X04355Y0402D02*
Y04855D01*
X049604Y045854D02*
X04965Y0459D01*
X047346Y045854D02*
X049604D01*
X0473Y045808D02*
X047346Y045854D01*
X038Y0393D02*
X03875Y03855D01*
X035721Y03995D02*
X036071Y0403D01*
X03835D01*
X04005Y0386D01*
X036071Y0393D02*
X038D01*
X03875Y034258D02*
Y03855D01*
X04005Y03615D02*
Y0386D01*
X04965Y04485D02*
X05055Y04395D01*
X04965Y04485D02*
Y0459D01*
X049675Y045925D01*
X052025D01*
X048653Y0389D02*
X05075D01*
X05535Y0297D02*
Y0371D01*
Y0297D02*
X0581Y02695D01*
X05105Y0375D02*
X0517Y03685D01*
X0556Y038D02*
X05775Y03585D01*
X048492Y038D02*
X0556D01*
X0473Y036808D02*
X048492Y038D01*
X05775Y03685D02*
X0588Y0358D01*
X0473Y043808D02*
X051958Y03915D01*
X0594D01*
X0519Y03607D02*
X05269Y03686D01*
X051003Y03675D02*
X05105D01*
X04865Y02695D02*
X0515Y0298D01*
X050776Y036774D02*
X050979D01*
X0515Y0298D02*
Y0363D01*
X05069Y03686D02*
X050776Y036774D01*
X050979D02*
X051003Y03675D01*
X05105D02*
X0515Y0363D01*
X0374Y02695D02*
X039442D01*
X0473Y034808D01*
X0513Y0425D02*
X05585D01*
X049Y0448D02*
X0513Y0425D01*
X0591Y02695D02*
Y0278D01*
X0588Y0281D02*
X0591Y0278D01*
X0588Y0281D02*
Y0358D01*
X058106Y025944D02*
X059694D01*
X0571Y02695D02*
X058106Y025944D01*
X059694D02*
X0605Y02675D01*
Y0361D01*
X05975Y03685D02*
X0605Y0361D01*
X0473Y035808D02*
X047326Y035834D01*
X050664D01*
X05069Y03586D01*
X038502Y03251D02*
X0387Y032312D01*
X037719Y03251D02*
X038502D01*
X037421Y032808D02*
X037719Y03251D01*
X0373Y032808D02*
X037421D01*
X0387Y0316D02*
Y032312D01*
X03965Y03575D02*
X04005Y03615D01*
X0341Y03995D02*
X035721D01*
X0373Y032808D02*
X03875Y034258D01*
X037289Y038797D02*
X0373Y038808D01*
X036397Y038797D02*
X037289D01*
X0357Y0381D02*
X036397Y038797D01*
X0357Y03675D02*
Y0381D01*
X02775Y0332D02*
Y0373D01*
X0171Y03275D02*
Y03415D01*
X0159Y03535D02*
X0171Y03415D01*
X01555Y03275D02*
Y0347D01*
X0149Y03535D02*
X01555Y0347D01*
X013925Y032775D02*
Y035325D01*
Y032775D02*
X01395Y03275D01*
X0139Y03535D02*
X013925Y035325D01*
X0123Y03275D02*
Y03475D01*
X0129Y03535D01*
D73*
X01385Y0373D02*
X016685D01*
X0119Y03535D02*
X01385Y0373D01*
X016685D02*
X0168Y037185D01*
Y03615D02*
Y037185D01*
Y03615D02*
X02185Y0311D01*
X0308Y0394D02*
Y04165D01*
X0325Y04335D01*
Y0464D01*
X0439Y0353D02*
X0463D01*
X03665Y02805D02*
X0439Y0353D01*
X0308Y02805D02*
X03665D01*
X0329Y0468D02*
X03535D01*
X0325Y0464D02*
X0329Y0468D01*
D74*
X0199Y0391D02*
X021474D01*
X0222Y038375D01*
D75*
X01226Y04048D02*
D03*
D76*
X01105Y04245D02*
D03*
X01345Y04246D02*
D03*
D77*
X0308Y0394D02*
D03*
Y0384D02*
D03*
X0149Y03535D02*
D03*
X0139D02*
D03*
X0129D02*
D03*
X0119D02*
D03*
X0413Y02695D02*
D03*
X04765D02*
D03*
X04665D02*
D03*
X0364D02*
D03*
X0354D02*
D03*
X0581D02*
D03*
X0571D02*
D03*
X03405Y04355D02*
D03*
Y04255D02*
D03*
D78*
X0308Y0374D02*
D03*
X03405Y04455D02*
D03*
D79*
X0112Y0488D02*
D03*
X0613Y0241D02*
D03*
X06135Y04875D02*
D03*
D80*
X0373Y031808D02*
D03*
X0308Y02705D02*
D03*
X0341Y03695D02*
D03*
X0473Y031808D02*
D03*
D81*
X0373Y032808D02*
D03*
Y033808D02*
D03*
Y034808D02*
D03*
Y035808D02*
D03*
Y036808D02*
D03*
Y037808D02*
D03*
Y038808D02*
D03*
Y039808D02*
D03*
Y040808D02*
D03*
Y041808D02*
D03*
Y042808D02*
D03*
Y043808D02*
D03*
Y044808D02*
D03*
Y045808D02*
D03*
X0308Y02805D02*
D03*
Y02905D02*
D03*
Y03005D02*
D03*
X0341Y03795D02*
D03*
Y03895D02*
D03*
Y03995D02*
D03*
X0473Y045808D02*
D03*
Y044808D02*
D03*
Y043808D02*
D03*
Y042808D02*
D03*
Y041808D02*
D03*
Y040808D02*
D03*
Y039808D02*
D03*
Y038808D02*
D03*
Y037808D02*
D03*
Y036808D02*
D03*
Y035808D02*
D03*
Y034808D02*
D03*
Y033808D02*
D03*
Y032808D02*
D03*
D82*
X0159Y03535D02*
D03*
X0423Y02695D02*
D03*
X04865D02*
D03*
X0374D02*
D03*
X0591D02*
D03*
D83*
X05775Y03685D02*
D03*
X05975Y03685D02*
D03*
X05775Y03585D02*
D03*
X05975D02*
D03*
X05775Y03485D02*
D03*
X05975Y03485D02*
D03*
Y03285D02*
D03*
X05069Y03686D02*
D03*
X05269Y03686D02*
D03*
X05069Y03586D02*
D03*
X05269D02*
D03*
X05069Y03486D02*
D03*
X05269Y03486D02*
D03*
Y03286D02*
D03*
D84*
X05775Y03285D02*
D03*
X05069Y03286D02*
D03*
D85*
X02395Y0475D02*
D03*
X02295D02*
D03*
X02195D02*
D03*
D86*
X00924Y04242D02*
D03*
D87*
X05205Y049D02*
D03*
X051934Y047634D02*
D03*
X045665Y045448D02*
D03*
X02185Y0311D02*
D03*
X0287Y04275D02*
D03*
X0199Y0391D02*
D03*
X0222Y038375D02*
D03*
X05055Y04395D02*
D03*
X05585Y0425D02*
D03*
X05535Y0371D02*
D03*
X05405Y0477D02*
D03*
X05205Y04595D02*
D03*
X05415Y0491D02*
D03*
X0541Y046D02*
D03*
X0562Y0477D02*
D03*
X04915Y03745D02*
D03*
X0463Y0353D02*
D03*
X03535Y0468D02*
D03*
X0429Y04085D02*
D03*
X0451Y0466D02*
D03*
X032425Y041675D02*
D03*
X03185Y0389D02*
D03*
X03225Y0353D02*
D03*
X01555Y041D02*
D03*
Y0385D02*
D03*
X0287Y04595D02*
D03*
X0315Y045D02*
D03*
X0297D02*
D03*
X0295Y0396D02*
D03*
X0323Y034D02*
D03*
X04505Y0402D02*
D03*
X04955Y0477D02*
D03*
X04965Y0459D02*
D03*
X05075Y0389D02*
D03*
X0517Y03685D02*
D03*
X0422Y03285D02*
D03*
X049Y0448D02*
D03*
X0594Y03915D02*
D03*
X03965Y03575D02*
D03*
X02775Y0332D02*
D03*
X0171Y03275D02*
D03*
X0124Y029D02*
D03*
X0123Y03275D02*
D03*
X01395D02*
D03*
X01555D02*
D03*
M02*
