G04 Layer_Color=8388736*
%FSTAX24Y24*%
%MOIN*%
G70*
G01*
G75*
%ADD10R,0.0374X0.0354*%
%ADD50R,0.0454X0.0434*%
%ADD51R,0.0631X0.0552*%
%ADD52R,0.0474X0.0537*%
%ADD53R,0.0474X0.0280*%
%ADD54R,0.0552X0.0631*%
%ADD55R,0.0630X0.0580*%
%ADD56R,0.0552X0.0395*%
%ADD57R,0.0671X0.1064*%
%ADD58R,0.0631X0.0474*%
%ADD59O,0.0789X0.0316*%
%ADD60R,0.0434X0.0356*%
%ADD61O,0.0880X0.0297*%
%ADD62R,0.0867X0.0434*%
%ADD63R,0.0434X0.0867*%
%ADD64R,0.0604X0.0604*%
%ADD65O,0.0867X0.0297*%
%ADD66R,0.0710X0.0710*%
%ADD67C,0.0710*%
%ADD68R,0.0710X0.0710*%
%ADD69C,0.0198*%
%ADD70C,0.1655*%
%ADD71C,0.0237*%
%ADD72C,0.0580*%
%ADD73C,0.0395*%
D10*
X034082Y05079D02*
D03*
X036693Y051553D02*
D03*
X034067Y032809D02*
D03*
X036677Y033573D02*
D03*
D50*
X035067Y051164D02*
D03*
X034082Y051538D02*
D03*
X035708Y051179D02*
D03*
X036693Y050805D02*
D03*
X034067Y033557D02*
D03*
X035051Y033183D02*
D03*
X036677Y032825D02*
D03*
X035693Y033199D02*
D03*
D51*
X047866Y051498D02*
D03*
Y05075D02*
D03*
X039815Y048735D02*
D03*
Y049483D02*
D03*
X030933Y052429D02*
D03*
Y051681D02*
D03*
X030059Y051693D02*
D03*
Y052441D02*
D03*
X026964Y051796D02*
D03*
Y052544D02*
D03*
X026051Y052579D02*
D03*
Y051831D02*
D03*
X02522Y057741D02*
D03*
Y058489D02*
D03*
Y056123D02*
D03*
Y056871D02*
D03*
X02524Y054544D02*
D03*
Y055292D02*
D03*
X022925Y056961D02*
D03*
Y056213D02*
D03*
X022885Y05456D02*
D03*
Y055308D02*
D03*
X022894Y058555D02*
D03*
Y057807D02*
D03*
X022452Y050579D02*
D03*
Y051327D02*
D03*
X021181Y050524D02*
D03*
Y051272D02*
D03*
X025204Y040508D02*
D03*
Y03976D02*
D03*
X026036Y03385D02*
D03*
Y034599D02*
D03*
X022436Y033347D02*
D03*
Y032599D02*
D03*
X021165Y033292D02*
D03*
Y032544D02*
D03*
X04785Y03277D02*
D03*
Y033518D02*
D03*
X039799Y031502D02*
D03*
Y030754D02*
D03*
X022878Y039827D02*
D03*
Y040575D02*
D03*
X025204Y03889D02*
D03*
Y038142D02*
D03*
X02291Y038232D02*
D03*
Y03898D02*
D03*
X025224Y037312D02*
D03*
Y036564D02*
D03*
X02287Y037327D02*
D03*
Y036579D02*
D03*
X026948Y034564D02*
D03*
Y033816D02*
D03*
X030043Y034461D02*
D03*
Y033713D02*
D03*
X030917Y033701D02*
D03*
Y034449D02*
D03*
D52*
X046008Y053795D02*
D03*
Y055015D02*
D03*
X046628Y053795D02*
D03*
Y055015D02*
D03*
X041938Y055087D02*
D03*
Y053867D02*
D03*
X041318Y055087D02*
D03*
Y053867D02*
D03*
X041302Y035887D02*
D03*
Y037107D02*
D03*
X041922Y035887D02*
D03*
Y037107D02*
D03*
X046612Y037035D02*
D03*
Y035815D02*
D03*
X045992Y037035D02*
D03*
Y035815D02*
D03*
D53*
X046008Y054235D02*
D03*
X046007Y054576D02*
D03*
X046628Y054235D02*
D03*
Y054576D02*
D03*
X041938Y054648D02*
D03*
X041938Y054306D02*
D03*
X041317Y054648D02*
D03*
Y054306D02*
D03*
X041301Y036326D02*
D03*
Y036667D02*
D03*
X041922Y036326D02*
D03*
X041922Y036667D02*
D03*
X046613Y036596D02*
D03*
Y036254D02*
D03*
X045991Y036596D02*
D03*
X045992Y036254D02*
D03*
D54*
X042309Y060918D02*
D03*
X041561D02*
D03*
X042309Y060118D02*
D03*
X041561D02*
D03*
X042327Y059315D02*
D03*
X041579D02*
D03*
X042325Y058516D02*
D03*
X041577D02*
D03*
X04061Y051211D02*
D03*
X039862D02*
D03*
X04061Y0504D02*
D03*
X039862D02*
D03*
X034971Y052227D02*
D03*
X035719D02*
D03*
X034935Y05007D02*
D03*
X035683D02*
D03*
X030892Y050866D02*
D03*
X030144D02*
D03*
X026029Y050918D02*
D03*
X026777D02*
D03*
X015927Y06035D02*
D03*
X016675D02*
D03*
X035667Y032089D02*
D03*
X034919D02*
D03*
X035703Y034247D02*
D03*
X034955D02*
D03*
X041561Y040536D02*
D03*
X042309D02*
D03*
X041563Y041335D02*
D03*
X042311D02*
D03*
X041546Y042138D02*
D03*
X042294D02*
D03*
X041546Y042937D02*
D03*
X042294D02*
D03*
X016659Y04237D02*
D03*
X015911D02*
D03*
X030128Y032885D02*
D03*
X030876D02*
D03*
X026761Y032938D02*
D03*
X026013D02*
D03*
X039846Y033231D02*
D03*
X040594D02*
D03*
X039846Y03242D02*
D03*
X040594D02*
D03*
D55*
X040653Y048689D02*
D03*
Y049589D02*
D03*
X0225Y048904D02*
D03*
Y049804D02*
D03*
X021173Y048908D02*
D03*
Y049808D02*
D03*
X022484Y031824D02*
D03*
Y030924D02*
D03*
X021157Y031827D02*
D03*
Y030927D02*
D03*
X040638Y031609D02*
D03*
Y030709D02*
D03*
D56*
X031964Y049597D02*
D03*
X029208D02*
D03*
X025338D02*
D03*
X028094D02*
D03*
X029193Y031616D02*
D03*
X031949D02*
D03*
X028079D02*
D03*
X025323D02*
D03*
D57*
X018205Y04938D02*
D03*
Y050719D02*
D03*
X018189Y032738D02*
D03*
Y0314D02*
D03*
D58*
X047008Y051709D02*
D03*
Y050548D02*
D03*
X046992Y032567D02*
D03*
Y033729D02*
D03*
D59*
X045094Y053681D02*
D03*
Y054181D02*
D03*
Y054681D02*
D03*
Y055181D02*
D03*
X042811Y053681D02*
D03*
Y054181D02*
D03*
Y054681D02*
D03*
Y055181D02*
D03*
X042795Y037201D02*
D03*
Y036701D02*
D03*
Y036201D02*
D03*
Y035701D02*
D03*
X045079Y037201D02*
D03*
Y036701D02*
D03*
Y036201D02*
D03*
Y035701D02*
D03*
D60*
X02446Y056868D02*
D03*
Y05612D02*
D03*
X023555Y056494D02*
D03*
X02448Y058475D02*
D03*
Y057727D02*
D03*
X023575Y058101D02*
D03*
X024445Y055301D02*
D03*
Y054553D02*
D03*
X023539Y054927D02*
D03*
X023559Y04012D02*
D03*
X024464Y039746D02*
D03*
Y040494D02*
D03*
X023539Y038514D02*
D03*
X024445Y03814D02*
D03*
Y038888D02*
D03*
X023523Y036947D02*
D03*
X024429Y036573D02*
D03*
Y037321D02*
D03*
D61*
X042108Y052855D02*
D03*
Y052355D02*
D03*
Y051855D02*
D03*
Y051355D02*
D03*
Y050855D02*
D03*
Y050355D02*
D03*
Y049855D02*
D03*
Y049355D02*
D03*
X045829Y052855D02*
D03*
Y052355D02*
D03*
Y051855D02*
D03*
Y051355D02*
D03*
Y050855D02*
D03*
Y050355D02*
D03*
Y049855D02*
D03*
Y049355D02*
D03*
X045813Y031374D02*
D03*
Y031874D02*
D03*
Y032374D02*
D03*
Y032874D02*
D03*
Y033374D02*
D03*
Y033874D02*
D03*
Y034374D02*
D03*
Y034874D02*
D03*
X042092Y031374D02*
D03*
Y031874D02*
D03*
Y032374D02*
D03*
Y032874D02*
D03*
Y033374D02*
D03*
Y033874D02*
D03*
Y034374D02*
D03*
Y034874D02*
D03*
D62*
X027286Y062497D02*
D03*
Y061997D02*
D03*
Y061497D02*
D03*
Y060997D02*
D03*
Y060497D02*
D03*
Y059997D02*
D03*
Y059497D02*
D03*
Y058997D02*
D03*
Y058497D02*
D03*
Y057997D02*
D03*
Y057497D02*
D03*
Y056997D02*
D03*
Y056497D02*
D03*
Y055997D02*
D03*
X033979D02*
D03*
Y056497D02*
D03*
Y056997D02*
D03*
Y057497D02*
D03*
Y057997D02*
D03*
Y058497D02*
D03*
Y058997D02*
D03*
Y059497D02*
D03*
Y059997D02*
D03*
Y060497D02*
D03*
Y060997D02*
D03*
Y061497D02*
D03*
Y061997D02*
D03*
Y062497D02*
D03*
X033964Y044516D02*
D03*
Y044016D02*
D03*
Y043516D02*
D03*
Y043016D02*
D03*
Y042516D02*
D03*
Y042016D02*
D03*
Y041516D02*
D03*
Y041016D02*
D03*
Y040516D02*
D03*
Y040016D02*
D03*
Y039516D02*
D03*
Y039016D02*
D03*
Y038516D02*
D03*
Y038016D02*
D03*
X027271D02*
D03*
Y038516D02*
D03*
Y039016D02*
D03*
Y039516D02*
D03*
Y040016D02*
D03*
Y040516D02*
D03*
Y041016D02*
D03*
Y041516D02*
D03*
Y042016D02*
D03*
Y042516D02*
D03*
Y043016D02*
D03*
Y043516D02*
D03*
Y044016D02*
D03*
Y044516D02*
D03*
D63*
X028383Y055603D02*
D03*
X028883D02*
D03*
X029383D02*
D03*
X029883D02*
D03*
X030383D02*
D03*
X030883D02*
D03*
X031383D02*
D03*
X031883D02*
D03*
X032383D02*
D03*
X032883D02*
D03*
X032867Y037623D02*
D03*
X032367D02*
D03*
X031867D02*
D03*
X031367D02*
D03*
X030867D02*
D03*
X030367D02*
D03*
X029867D02*
D03*
X029367D02*
D03*
X028867D02*
D03*
X028367D02*
D03*
D64*
X029517Y060266D02*
D03*
X030239D02*
D03*
X030962D02*
D03*
X029517Y059544D02*
D03*
X030239D02*
D03*
X030962D02*
D03*
X029517Y058821D02*
D03*
X030239D02*
D03*
X030962D02*
D03*
X030946Y040841D02*
D03*
X030223D02*
D03*
X029501D02*
D03*
X030946Y041564D02*
D03*
X030223D02*
D03*
X029501D02*
D03*
X030946Y042286D02*
D03*
X030223D02*
D03*
X029501D02*
D03*
D65*
X019622Y058504D02*
D03*
Y058004D02*
D03*
Y057504D02*
D03*
Y057004D02*
D03*
Y056504D02*
D03*
Y056004D02*
D03*
Y055504D02*
D03*
Y055004D02*
D03*
X021748Y058504D02*
D03*
Y058004D02*
D03*
Y057504D02*
D03*
Y057004D02*
D03*
Y056504D02*
D03*
Y056004D02*
D03*
Y055504D02*
D03*
Y055004D02*
D03*
X021732Y037024D02*
D03*
Y037524D02*
D03*
Y038024D02*
D03*
Y038524D02*
D03*
Y039024D02*
D03*
Y039524D02*
D03*
Y040024D02*
D03*
Y040524D02*
D03*
X019606Y037024D02*
D03*
Y037524D02*
D03*
Y038024D02*
D03*
Y038524D02*
D03*
Y039024D02*
D03*
Y039524D02*
D03*
Y040024D02*
D03*
Y040524D02*
D03*
D66*
X03633Y057939D02*
D03*
X03822Y057618D02*
D03*
X036425Y054581D02*
D03*
X019453Y051298D02*
D03*
X019437Y033317D02*
D03*
X038205Y039638D02*
D03*
X036315Y039959D02*
D03*
X036409Y036601D02*
D03*
D67*
X03633Y058939D02*
D03*
Y059939D02*
D03*
Y060939D02*
D03*
Y061939D02*
D03*
X03822Y056618D02*
D03*
Y055618D02*
D03*
X036425Y055581D02*
D03*
Y056581D02*
D03*
X019453Y050298D02*
D03*
Y049298D02*
D03*
X033224Y048904D02*
D03*
X034224D02*
D03*
X035224D02*
D03*
X036224D02*
D03*
X037224D02*
D03*
X019791Y060731D02*
D03*
X020791D02*
D03*
X019791Y059731D02*
D03*
X020791D02*
D03*
X021791D02*
D03*
X016783Y059239D02*
D03*
X016901Y055632D02*
D03*
X017901D02*
D03*
X016913Y057896D02*
D03*
X017913D02*
D03*
X016921Y056754D02*
D03*
X017921D02*
D03*
X019437Y031317D02*
D03*
Y032317D02*
D03*
X038205Y037638D02*
D03*
Y038638D02*
D03*
X036315Y043959D02*
D03*
Y042959D02*
D03*
Y041959D02*
D03*
Y040959D02*
D03*
X036409Y038601D02*
D03*
Y037601D02*
D03*
X017886Y037652D02*
D03*
X016886D02*
D03*
X016767Y041258D02*
D03*
X037208Y030924D02*
D03*
X036208D02*
D03*
X035208D02*
D03*
X034208D02*
D03*
X033208D02*
D03*
X021775Y04175D02*
D03*
X020775D02*
D03*
X019775D02*
D03*
X020775Y04275D02*
D03*
X019775D02*
D03*
X017905Y038774D02*
D03*
X016905D02*
D03*
X017897Y039916D02*
D03*
X016897D02*
D03*
D68*
X038224Y048904D02*
D03*
X021791Y060731D02*
D03*
X015783Y059239D02*
D03*
X015901Y055632D02*
D03*
X015913Y057896D02*
D03*
X015921Y056754D02*
D03*
X015886Y037652D02*
D03*
X015768Y041258D02*
D03*
X038208Y030924D02*
D03*
X021775Y04275D02*
D03*
X015905Y038774D02*
D03*
X015897Y039916D02*
D03*
D69*
X029878Y060266D02*
D03*
X0306D02*
D03*
X029517Y059905D02*
D03*
X030239D02*
D03*
X030962D02*
D03*
X029878Y059544D02*
D03*
X0306D02*
D03*
X029517Y059183D02*
D03*
X030239D02*
D03*
X030962D02*
D03*
X029878Y058821D02*
D03*
X0306D02*
D03*
X030585Y040841D02*
D03*
X029862D02*
D03*
X030946Y041202D02*
D03*
X030223D02*
D03*
X029501D02*
D03*
X030585Y041564D02*
D03*
X029862D02*
D03*
X030946Y041925D02*
D03*
X030223D02*
D03*
X029501D02*
D03*
X030585Y042286D02*
D03*
X029862D02*
D03*
D70*
X048146Y062854D02*
D03*
X048441Y048161D02*
D03*
X014508Y062988D02*
D03*
X014965Y048346D02*
D03*
X014492Y045008D02*
D03*
X048425Y030181D02*
D03*
X04813Y044874D02*
D03*
X014949Y030366D02*
D03*
D71*
X017677Y04663D02*
D03*
X017476D02*
D03*
X017311Y046634D02*
D03*
X017142D02*
D03*
X016976Y046642D02*
D03*
X016807D02*
D03*
X016646D02*
D03*
X016476Y04665D02*
D03*
X016311Y046642D02*
D03*
X016142Y046638D02*
D03*
X015972D02*
D03*
X014638Y04665D02*
D03*
X014815Y046638D02*
D03*
X014992D02*
D03*
D72*
X044126Y049933D02*
D03*
X044128Y052927D02*
D03*
X039094Y048D02*
D03*
X039079Y03002D02*
D03*
X044112Y034947D02*
D03*
X04411Y031953D02*
D03*
D73*
X039173Y060413D02*
D03*
X041701Y057807D02*
D03*
X034287Y052244D02*
D03*
X025565Y061994D02*
D03*
X024772Y051512D02*
D03*
X023874Y05148D02*
D03*
X04715Y054476D02*
D03*
X045634Y048146D02*
D03*
X043067Y060898D02*
D03*
X043063Y060055D02*
D03*
X043051Y059327D02*
D03*
X044978Y055819D02*
D03*
X044986Y051852D02*
D03*
X044193Y052114D02*
D03*
X043154Y048161D02*
D03*
X038295Y059941D02*
D03*
X035024Y059378D02*
D03*
X026427Y058494D02*
D03*
X024028Y059004D02*
D03*
X020978Y057502D02*
D03*
X018575Y060823D02*
D03*
X0445Y052528D02*
D03*
X043457Y052571D02*
D03*
X042929Y051661D02*
D03*
X037228Y060472D02*
D03*
X032594Y050787D02*
D03*
X028551Y051685D02*
D03*
X027677Y052555D02*
D03*
X023508Y057224D02*
D03*
X023472Y058587D02*
D03*
X02113Y053228D02*
D03*
X020331Y055646D02*
D03*
X015646Y061992D02*
D03*
X01465Y060398D02*
D03*
X046996Y055819D02*
D03*
X043008Y058516D02*
D03*
X04289Y05602D02*
D03*
X039659Y059817D02*
D03*
X038748Y059083D02*
D03*
X034817Y061494D02*
D03*
X034933Y060736D02*
D03*
X032504Y054433D02*
D03*
X026059Y062547D02*
D03*
X023508Y054181D02*
D03*
X020461Y054185D02*
D03*
X017016Y062362D02*
D03*
X014634Y042417D02*
D03*
X01563Y044012D02*
D03*
X017Y044382D02*
D03*
X020445Y036205D02*
D03*
X018559Y042843D02*
D03*
X028535Y033705D02*
D03*
X024756Y033531D02*
D03*
X032488Y036453D02*
D03*
X023858Y0335D02*
D03*
X026043Y044567D02*
D03*
X027661Y034575D02*
D03*
X032579Y032807D02*
D03*
X021114Y035248D02*
D03*
X025549Y044014D02*
D03*
X024012Y041024D02*
D03*
X020315Y037665D02*
D03*
X020963Y039522D02*
D03*
X023492Y036201D02*
D03*
Y039244D02*
D03*
X023457Y040606D02*
D03*
X034801Y043514D02*
D03*
X034917Y042756D02*
D03*
X034272Y034264D02*
D03*
X026411Y040514D02*
D03*
X045618Y030165D02*
D03*
X043138Y030181D02*
D03*
X047134Y036496D02*
D03*
X04497Y033872D02*
D03*
X044963Y037839D02*
D03*
X04698D02*
D03*
X042874Y038039D02*
D03*
X044484Y034547D02*
D03*
X042913Y033681D02*
D03*
X043441Y03459D02*
D03*
X044177Y034134D02*
D03*
X043047Y042075D02*
D03*
X043035Y041346D02*
D03*
X043051Y042917D02*
D03*
X042992Y040536D02*
D03*
X035008Y041398D02*
D03*
X037213Y042492D02*
D03*
X038732Y041102D02*
D03*
X039644Y041837D02*
D03*
X039157Y042433D02*
D03*
X03828Y041961D02*
D03*
X041685Y039827D02*
D03*
M02*
