M48
;Layer_Color=9474304
;FILE_FORMAT=2:4
INCH,LZ
;TYPE=PLATED
T1F00S00C0.0079
T2F00S00C0.0157
T3F00S00C0.0280
T4F00S00C0.0433
T5F00S00C0.0500
T6F00S00C0.1260
%
T01
X029862Y040841
X030585
X030946Y041202
X030585Y041564
X030223Y041202
X029862Y041564
X029501Y041202
Y041925
X030223
X029862Y042286
X030585
X030946Y041925
X0306Y058821
Y059544
X030962Y059183
Y059905
X0306Y060266
X029878
X030239Y059905
X029517
Y059183
X029878Y059544
X030239Y059183
X029878Y058821
T02
X043138Y030181
X045618Y030165
X014634Y042417
X014638Y04665
X014815Y046638
X014992
X015972
X016142
X016311Y046642
X016476Y04665
X016646Y046642
X016807
X016976
X017142Y046634
X017311
X017476Y04663
X017677
X017Y044382
X01563Y044012
X018559Y042843
X020963Y039522
X020315Y037665
X020445Y036205
X021114Y035248
X023492Y036201
Y039244
X023457Y040606
X024012Y041024
X026411Y040514
X025549Y044014
X026043Y044567
X027661Y034575
X028535Y033705
X024756Y033531
X023858Y0335
X032579Y032807
X034272Y034264
X032488Y036453
X035008Y041398
X034917Y042756
X034801Y043514
X037213Y042492
X03828Y041961
X038732Y041102
X039644Y041837
X039157Y042433
X043047Y042075
X043035Y041346
X042992Y040536
X041685Y039827
X042874Y038039
X044963Y037839
X044484Y034547
X044177Y034134
X04497Y033872
X042913Y033681
X043441Y03459
X043051Y042917
X04698Y037839
X047134Y036496
X04715Y054476
X046996Y055819
X044978
X04289Y05602
X043008Y058516
X043051Y059327
X043063Y060055
X043067Y060898
X039173Y060413
X039659Y059817
X038295Y059941
X038748Y059083
X037228Y060472
X034933Y060736
X034817Y061494
X035024Y059378
X032504Y054433
X032594Y050787
X034287Y052244
X042929Y051661
X043457Y052571
X0445Y052528
X044193Y052114
X044986Y051852
X045634Y048146
X043154Y048161
X041701Y057807
X026427Y058494
X024028Y059004
X023472Y058587
X023508Y057224
X020978Y057502
X020331Y055646
X020461Y054185
X02113Y053228
X023508Y054181
X023874Y05148
X024772Y051512
X027677Y052555
X028551Y051685
X025565Y061994
X018575Y060823
X017016Y062362
X015646Y061992
X01465Y060398
X026059Y062547
T03
X039079Y03002
X039094Y048
T04
X033208Y030924
X034208
X035208
X036208
X037208
X038208
X019437Y031317
Y032317
Y033317
X017886Y037652
X016886
X015886
X015905Y038774
X016905
X017905
X017897Y039916
X016897
X015897
X015768Y041258
X016767
X019775Y04175
X020775
X021775
Y04275
X020775
X019775
X036315Y042959
Y043959
Y041959
Y040959
Y039959
X036409Y038601
Y037601
Y036601
X038205Y037638
Y038638
Y039638
X038224Y048904
X037224
X036224
X035224
X034224
X033224
X036425Y054581
Y055581
Y056581
X03633Y057939
Y058939
Y059939
Y060939
Y061939
X03822Y057618
Y056618
Y055618
X017901Y055632
X016901
X015901
X015921Y056754
X016921
X017921
X017913Y057896
X016913
X015913
X015783Y059239
X016783
X019791Y059731
Y060731
X020791
X021791
Y059731
X020791
X019453Y051298
Y050298
Y049298
T05
X04411Y031953
X044112Y034947
X044126Y049933
X044128Y052927
T06
X048425Y030181
X014949Y030366
X014492Y045008
X04813Y044874
X048441Y048161
X014965Y048346
X014508Y062988
X048146Y062854
M30
