G04 Layer_Color=65535*
%FSTAX24Y24*%
%MOIN*%
G70*
G01*
G75*
%ADD40C,0.0079*%
%ADD41C,0.0098*%
%ADD42C,0.0236*%
%ADD43C,0.0070*%
%ADD44C,0.0050*%
%ADD45C,0.0040*%
%ADD46C,0.0100*%
%ADD47C,0.0039*%
%ADD48R,0.1000X0.0500*%
%ADD49R,0.0669X0.0118*%
G36*
X024208Y037924D02*
X023775D01*
Y039105D01*
X024208D01*
Y037924D01*
D02*
G37*
G36*
X024228Y03953D02*
X023795D01*
Y040711D01*
X024228D01*
Y03953D01*
D02*
G37*
G36*
X024193Y036357D02*
X02376D01*
Y037538D01*
X024193D01*
Y036357D01*
D02*
G37*
G36*
X042862Y037614D02*
X042895Y037581D01*
X042913Y037538D01*
Y037514D01*
Y037491D01*
X042895Y037447D01*
X042862Y037414D01*
X042819Y037396D01*
X042772D01*
X042728Y037414D01*
X042695Y037447D01*
X042677Y037491D01*
Y037514D01*
Y037538D01*
X042695Y037581D01*
X042728Y037614D01*
X042772Y037632D01*
X042819D01*
X042862Y037614D01*
D02*
G37*
G36*
X024224Y055904D02*
X023791D01*
Y057085D01*
X024224D01*
Y055904D01*
D02*
G37*
G36*
X024244Y05751D02*
X023811D01*
Y058691D01*
X024244D01*
Y05751D01*
D02*
G37*
G36*
X024208Y054337D02*
X023775D01*
Y055518D01*
X024208D01*
Y054337D01*
D02*
G37*
G36*
X042878Y055595D02*
X042911Y055561D01*
X042929Y055518D01*
Y055494D01*
Y055471D01*
X042911Y055427D01*
X042878Y055394D01*
X042834Y055376D01*
X042787D01*
X042744Y055394D01*
X042711Y055427D01*
X042693Y055471D01*
Y055494D01*
Y055518D01*
X042711Y055561D01*
X042744Y055595D01*
X042787Y055613D01*
X042834D01*
X042878Y055595D01*
D02*
G37*
D40*
X043736Y055396D02*
G03*
X044169Y055396I000217J0D01*
G01*
X026735Y062493D02*
G03*
X026735Y062493I-000039J0D01*
G01*
X04372Y037416D02*
G03*
X044153Y037416I000217J0D01*
G01*
X026719Y044512D02*
G03*
X026719Y044512I-000039J0D01*
G01*
X035831Y058439D02*
X03683D01*
X035831Y062439D02*
X03683D01*
Y057439D02*
Y062439D01*
X035831Y057439D02*
Y062439D01*
Y057439D02*
X03683D01*
X03772Y055118D02*
Y058118D01*
Y055118D02*
X03872D01*
Y058118D01*
X03772D02*
X03872D01*
X03772Y057118D02*
X03872D01*
X036925Y054081D02*
Y057081D01*
X035925D02*
X036925D01*
X035925Y054081D02*
Y057081D01*
Y054081D02*
X036925D01*
X035925Y055081D02*
X036925D01*
X018953Y048798D02*
Y051798D01*
Y048798D02*
X019953D01*
Y051798D01*
X018953D02*
X019953D01*
X018953Y050798D02*
X019953D01*
X035067Y050652D02*
Y050829D01*
Y051498D02*
Y051676D01*
X034427D02*
X035067D01*
X034427Y050652D02*
X035067D01*
X037724Y048404D02*
Y049404D01*
X032724D02*
X038724D01*
X032724Y048404D02*
X038724D01*
Y049404D01*
X032724Y048404D02*
Y049404D01*
X019291Y061231D02*
X022291D01*
X019291Y059231D02*
Y061231D01*
Y059231D02*
X022291D01*
Y061231D01*
X021291Y060231D02*
X022291D01*
X021291D02*
Y061231D01*
X015283Y059738D02*
X017283D01*
X015283Y058738D02*
Y059738D01*
Y058738D02*
X017283D01*
Y059738D01*
X015401Y055132D02*
X018401D01*
Y056132D01*
X015401D02*
X018401D01*
X015401Y055132D02*
Y056132D01*
X016401Y055132D02*
Y056132D01*
X015413Y057396D02*
X018413D01*
Y058396D01*
X015413D02*
X018413D01*
X015413Y057396D02*
Y058396D01*
X016413Y057396D02*
Y058396D01*
X04751Y051815D02*
X04822D01*
X04751Y05127D02*
Y051815D01*
X04822Y05127D02*
Y051815D01*
Y050437D02*
Y050965D01*
X04751Y050437D02*
X04822D01*
X04751D02*
Y050965D01*
X042626Y060564D02*
Y061274D01*
X042081D02*
X042626D01*
X042081Y060564D02*
X042626D01*
X041248D02*
X041776D01*
X041248D02*
Y061274D01*
X041776D01*
X042626Y059764D02*
Y060474D01*
X042081D02*
X042626D01*
X042081Y059764D02*
X042626D01*
X041248D02*
X041776D01*
X041248D02*
Y060474D01*
X041776D01*
X042643Y058961D02*
Y059671D01*
X042099D02*
X042643D01*
X042099Y058961D02*
X042643D01*
X041266D02*
X041794D01*
X041266D02*
Y059671D01*
X041794D01*
X042642Y058162D02*
Y058872D01*
X042097D02*
X042642D01*
X042097Y058162D02*
X042642D01*
X041264D02*
X041792D01*
X041264D02*
Y058872D01*
X041792D01*
X040395Y051562D02*
X040924D01*
X039544D02*
X04009D01*
X039544Y050862D02*
X04009D01*
X040395D02*
X040924D01*
X039544D02*
Y051562D01*
X040924Y050862D02*
Y051562D01*
X040395Y050751D02*
X040924D01*
X039544D02*
X04009D01*
X039544Y050051D02*
X04009D01*
X040395D02*
X040924D01*
X039544D02*
Y050751D01*
X040924Y050051D02*
Y050751D01*
X039461Y048418D02*
X040171D01*
Y048962D01*
X039461Y048418D02*
Y048962D01*
Y049268D02*
Y049796D01*
X040171D01*
Y049268D02*
Y049796D01*
X035708Y051514D02*
Y051691D01*
Y050668D02*
Y050845D01*
Y050668D02*
X036348D01*
X035708Y051691D02*
X036348D01*
X034657Y052583D02*
X035186D01*
X034657Y051873D02*
Y052583D01*
Y051873D02*
X035186D01*
X035491D02*
X036035D01*
X035491Y052583D02*
X036035D01*
Y051873D02*
Y052583D01*
X034622Y050426D02*
X03515D01*
X034622Y049716D02*
Y050426D01*
Y049716D02*
X03515D01*
X035455D02*
X036D01*
X035455Y050426D02*
X036D01*
Y049716D02*
Y050426D01*
X031289Y052214D02*
Y052742D01*
X030579D02*
X031289D01*
X030579Y052214D02*
Y052742D01*
Y051364D02*
Y051909D01*
X031289Y051364D02*
Y051909D01*
X030579Y051364D02*
X031289D01*
X029829Y050514D02*
Y051214D01*
X031209Y050514D02*
Y051214D01*
X029829D02*
X030359D01*
X030664D02*
X031209D01*
X030664Y050514D02*
X031209D01*
X029829D02*
X030359D01*
X029702Y05138D02*
Y051908D01*
Y05138D02*
X030412D01*
Y051908D01*
Y052214D02*
Y052758D01*
X029702Y052214D02*
Y052758D01*
X030412D01*
X026608Y051483D02*
Y052011D01*
Y051483D02*
X027318D01*
Y052011D01*
Y052316D02*
Y052861D01*
X026608Y052316D02*
Y052861D01*
X027318D01*
X026407Y052364D02*
Y052892D01*
X025697D02*
X026407D01*
X025697Y052364D02*
Y052892D01*
Y051514D02*
Y052059D01*
X026407Y051514D02*
Y052059D01*
X025697Y051514D02*
X026407D01*
X027091Y05057D02*
Y05127D01*
X025711Y05057D02*
Y05127D01*
X026562Y05057D02*
X027091D01*
X025711D02*
X026257D01*
X025711Y05127D02*
X026257D01*
X026562D02*
X027091D01*
X024864Y057427D02*
Y057956D01*
Y057427D02*
X025574D01*
Y057956D01*
Y058261D02*
Y058805D01*
X024864Y058261D02*
Y058805D01*
X025574D01*
X024864Y055809D02*
Y056338D01*
Y055809D02*
X025574D01*
Y056338D01*
Y056643D02*
Y057187D01*
X024864Y056643D02*
Y057187D01*
X025574D01*
X024884Y054231D02*
Y054759D01*
Y054231D02*
X025594D01*
Y054759D01*
Y055064D02*
Y055609D01*
X024884Y055064D02*
Y055609D01*
X025594D01*
X023281Y056746D02*
Y057274D01*
X022571D02*
X023281D01*
X022571Y056746D02*
Y057274D01*
Y055896D02*
Y056441D01*
X023281Y055896D02*
Y056441D01*
X022571Y055896D02*
X023281D01*
X022529Y054246D02*
Y054775D01*
Y054246D02*
X023239D01*
Y054775D01*
Y05508D02*
Y055624D01*
X022529Y05508D02*
Y055624D01*
X023239D01*
X02325Y05834D02*
Y058868D01*
X02254D02*
X02325D01*
X02254Y05834D02*
Y058868D01*
Y05749D02*
Y058035D01*
X02325Y05749D02*
Y058035D01*
X02254Y05749D02*
X02325D01*
X022096Y050266D02*
Y050794D01*
Y050266D02*
X022806D01*
Y050794D01*
Y051099D02*
Y051644D01*
X022096Y051099D02*
Y051644D01*
X022806D01*
X020825Y050211D02*
Y050739D01*
Y050211D02*
X021535D01*
Y050739D01*
Y051044D02*
Y051589D01*
X020825Y051044D02*
Y051589D01*
X021535D01*
X01561Y059994D02*
Y060704D01*
Y059994D02*
X016155D01*
X01561Y060704D02*
X016155D01*
X01646D02*
X016988D01*
Y059994D02*
Y060704D01*
X01646Y059994D02*
X016988D01*
X015421Y056254D02*
X018421D01*
Y057254D01*
X015421D02*
X018421D01*
X015421Y056254D02*
Y057254D01*
X016421Y056254D02*
Y057254D01*
X044169Y055396D02*
X044661D01*
X043244D02*
X043736D01*
X044661Y053471D02*
Y055396D01*
X043244Y053471D02*
X044661D01*
X043244D02*
Y055396D01*
X023791Y057085D02*
X024224D01*
X023791Y055904D02*
Y057085D01*
Y055904D02*
X024224D01*
Y057085D01*
X023811Y058691D02*
X024244D01*
X023811Y05751D02*
Y058691D01*
Y05751D02*
X024244D01*
Y058691D01*
X023775Y055518D02*
X024208D01*
X023775Y054337D02*
Y055518D01*
Y054337D02*
X024208D01*
Y055518D01*
X042649Y049077D02*
Y053132D01*
X045287Y049077D02*
Y053132D01*
X042649D02*
X045287D01*
X042649Y049077D02*
X045287D01*
X020075Y054805D02*
Y058703D01*
X021295Y054805D02*
Y058703D01*
X020075D02*
X021295D01*
X020075Y054805D02*
X021295D01*
X018937Y032817D02*
X019937D01*
X018937Y033817D02*
X019937D01*
Y030817D02*
Y033817D01*
X018937Y030817D02*
X019937D01*
X018937D02*
Y033817D01*
X024228Y03953D02*
Y040711D01*
X023795Y03953D02*
X024228D01*
X023795D02*
Y040711D01*
X024228D01*
X024208Y037924D02*
Y039105D01*
X023775Y037924D02*
X024208D01*
X023775D02*
Y039105D01*
X024208D01*
X024193Y036357D02*
Y037538D01*
X02376Y036357D02*
X024193D01*
X02376D02*
Y037538D01*
X024193D01*
X034411Y032672D02*
X035051D01*
X034411Y033695D02*
X035051D01*
Y033518D02*
Y033695D01*
Y032672D02*
Y032849D01*
X035693Y033711D02*
X036332D01*
X035693Y032687D02*
X036332D01*
X035693D02*
Y032864D01*
Y033534D02*
Y033711D01*
X024848Y040825D02*
X025558D01*
X024848Y040281D02*
Y040825D01*
X025558Y040281D02*
Y040825D01*
Y039447D02*
Y039975D01*
X024848Y039447D02*
X025558D01*
X024848D02*
Y039975D01*
X025682Y033534D02*
X026392D01*
Y034078D01*
X025682Y033534D02*
Y034078D01*
Y034383D02*
Y034912D01*
X026392D01*
Y034383D02*
Y034912D01*
X02208Y033664D02*
X02279D01*
X02208Y033119D02*
Y033664D01*
X02279Y033119D02*
Y033664D01*
Y032286D02*
Y032814D01*
X02208Y032286D02*
X02279D01*
X02208D02*
Y032814D01*
X020809Y033609D02*
X021519D01*
X020809Y033064D02*
Y033609D01*
X021519Y033064D02*
Y033609D01*
Y032231D02*
Y032759D01*
X020809Y032231D02*
X021519D01*
X020809D02*
Y032759D01*
X035984Y031735D02*
Y032445D01*
X035439D02*
X035984D01*
X035439Y031735D02*
X035984D01*
X034606D02*
X035134D01*
X034606D02*
Y032445D01*
X035134D01*
X036019Y033893D02*
Y034603D01*
X035475D02*
X036019D01*
X035475Y033893D02*
X036019D01*
X034642D02*
X03517D01*
X034642D02*
Y034603D01*
X03517D01*
X047494Y032457D02*
Y032985D01*
Y032457D02*
X048204D01*
Y032985D01*
Y03329D02*
Y033835D01*
X047494Y03329D02*
Y033835D01*
X048204D01*
X040155Y031287D02*
Y031816D01*
X039445D02*
X040155D01*
X039445Y031287D02*
Y031816D01*
Y030438D02*
Y030982D01*
X040155Y030438D02*
Y030982D01*
X039445Y030438D02*
X040155D01*
X041248Y040892D02*
X041776D01*
X041248Y040182D02*
Y040892D01*
Y040182D02*
X041776D01*
X042081D02*
X042626D01*
X042081Y040892D02*
X042626D01*
Y040182D02*
Y040892D01*
X022524Y03951D02*
X023234D01*
Y040055D01*
X022524Y03951D02*
Y040055D01*
Y04036D02*
Y040888D01*
X023234D01*
Y04036D02*
Y040888D01*
X04125Y041691D02*
X041778D01*
X04125Y040981D02*
Y041691D01*
Y040981D02*
X041778D01*
X042083D02*
X042628D01*
X042083Y041691D02*
X042628D01*
Y040981D02*
Y041691D01*
X041232Y042494D02*
X041761D01*
X041232Y041784D02*
Y042494D01*
Y041784D02*
X041761D01*
X042066D02*
X04261D01*
X042066Y042494D02*
X04261D01*
Y041784D02*
Y042494D01*
X041232Y043293D02*
X041761D01*
X041232Y042583D02*
Y043293D01*
Y042583D02*
X041761D01*
X042066D02*
X04261D01*
X042066Y043293D02*
X04261D01*
Y042583D02*
Y043293D01*
X016444Y042014D02*
X016972D01*
Y042724D01*
X016444D02*
X016972D01*
X015594D02*
X016139D01*
X015594Y042014D02*
X016139D01*
X015594D02*
Y042724D01*
X024848Y039207D02*
X025558D01*
X024848Y038662D02*
Y039207D01*
X025558Y038662D02*
Y039207D01*
Y037829D02*
Y038357D01*
X024848Y037829D02*
X025558D01*
X024848D02*
Y038357D01*
X022556Y037916D02*
X023266D01*
Y03846D01*
X022556Y037916D02*
Y03846D01*
Y038765D02*
Y039294D01*
X023266D01*
Y038765D02*
Y039294D01*
X024868Y037628D02*
X025578D01*
X024868Y037084D02*
Y037628D01*
X025578Y037084D02*
Y037628D01*
Y03625D02*
Y036779D01*
X024868Y03625D02*
X025578D01*
X024868D02*
Y036779D01*
X022513Y037644D02*
X023223D01*
X022513Y037099D02*
Y037644D01*
X023223Y037099D02*
Y037644D01*
Y036266D02*
Y036794D01*
X022513Y036266D02*
X023223D01*
X022513D02*
Y036794D01*
X026592Y03488D02*
X027302D01*
X026592Y034336D02*
Y03488D01*
X027302Y034336D02*
Y03488D01*
Y033502D02*
Y034031D01*
X026592Y033502D02*
X027302D01*
X026592D02*
Y034031D01*
X029687Y034778D02*
X030397D01*
X029687Y034233D02*
Y034778D01*
X030397Y034233D02*
Y034778D01*
Y0334D02*
Y033928D01*
X029687Y0334D02*
X030397D01*
X029687D02*
Y033928D01*
X030563Y033384D02*
X031273D01*
Y033929D01*
X030563Y033384D02*
Y033929D01*
Y034234D02*
Y034762D01*
X031273D01*
Y034234D02*
Y034762D01*
X037705Y039138D02*
X038705D01*
X037705Y040138D02*
X038705D01*
Y037138D02*
Y040138D01*
X037705Y037138D02*
X038705D01*
X037705D02*
Y040138D01*
X035815Y039459D02*
X036815D01*
X035815D02*
Y044459D01*
X036815Y039459D02*
Y044459D01*
X035815D02*
X036815D01*
X035815Y040459D02*
X036815D01*
X035909Y037101D02*
X036909D01*
X035909Y036101D02*
X036909D01*
X035909D02*
Y039101D01*
X036909D01*
Y036101D02*
Y039101D01*
X016386Y037152D02*
Y038152D01*
X015386Y037152D02*
Y038152D01*
X018386D01*
Y037152D02*
Y038152D01*
X015386Y037152D02*
X018386D01*
X017268Y040758D02*
Y041758D01*
X015267Y040758D02*
X017268D01*
X015267D02*
Y041758D01*
X017268D01*
X043228Y03549D02*
Y037416D01*
Y03549D02*
X044645D01*
Y037416D01*
X043228D02*
X04372D01*
X044153D02*
X044645D01*
X042634Y031097D02*
X045271D01*
X042634Y035152D02*
X045271D01*
Y031097D02*
Y035152D01*
X042634Y031097D02*
Y035152D01*
X032708Y030424D02*
Y031424D01*
X038708Y030424D02*
Y031424D01*
X032708Y030424D02*
X038708D01*
X032708Y031424D02*
X038708D01*
X037708Y030424D02*
Y031424D01*
X029814Y032534D02*
X030343D01*
X030648D02*
X031194D01*
X030648Y033234D02*
X031194D01*
X029814D02*
X030343D01*
X031194Y032534D02*
Y033234D01*
X029814Y032534D02*
Y033234D01*
X026546Y033289D02*
X027076D01*
X025696D02*
X026241D01*
X025696Y032589D02*
X026241D01*
X026546D02*
X027076D01*
X025696D02*
Y033289D01*
X027076Y032589D02*
Y033289D01*
X040909Y032882D02*
Y033582D01*
X039529Y032882D02*
Y033582D01*
X040379Y032882D02*
X040909D01*
X039529D02*
X040074D01*
X039529Y033582D02*
X040074D01*
X040379D02*
X040909D01*
Y032071D02*
Y032771D01*
X039529Y032071D02*
Y032771D01*
X040379Y032071D02*
X040909D01*
X039529D02*
X040074D01*
X039529Y032771D02*
X040074D01*
X040379D02*
X040909D01*
X021275Y04225D02*
Y04325D01*
Y04225D02*
X022275D01*
Y04125D02*
Y04325D01*
X019275Y04125D02*
X022275D01*
X019275D02*
Y04325D01*
X022275D01*
X016405Y038274D02*
Y039274D01*
X015405Y038274D02*
Y039274D01*
X018405D01*
Y038274D02*
Y039274D01*
X015405Y038274D02*
X018405D01*
X020059Y036825D02*
X021279D01*
X020059Y040723D02*
X021279D01*
Y036825D02*
Y040723D01*
X020059Y036825D02*
Y040723D01*
X016397Y039416D02*
Y040416D01*
X015397Y039416D02*
Y040416D01*
X018397D01*
Y039416D02*
Y040416D01*
X015397Y039416D02*
X018397D01*
D41*
X042157Y053179D02*
G03*
X042157Y053179I-000049J0D01*
G01*
X019671Y058829D02*
G03*
X019671Y058829I-000049J0D01*
G01*
X042142Y035199D02*
G03*
X042142Y035199I-000049J0D01*
G01*
X019655Y040849D02*
G03*
X019655Y040849I-000049J0D01*
G01*
D42*
X043161Y052738D02*
G03*
X043161Y052738I-000118J0D01*
G01*
X020586Y058309D02*
G03*
X020586Y058309I-000118J0D01*
G01*
X043145Y034758D02*
G03*
X043145Y034758I-000118J0D01*
G01*
X020571Y040329D02*
G03*
X020571Y040329I-000118J0D01*
G01*
D43*
X048136Y051034D02*
Y051214D01*
X047596Y051034D02*
Y051214D01*
X041845Y060648D02*
X042025D01*
X041845Y061188D02*
X042025D01*
X041845Y059848D02*
X042025D01*
X041845Y060388D02*
X042025D01*
X041863Y059045D02*
X042043D01*
X041863Y059585D02*
X042043D01*
X041861Y058246D02*
X042041D01*
X041861Y058786D02*
X042041D01*
X040146Y051481D02*
X040326D01*
X040146Y050941D02*
X040326D01*
X040146Y05067D02*
X040326D01*
X040146Y05013D02*
X040326D01*
X039545Y049018D02*
Y049198D01*
X040085Y049018D02*
Y049198D01*
X035255Y052497D02*
X035435D01*
X035255Y051957D02*
X035435D01*
X035219Y05034D02*
X035399D01*
X035219Y0498D02*
X035399D01*
X031203Y051965D02*
Y052145D01*
X030663Y051965D02*
Y052145D01*
X030428Y051136D02*
X030608D01*
X030428Y050596D02*
X030608D01*
X029789Y051978D02*
Y052158D01*
X030329Y051978D02*
Y052158D01*
X026694Y05208D02*
Y05226D01*
X027234Y05208D02*
Y05226D01*
X026321Y052115D02*
Y052295D01*
X025781Y052115D02*
Y052295D01*
X026313Y050648D02*
X026493D01*
X026313Y051188D02*
X026493D01*
X02495Y058025D02*
Y058205D01*
X02549Y058025D02*
Y058205D01*
X02495Y056407D02*
Y056587D01*
X02549Y056407D02*
Y056587D01*
X02497Y054828D02*
Y055008D01*
X02551Y054828D02*
Y055008D01*
X023195Y056497D02*
Y056677D01*
X022655Y056497D02*
Y056677D01*
X022615Y054844D02*
Y055024D01*
X023155Y054844D02*
Y055024D01*
X023164Y058091D02*
Y058271D01*
X022624Y058091D02*
Y058271D01*
X022182Y050863D02*
Y051043D01*
X022722Y050863D02*
Y051043D01*
X020911Y050808D02*
Y050988D01*
X021451Y050808D02*
Y050988D01*
X016211Y06062D02*
X016391D01*
X016211Y06008D02*
X016391D01*
X025474Y040044D02*
Y040224D01*
X024934Y040044D02*
Y040224D01*
X025766Y034134D02*
Y034314D01*
X026306Y034134D02*
Y034314D01*
X022706Y032883D02*
Y033063D01*
X022166Y032883D02*
Y033063D01*
X021435Y032828D02*
Y033008D01*
X020895Y032828D02*
Y033008D01*
X035203Y031819D02*
X035383D01*
X035203Y032359D02*
X035383D01*
X035239Y033977D02*
X035419D01*
X035239Y034517D02*
X035419D01*
X04758Y033054D02*
Y033234D01*
X04812Y033054D02*
Y033234D01*
X040069Y031038D02*
Y031218D01*
X039529Y031038D02*
Y031218D01*
X041845Y040806D02*
X042025D01*
X041845Y040266D02*
X042025D01*
X022608Y040111D02*
Y040291D01*
X023148Y040111D02*
Y040291D01*
X041847Y041605D02*
X042027D01*
X041847Y041065D02*
X042027D01*
X04183Y042408D02*
X04201D01*
X04183Y041868D02*
X04201D01*
X04183Y043207D02*
X04201D01*
X04183Y042667D02*
X04201D01*
X016195Y0421D02*
X016375D01*
X016195Y04264D02*
X016375D01*
X025474Y038426D02*
Y038606D01*
X024934Y038426D02*
Y038606D01*
X02264Y038516D02*
Y038696D01*
X02318Y038516D02*
Y038696D01*
X025494Y036848D02*
Y037028D01*
X024954Y036848D02*
Y037028D01*
X02314Y036863D02*
Y037043D01*
X0226Y036863D02*
Y037043D01*
X027218Y0341D02*
Y03428D01*
X026678Y0341D02*
Y03428D01*
X030313Y033997D02*
Y034177D01*
X029773Y033997D02*
Y034177D01*
X030647Y033985D02*
Y034165D01*
X031187Y033985D02*
Y034165D01*
X030412Y032615D02*
X030592D01*
X030412Y033156D02*
X030592D01*
X026297Y033208D02*
X026477D01*
X026297Y032668D02*
X026477D01*
X04013Y032961D02*
X04031D01*
X04013Y033501D02*
X04031D01*
X04013Y03215D02*
X04031D01*
X04013Y03269D02*
X04031D01*
D44*
X045728Y053485D02*
Y055325D01*
Y053485D02*
X046908D01*
Y055325D01*
X046035D02*
X046908D01*
X04583D02*
X045933D01*
X046283Y055255D02*
X046288D01*
X045728Y055325D02*
X04583D01*
X045933D02*
X046035D01*
X042218Y053557D02*
Y055397D01*
X041038D02*
X042218D01*
X041038Y053557D02*
Y055397D01*
Y053557D02*
X04191D01*
X042012D02*
X042116D01*
X041658Y053627D02*
X041663D01*
X042116Y053557D02*
X042218D01*
X04191D02*
X042012D01*
X02709Y055406D02*
Y055662D01*
Y055406D02*
X028054D01*
X033212D02*
X034176D01*
Y055662D01*
X02709Y062886D02*
Y065445D01*
X034176D01*
Y062886D02*
Y065445D01*
X041894Y035577D02*
X041996D01*
X0421D02*
X042202D01*
X041642Y035647D02*
X041647D01*
X041996Y035577D02*
X0421D01*
X041022D02*
X041894D01*
X041022D02*
Y037417D01*
X042202D01*
Y035577D02*
Y037417D01*
X045918Y037345D02*
X046019D01*
X045712D02*
X045814D01*
X046267Y037275D02*
X046272D01*
X045814Y037345D02*
X045918D01*
X046019D02*
X046892D01*
Y035505D02*
Y037345D01*
X045712Y035505D02*
X046892D01*
X045712D02*
Y037345D01*
X03416Y044906D02*
Y047465D01*
X027074D02*
X03416D01*
X027074Y044906D02*
Y047465D01*
X03416Y037426D02*
Y037682D01*
X033196Y037426D02*
X03416D01*
X027074D02*
X028038D01*
X027074D02*
Y037682D01*
D45*
X040303Y049589D02*
X040353D01*
X040303Y048689D02*
Y049589D01*
Y048689D02*
X040353D01*
X040953Y049589D02*
X041003D01*
Y048689D02*
Y049589D01*
X040953Y048689D02*
X041003D01*
X02215Y049804D02*
X0222D01*
X02215Y048904D02*
Y049804D01*
Y048904D02*
X0222D01*
X0228Y049804D02*
X02285D01*
Y048904D02*
Y049804D01*
X0228Y048904D02*
X02285D01*
X020823Y049808D02*
X020873D01*
X020823Y048908D02*
Y049808D01*
Y048908D02*
X020873D01*
X021473Y049808D02*
X021523D01*
Y048908D02*
Y049808D01*
X021473Y048908D02*
X021523D01*
X022784Y030924D02*
X022834D01*
Y031824D01*
X022784D02*
X022834D01*
X022134Y030924D02*
X022184D01*
X022134D02*
Y031824D01*
X022184D01*
X021457Y030927D02*
X021507D01*
Y031827D01*
X021457D02*
X021507D01*
X020807Y030927D02*
X020857D01*
X020807D02*
Y031827D01*
X020857D01*
X040938Y030709D02*
X040988D01*
Y031609D01*
X040938D02*
X040988D01*
X040288Y030709D02*
X040338D01*
X040288D02*
Y031609D01*
X040338D01*
D46*
X031696Y048867D02*
Y049317D01*
Y049877D02*
Y050327D01*
X030086Y049347D02*
Y049847D01*
Y049347D02*
X031086D01*
Y049847D01*
X030086D02*
X031086D01*
X029476Y050327D02*
X031696D01*
X029476Y048867D02*
X031696D01*
X029476D02*
Y049317D01*
Y049877D02*
Y050327D01*
X025606Y049877D02*
Y050327D01*
Y048867D02*
Y049317D01*
X027216Y049347D02*
Y049847D01*
X026216D02*
X027216D01*
X026216Y049347D02*
Y049847D01*
Y049347D02*
X027216D01*
X025606Y048867D02*
X027826D01*
X025606Y050327D02*
X027826D01*
Y049877D02*
Y050327D01*
Y048867D02*
Y049317D01*
X017811Y05147D02*
X018598D01*
X017811Y05138D02*
X018598D01*
X017811Y0513D02*
X018598D01*
X017811Y0488D02*
Y05145D01*
Y0488D02*
X018598D01*
Y05145D01*
X029461Y031896D02*
Y032346D01*
Y030886D02*
Y031336D01*
Y030886D02*
X031681D01*
X029461Y032346D02*
X031681D01*
X030071Y031866D02*
X031071D01*
Y031366D02*
Y031866D01*
X030071Y031366D02*
X031071D01*
X030071D02*
Y031866D01*
X031681Y031896D02*
Y032346D01*
Y030886D02*
Y031336D01*
X018582Y030819D02*
Y033469D01*
X017795Y030819D02*
X018582D01*
X017795D02*
Y033469D01*
Y033319D02*
X018582D01*
X017795Y033399D02*
X018582D01*
X017795Y033489D02*
X018582D01*
X027811Y030886D02*
Y031336D01*
Y031896D02*
Y032346D01*
X025591D02*
X027811D01*
X025591Y030886D02*
X027811D01*
X026201Y031366D02*
X027201D01*
X026201D02*
Y031866D01*
X027201D01*
Y031366D02*
Y031866D01*
X025591Y030886D02*
Y031336D01*
Y031896D02*
Y032346D01*
D47*
X046673Y050292D02*
Y051965D01*
X047342D01*
Y050292D02*
Y051965D01*
X046673Y050292D02*
X047342D01*
X047008Y051266D02*
X047165Y05099D01*
X04685D02*
X047008Y051266D01*
X04685Y05099D02*
X047165D01*
X047008Y050813D02*
Y05099D01*
X04687Y051266D02*
X047145D01*
X047008D02*
Y051443D01*
X046992Y033286D02*
Y033463D01*
X046854Y033286D02*
X04713D01*
X046992Y032833D02*
Y03301D01*
X046834D02*
X047149D01*
X046834D02*
X046992Y033286D01*
X047149Y03301D01*
X046657Y032311D02*
X047327D01*
Y033985D01*
X046657D02*
X047327D01*
X046657Y032311D02*
Y033985D01*
X035786Y063055D02*
X03574Y063101D01*
X035648D01*
X035602Y063055D01*
Y063009D01*
X035648Y062963D01*
X03574D01*
X035786Y062917D01*
Y062871D01*
X03574Y062825D01*
X035648D01*
X035602Y062871D01*
X035878Y063101D02*
Y062825D01*
X036015D01*
X036061Y062871D01*
Y063055D01*
X036015Y063101D01*
X035878D01*
X036612Y063055D02*
X036566Y063101D01*
X036475D01*
X036429Y063055D01*
Y062871D01*
X036475Y062825D01*
X036566D01*
X036612Y062871D01*
X036704Y062825D02*
Y063009D01*
X036796Y063101D01*
X036888Y063009D01*
Y062825D01*
Y062963D01*
X036704D01*
X03698Y062825D02*
Y063101D01*
X037117D01*
X037163Y063055D01*
Y062963D01*
X037117Y062917D01*
X03698D01*
X037071D02*
X037163Y062825D01*
X037255Y063101D02*
Y062825D01*
X037393D01*
X037439Y062871D01*
Y063055D01*
X037393Y063101D01*
X037255D01*
X037716Y0584D02*
Y058676D01*
X037854D01*
X037899Y05863D01*
Y058538D01*
X037854Y058492D01*
X037716D01*
X037808D02*
X037899Y0584D01*
X037991Y058676D02*
X038175D01*
X038083D01*
Y0584D01*
X03845Y05863D02*
X038405Y058676D01*
X038313D01*
X038267Y05863D01*
Y058446D01*
X038313Y0584D01*
X038405D01*
X03845Y058446D01*
X035589Y053722D02*
X035543Y053768D01*
X035451D01*
X035406Y053722D01*
Y053676D01*
X035451Y05363D01*
X035543D01*
X035589Y053584D01*
Y053538D01*
X035543Y053492D01*
X035451D01*
X035406Y053538D01*
X035681Y053768D02*
X035773D01*
X035727D01*
Y053492D01*
X035681D01*
X035773D01*
X035911D02*
Y053768D01*
X036002Y053676D01*
X036094Y053768D01*
Y053492D01*
X036186Y053446D02*
X03637D01*
X036462Y053768D02*
Y053538D01*
X036508Y053492D01*
X036599D01*
X036645Y053538D01*
Y053768D01*
X036737Y053492D02*
Y053676D01*
X036829Y053768D01*
X036921Y053676D01*
Y053492D01*
Y05363D01*
X036737D01*
X037013Y053492D02*
Y053768D01*
X03715D01*
X037196Y053722D01*
Y05363D01*
X03715Y053584D01*
X037013D01*
X037104D02*
X037196Y053492D01*
X037288Y053768D02*
X037472D01*
X03738D01*
Y053492D01*
X018956Y05208D02*
Y052356D01*
X019094D01*
X019139Y05231D01*
Y052218D01*
X019094Y052172D01*
X018956D01*
X019369Y052356D02*
X019277D01*
X019231Y05231D01*
Y052126D01*
X019277Y05208D01*
X019369D01*
X019415Y052126D01*
Y05231D01*
X019369Y052356D01*
X019507D02*
Y05208D01*
X019599Y052172D01*
X01969Y05208D01*
Y052356D01*
X033522Y050969D02*
Y051153D01*
X033476Y051199D01*
X033384D01*
X033338Y051153D01*
Y050969D01*
X033384Y050924D01*
X033476D01*
X03343Y051015D02*
X033522Y050924D01*
X033476D02*
X033522Y050969D01*
X033752Y050924D02*
Y051199D01*
X033614Y051061D01*
X033798D01*
X036598Y049858D02*
Y049629D01*
X036644Y049583D01*
X036736D01*
X036782Y049629D01*
Y049858D01*
X036874Y049583D02*
Y049858D01*
X037012D01*
X037058Y049812D01*
Y04972D01*
X037012Y049675D01*
X036874D01*
X037149Y049858D02*
Y049583D01*
X037333D01*
X037563Y049858D02*
X037471D01*
X037425Y049812D01*
Y049629D01*
X037471Y049583D01*
X037563D01*
X037609Y049629D01*
Y049812D01*
X037563Y049858D01*
X0377Y049583D02*
Y049766D01*
X037792Y049858D01*
X037884Y049766D01*
Y049583D01*
Y04972D01*
X0377D01*
X037976Y049858D02*
Y049583D01*
X038114D01*
X03816Y049629D01*
Y049812D01*
X038114Y049858D01*
X037976D01*
X019498Y061661D02*
X019453Y061707D01*
X019361D01*
X019315Y061661D01*
Y061477D01*
X019361Y061431D01*
X019453D01*
X019498Y061477D01*
X019636Y061431D02*
X019728D01*
X019774Y061477D01*
Y061569D01*
X019728Y061615D01*
X019636D01*
X01959Y061569D01*
Y061477D01*
X019636Y061431D01*
X019866D02*
Y061615D01*
X020003D01*
X020049Y061569D01*
Y061431D01*
X020141D02*
Y061615D01*
X020279D01*
X020325Y061569D01*
Y061431D01*
X020555D02*
X020463D01*
X020417Y061477D01*
Y061569D01*
X020463Y061615D01*
X020555D01*
X0206Y061569D01*
Y061523D01*
X020417D01*
X020876Y061615D02*
X020738D01*
X020692Y061569D01*
Y061477D01*
X020738Y061431D01*
X020876D01*
X021014Y061661D02*
Y061615D01*
X020968D01*
X02106D01*
X021014D01*
Y061477D01*
X02106Y061431D01*
X014063Y059437D02*
X014247D01*
X014155D01*
Y059161D01*
X014522Y059437D02*
X014338D01*
Y059161D01*
X014522D01*
X014338Y059299D02*
X01443D01*
X014614Y059161D02*
Y059437D01*
X014706Y059345D01*
X014798Y059437D01*
Y059161D01*
X01489D02*
Y059437D01*
X015027D01*
X015073Y059391D01*
Y059299D01*
X015027Y059253D01*
X01489D01*
X014433Y055758D02*
X014617D01*
X014525D01*
Y055483D01*
X014708Y055758D02*
Y055483D01*
X014846D01*
X014892Y055529D01*
Y055712D01*
X014846Y055758D01*
X014708D01*
X015168Y055712D02*
X015122Y055758D01*
X01503D01*
X014984Y055712D01*
Y055666D01*
X01503Y05562D01*
X015122D01*
X015168Y055574D01*
Y055529D01*
X015122Y055483D01*
X01503D01*
X014984Y055529D01*
X014705Y057678D02*
Y057954D01*
X014842D01*
X014888Y057908D01*
Y057816D01*
X014842Y05777D01*
X014705D01*
X01498Y058045D02*
Y05777D01*
Y057908D01*
X015164D01*
Y058045D01*
Y05777D01*
X047638Y052071D02*
Y052346D01*
X047776D01*
X047821Y0523D01*
Y052209D01*
X047776Y052163D01*
X047638D01*
X04773D02*
X047821Y052071D01*
X047913D02*
X048005D01*
X047959D01*
Y052346D01*
X047913Y0523D01*
X048143Y052346D02*
X048327D01*
Y0523D01*
X048143Y052117D01*
Y052071D01*
X045746Y05559D02*
Y055866D01*
X045883D01*
X045929Y05582D01*
Y055728D01*
X045883Y055682D01*
X045746D01*
X045838D02*
X045929Y05559D01*
X046021D02*
X046113D01*
X046067D01*
Y055866D01*
X046021Y05582D01*
X046434Y055866D02*
X046343Y05582D01*
X046251Y055728D01*
Y055636D01*
X046297Y05559D01*
X046389D01*
X046434Y055636D01*
Y055682D01*
X046389Y055728D01*
X046251D01*
X040323Y060827D02*
Y061102D01*
X040461D01*
X040507Y061056D01*
Y060965D01*
X040461Y060919D01*
X040323D01*
X040415D02*
X040507Y060827D01*
X040782D02*
X040598D01*
X040782Y06101D01*
Y061056D01*
X040736Y061102D01*
X040644D01*
X040598Y061056D01*
X041058Y060827D02*
X040874D01*
X041058Y06101D01*
Y061056D01*
X041012Y061102D01*
X04092D01*
X040874Y061056D01*
X040421Y060035D02*
Y060311D01*
X040559D01*
X040605Y060265D01*
Y060173D01*
X040559Y060127D01*
X040421D01*
X040513D02*
X040605Y060035D01*
X04088D02*
X040697D01*
X04088Y060219D01*
Y060265D01*
X040835Y060311D01*
X040743D01*
X040697Y060265D01*
X040972Y060035D02*
X041064D01*
X041018D01*
Y060311D01*
X040972Y060265D01*
X040335Y059201D02*
Y059476D01*
X040472D01*
X040518Y05943D01*
Y059339D01*
X040472Y059293D01*
X040335D01*
X040426D02*
X040518Y059201D01*
X040794D02*
X04061D01*
X040794Y059384D01*
Y05943D01*
X040748Y059476D01*
X040656D01*
X04061Y05943D01*
X040886D02*
X040932Y059476D01*
X041023D01*
X041069Y05943D01*
Y059247D01*
X041023Y059201D01*
X040932D01*
X040886Y059247D01*
Y05943D01*
X040409Y058382D02*
Y058657D01*
X040547D01*
X040593Y058611D01*
Y05852D01*
X040547Y058474D01*
X040409D01*
X040501D02*
X040593Y058382D01*
X040685D02*
X040777D01*
X040731D01*
Y058657D01*
X040685Y058611D01*
X040915Y058428D02*
X04096Y058382D01*
X041052D01*
X041098Y058428D01*
Y058611D01*
X041052Y058657D01*
X04096D01*
X040915Y058611D01*
Y058566D01*
X04096Y05852D01*
X041098D01*
X041056Y05566D02*
Y055936D01*
X041193D01*
X041239Y05589D01*
Y055798D01*
X041193Y055752D01*
X041056D01*
X041148D02*
X041239Y05566D01*
X041331D02*
X041423D01*
X041377D01*
Y055936D01*
X041331Y05589D01*
X041744Y055936D02*
X041561D01*
Y055798D01*
X041653Y055844D01*
X041699D01*
X041744Y055798D01*
Y055706D01*
X041699Y05566D01*
X041607D01*
X041561Y055706D01*
X038597Y05111D02*
X038551Y051156D01*
X038459D01*
X038413Y05111D01*
Y050926D01*
X038459Y05088D01*
X038551D01*
X038597Y050926D01*
X038826Y05088D02*
Y051156D01*
X038689Y051018D01*
X038872D01*
X038506Y05022D02*
X03846Y050266D01*
X038369D01*
X038323Y05022D01*
Y050036D01*
X038369Y04999D01*
X03846D01*
X038506Y050036D01*
X038782Y050266D02*
X038598D01*
Y050128D01*
X03869Y050174D01*
X038736D01*
X038782Y050128D01*
Y050036D01*
X038736Y04999D01*
X038644D01*
X038598Y050036D01*
X040449Y047669D02*
X040724D01*
Y047853D01*
X040495Y047945D02*
X040449Y047991D01*
Y048083D01*
X040495Y048128D01*
X040541D01*
X040587Y048083D01*
Y048037D01*
Y048083D01*
X040633Y048128D01*
X040678D01*
X040724Y048083D01*
Y047991D01*
X040678Y047945D01*
X039854Y047484D02*
X039579D01*
Y047622D01*
X039625Y047668D01*
X039717D01*
X039762Y047622D01*
Y047484D01*
Y047576D02*
X039854Y047668D01*
Y04776D02*
Y047852D01*
Y047806D01*
X039579D01*
X039625Y04776D01*
Y047989D02*
X039579Y048035D01*
Y048127D01*
X039625Y048173D01*
X039671D01*
X039717Y048127D01*
X039762Y048173D01*
X039808D01*
X039854Y048127D01*
Y048035D01*
X039808Y047989D01*
X039762D01*
X039717Y048035D01*
X039671Y047989D01*
X039625D01*
X039717Y048035D02*
Y048127D01*
X036538Y052107D02*
Y052291D01*
X036492Y052337D01*
X0364D01*
X036354Y052291D01*
Y052107D01*
X0364Y052061D01*
X036492D01*
X036446Y052153D02*
X036538Y052061D01*
X036492D02*
X036538Y052107D01*
X036813Y052337D02*
X03663D01*
Y052199D01*
X036721Y052245D01*
X036767D01*
X036813Y052199D01*
Y052107D01*
X036767Y052061D01*
X036676D01*
X03663Y052107D01*
X033079Y051971D02*
Y052246D01*
X033216D01*
X033262Y0522D01*
Y052109D01*
X033216Y052063D01*
X033079D01*
X03317D02*
X033262Y051971D01*
X033354D02*
X033446D01*
X0334D01*
Y052246D01*
X033354Y0522D01*
X033721Y051971D02*
Y052246D01*
X033584Y052109D01*
X033767D01*
X032874Y049707D02*
Y049983D01*
X033012D01*
X033057Y049937D01*
Y049845D01*
X033012Y049799D01*
X032874D01*
X032966D02*
X033057Y049707D01*
X033149D02*
X033241D01*
X033195D01*
Y049983D01*
X033149Y049937D01*
X033379D02*
X033425Y049983D01*
X033517D01*
X033563Y049937D01*
Y049891D01*
X033517Y049845D01*
X033471D01*
X033517D01*
X033563Y049799D01*
Y049753D01*
X033517Y049707D01*
X033425D01*
X033379Y049753D01*
X031764Y051829D02*
X031488D01*
Y051967D01*
X031534Y052013D01*
X031626D01*
X031672Y051967D01*
Y051829D01*
Y051921D02*
X031764Y052013D01*
X031718Y052105D02*
X031764Y05215D01*
Y052242D01*
X031718Y052288D01*
X031534D01*
X031488Y052242D01*
Y05215D01*
X031534Y052105D01*
X03158D01*
X031626Y05215D01*
Y052288D01*
X029251Y05091D02*
X029205Y050864D01*
Y050773D01*
X029251Y050727D01*
X029434D01*
X02948Y050773D01*
Y050864D01*
X029434Y05091D01*
X02948Y051186D02*
Y051002D01*
X029296Y051186D01*
X029251D01*
X029205Y05114D01*
Y051048D01*
X029251Y051002D01*
X030059Y048634D02*
Y048358D01*
X030197D01*
X030243Y048404D01*
Y04845D01*
X030197Y048496D01*
X030059D01*
X030197D01*
X030243Y048542D01*
Y048588D01*
X030197Y048634D01*
X030059D01*
X030472D02*
X03038D01*
X030335Y048588D01*
Y048404D01*
X03038Y048358D01*
X030472D01*
X030518Y048404D01*
Y048588D01*
X030472Y048634D01*
X030748D02*
X030656D01*
X03061Y048588D01*
Y048404D01*
X030656Y048358D01*
X030748D01*
X030794Y048404D01*
Y048588D01*
X030748Y048634D01*
X030886D02*
X031069D01*
X030977D01*
Y048358D01*
X029287Y051829D02*
X029012D01*
Y051967D01*
X029058Y052013D01*
X029149D01*
X029195Y051967D01*
Y051829D01*
Y051921D02*
X029287Y052013D01*
X029058Y052105D02*
X029012Y05215D01*
Y052242D01*
X029058Y052288D01*
X029104D01*
X029149Y052242D01*
X029195Y052288D01*
X029241D01*
X029287Y052242D01*
Y05215D01*
X029241Y052105D01*
X029195D01*
X029149Y05215D01*
X029104Y052105D01*
X029058D01*
X029149Y05215D02*
Y052242D01*
X028165Y051668D02*
X02789D01*
Y051805D01*
X027936Y051851D01*
X028027D01*
X028073Y051805D01*
Y051668D01*
Y051759D02*
X028165Y051851D01*
X02789Y051943D02*
Y052127D01*
X027936D01*
X028119Y051943D01*
X028165D01*
X025433Y051561D02*
X025157D01*
Y051699D01*
X025203Y051745D01*
X025295D01*
X025341Y051699D01*
Y051561D01*
Y051653D02*
X025433Y051745D01*
Y051837D02*
Y051929D01*
Y051883D01*
X025157D01*
X025203Y051837D01*
Y052066D02*
X025157Y052112D01*
Y052204D01*
X025203Y05225D01*
X025387D01*
X025433Y052204D01*
Y052112D01*
X025387Y052066D01*
X025203D01*
X02513Y050527D02*
X025084Y050481D01*
Y050389D01*
X02513Y050343D01*
X025314D01*
X02536Y050389D01*
Y050481D01*
X025314Y050527D01*
X02513Y050619D02*
X025084Y050665D01*
Y050757D01*
X02513Y050803D01*
X025176D01*
X025222Y050757D01*
Y050711D01*
Y050757D01*
X025268Y050803D01*
X025314D01*
X02536Y050757D01*
Y050665D01*
X025314Y050619D01*
X026215Y048598D02*
X026031D01*
Y048323D01*
X026215D01*
X026031Y048461D02*
X026123D01*
X026307Y048323D02*
Y048598D01*
X026491Y048323D01*
Y048598D01*
X022193Y051955D02*
Y052231D01*
X02233D01*
X022376Y052185D01*
Y052093D01*
X02233Y052047D01*
X022193D01*
X022285D02*
X022376Y051955D01*
X022468D02*
X02256D01*
X022514D01*
Y052231D01*
X022468Y052185D01*
X022698Y051955D02*
X02279D01*
X022744D01*
Y052231D01*
X022698Y052185D01*
X022323Y048372D02*
Y048097D01*
X022506D01*
X022598D02*
X02269D01*
X022644D01*
Y048372D01*
X022598Y048326D01*
X020834Y048439D02*
Y048164D01*
X021018D01*
X021294D02*
X02111D01*
X021294Y048347D01*
Y048393D01*
X021248Y048439D01*
X021156D01*
X02111Y048393D01*
X020826Y05187D02*
Y052146D01*
X020963D01*
X021009Y0521D01*
Y052008D01*
X020963Y051962D01*
X020826D01*
X020918D02*
X021009Y05187D01*
X021101D02*
X021193D01*
X021147D01*
Y052146D01*
X021101Y0521D01*
X021514Y05187D02*
X021331D01*
X021514Y052054D01*
Y0521D01*
X021469Y052146D01*
X021377D01*
X021331Y0521D01*
X017979Y05199D02*
X017933Y052036D01*
X017842D01*
X017796Y05199D01*
Y051806D01*
X017842Y05176D01*
X017933D01*
X017979Y051806D01*
X018071Y05176D02*
X018163D01*
X018117D01*
Y052036D01*
X018071Y05199D01*
X015606Y06098D02*
Y061256D01*
X015743D01*
X015789Y06121D01*
Y061118D01*
X015743Y061072D01*
X015606D01*
X015698D02*
X015789Y06098D01*
X016065D02*
X015881D01*
X016065Y061164D01*
Y06121D01*
X016019Y061256D01*
X015927D01*
X015881Y06121D01*
X016157D02*
X016203Y061256D01*
X016294D01*
X01634Y06121D01*
Y061164D01*
X016294Y061118D01*
X016249D01*
X016294D01*
X01634Y061072D01*
Y061026D01*
X016294Y06098D01*
X016203D01*
X016157Y061026D01*
X014673Y056979D02*
Y056703D01*
X014811D01*
X014857Y056749D01*
Y056933D01*
X014811Y056979D01*
X014673D01*
X015086D02*
X014994D01*
X014949Y056933D01*
Y056749D01*
X014994Y056703D01*
X015086D01*
X015132Y056749D01*
Y056933D01*
X015086Y056979D01*
X046846Y049992D02*
Y049717D01*
X046984D01*
X04703Y049762D01*
Y049946D01*
X046984Y049992D01*
X046846D01*
X047122Y049717D02*
X047214D01*
X047168D01*
Y049992D01*
X047122Y049946D01*
X043256Y056026D02*
Y055796D01*
X043302Y05575D01*
X043393D01*
X043439Y055796D01*
Y056026D01*
X043531Y05575D02*
X043623D01*
X043577D01*
Y056026D01*
X043531Y05598D01*
X041933Y048396D02*
Y048166D01*
X041979Y04812D01*
X042071D01*
X042117Y048166D01*
Y048396D01*
X042392Y04812D02*
X042208D01*
X042392Y048304D01*
Y04835D01*
X042346Y048396D01*
X042254D01*
X042208Y04835D01*
X026656Y06598D02*
X026839Y065796D01*
X026656D02*
X026839Y06598D01*
X026656Y065888D02*
X026839D01*
X026748Y065796D02*
Y06598D01*
X020882Y054585D02*
X020974D01*
X020928D01*
Y054309D01*
X020882D01*
X020974D01*
X021295Y054539D02*
X021249Y054585D01*
X021157D01*
X021111Y054539D01*
Y054355D01*
X021157Y054309D01*
X021249D01*
X021295Y054355D01*
X021387Y054309D02*
X021479D01*
X021433D01*
Y054585D01*
X021387Y054539D01*
X034799Y060949D02*
Y061224D01*
X034891Y061132D01*
X034983Y061224D01*
Y060949D01*
X035212Y061224D02*
X035121D01*
X035075Y061178D01*
Y060995D01*
X035121Y060949D01*
X035212D01*
X035258Y060995D01*
Y061178D01*
X035212Y061224D01*
X035534Y061178D02*
X035488Y061224D01*
X035396D01*
X03535Y061178D01*
Y061132D01*
X035396Y061087D01*
X035488D01*
X035534Y061041D01*
Y060995D01*
X035488Y060949D01*
X035396D01*
X03535Y060995D01*
X035626Y061224D02*
X035718D01*
X035672D01*
Y060949D01*
X035626D01*
X035718D01*
X035105Y062182D02*
X035059Y062228D01*
X034967D01*
X034921Y062182D01*
Y061999D01*
X034967Y061953D01*
X035059D01*
X035105Y061999D01*
Y062091D01*
X035013D01*
X035197Y061953D02*
Y062228D01*
X03538Y061953D01*
Y062228D01*
X035472D02*
Y061953D01*
X03561D01*
X035656Y061999D01*
Y062182D01*
X03561Y062228D01*
X035472D01*
X034665Y059909D02*
Y060185D01*
X034757Y060093D01*
X034849Y060185D01*
Y059909D01*
X034941Y060185D02*
X035033D01*
X034987D01*
Y059909D01*
X034941D01*
X035033D01*
X035354Y060139D02*
X035308Y060185D01*
X035216D01*
X03517Y060139D01*
Y060093D01*
X035216Y060047D01*
X035308D01*
X035354Y060001D01*
Y059955D01*
X035308Y059909D01*
X035216D01*
X03517Y059955D01*
X035584Y060185D02*
X035492D01*
X035446Y060139D01*
Y059955D01*
X035492Y059909D01*
X035584D01*
X03563Y059955D01*
Y060139D01*
X035584Y060185D01*
X022559Y060793D02*
X022605Y060838D01*
X022697D01*
X022743Y060793D01*
Y060747D01*
X022697Y060701D01*
X022651D01*
X022697D01*
X022743Y060655D01*
Y060609D01*
X022697Y060563D01*
X022605D01*
X022559Y060609D01*
X022835Y060563D02*
Y060609D01*
X02288D01*
Y060563D01*
X022835D01*
X023064Y060793D02*
X02311Y060838D01*
X023202D01*
X023248Y060793D01*
Y060747D01*
X023202Y060701D01*
X023156D01*
X023202D01*
X023248Y060655D01*
Y060609D01*
X023202Y060563D01*
X02311D01*
X023064Y060609D01*
X02334Y060838D02*
Y060655D01*
X023431Y060563D01*
X023523Y060655D01*
Y060838D01*
X039199Y055718D02*
X039153Y055764D01*
X039062D01*
X039016Y055718D01*
Y055672D01*
X039062Y055626D01*
X039153D01*
X039199Y05558D01*
Y055534D01*
X039153Y055488D01*
X039062D01*
X039016Y055534D01*
X039291Y055764D02*
Y055488D01*
X039429D01*
X039475Y055534D01*
Y055718D01*
X039429Y055764D01*
X039291D01*
X039567Y055488D02*
Y055672D01*
X039659Y055764D01*
X03975Y055672D01*
Y055488D01*
Y055626D01*
X039567D01*
X034912Y058907D02*
X034866Y058953D01*
X034774D01*
X034728Y058907D01*
Y058861D01*
X034774Y058815D01*
X034866D01*
X034912Y058769D01*
Y058723D01*
X034866Y058677D01*
X034774D01*
X034728Y058723D01*
X035188Y058907D02*
X035142Y058953D01*
X03505D01*
X035004Y058907D01*
Y058723D01*
X03505Y058677D01*
X035142D01*
X035188Y058723D01*
X035279Y058953D02*
Y058677D01*
Y058769D01*
X035463Y058953D01*
X035325Y058815D01*
X035463Y058677D01*
X035018Y058005D02*
X034972Y058051D01*
X034881D01*
X034835Y058005D01*
Y057822D01*
X034881Y057776D01*
X034972D01*
X035018Y057822D01*
X035294Y058005D02*
X035248Y058051D01*
X035156D01*
X03511Y058005D01*
Y057959D01*
X035156Y057913D01*
X035248D01*
X035294Y057867D01*
Y057822D01*
X035248Y057776D01*
X035156D01*
X03511Y057822D01*
X035106Y05561D02*
X03529D01*
X035198D01*
Y055335D01*
X035382Y05561D02*
X035565Y055335D01*
Y05561D02*
X035382Y055335D01*
X03511Y054504D02*
Y054779D01*
X035248D01*
X035294Y054734D01*
Y054642D01*
X035248Y054596D01*
X03511D01*
X035202D02*
X035294Y054504D01*
X035386Y054779D02*
X035569Y054504D01*
Y054779D02*
X035386Y054504D01*
X016787Y05472D02*
X016971D01*
X016879Y054812D02*
Y054629D01*
X01781Y05486D02*
X017764Y054905D01*
X017672D01*
X017626Y05486D01*
Y054676D01*
X017672Y05463D01*
X017764D01*
X01781Y054676D01*
Y054768D01*
X017718D01*
X017901Y05463D02*
Y054905D01*
X018085Y05463D01*
Y054905D01*
X018177D02*
Y05463D01*
X018315D01*
X018361Y054676D01*
Y05486D01*
X018315Y054905D01*
X018177D01*
X03918Y056655D02*
X039134Y056701D01*
X039042D01*
X038996Y056655D01*
Y056609D01*
X039042Y056563D01*
X039134D01*
X03918Y056517D01*
Y056471D01*
X039134Y056425D01*
X039042D01*
X038996Y056471D01*
X039455Y056655D02*
X039409Y056701D01*
X039317D01*
X039272Y056655D01*
Y056471D01*
X039317Y056425D01*
X039409D01*
X039455Y056471D01*
X039547Y056701D02*
Y056425D01*
X039731D01*
X022551Y05961D02*
X022735D01*
X022643Y059702D02*
Y059518D01*
X015791Y054626D02*
Y05481D01*
X015883Y054901D01*
X015975Y05481D01*
Y054626D01*
Y054764D01*
X015791D01*
X0377Y04042D02*
Y040696D01*
X037838D01*
X037884Y04065D01*
Y040558D01*
X037838Y040512D01*
X0377D01*
X037792D02*
X037884Y04042D01*
X037975Y040696D02*
X038159D01*
X038067D01*
Y04042D01*
X038435Y04065D02*
X038389Y040696D01*
X038297D01*
X038251Y04065D01*
Y040466D01*
X038297Y04042D01*
X038389D01*
X038435Y040466D01*
X01894Y0341D02*
Y034376D01*
X019078D01*
X019124Y03433D01*
Y034238D01*
X019078Y034192D01*
X01894D01*
X019353Y034376D02*
X019261D01*
X019216Y03433D01*
Y034146D01*
X019261Y0341D01*
X019353D01*
X019399Y034146D01*
Y03433D01*
X019353Y034376D01*
X019491D02*
Y0341D01*
X019583Y034192D01*
X019675Y0341D01*
Y034376D01*
X036583Y031878D02*
Y031648D01*
X036629Y031602D01*
X03672D01*
X036766Y031648D01*
Y031878D01*
X036858Y031602D02*
Y031878D01*
X036996D01*
X037042Y031832D01*
Y03174D01*
X036996Y031694D01*
X036858D01*
X037134Y031878D02*
Y031602D01*
X037317D01*
X037547Y031878D02*
X037455D01*
X037409Y031832D01*
Y031648D01*
X037455Y031602D01*
X037547D01*
X037593Y031648D01*
Y031832D01*
X037547Y031878D01*
X037685Y031602D02*
Y031786D01*
X037777Y031878D01*
X037868Y031786D01*
Y031602D01*
Y03174D01*
X037685D01*
X03796Y031878D02*
Y031602D01*
X038098D01*
X038144Y031648D01*
Y031832D01*
X038098Y031878D01*
X03796D01*
X014417Y037778D02*
X014601D01*
X014509D01*
Y037502D01*
X014693Y037778D02*
Y037502D01*
X01483D01*
X014876Y037548D01*
Y037732D01*
X01483Y037778D01*
X014693D01*
X015152Y037732D02*
X015106Y037778D01*
X015014D01*
X014968Y037732D01*
Y037686D01*
X015014Y03764D01*
X015106D01*
X015152Y037594D01*
Y037548D01*
X015106Y037502D01*
X015014D01*
X014968Y037548D01*
X035573Y035741D02*
X035528Y035787D01*
X035436D01*
X03539Y035741D01*
Y035695D01*
X035436Y03565D01*
X035528D01*
X035573Y035604D01*
Y035558D01*
X035528Y035512D01*
X035436D01*
X03539Y035558D01*
X035665Y035787D02*
X035757D01*
X035711D01*
Y035512D01*
X035665D01*
X035757D01*
X035895D02*
Y035787D01*
X035987Y035695D01*
X036079Y035787D01*
Y035512D01*
X03617Y035466D02*
X036354D01*
X036446Y035787D02*
Y035558D01*
X036492Y035512D01*
X036584D01*
X03663Y035558D01*
Y035787D01*
X036721Y035512D02*
Y035695D01*
X036813Y035787D01*
X036905Y035695D01*
Y035512D01*
Y03565D01*
X036721D01*
X036997Y035512D02*
Y035787D01*
X037135D01*
X037181Y035741D01*
Y03565D01*
X037135Y035604D01*
X036997D01*
X037089D02*
X037181Y035512D01*
X037272Y035787D02*
X037456D01*
X037364D01*
Y035512D01*
X03577Y045074D02*
X035724Y04512D01*
X035632D01*
X035586Y045074D01*
Y045028D01*
X035632Y044983D01*
X035724D01*
X03577Y044937D01*
Y044891D01*
X035724Y044845D01*
X035632D01*
X035586Y044891D01*
X035862Y04512D02*
Y044845D01*
X036D01*
X036046Y044891D01*
Y045074D01*
X036Y04512D01*
X035862D01*
X036597Y045074D02*
X036551Y04512D01*
X036459D01*
X036413Y045074D01*
Y044891D01*
X036459Y044845D01*
X036551D01*
X036597Y044891D01*
X036688Y044845D02*
Y045028D01*
X03678Y04512D01*
X036872Y045028D01*
Y044845D01*
Y044983D01*
X036688D01*
X036964Y044845D02*
Y04512D01*
X037102D01*
X037148Y045074D01*
Y044983D01*
X037102Y044937D01*
X036964D01*
X037056D02*
X037148Y044845D01*
X037239Y04512D02*
Y044845D01*
X037377D01*
X037423Y044891D01*
Y045074D01*
X037377Y04512D01*
X037239D01*
X033063Y03399D02*
Y034266D01*
X033201D01*
X033246Y03422D01*
Y034128D01*
X033201Y034082D01*
X033063D01*
X033155D02*
X033246Y03399D01*
X033338D02*
X03343D01*
X033384D01*
Y034266D01*
X033338Y03422D01*
X033706Y03399D02*
Y034266D01*
X033568Y034128D01*
X033752D01*
X032858Y031727D02*
Y032002D01*
X032996D01*
X033042Y031956D01*
Y031864D01*
X032996Y031819D01*
X032858D01*
X03295D02*
X033042Y031727D01*
X033134D02*
X033225D01*
X033179D01*
Y032002D01*
X033134Y031956D01*
X033363D02*
X033409Y032002D01*
X033501D01*
X033547Y031956D01*
Y03191D01*
X033501Y031864D01*
X033455D01*
X033501D01*
X033547Y031819D01*
Y031773D01*
X033501Y031727D01*
X033409D01*
X033363Y031773D01*
X02081Y03389D02*
Y034165D01*
X020948D01*
X020994Y03412D01*
Y034028D01*
X020948Y033982D01*
X02081D01*
X020902D02*
X020994Y03389D01*
X021086D02*
X021177D01*
X021131D01*
Y034165D01*
X021086Y03412D01*
X021499Y03389D02*
X021315D01*
X021499Y034074D01*
Y03412D01*
X021453Y034165D01*
X021361D01*
X021315Y03412D01*
X022177Y033975D02*
Y03425D01*
X022315D01*
X022361Y034204D01*
Y034112D01*
X022315Y034067D01*
X022177D01*
X022269D02*
X022361Y033975D01*
X022452D02*
X022544D01*
X022498D01*
Y03425D01*
X022452Y034204D01*
X022682Y033975D02*
X022774D01*
X022728D01*
Y03425D01*
X022682Y034204D01*
X025417Y033581D02*
X025142D01*
Y033719D01*
X025188Y033765D01*
X025279D01*
X025325Y033719D01*
Y033581D01*
Y033673D02*
X025417Y033765D01*
Y033857D02*
Y033948D01*
Y033902D01*
X025142D01*
X025188Y033857D01*
Y034086D02*
X025142Y034132D01*
Y034224D01*
X025188Y03427D01*
X025371D01*
X025417Y034224D01*
Y034132D01*
X025371Y034086D01*
X025188D01*
X031748Y033849D02*
X031472D01*
Y033986D01*
X031518Y034032D01*
X03161D01*
X031656Y033986D01*
Y033849D01*
Y033941D02*
X031748Y034032D01*
X031702Y034124D02*
X031748Y03417D01*
Y034262D01*
X031702Y034308D01*
X031518D01*
X031472Y034262D01*
Y03417D01*
X031518Y034124D01*
X031564D01*
X03161Y03417D01*
Y034308D01*
X029271Y033849D02*
X028996D01*
Y033986D01*
X029042Y034032D01*
X029134D01*
X02918Y033986D01*
Y033849D01*
Y033941D02*
X029271Y034032D01*
X029042Y034124D02*
X028996Y03417D01*
Y034262D01*
X029042Y034308D01*
X029088D01*
X029134Y034262D01*
X02918Y034308D01*
X029226D01*
X029271Y034262D01*
Y03417D01*
X029226Y034124D01*
X02918D01*
X029134Y03417D01*
X029088Y034124D01*
X029042D01*
X029134Y03417D02*
Y034262D01*
X028149Y033687D02*
X027874D01*
Y033825D01*
X02792Y033871D01*
X028012D01*
X028058Y033825D01*
Y033687D01*
Y033779D02*
X028149Y033871D01*
X027874Y033963D02*
Y034146D01*
X02792D01*
X028103Y033963D01*
X028149D01*
X036522Y034127D02*
Y034311D01*
X036476Y034357D01*
X036384D01*
X036338Y034311D01*
Y034127D01*
X036384Y034081D01*
X036476D01*
X03643Y034173D02*
X036522Y034081D01*
X036476D02*
X036522Y034127D01*
X036798Y034357D02*
X036614D01*
Y034219D01*
X036706Y034265D01*
X036752D01*
X036798Y034219D01*
Y034127D01*
X036752Y034081D01*
X03666D01*
X036614Y034127D01*
X033506Y032989D02*
Y033173D01*
X03346Y033219D01*
X033369D01*
X033323Y033173D01*
Y032989D01*
X033369Y032943D01*
X03346D01*
X033414Y033035D02*
X033506Y032943D01*
X03346D02*
X033506Y032989D01*
X033736Y032943D02*
Y033219D01*
X033598Y033081D01*
X033782D01*
X014689Y039698D02*
Y039973D01*
X014827D01*
X014872Y039927D01*
Y039836D01*
X014827Y03979D01*
X014689D01*
X014964Y040065D02*
Y03979D01*
Y039927D01*
X015148D01*
Y040065D01*
Y03979D01*
X020819Y030459D02*
Y030183D01*
X021002D01*
X021278D02*
X021094D01*
X021278Y030367D01*
Y030413D01*
X021232Y030459D01*
X02114D01*
X021094Y030413D01*
X022307Y030392D02*
Y030116D01*
X022491D01*
X022582D02*
X022674D01*
X022628D01*
Y030392D01*
X022582Y030346D01*
X020866Y036605D02*
X020958D01*
X020912D01*
Y036329D01*
X020866D01*
X020958D01*
X021279Y036559D02*
X021233Y036605D01*
X021141D01*
X021096Y036559D01*
Y036375D01*
X021141Y036329D01*
X021233D01*
X021279Y036375D01*
X021371Y036329D02*
X021463D01*
X021417D01*
Y036605D01*
X021371Y036559D01*
X014657Y038998D02*
Y038723D01*
X014795D01*
X014841Y038769D01*
Y038952D01*
X014795Y038998D01*
X014657D01*
X015071D02*
X014979D01*
X014933Y038952D01*
Y038769D01*
X014979Y038723D01*
X015071D01*
X015116Y038769D01*
Y038952D01*
X015071Y038998D01*
X019483Y043681D02*
X019437Y043727D01*
X019345D01*
X019299Y043681D01*
Y043497D01*
X019345Y043451D01*
X019437D01*
X019483Y043497D01*
X01962Y043451D02*
X019712D01*
X019758Y043497D01*
Y043589D01*
X019712Y043635D01*
X01962D01*
X019575Y043589D01*
Y043497D01*
X01962Y043451D01*
X01985D02*
Y043635D01*
X019988D01*
X020034Y043589D01*
Y043451D01*
X020126D02*
Y043635D01*
X020263D01*
X020309Y043589D01*
Y043451D01*
X020539D02*
X020447D01*
X020401Y043497D01*
Y043589D01*
X020447Y043635D01*
X020539D01*
X020585Y043589D01*
Y043543D01*
X020401D01*
X02086Y043635D02*
X020722D01*
X020677Y043589D01*
Y043497D01*
X020722Y043451D01*
X02086D01*
X020998Y043681D02*
Y043635D01*
X020952D01*
X021044D01*
X020998D01*
Y043497D01*
X021044Y043451D01*
X025114Y032547D02*
X025069Y032501D01*
Y032409D01*
X025114Y032363D01*
X025298D01*
X025344Y032409D01*
Y032501D01*
X025298Y032547D01*
X025114Y032639D02*
X025069Y032685D01*
Y032776D01*
X025114Y032822D01*
X02516D01*
X025206Y032776D01*
Y03273D01*
Y032776D01*
X025252Y032822D01*
X025298D01*
X025344Y032776D01*
Y032685D01*
X025298Y032639D01*
X029235Y03293D02*
X029189Y032884D01*
Y032792D01*
X029235Y032746D01*
X029418D01*
X029464Y032792D01*
Y032884D01*
X029418Y03293D01*
X029464Y033206D02*
Y033022D01*
X029281Y033206D01*
X029235D01*
X029189Y03316D01*
Y033068D01*
X029235Y033022D01*
X017964Y03401D02*
X017918Y034056D01*
X017826D01*
X01778Y03401D01*
Y033826D01*
X017826Y03378D01*
X017918D01*
X017964Y033826D01*
X018055Y03378D02*
X018147D01*
X018101D01*
Y034056D01*
X018055Y03401D01*
X026199Y030618D02*
X026016D01*
Y030343D01*
X026199D01*
X026016Y03048D02*
X026108D01*
X026291Y030343D02*
Y030618D01*
X026475Y030343D01*
Y030618D01*
X030043Y030653D02*
Y030378D01*
X030181D01*
X030227Y030424D01*
Y03047D01*
X030181Y030516D01*
X030043D01*
X030181D01*
X030227Y030562D01*
Y030608D01*
X030181Y030653D01*
X030043D01*
X030457D02*
X030365D01*
X030319Y030608D01*
Y030424D01*
X030365Y030378D01*
X030457D01*
X030502Y030424D01*
Y030608D01*
X030457Y030653D01*
X030732D02*
X03064D01*
X030594Y030608D01*
Y030424D01*
X03064Y030378D01*
X030732D01*
X030778Y030424D01*
Y030608D01*
X030732Y030653D01*
X03087D02*
X031053D01*
X030962D01*
Y030378D01*
X02664Y048D02*
X026824Y047816D01*
X02664D02*
X026824Y048D01*
X02664Y047908D02*
X026824D01*
X026732Y047816D02*
Y048D01*
X014047Y041457D02*
X014231D01*
X014139D01*
Y041181D01*
X014506Y041457D02*
X014323D01*
Y041181D01*
X014506D01*
X014323Y041319D02*
X014415D01*
X014598Y041181D02*
Y041457D01*
X01469Y041365D01*
X014782Y041457D01*
Y041181D01*
X014874D02*
Y041457D01*
X015012D01*
X015057Y041411D01*
Y041319D01*
X015012Y041273D01*
X014874D01*
X038581Y033129D02*
X038535Y033175D01*
X038443D01*
X038397Y033129D01*
Y032946D01*
X038443Y0329D01*
X038535D01*
X038581Y032946D01*
X038811Y0329D02*
Y033175D01*
X038673Y033038D01*
X038857D01*
X038491Y03224D02*
X038445Y032286D01*
X038353D01*
X038307Y03224D01*
Y032056D01*
X038353Y03201D01*
X038445D01*
X038491Y032056D01*
X038766Y032286D02*
X038582D01*
Y032148D01*
X038674Y032194D01*
X03872D01*
X038766Y032148D01*
Y032056D01*
X03872Y03201D01*
X038628D01*
X038582Y032056D01*
X046831Y032012D02*
Y031736D01*
X046968D01*
X047014Y031782D01*
Y031966D01*
X046968Y032012D01*
X046831D01*
X047106Y031736D02*
X047198D01*
X047152D01*
Y032012D01*
X047106Y031966D01*
X040433Y029689D02*
X040709D01*
Y029873D01*
X040479Y029964D02*
X040433Y03001D01*
Y030102D01*
X040479Y030148D01*
X040525D01*
X040571Y030102D01*
Y030056D01*
Y030102D01*
X040617Y030148D01*
X040663D01*
X040709Y030102D01*
Y03001D01*
X040663Y029964D01*
X04104Y03768D02*
Y037956D01*
X041178D01*
X041224Y03791D01*
Y037818D01*
X041178Y037772D01*
X04104D01*
X041132D02*
X041224Y03768D01*
X041315D02*
X041407D01*
X041361D01*
Y037956D01*
X041315Y03791D01*
X041729Y037956D02*
X041545D01*
Y037818D01*
X041637Y037864D01*
X041683D01*
X041729Y037818D01*
Y037726D01*
X041683Y03768D01*
X041591D01*
X041545Y037726D01*
X04573Y03761D02*
Y037885D01*
X045868D01*
X045914Y03784D01*
Y037748D01*
X045868Y037702D01*
X04573D01*
X045822D02*
X045914Y03761D01*
X046006D02*
X046097D01*
X046051D01*
Y037885D01*
X046006Y03784D01*
X046419Y037885D02*
X046327Y03784D01*
X046235Y037748D01*
Y037656D01*
X046281Y03761D01*
X046373D01*
X046419Y037656D01*
Y037702D01*
X046373Y037748D01*
X046235D01*
X047622Y034091D02*
Y034366D01*
X04776D01*
X047806Y03432D01*
Y034228D01*
X04776Y034182D01*
X047622D01*
X047714D02*
X047806Y034091D01*
X047898D02*
X047989D01*
X047943D01*
Y034366D01*
X047898Y03432D01*
X048127Y034366D02*
X048311D01*
Y03432D01*
X048127Y034136D01*
Y034091D01*
X039839Y029504D02*
X039563D01*
Y029642D01*
X039609Y029688D01*
X039701D01*
X039747Y029642D01*
Y029504D01*
Y029596D02*
X039839Y029688D01*
Y029779D02*
Y029871D01*
Y029825D01*
X039563D01*
X039609Y029779D01*
Y030009D02*
X039563Y030055D01*
Y030147D01*
X039609Y030193D01*
X039655D01*
X039701Y030147D01*
X039747Y030193D01*
X039793D01*
X039839Y030147D01*
Y030055D01*
X039793Y030009D01*
X039747D01*
X039701Y030055D01*
X039655Y030009D01*
X039609D01*
X039701Y030055D02*
Y030147D01*
X04324Y038045D02*
Y037816D01*
X043286Y03777D01*
X043378D01*
X043424Y037816D01*
Y038045D01*
X043515Y03777D02*
X043607D01*
X043561D01*
Y038045D01*
X043515Y038D01*
X041917Y030416D02*
Y030186D01*
X041963Y03014D01*
X042055D01*
X042101Y030186D01*
Y030416D01*
X042376Y03014D02*
X042193D01*
X042376Y030324D01*
Y03037D01*
X04233Y030416D01*
X042239D01*
X042193Y03037D01*
X040394Y040402D02*
Y040677D01*
X040531D01*
X040577Y040631D01*
Y040539D01*
X040531Y040493D01*
X040394D01*
X040486D02*
X040577Y040402D01*
X040669D02*
X040761D01*
X040715D01*
Y040677D01*
X040669Y040631D01*
X040899Y040447D02*
X040945Y040402D01*
X041037D01*
X041082Y040447D01*
Y040631D01*
X041037Y040677D01*
X040945D01*
X040899Y040631D01*
Y040585D01*
X040945Y040539D01*
X041082D01*
X040319Y04122D02*
Y041496D01*
X040457D01*
X040503Y04145D01*
Y041358D01*
X040457Y041312D01*
X040319D01*
X040411D02*
X040503Y04122D01*
X040778D02*
X040594D01*
X040778Y041404D01*
Y04145D01*
X040732Y041496D01*
X04064D01*
X040594Y04145D01*
X04087D02*
X040916Y041496D01*
X041008D01*
X041054Y04145D01*
Y041266D01*
X041008Y04122D01*
X040916D01*
X04087Y041266D01*
Y04145D01*
X040406Y042055D02*
Y042331D01*
X040543D01*
X040589Y042285D01*
Y042193D01*
X040543Y042147D01*
X040406D01*
X040497D02*
X040589Y042055D01*
X040865D02*
X040681D01*
X040865Y042239D01*
Y042285D01*
X040819Y042331D01*
X040727D01*
X040681Y042285D01*
X040957Y042055D02*
X041048D01*
X041002D01*
Y042331D01*
X040957Y042285D01*
X040307Y042846D02*
Y043122D01*
X040445D01*
X040491Y043076D01*
Y042984D01*
X040445Y042938D01*
X040307D01*
X040399D02*
X040491Y042846D01*
X040766D02*
X040583D01*
X040766Y04303D01*
Y043076D01*
X04072Y043122D01*
X040629D01*
X040583Y043076D01*
X041042Y042846D02*
X040858D01*
X041042Y04303D01*
Y043076D01*
X040996Y043122D01*
X040904D01*
X040858Y043076D01*
X01559Y043D02*
Y043275D01*
X015728D01*
X015774Y04323D01*
Y043138D01*
X015728Y043092D01*
X01559D01*
X015682D02*
X015774Y043D01*
X016049D02*
X015865D01*
X016049Y043184D01*
Y04323D01*
X016003Y043275D01*
X015911D01*
X015865Y04323D01*
X016141D02*
X016187Y043275D01*
X016279D01*
X016325Y04323D01*
Y043184D01*
X016279Y043138D01*
X016233D01*
X016279D01*
X016325Y043092D01*
Y043046D01*
X016279Y043D01*
X016187D01*
X016141Y043046D01*
X034896Y040926D02*
X03485Y040972D01*
X034759D01*
X034713Y040926D01*
Y040881D01*
X034759Y040835D01*
X03485D01*
X034896Y040789D01*
Y040743D01*
X03485Y040697D01*
X034759D01*
X034713Y040743D01*
X035172Y040926D02*
X035126Y040972D01*
X035034D01*
X034988Y040926D01*
Y040743D01*
X035034Y040697D01*
X035126D01*
X035172Y040743D01*
X035264Y040972D02*
Y040697D01*
Y040789D01*
X035447Y040972D01*
X03531Y040835D01*
X035447Y040697D01*
X035003Y040025D02*
X034957Y040071D01*
X034865D01*
X034819Y040025D01*
Y039841D01*
X034865Y039795D01*
X034957D01*
X035003Y039841D01*
X035278Y040025D02*
X035232Y040071D01*
X03514D01*
X035094Y040025D01*
Y039979D01*
X03514Y039933D01*
X035232D01*
X035278Y039887D01*
Y039841D01*
X035232Y039795D01*
X03514D01*
X035094Y039841D01*
X03465Y041929D02*
Y042205D01*
X034741Y042113D01*
X034833Y042205D01*
Y041929D01*
X034925Y042205D02*
X035017D01*
X034971D01*
Y041929D01*
X034925D01*
X035017D01*
X035338Y042159D02*
X035292Y042205D01*
X035201D01*
X035155Y042159D01*
Y042113D01*
X035201Y042067D01*
X035292D01*
X035338Y042021D01*
Y041975D01*
X035292Y041929D01*
X035201D01*
X035155Y041975D01*
X035568Y042205D02*
X035476D01*
X03543Y042159D01*
Y041975D01*
X035476Y041929D01*
X035568D01*
X035614Y041975D01*
Y042159D01*
X035568Y042205D01*
X034783Y042969D02*
Y043244D01*
X034875Y043152D01*
X034967Y043244D01*
Y042969D01*
X035197Y043244D02*
X035105D01*
X035059Y043198D01*
Y043014D01*
X035105Y042969D01*
X035197D01*
X035243Y043014D01*
Y043198D01*
X035197Y043244D01*
X035518Y043198D02*
X035472Y043244D01*
X03538D01*
X035334Y043198D01*
Y043152D01*
X03538Y043106D01*
X035472D01*
X035518Y04306D01*
Y043014D01*
X035472Y042969D01*
X03538D01*
X035334Y043014D01*
X03561Y043244D02*
X035702D01*
X035656D01*
Y042969D01*
X03561D01*
X035702D01*
X035091Y03763D02*
X035274D01*
X035182D01*
Y037354D01*
X035366Y03763D02*
X03555Y037354D01*
Y03763D02*
X035366Y037354D01*
X039184Y037737D02*
X039138Y037783D01*
X039046D01*
X039Y037737D01*
Y037692D01*
X039046Y037646D01*
X039138D01*
X039184Y0376D01*
Y037554D01*
X039138Y037508D01*
X039046D01*
X039Y037554D01*
X039276Y037783D02*
Y037508D01*
X039413D01*
X039459Y037554D01*
Y037737D01*
X039413Y037783D01*
X039276D01*
X039551Y037508D02*
Y037692D01*
X039643Y037783D01*
X039735Y037692D01*
Y037508D01*
Y037646D01*
X039551D01*
X039164Y038674D02*
X039118Y03872D01*
X039026D01*
X03898Y038674D01*
Y038629D01*
X039026Y038583D01*
X039118D01*
X039164Y038537D01*
Y038491D01*
X039118Y038445D01*
X039026D01*
X03898Y038491D01*
X039439Y038674D02*
X039394Y03872D01*
X039302D01*
X039256Y038674D01*
Y038491D01*
X039302Y038445D01*
X039394D01*
X039439Y038491D01*
X039531Y03872D02*
Y038445D01*
X039715D01*
X015776Y036646D02*
Y036829D01*
X015867Y036921D01*
X015959Y036829D01*
Y036646D01*
Y036783D01*
X015776D01*
X016772Y03674D02*
X016955D01*
X016863Y036832D02*
Y036648D01*
X035094Y036524D02*
Y036799D01*
X035232D01*
X035278Y036753D01*
Y036661D01*
X035232Y036615D01*
X035094D01*
X035186D02*
X035278Y036524D01*
X03537Y036799D02*
X035554Y036524D01*
Y036799D02*
X03537Y036524D01*
X035089Y044202D02*
X035043Y044248D01*
X034951D01*
X034906Y044202D01*
Y044018D01*
X034951Y043972D01*
X035043D01*
X035089Y044018D01*
Y04411D01*
X034997D01*
X035181Y043972D02*
Y044248D01*
X035365Y043972D01*
Y044248D01*
X035457D02*
Y043972D01*
X035594D01*
X03564Y044018D01*
Y044202D01*
X035594Y044248D01*
X035457D01*
X017794Y036879D02*
X017748Y036925D01*
X017656D01*
X01761Y036879D01*
Y036696D01*
X017656Y03665D01*
X017748D01*
X017794Y036696D01*
Y036787D01*
X017702D01*
X017886Y03665D02*
Y036925D01*
X018069Y03665D01*
Y036925D01*
X018161D02*
Y03665D01*
X018299D01*
X018345Y036696D01*
Y036879D01*
X018299Y036925D01*
X018161D01*
X022535Y04163D02*
X022719D01*
X022627Y041722D02*
Y041538D01*
X022543Y042812D02*
X022589Y042858D01*
X022681D01*
X022727Y042812D01*
Y042766D01*
X022681Y04272D01*
X022635D01*
X022681D01*
X022727Y042675D01*
Y042629D01*
X022681Y042583D01*
X022589D01*
X022543Y042629D01*
X022819Y042583D02*
Y042629D01*
X022865D01*
Y042583D01*
X022819D01*
X023048Y042812D02*
X023094Y042858D01*
X023186D01*
X023232Y042812D01*
Y042766D01*
X023186Y04272D01*
X02314D01*
X023186D01*
X023232Y042675D01*
Y042629D01*
X023186Y042583D01*
X023094D01*
X023048Y042629D01*
X023324Y042858D02*
Y042675D01*
X023416Y042583D01*
X023508Y042675D01*
Y042858D01*
D48*
X030586Y049597D02*
D03*
X026716Y049597D02*
D03*
X030571Y031616D02*
D03*
X026701Y031616D02*
D03*
D49*
X047008Y052014D02*
D03*
X046992Y034034D02*
D03*
M02*
