G04 Layer_Color=255*
%FSTAX24Y24*%
%MOIN*%
G70*
G01*
G75*
%ADD28R,0.0630X0.0630*%
%ADD29C,0.0630*%
%ADD30R,0.0630X0.0630*%
%ADD31C,0.0118*%
%ADD32C,0.1575*%
%ADD33C,0.0157*%
%ADD36R,0.0984X0.0984*%
%ADD37R,0.0709X0.0315*%
%ADD38R,0.0787X0.0630*%
%ADD39R,0.0551X0.0787*%
D28*
X03633Y057939D02*
D03*
X03822Y057618D02*
D03*
X036425Y054581D02*
D03*
X019453Y051298D02*
D03*
X019437Y033317D02*
D03*
X038205Y039638D02*
D03*
X036315Y039959D02*
D03*
X036409Y036601D02*
D03*
D29*
X03633Y058939D02*
D03*
Y059939D02*
D03*
Y060939D02*
D03*
Y061939D02*
D03*
X03822Y056618D02*
D03*
Y055618D02*
D03*
X036425Y055581D02*
D03*
Y056581D02*
D03*
X019453Y050298D02*
D03*
Y049298D02*
D03*
X033224Y048904D02*
D03*
X034224D02*
D03*
X035224D02*
D03*
X036224D02*
D03*
X037224D02*
D03*
X019791Y060731D02*
D03*
X020791D02*
D03*
X019791Y059731D02*
D03*
X020791D02*
D03*
X021791D02*
D03*
X016783Y059239D02*
D03*
X016901Y055632D02*
D03*
X017901D02*
D03*
X016913Y057896D02*
D03*
X017913D02*
D03*
X016921Y056754D02*
D03*
X017921D02*
D03*
X019437Y031317D02*
D03*
Y032317D02*
D03*
X038205Y037638D02*
D03*
Y038638D02*
D03*
X036315Y043959D02*
D03*
Y042959D02*
D03*
Y041959D02*
D03*
Y040959D02*
D03*
X036409Y038601D02*
D03*
Y037601D02*
D03*
X017886Y037652D02*
D03*
X016886D02*
D03*
X016767Y041258D02*
D03*
X037208Y030924D02*
D03*
X036208D02*
D03*
X035208D02*
D03*
X034208D02*
D03*
X033208D02*
D03*
X021775Y04175D02*
D03*
X020775D02*
D03*
X019775D02*
D03*
X020775Y04275D02*
D03*
X019775D02*
D03*
X017905Y038774D02*
D03*
X016905D02*
D03*
X017897Y039916D02*
D03*
X016897D02*
D03*
D30*
X038224Y048904D02*
D03*
X021791Y060731D02*
D03*
X015783Y059239D02*
D03*
X015901Y055632D02*
D03*
X015913Y057896D02*
D03*
X015921Y056754D02*
D03*
X015886Y037652D02*
D03*
X015768Y041258D02*
D03*
X038208Y030924D02*
D03*
X021775Y04275D02*
D03*
X015905Y038774D02*
D03*
X015897Y039916D02*
D03*
D31*
X029878Y060266D02*
D03*
X0306D02*
D03*
X029517Y059905D02*
D03*
X030239D02*
D03*
X030962D02*
D03*
X029878Y059544D02*
D03*
X0306D02*
D03*
X029517Y059183D02*
D03*
X030239D02*
D03*
X030962D02*
D03*
X029878Y058821D02*
D03*
X0306D02*
D03*
X030585Y040841D02*
D03*
X029862D02*
D03*
X030946Y041202D02*
D03*
X030223D02*
D03*
X029501D02*
D03*
X030585Y041564D02*
D03*
X029862D02*
D03*
X030946Y041925D02*
D03*
X030223D02*
D03*
X029501D02*
D03*
X030585Y042286D02*
D03*
X029862D02*
D03*
D32*
X048146Y062854D02*
D03*
X048441Y048161D02*
D03*
X014508Y062988D02*
D03*
X014965Y048346D02*
D03*
X014492Y045008D02*
D03*
X048425Y030181D02*
D03*
X04813Y044874D02*
D03*
X014949Y030366D02*
D03*
D33*
X017677Y04663D02*
D03*
X017476D02*
D03*
X017311Y046634D02*
D03*
X017142D02*
D03*
X016976Y046642D02*
D03*
X016807D02*
D03*
X016646D02*
D03*
X016476Y04665D02*
D03*
X016311Y046642D02*
D03*
X016142Y046638D02*
D03*
X015972D02*
D03*
X014638Y04665D02*
D03*
X014815Y046638D02*
D03*
X014992D02*
D03*
D36*
X044126Y048132D02*
D03*
Y054904D02*
D03*
X04411Y036924D02*
D03*
Y030152D02*
D03*
D37*
X043925Y058323D02*
D03*
Y061354D02*
D03*
Y060921D02*
D03*
X044004Y060488D02*
D03*
X043925Y060055D02*
D03*
X044004Y059622D02*
D03*
X043768Y058756D02*
D03*
X043925Y059189D02*
D03*
X043909Y041209D02*
D03*
X043752Y040776D02*
D03*
X043988Y041642D02*
D03*
X043909Y042075D02*
D03*
X043988Y042508D02*
D03*
X043909Y042941D02*
D03*
Y043374D02*
D03*
Y040343D02*
D03*
D38*
X045047Y061693D02*
D03*
X045441Y056508D02*
D03*
X045425Y038528D02*
D03*
X045031Y043713D02*
D03*
D39*
X039882Y058791D02*
D03*
Y061035D02*
D03*
X039866Y043055D02*
D03*
Y040811D02*
D03*
M02*
