G04 Layer_Color=16711935*
%FSTAX24Y24*%
%MOIN*%
G70*
G01*
G75*
%ADD40C,0.0079*%
%ADD44C,0.0050*%
%ADD47C,0.0039*%
D40*
X026735Y062493D02*
G03*
X026735Y062493I-000039J0D01*
G01*
X026719Y044512D02*
G03*
X026719Y044512I-000039J0D01*
G01*
D44*
X02709Y065445D02*
X034176D01*
Y062965D02*
Y065445D01*
Y055406D02*
Y062965D01*
X02709Y055406D02*
X034176D01*
X02709D02*
Y062965D01*
Y065445D01*
Y062965D02*
X034176D01*
X027074Y044985D02*
X03416D01*
X027074D02*
Y047465D01*
Y037426D02*
Y044985D01*
Y037426D02*
X03416D01*
Y044985D01*
Y047465D01*
X027074D02*
X03416D01*
D47*
X043043Y052778D02*
G03*
X043043Y052778I-000197J0D01*
G01*
X020468Y058349D02*
G03*
X020468Y058349I-000197J0D01*
G01*
X043027Y034798D02*
G03*
X043027Y034798I-000197J0D01*
G01*
X020453Y040368D02*
G03*
X020453Y040368I-000197J0D01*
G01*
X046673Y050292D02*
X047342D01*
Y051965D01*
X046673D02*
X047342D01*
X046673Y050292D02*
Y051965D01*
X043244Y053471D02*
X044661D01*
X043244Y055396D02*
X044661D01*
Y053471D02*
Y055396D01*
X043244Y053471D02*
Y055396D01*
X023771Y055884D02*
Y057105D01*
X024244D01*
Y055884D02*
Y057105D01*
X023771Y055884D02*
X024244D01*
X023791Y05749D02*
Y058711D01*
X024264D01*
Y05749D02*
Y058711D01*
X023791Y05749D02*
X024264D01*
X023756Y054317D02*
Y055538D01*
X024228D01*
Y054317D02*
Y055538D01*
X023756Y054317D02*
X024228D01*
X042492Y049077D02*
Y053132D01*
X045445Y049077D02*
Y053132D01*
X042492D02*
X045445D01*
X042492Y049077D02*
X045445D01*
X019917Y054805D02*
Y058703D01*
X021453Y054805D02*
Y058703D01*
X019917D02*
X021453D01*
X019917Y054805D02*
X021453D01*
X023775Y03951D02*
X024248D01*
Y040731D01*
X023775D02*
X024248D01*
X023775Y03951D02*
Y040731D01*
X023756Y037904D02*
X024228D01*
Y039124D01*
X023756D02*
X024228D01*
X023756Y037904D02*
Y039124D01*
X02374Y036337D02*
X024212D01*
Y037557D01*
X02374D02*
X024212D01*
X02374Y036337D02*
Y037557D01*
X043228Y03549D02*
Y037416D01*
X044645Y03549D02*
Y037416D01*
X043228D02*
X044645D01*
X043228Y03549D02*
X044645D01*
X042476Y031097D02*
X045429D01*
X042476Y035152D02*
X045429D01*
Y031097D02*
Y035152D01*
X042476Y031097D02*
Y035152D01*
X046657Y032311D02*
Y033985D01*
X047327D01*
Y032311D02*
Y033985D01*
X046657Y032311D02*
X047327D01*
X019901Y036825D02*
X021437D01*
X019901Y040723D02*
X021437D01*
Y036825D02*
Y040723D01*
X019901Y036825D02*
Y040723D01*
X028271Y063969D02*
Y064153D01*
X028362Y064245D01*
X028454Y064153D01*
Y063969D01*
Y064107D01*
X028271D01*
X028546Y063969D02*
Y064245D01*
X02873Y063969D01*
Y064245D01*
X028822D02*
X029005D01*
X028913D01*
Y063969D01*
X029281Y064245D02*
X029097D01*
Y063969D01*
X029281D01*
X029097Y064107D02*
X029189D01*
X029373Y063969D02*
Y064245D01*
X029556Y063969D01*
Y064245D01*
X029648Y063969D02*
Y064245D01*
X029832Y063969D01*
Y064245D01*
X029924Y063969D02*
Y064153D01*
X030015Y064245D01*
X030107Y064153D01*
Y063969D01*
Y064107D01*
X029924D01*
X028255Y045989D02*
Y046172D01*
X028347Y046264D01*
X028439Y046172D01*
Y045989D01*
Y046126D01*
X028255D01*
X02853Y045989D02*
Y046264D01*
X028714Y045989D01*
Y046264D01*
X028806D02*
X02899D01*
X028898D01*
Y045989D01*
X029265Y046264D02*
X029081D01*
Y045989D01*
X029265D01*
X029081Y046126D02*
X029173D01*
X029357Y045989D02*
Y046264D01*
X029541Y045989D01*
Y046264D01*
X029632Y045989D02*
Y046264D01*
X029816Y045989D01*
Y046264D01*
X029908Y045989D02*
Y046172D01*
X03Y046264D01*
X030092Y046172D01*
Y045989D01*
Y046126D01*
X029908D01*
M02*
