G04*
G04 #@! TF.GenerationSoftware,Altium Limited,Altium Designer,21.2.1 (34)*
G04*
G04 Layer_Color=8421504*
%FSTAX24Y24*%
%MOIN*%
G70*
G04*
G04 #@! TF.SameCoordinates,4836809B-9F31-4557-A587-2B421E0CA4AD*
G04*
G04*
G04 #@! TF.FilePolarity,Positive*
G04*
G01*
G75*
%ADD20O,0.0787X0.0217*%
%ADD21R,0.0591X0.0984*%
%ADD22R,0.0551X0.0472*%
%ADD23R,0.0524X0.0524*%
%ADD24R,0.0787X0.0354*%
%ADD25R,0.0354X0.0787*%
%ADD26R,0.0472X0.0315*%
%ADD27R,0.0472X0.0551*%
%ADD28R,0.0551X0.0394*%
%ADD29R,0.0550X0.0500*%
%ADD30R,0.0354X0.0276*%
%ADD31R,0.0374X0.0354*%
%ADD32R,0.0394X0.0457*%
%ADD33R,0.0394X0.0200*%
%ADD34O,0.0709X0.0236*%
%ADD35O,0.0800X0.0217*%
D20*
X021732Y037024D02*
D03*
Y037524D02*
D03*
Y038024D02*
D03*
Y038524D02*
D03*
Y039024D02*
D03*
Y039524D02*
D03*
Y040024D02*
D03*
Y040524D02*
D03*
X019606Y037024D02*
D03*
Y037524D02*
D03*
Y038024D02*
D03*
Y038524D02*
D03*
Y039024D02*
D03*
Y039524D02*
D03*
Y040024D02*
D03*
Y040524D02*
D03*
X021748Y055004D02*
D03*
Y055504D02*
D03*
Y056004D02*
D03*
Y056504D02*
D03*
Y057004D02*
D03*
Y057504D02*
D03*
Y058004D02*
D03*
Y058504D02*
D03*
X019622Y055004D02*
D03*
Y055504D02*
D03*
Y056004D02*
D03*
Y056504D02*
D03*
Y057004D02*
D03*
Y057504D02*
D03*
Y058004D02*
D03*
Y058504D02*
D03*
D21*
X018189Y032738D02*
D03*
Y0314D02*
D03*
X018205Y050719D02*
D03*
Y04938D02*
D03*
D22*
X021181Y050524D02*
D03*
Y051272D02*
D03*
X02522Y058489D02*
D03*
Y057741D02*
D03*
X022894Y057807D02*
D03*
Y058555D02*
D03*
X02522Y056871D02*
D03*
Y056123D02*
D03*
X022925Y056213D02*
D03*
Y056961D02*
D03*
X02524Y055292D02*
D03*
Y054544D02*
D03*
X022885Y055308D02*
D03*
Y05456D02*
D03*
X026964Y052544D02*
D03*
Y051796D02*
D03*
X030059Y052441D02*
D03*
Y051693D02*
D03*
X030933Y051681D02*
D03*
Y052429D02*
D03*
X026051Y051831D02*
D03*
Y052579D02*
D03*
X022452Y051327D02*
D03*
Y050579D02*
D03*
X047866Y05075D02*
D03*
Y051498D02*
D03*
X039815Y049483D02*
D03*
Y048735D02*
D03*
X030917Y034449D02*
D03*
Y033701D02*
D03*
X030043Y033713D02*
D03*
Y034461D02*
D03*
X026948Y033816D02*
D03*
Y034564D02*
D03*
X02287Y036579D02*
D03*
Y037327D02*
D03*
X025224Y036564D02*
D03*
Y037312D02*
D03*
X02291Y03898D02*
D03*
Y038232D02*
D03*
X025204Y038142D02*
D03*
Y03889D02*
D03*
X022878Y040575D02*
D03*
Y039827D02*
D03*
X039799Y030754D02*
D03*
Y031502D02*
D03*
X04785Y033518D02*
D03*
Y03277D02*
D03*
X021165Y032544D02*
D03*
Y033292D02*
D03*
X022436Y032599D02*
D03*
Y033347D02*
D03*
X026036Y034599D02*
D03*
Y03385D02*
D03*
X025204Y03976D02*
D03*
Y040508D02*
D03*
D23*
X030962Y058821D02*
D03*
X030239D02*
D03*
X029517D02*
D03*
X030962Y059544D02*
D03*
X030239D02*
D03*
X029517D02*
D03*
X030962Y060266D02*
D03*
X030239D02*
D03*
X029517D02*
D03*
X029501Y042286D02*
D03*
X030223D02*
D03*
X030946D02*
D03*
X029501Y041564D02*
D03*
X030223D02*
D03*
X030946D02*
D03*
X029501Y040841D02*
D03*
X030223D02*
D03*
X030946D02*
D03*
D24*
X033979Y062497D02*
D03*
Y061997D02*
D03*
Y061497D02*
D03*
Y060997D02*
D03*
Y060497D02*
D03*
Y059997D02*
D03*
Y059497D02*
D03*
Y058997D02*
D03*
Y058497D02*
D03*
Y057997D02*
D03*
Y057497D02*
D03*
Y056997D02*
D03*
Y056497D02*
D03*
Y055997D02*
D03*
X027286D02*
D03*
Y056497D02*
D03*
Y056997D02*
D03*
Y057497D02*
D03*
Y057997D02*
D03*
Y058497D02*
D03*
Y058997D02*
D03*
Y059497D02*
D03*
Y059997D02*
D03*
Y060497D02*
D03*
Y060997D02*
D03*
Y061497D02*
D03*
Y061997D02*
D03*
Y062497D02*
D03*
X027271Y044516D02*
D03*
Y044016D02*
D03*
Y043516D02*
D03*
Y043016D02*
D03*
Y042516D02*
D03*
Y042016D02*
D03*
Y041516D02*
D03*
Y041016D02*
D03*
Y040516D02*
D03*
Y040016D02*
D03*
Y039516D02*
D03*
Y039016D02*
D03*
Y038516D02*
D03*
Y038016D02*
D03*
X033964D02*
D03*
Y038516D02*
D03*
Y039016D02*
D03*
Y039516D02*
D03*
Y040016D02*
D03*
Y040516D02*
D03*
Y041016D02*
D03*
Y041516D02*
D03*
Y042016D02*
D03*
Y042516D02*
D03*
Y043016D02*
D03*
Y043516D02*
D03*
Y044016D02*
D03*
Y044516D02*
D03*
D25*
X032883Y055603D02*
D03*
X032383D02*
D03*
X031883D02*
D03*
X031383D02*
D03*
X030883D02*
D03*
X030383D02*
D03*
X029883D02*
D03*
X029383D02*
D03*
X028883D02*
D03*
X028383D02*
D03*
X028367Y037623D02*
D03*
X028867D02*
D03*
X029367D02*
D03*
X029867D02*
D03*
X030367D02*
D03*
X030867D02*
D03*
X031367D02*
D03*
X031867D02*
D03*
X032367D02*
D03*
X032867D02*
D03*
D26*
X029208Y049597D02*
D03*
X031964D02*
D03*
X028094D02*
D03*
X025338D02*
D03*
X025323Y031616D02*
D03*
X028079D02*
D03*
X031949D02*
D03*
X029193D02*
D03*
D27*
X030144Y050866D02*
D03*
X030892D02*
D03*
X026777Y050918D02*
D03*
X026029D02*
D03*
X039862Y051211D02*
D03*
X04061D02*
D03*
X039862Y0504D02*
D03*
X04061D02*
D03*
X035683Y05007D02*
D03*
X034935D02*
D03*
X035719Y052227D02*
D03*
X034971D02*
D03*
X041577Y058516D02*
D03*
X042325D02*
D03*
X041579Y059315D02*
D03*
X042327D02*
D03*
X041561Y060118D02*
D03*
X042309D02*
D03*
X041561Y060918D02*
D03*
X042309D02*
D03*
X016675Y06035D02*
D03*
X015927D02*
D03*
X016659Y04237D02*
D03*
X015911D02*
D03*
X040594Y03242D02*
D03*
X039846D02*
D03*
X040594Y033231D02*
D03*
X039846D02*
D03*
X026013Y032938D02*
D03*
X026761D02*
D03*
X030876Y032885D02*
D03*
X030128D02*
D03*
X042294Y042937D02*
D03*
X041546D02*
D03*
X042294Y042138D02*
D03*
X041546D02*
D03*
X042311Y041335D02*
D03*
X041563D02*
D03*
X042309Y040536D02*
D03*
X041561D02*
D03*
X034955Y034247D02*
D03*
X035703D02*
D03*
X034919Y032089D02*
D03*
X035667D02*
D03*
D28*
X047008Y050548D02*
D03*
Y051709D02*
D03*
X046992Y033729D02*
D03*
Y032567D02*
D03*
D29*
X0225Y049804D02*
D03*
Y048904D02*
D03*
X021173Y049808D02*
D03*
Y048908D02*
D03*
X040653Y049589D02*
D03*
Y048689D02*
D03*
X040638Y030709D02*
D03*
Y031609D02*
D03*
X021157Y030927D02*
D03*
Y031827D02*
D03*
X022484Y030924D02*
D03*
Y031824D02*
D03*
D30*
X023575Y058101D02*
D03*
X02448Y057727D02*
D03*
Y058475D02*
D03*
X023555Y056494D02*
D03*
X02446Y05612D02*
D03*
Y056868D02*
D03*
X023539Y054927D02*
D03*
X024445Y054553D02*
D03*
Y055301D02*
D03*
X024429Y037321D02*
D03*
Y036573D02*
D03*
X023523Y036947D02*
D03*
X024445Y038888D02*
D03*
Y03814D02*
D03*
X023539Y038514D02*
D03*
X024464Y040494D02*
D03*
Y039746D02*
D03*
X023559Y04012D02*
D03*
D31*
X034082Y051538D02*
D03*
X035067Y051164D02*
D03*
X034082Y05079D02*
D03*
X036693Y050805D02*
D03*
X035708Y051179D02*
D03*
X036693Y051553D02*
D03*
X036677Y033573D02*
D03*
X035693Y033199D02*
D03*
X036677Y032825D02*
D03*
X034067Y032809D02*
D03*
X035051Y033183D02*
D03*
X034067Y033557D02*
D03*
D32*
X041318Y053867D02*
D03*
Y055087D02*
D03*
X041938Y053867D02*
D03*
Y055087D02*
D03*
X046628Y055015D02*
D03*
Y053795D02*
D03*
X046008Y055015D02*
D03*
Y053795D02*
D03*
X045992Y035815D02*
D03*
Y037035D02*
D03*
X046612Y035815D02*
D03*
Y037035D02*
D03*
X041922Y037107D02*
D03*
Y035887D02*
D03*
X041302Y037107D02*
D03*
Y035887D02*
D03*
D33*
X041317Y054306D02*
D03*
Y054648D02*
D03*
X041938Y054306D02*
D03*
X041938Y054648D02*
D03*
X046628Y054576D02*
D03*
Y054235D02*
D03*
X046007Y054576D02*
D03*
X046008Y054235D02*
D03*
X045992Y036254D02*
D03*
X045991Y036596D02*
D03*
X046613Y036254D02*
D03*
Y036596D02*
D03*
X041922Y036667D02*
D03*
X041922Y036326D02*
D03*
X041301Y036667D02*
D03*
Y036326D02*
D03*
D34*
X042811Y055181D02*
D03*
Y054681D02*
D03*
Y054181D02*
D03*
Y053681D02*
D03*
X045094Y055181D02*
D03*
Y054681D02*
D03*
Y054181D02*
D03*
Y053681D02*
D03*
X045079Y035701D02*
D03*
Y036201D02*
D03*
Y036701D02*
D03*
Y037201D02*
D03*
X042795Y035701D02*
D03*
Y036201D02*
D03*
Y036701D02*
D03*
Y037201D02*
D03*
D35*
X045829Y049355D02*
D03*
Y049855D02*
D03*
Y050355D02*
D03*
Y050855D02*
D03*
Y051355D02*
D03*
Y051855D02*
D03*
Y052355D02*
D03*
Y052855D02*
D03*
X042108Y049355D02*
D03*
Y049855D02*
D03*
Y050355D02*
D03*
Y050855D02*
D03*
Y051355D02*
D03*
Y051855D02*
D03*
Y052355D02*
D03*
Y052855D02*
D03*
X042092Y034874D02*
D03*
Y034374D02*
D03*
Y033874D02*
D03*
Y033374D02*
D03*
Y032874D02*
D03*
Y032374D02*
D03*
Y031874D02*
D03*
Y031374D02*
D03*
X045813Y034874D02*
D03*
Y034374D02*
D03*
Y033874D02*
D03*
Y033374D02*
D03*
Y032874D02*
D03*
Y032374D02*
D03*
Y031874D02*
D03*
Y031374D02*
D03*
M02*
