G04*
G04 #@! TF.GenerationSoftware,Altium Limited,Altium Designer,21.2.1 (34)*
G04*
G04 Layer_Color=255*
%FSTAX24Y24*%
%MOIN*%
G70*
G04*
G04 #@! TF.SameCoordinates,4836809B-9F31-4557-A587-2B421E0CA4AD*
G04*
G04*
G04 #@! TF.FilePolarity,Positive*
G04*
G01*
G75*
%ADD62R,0.0630X0.0630*%
%ADD63C,0.0630*%
%ADD64C,0.0118*%
%ADD65R,0.0630X0.0630*%
%ADD66C,0.0157*%
%ADD67C,0.1575*%
%ADD70R,0.0984X0.0984*%
%ADD71R,0.0551X0.0787*%
%ADD72R,0.0787X0.0630*%
%ADD73R,0.0709X0.0315*%
D62*
X019437Y033317D02*
D03*
X019453Y051298D02*
D03*
X03822Y057618D02*
D03*
X03633Y057939D02*
D03*
X036425Y054581D02*
D03*
X038205Y039638D02*
D03*
X036315Y039959D02*
D03*
X036409Y036601D02*
D03*
D63*
X019437Y032317D02*
D03*
Y031317D02*
D03*
X021791Y059731D02*
D03*
X020791D02*
D03*
X019791D02*
D03*
X020791Y060731D02*
D03*
X019791D02*
D03*
X017921Y056754D02*
D03*
X016921D02*
D03*
X017913Y057896D02*
D03*
X016913D02*
D03*
X019453Y049298D02*
D03*
Y050298D02*
D03*
X03822Y055618D02*
D03*
Y056618D02*
D03*
X03633Y061939D02*
D03*
Y060939D02*
D03*
Y059939D02*
D03*
Y058939D02*
D03*
X036425Y056581D02*
D03*
Y055581D02*
D03*
X017901Y055632D02*
D03*
X016901D02*
D03*
X016783Y059239D02*
D03*
X037224Y048904D02*
D03*
X036224D02*
D03*
X035224D02*
D03*
X034224D02*
D03*
X033224D02*
D03*
X021775Y04175D02*
D03*
X020775D02*
D03*
X019775D02*
D03*
X020775Y04275D02*
D03*
X019775D02*
D03*
X017905Y038774D02*
D03*
X016905D02*
D03*
X017897Y039916D02*
D03*
X016897D02*
D03*
X038205Y037638D02*
D03*
Y038638D02*
D03*
X036315Y043959D02*
D03*
Y042959D02*
D03*
Y041959D02*
D03*
Y040959D02*
D03*
X036409Y038601D02*
D03*
Y037601D02*
D03*
X017886Y037652D02*
D03*
X016886D02*
D03*
X016767Y041258D02*
D03*
X037208Y030924D02*
D03*
X036208D02*
D03*
X035208D02*
D03*
X034208D02*
D03*
X033208D02*
D03*
D64*
X0306Y058821D02*
D03*
X029878D02*
D03*
X030962Y059183D02*
D03*
X030239D02*
D03*
X029517D02*
D03*
X0306Y059544D02*
D03*
X029878D02*
D03*
X030962Y059905D02*
D03*
X030239D02*
D03*
X029517D02*
D03*
X0306Y060266D02*
D03*
X029878D02*
D03*
X029862Y042286D02*
D03*
X030585D02*
D03*
X029501Y041925D02*
D03*
X030223D02*
D03*
X030946D02*
D03*
X029862Y041564D02*
D03*
X030585D02*
D03*
X029501Y041202D02*
D03*
X030223D02*
D03*
X030946D02*
D03*
X029862Y040841D02*
D03*
X030585D02*
D03*
D65*
X021791Y060731D02*
D03*
X015921Y056754D02*
D03*
X015913Y057896D02*
D03*
X015901Y055632D02*
D03*
X015783Y059239D02*
D03*
X038224Y048904D02*
D03*
X021775Y04275D02*
D03*
X015905Y038774D02*
D03*
X015897Y039916D02*
D03*
X015886Y037652D02*
D03*
X015768Y041258D02*
D03*
X038208Y030924D02*
D03*
D66*
X014992Y046638D02*
D03*
X014638Y04665D02*
D03*
X015972Y046638D02*
D03*
X016311Y046642D02*
D03*
X016646D02*
D03*
X016976D02*
D03*
X017311Y046634D02*
D03*
X017677Y04663D02*
D03*
D67*
X014949Y030366D02*
D03*
X04813Y044874D02*
D03*
X048425Y030181D02*
D03*
X014492Y045008D02*
D03*
X014965Y048346D02*
D03*
X014508Y062988D02*
D03*
X048441Y048161D02*
D03*
X048146Y062854D02*
D03*
D70*
X044126Y054904D02*
D03*
Y048132D02*
D03*
X04411Y030152D02*
D03*
Y036924D02*
D03*
D71*
X039882Y061035D02*
D03*
Y058791D02*
D03*
X039866Y040811D02*
D03*
Y043055D02*
D03*
D72*
X045441Y056508D02*
D03*
X045047Y061693D02*
D03*
X045031Y043713D02*
D03*
X045425Y038528D02*
D03*
D73*
X043925Y059189D02*
D03*
X043768Y058756D02*
D03*
X044004Y059622D02*
D03*
X043925Y060055D02*
D03*
X044004Y060488D02*
D03*
X043925Y060921D02*
D03*
Y061354D02*
D03*
Y058323D02*
D03*
X043909Y040343D02*
D03*
Y043374D02*
D03*
Y042941D02*
D03*
X043988Y042508D02*
D03*
X043909Y042075D02*
D03*
X043988Y041642D02*
D03*
X043752Y040776D02*
D03*
X043909Y041209D02*
D03*
M02*
